<svg xmlns="http://www.w3.org/2000/svg" xmlns:xlink="http://www.w3.org/1999/xlink" width="794" zoomAndPan="magnify" viewBox="0 0 1440 809.999993" height="1123" preserveAspectRatio="xMidYMid meet" version="1.0"><defs><g/><clipPath id="a9c0c9c77b"><path d="M 532.207031 110.730469 L 534.542969 110.730469 L 534.542969 448.824219 L 532.207031 448.824219 Z M 532.207031 110.730469 " clip-rule="nonzero"/></clipPath><clipPath id="b04e3fe00b"><path d="M 529 100 L 537 100 L 537 113.71875 L 529 113.71875 Z M 529 100 " clip-rule="nonzero"/></clipPath><clipPath id="87f7accce4"><path d="M 536.621094 113.039062 L 533.21875 100.371094 L 529.820312 113.039062 Z M 536.621094 113.039062 " clip-rule="nonzero"/></clipPath><clipPath id="0ca5e825fb"><path d="M 461.453125 378.042969 L 965.898438 378.042969 L 965.898438 380.378906 L 461.453125 380.378906 Z M 461.453125 378.042969 " clip-rule="nonzero"/></clipPath><clipPath id="2c4b3e812c"><path d="M 963 375.511719 L 977 375.511719 L 977 382.824219 L 963 382.824219 Z M 963 375.511719 " clip-rule="nonzero"/></clipPath><clipPath id="2913b167c2"><path d="M 963.585938 382.457031 L 976.253906 379.054688 L 963.585938 375.65625 Z M 963.585938 382.457031 " clip-rule="nonzero"/></clipPath><clipPath id="cbc9043268"><path d="M 762 306 L 769.839844 306 L 769.839844 314 L 762 314 Z M 762 306 " clip-rule="nonzero"/></clipPath><clipPath id="16256d3dca"><path d="M 769.621094 309.886719 C 769.621094 311.910156 767.988281 313.570312 765.9375 313.570312 C 763.886719 313.570312 762.25 311.933594 762.25 309.886719 C 762.25 307.835938 763.886719 306.199219 765.9375 306.199219 C 767.988281 306.199219 769.621094 307.835938 769.621094 309.886719 " clip-rule="nonzero"/></clipPath><clipPath id="1ac8fafaac"><path d="M 693 400 L 701 400 L 701 407.6875 L 693 407.6875 Z M 693 400 " clip-rule="nonzero"/></clipPath><clipPath id="182941bdaf"><path d="M 700.503906 403.949219 C 700.503906 405.972656 698.867188 407.632812 696.816406 407.632812 C 694.765625 407.632812 693.132812 405.996094 693.132812 403.949219 C 693.132812 401.898438 694.765625 400.261719 696.816406 400.261719 C 698.867188 400.261719 700.503906 401.898438 700.503906 403.949219 " clip-rule="nonzero"/></clipPath><clipPath id="0b0810252b"><path d="M 693 209 L 701 209 L 701 217 L 693 217 Z M 693 209 " clip-rule="nonzero"/></clipPath><clipPath id="134cac184d"><path d="M 700.503906 212.835938 C 700.503906 214.863281 698.867188 216.523438 696.816406 216.523438 C 694.765625 216.523438 693.132812 214.886719 693.132812 212.835938 C 693.132812 210.785156 694.765625 209.152344 696.816406 209.152344 C 698.867188 209.152344 700.503906 210.785156 700.503906 212.835938 " clip-rule="nonzero"/></clipPath><clipPath id="4871bb88e6"><path d="M 648 192.695312 L 883.917969 192.695312 L 883.917969 428.160156 L 648 428.160156 Z M 648 192.695312 " clip-rule="nonzero"/></clipPath><clipPath id="77c89d3d88"><path d="M 883.539062 310.402344 C 883.539062 375.394531 830.875 428.035156 765.9375 428.035156 L 765.9375 427.386719 L 765.9375 428.035156 C 700.996094 428.035156 648.332031 375.371094 648.332031 310.402344 L 648.980469 310.402344 L 648.332031 310.402344 C 648.332031 245.4375 700.996094 192.800781 765.9375 192.800781 L 765.9375 193.449219 L 765.9375 192.800781 C 830.875 192.800781 883.539062 245.464844 883.539062 310.402344 L 882.890625 310.402344 L 883.539062 310.402344 M 882.242188 310.402344 C 882.242188 246.164062 830.148438 194.097656 765.9375 194.097656 C 701.722656 194.097656 649.628906 246.164062 649.628906 310.402344 C 649.628906 374.644531 701.695312 426.734375 765.9375 426.734375 C 830.175781 426.734375 882.242188 374.667969 882.242188 310.402344 Z M 882.242188 310.402344 " clip-rule="nonzero"/></clipPath><clipPath id="b9a78e1453"><path d="M 696 211.707031 L 765.453125 211.707031 L 765.453125 309.699219 L 696 309.699219 Z M 696 211.707031 " clip-rule="nonzero"/></clipPath><clipPath id="bc37e4e183"><path d="M 697.074219 211.953125 L 765.027344 308.769531 L 763.964844 309.519531 L 696.011719 212.707031 Z M 697.074219 211.953125 " clip-rule="nonzero"/></clipPath><clipPath id="23154c79ae"><path d="M 461 106.40625 L 835.652344 106.40625 L 835.652344 397 L 461 397 Z M 461 106.40625 " clip-rule="nonzero"/></clipPath><clipPath id="fc2dc4b8c8"><path d="M 461.0625 395.175781 L 834.71875 106.421875 L 835.523438 107.457031 L 461.867188 396.210938 Z M 461.0625 395.175781 " clip-rule="nonzero"/></clipPath><clipPath id="2a271f00de"><path d="M 529 337 L 537.300781 337 L 537.300781 345 L 529 345 Z M 529 337 " clip-rule="nonzero"/></clipPath><clipPath id="f3a5d5bfb5"><path d="M 537.085938 341.160156 C 537.085938 343.1875 535.453125 344.847656 533.402344 344.847656 C 531.351562 344.847656 529.714844 343.210938 529.714844 341.160156 C 529.714844 339.109375 531.351562 337.476562 533.402344 337.476562 C 535.453125 337.476562 537.085938 339.109375 537.085938 341.160156 " clip-rule="nonzero"/></clipPath><clipPath id="19d482f33e"><path d="M 696.039062 212.8125 L 697.335938 212.8125 L 697.335938 215.40625 L 696.039062 215.40625 Z M 696.039062 212.8125 " clip-rule="nonzero"/></clipPath><clipPath id="da0e7d45ef"><path d="M 696 219.019531 L 698 219.019531 L 698 400 L 696 400 Z M 696 219.019531 " clip-rule="nonzero"/></clipPath><clipPath id="fbe3ec61c8"><path d="M 697.335938 228.515625 L 697.335938 233.757812 L 696.039062 233.757812 L 696.039062 228.515625 Z M 697.335938 237.703125 L 697.335938 242.945312 L 696.039062 242.945312 L 696.039062 237.675781 Z M 697.335938 246.890625 L 697.335938 252.132812 L 696.039062 252.132812 L 696.039062 246.863281 Z M 697.335938 256.078125 L 697.335938 261.296875 L 696.039062 261.296875 L 696.039062 256.054688 Z M 697.335938 265.265625 L 697.335938 270.511719 L 696.039062 270.511719 L 696.039062 265.214844 Z M 697.335938 274.457031 L 697.335938 279.699219 L 696.039062 279.699219 L 696.039062 274.402344 Z M 697.335938 283.644531 L 697.335938 288.808594 L 696.039062 288.808594 L 696.039062 283.566406 Z M 697.335938 292.832031 L 697.335938 298.074219 L 696.039062 298.074219 L 696.039062 292.753906 Z M 697.335938 302.019531 L 697.335938 307.261719 L 696.039062 307.261719 L 696.039062 301.941406 Z M 697.335938 311.207031 L 697.335938 316.453125 L 696.039062 316.453125 L 696.039062 311.105469 Z M 697.335938 320.398438 L 697.335938 325.640625 L 696.039062 325.640625 L 696.039062 320.292969 Z M 697.335938 329.585938 L 697.335938 334.828125 L 696.039062 334.828125 L 696.039062 329.457031 Z M 697.335938 338.773438 L 697.335938 344.015625 L 696.039062 344.015625 L 696.039062 338.644531 Z M 697.335938 347.960938 L 697.335938 353.203125 L 696.039062 353.203125 L 696.039062 347.960938 Z M 697.335938 357.148438 L 697.335938 362.394531 L 696.039062 362.394531 L 696.039062 357.148438 Z M 697.335938 366.339844 L 697.335938 371.582031 L 696.039062 371.582031 L 696.039062 366.339844 Z M 697.335938 375.527344 L 697.335938 380.769531 L 696.039062 380.769531 L 696.039062 375.527344 Z M 697.335938 384.714844 L 697.335938 389.957031 L 696.039062 389.957031 L 696.039062 384.714844 Z M 697.335938 393.902344 L 697.335938 399.144531 L 696.039062 399.144531 L 696.039062 393.902344 Z M 697.335938 219.535156 L 697.335938 224.777344 L 696.039062 224.777344 L 696.039062 219.328125 Z M 697.335938 219.535156 " clip-rule="nonzero"/></clipPath><clipPath id="64577c9300"><path d="M 696.039062 402.882812 L 697.335938 402.882812 L 697.335938 405.480469 L 696.039062 405.480469 Z M 696.039062 402.882812 " clip-rule="nonzero"/></clipPath></defs><g clip-path="url(#a9c0c9c77b)"><path fill="#231f20" d="M 448.085938 87.394531 L 989.21875 87.394531 L 989.21875 461.800781 L 448.085938 461.800781 Z M 448.085938 87.394531 " fill-opacity="1" fill-rule="nonzero"/></g><g clip-path="url(#b04e3fe00b)"><g clip-path="url(#87f7accce4)"><path fill="#231f20" d="M 448.085938 87.394531 L 989.21875 87.394531 L 989.21875 461.800781 L 448.085938 461.800781 Z M 448.085938 87.394531 " fill-opacity="1" fill-rule="nonzero"/></g></g><g clip-path="url(#0ca5e825fb)"><path fill="#231f20" d="M 448.085938 87.394531 L 989.21875 87.394531 L 989.21875 461.800781 L 448.085938 461.800781 Z M 448.085938 87.394531 " fill-opacity="1" fill-rule="nonzero"/></g><g clip-path="url(#2c4b3e812c)"><g clip-path="url(#2913b167c2)"><path fill="#231f20" d="M 448.085938 87.394531 L 989.21875 87.394531 L 989.21875 461.800781 L 448.085938 461.800781 Z M 448.085938 87.394531 " fill-opacity="1" fill-rule="nonzero"/></g></g><g clip-path="url(#cbc9043268)"><g clip-path="url(#16256d3dca)"><path fill="#231f20" d="M 448.085938 87.394531 L 989.21875 87.394531 L 989.21875 461.800781 L 448.085938 461.800781 Z M 448.085938 87.394531 " fill-opacity="1" fill-rule="nonzero"/></g></g><g clip-path="url(#1ac8fafaac)"><g clip-path="url(#182941bdaf)"><path fill="#231f20" d="M 448.085938 87.394531 L 989.21875 87.394531 L 989.21875 461.800781 L 448.085938 461.800781 Z M 448.085938 87.394531 " fill-opacity="1" fill-rule="nonzero"/></g></g><g clip-path="url(#0b0810252b)"><g clip-path="url(#134cac184d)"><path fill="#231f20" d="M 448.085938 87.394531 L 989.21875 87.394531 L 989.21875 461.800781 L 448.085938 461.800781 Z M 448.085938 87.394531 " fill-opacity="1" fill-rule="nonzero"/></g></g><g clip-path="url(#4871bb88e6)"><g clip-path="url(#77c89d3d88)"><path fill="#231f20" d="M 448.085938 87.394531 L 989.21875 87.394531 L 989.21875 461.800781 L 448.085938 461.800781 Z M 448.085938 87.394531 " fill-opacity="1" fill-rule="nonzero"/></g></g><g clip-path="url(#b9a78e1453)"><g clip-path="url(#bc37e4e183)"><path fill="#231f20" d="M 448.085938 87.394531 L 989.21875 87.394531 L 989.21875 461.800781 L 448.085938 461.800781 Z M 448.085938 87.394531 " fill-opacity="1" fill-rule="nonzero"/></g></g><g clip-path="url(#23154c79ae)"><g clip-path="url(#fc2dc4b8c8)"><path fill="#231f20" d="M 448.085938 87.394531 L 989.21875 87.394531 L 989.21875 461.800781 L 448.085938 461.800781 Z M 448.085938 87.394531 " fill-opacity="1" fill-rule="nonzero"/></g></g><g clip-path="url(#2a271f00de)"><g clip-path="url(#f3a5d5bfb5)"><path fill="#231f20" d="M 448.085938 87.394531 L 989.21875 87.394531 L 989.21875 461.800781 L 448.085938 461.800781 Z M 448.085938 87.394531 " fill-opacity="1" fill-rule="nonzero"/></g></g><g clip-path="url(#19d482f33e)"><path fill="#231f20" d="M 448.085938 87.394531 L 989.21875 87.394531 L 989.21875 461.800781 L 448.085938 461.800781 Z M 448.085938 87.394531 " fill-opacity="1" fill-rule="nonzero"/></g><g clip-path="url(#da0e7d45ef)"><g clip-path="url(#fbe3ec61c8)"><path fill="#231f20" d="M 448.085938 87.394531 L 989.21875 87.394531 L 989.21875 461.800781 L 448.085938 461.800781 Z M 448.085938 87.394531 " fill-opacity="1" fill-rule="nonzero"/></g></g><g clip-path="url(#64577c9300)"><path fill="#231f20" d="M 448.085938 87.394531 L 989.21875 87.394531 L 989.21875 461.800781 L 448.085938 461.800781 Z M 448.085938 87.394531 " fill-opacity="1" fill-rule="nonzero"/></g><g fill="#231f20" fill-opacity="1"><g transform="translate(508.167221, 339.927704)"><g><path d="M 14.15625 0 L 2.765625 0 L 2.765625 -20.375 L 14.15625 -20.375 L 14.15625 -18.125 L 5.328125 -18.125 L 5.328125 -11.75 L 13.640625 -11.75 L 13.640625 -9.53125 L 5.328125 -9.53125 L 5.328125 -2.25 L 14.15625 -2.25 Z M 14.15625 0 "/></g></g></g><g fill="#231f20" fill-opacity="1"><g transform="translate(516.162172, 112.719435)"><g><path d="M 0.03125 -15.296875 L 2.703125 -15.296875 L 6.015625 -6.59375 C 6.304688 -5.8125 6.566406 -5.078125 6.796875 -4.390625 C 7.023438 -3.703125 7.191406 -3.046875 7.296875 -2.421875 L 7.421875 -2.421875 C 7.535156 -2.898438 7.710938 -3.523438 7.953125 -4.296875 C 8.203125 -5.066406 8.460938 -5.84375 8.734375 -6.625 L 11.84375 -15.296875 L 14.546875 -15.296875 L 7.953125 2.109375 C 7.410156 3.554688 6.71875 4.707031 5.875 5.5625 C 5.039062 6.414062 3.878906 6.84375 2.390625 6.84375 C 1.941406 6.84375 1.546875 6.816406 1.203125 6.765625 C 0.859375 6.722656 0.5625 6.675781 0.3125 6.625 L 0.3125 4.625 C 0.519531 4.65625 0.769531 4.691406 1.0625 4.734375 C 1.363281 4.773438 1.675781 4.796875 2 4.796875 C 2.875 4.796875 3.578125 4.546875 4.109375 4.046875 C 4.640625 3.554688 5.066406 2.898438 5.390625 2.078125 L 6.1875 0.0625 Z M 0.03125 -15.296875 "/></g></g></g><g fill="#231f20" fill-opacity="1"><g transform="translate(682.681316, 206.677087)"><g><path d="M 15.546875 0 L 13.09375 -6.3125 L 5.015625 -6.3125 L 2.59375 0 L 0 0 L 7.953125 -20.453125 L 10.265625 -20.453125 L 18.203125 0 Z M 12.328125 -8.59375 L 10.046875 -14.75 C 9.984375 -14.90625 9.882812 -15.179688 9.75 -15.578125 C 9.625 -15.972656 9.5 -16.382812 9.375 -16.8125 C 9.25 -17.25 9.148438 -17.578125 9.078125 -17.796875 C 8.921875 -17.210938 8.757812 -16.640625 8.59375 -16.078125 C 8.4375 -15.515625 8.300781 -15.070312 8.1875 -14.75 L 5.875 -8.59375 Z M 12.328125 -8.59375 "/></g></g></g><g fill="#231f20" fill-opacity="1"><g transform="translate(754.189888, 335.923643)"><g><path d="M 11.75 0 L 5.046875 -17.859375 L 4.9375 -17.859375 C 4.988281 -17.265625 5.035156 -16.46875 5.078125 -15.46875 C 5.117188 -14.476562 5.140625 -13.441406 5.140625 -12.359375 L 5.140625 0 L 2.765625 0 L 2.765625 -20.375 L 6.5625 -20.375 L 12.84375 -3.6875 L 12.953125 -3.6875 L 19.34375 -20.375 L 23.109375 -20.375 L 23.109375 0 L 20.578125 0 L 20.578125 -12.53125 C 20.578125 -13.519531 20.597656 -14.5 20.640625 -15.46875 C 20.691406 -16.4375 20.734375 -17.222656 20.765625 -17.828125 L 20.65625 -17.828125 L 13.859375 0 Z M 11.75 0 "/></g></g></g><g fill="#231f20" fill-opacity="1"><g transform="translate(963.679518, 398.2245)"><g><path d="M 6.046875 -7.8125 L 0.765625 -15.296875 L 3.625 -15.296875 L 7.5625 -9.53125 L 11.46875 -15.296875 L 14.296875 -15.296875 L 9.015625 -7.8125 L 14.578125 0 L 11.71875 0 L 7.5625 -6.109375 L 3.34375 0 L 0.515625 0 Z M 6.046875 -7.8125 "/></g></g></g><g fill="#231f20" fill-opacity="1"><g transform="translate(681.244724, 432.689343)"><g><path d="M 20.828125 -11.328125 C 20.828125 -7.578125 19.804688 -4.75 17.765625 -2.84375 C 15.722656 -0.945312 12.875 0 9.21875 0 L 3.015625 0 L 3.015625 -22.234375 L 9.875 -22.234375 C 12.09375 -22.234375 14.023438 -21.816406 15.671875 -20.984375 C 17.328125 -20.160156 18.597656 -18.9375 19.484375 -17.3125 C 20.378906 -15.695312 20.828125 -13.703125 20.828125 -11.328125 Z M 17.875 -11.234375 C 17.875 -14.203125 17.140625 -16.378906 15.671875 -17.765625 C 14.210938 -19.148438 12.144531 -19.84375 9.46875 -19.84375 L 5.828125 -19.84375 L 5.828125 -2.390625 L 8.84375 -2.390625 C 14.863281 -2.390625 17.875 -5.335938 17.875 -11.234375 Z M 17.875 -11.234375 "/></g></g></g></svg>