<svg xmlns="http://www.w3.org/2000/svg" xmlns:xlink="http://www.w3.org/1999/xlink" width="794" zoomAndPan="magnify" viewBox="0 0 1440 809.999993" height="1123" preserveAspectRatio="xMidYMid meet" version="1.0"><defs><g/><clipPath id="9611f8b3b1"><path d="M 475 107.34375 L 966.652344 107.34375 L 966.652344 353 L 475 353 Z M 475 107.34375 " clip-rule="nonzero"/></clipPath><clipPath id="a0d93a05cf"><path d="M 965.519531 261.675781 L 874.085938 107.875 L 566.484375 107.875 L 475.050781 261.675781 L 475.050781 352.238281 L 966.355469 352.238281 L 966.355469 261.675781 Z M 965.519531 261.675781 " clip-rule="nonzero"/></clipPath><clipPath id="8d9b0d8aca"><path d="M 873 107 L 967 107 L 967 264.773438 L 873 264.773438 Z M 873 107 " clip-rule="nonzero"/></clipPath><clipPath id="da61989e81"><path d="M 874.375 107.066406 L 966.992188 263.734375 L 965.75 264.457031 L 873.132812 107.789062 Z M 874.375 107.066406 " clip-rule="nonzero"/></clipPath><clipPath id="20f7f3b9bc"><path d="M 474 107 L 568 107 L 568 263.695312 L 474 263.695312 Z M 474 107 " clip-rule="nonzero"/></clipPath><clipPath id="2955a264cd"><path d="M 567.699219 107.816406 L 475.832031 263.183594 L 474.589844 262.460938 L 566.453125 107.066406 Z M 567.699219 107.816406 " clip-rule="nonzero"/></clipPath><clipPath id="7b87e223c7"><path d="M 474.328125 106.71875 L 967.082031 106.71875 L 967.082031 108.164062 L 474.328125 108.164062 Z M 965.632812 108.164062 L 967.082031 108.164062 L 967.082031 352.355469 L 965.632812 352.355469 Z M 474.328125 108.164062 L 475.777344 108.164062 L 475.777344 352.355469 L 474.328125 352.355469 Z M 474.328125 352.355469 L 967.082031 352.355469 L 967.082031 353.804688 L 474.328125 353.804688 Z M 474.328125 353.804688 L 966.355469 353.804688 L 966.355469 353.832031 L 474.328125 353.832031 Z M 474.328125 353.804688 " clip-rule="nonzero"/></clipPath></defs><g clip-path="url(#9611f8b3b1)"><g clip-path="url(#a0d93a05cf)"><path fill="#bcbec0" d="M 459.855469 92.246094 L 981.75 92.246094 L 981.75 368.289062 L 459.855469 368.289062 Z M 459.855469 92.246094 " fill-opacity="1" fill-rule="nonzero"/></g></g><g clip-path="url(#8d9b0d8aca)"><g clip-path="url(#da61989e81)"><path fill="#231f20" d="M 459.855469 92.246094 L 981.75 92.246094 L 981.75 368.289062 L 459.855469 368.289062 Z M 459.855469 92.246094 " fill-opacity="1" fill-rule="nonzero"/></g></g><g clip-path="url(#20f7f3b9bc)"><g clip-path="url(#2955a264cd)"><path fill="#231f20" d="M 459.855469 92.246094 L 981.75 92.246094 L 981.75 368.289062 L 459.855469 368.289062 Z M 459.855469 92.246094 " fill-opacity="1" fill-rule="nonzero"/></g></g><g clip-path="url(#7b87e223c7)"><path fill="#231f20" d="M 459.855469 92.246094 L 981.75 92.246094 L 981.75 368.289062 L 459.855469 368.289062 Z M 459.855469 92.246094 " fill-opacity="1" fill-rule="nonzero"/></g><g fill="#231f20" fill-opacity="1"><g transform="translate(447.28424, 111.835223)"><g><path d="M 17.34375 0 L 14.609375 -7.03125 L 5.609375 -7.03125 L 2.890625 0 L 0 0 L 8.875 -22.828125 L 11.453125 -22.828125 L 20.3125 0 Z M 13.75 -9.578125 L 11.203125 -16.453125 C 11.140625 -16.617188 11.03125 -16.925781 10.875 -17.375 C 10.726562 -17.820312 10.585938 -18.285156 10.453125 -18.765625 C 10.316406 -19.242188 10.207031 -19.609375 10.125 -19.859375 C 9.945312 -19.203125 9.769531 -18.5625 9.59375 -17.9375 C 9.414062 -17.3125 9.265625 -16.816406 9.140625 -16.453125 L 6.5625 -9.578125 Z M 13.75 -9.578125 "/></g></g></g><g fill="#231f20" fill-opacity="1"><g transform="translate(451.279476, 268.090801)"><g><path d="M 15.78125 0 L 3.09375 0 L 3.09375 -22.71875 L 15.78125 -22.71875 L 15.78125 -20.203125 L 5.953125 -20.203125 L 5.953125 -13.109375 L 15.21875 -13.109375 L 15.21875 -10.625 L 5.953125 -10.625 L 5.953125 -2.515625 L 15.78125 -2.515625 Z M 15.78125 0 "/></g></g></g><g fill="#231f20" fill-opacity="1"><g transform="translate(451.720403, 311.50517)"><g><path d="M 6.75 -8.71875 L 0.859375 -17.0625 L 4.046875 -17.0625 L 8.4375 -10.625 L 12.796875 -17.0625 L 15.953125 -17.0625 L 10.0625 -8.71875 L 16.265625 0 L 13.078125 0 L 8.4375 -6.8125 L 3.71875 0 L 0.578125 0 Z M 6.75 -8.71875 "/></g></g></g><g fill="#231f20" fill-opacity="1"><g transform="translate(448.53216, 367.943849)"><g><path d="M 21.296875 -11.578125 C 21.296875 -7.742188 20.25 -4.851562 18.15625 -2.90625 C 16.0625 -0.96875 13.148438 0 9.421875 0 L 3.09375 0 L 3.09375 -22.71875 L 10.09375 -22.71875 C 12.363281 -22.71875 14.34375 -22.289062 16.03125 -21.4375 C 17.71875 -20.59375 19.015625 -19.34375 19.921875 -17.6875 C 20.835938 -16.039062 21.296875 -14.003906 21.296875 -11.578125 Z M 18.265625 -11.484375 C 18.265625 -14.523438 17.515625 -16.75 16.015625 -18.15625 C 14.523438 -19.570312 12.410156 -20.28125 9.671875 -20.28125 L 5.953125 -20.28125 L 5.953125 -2.453125 L 9.046875 -2.453125 C 15.191406 -2.453125 18.265625 -5.460938 18.265625 -11.484375 Z M 18.265625 -11.484375 "/></g></g></g><g fill="#231f20" fill-opacity="1"><g transform="translate(502.552901, 102.442411)"><g><path d="M 6.75 -8.71875 L 0.859375 -17.0625 L 4.046875 -17.0625 L 8.4375 -10.625 L 12.796875 -17.0625 L 15.953125 -17.0625 L 10.0625 -8.71875 L 16.265625 0 L 13.078125 0 L 8.4375 -6.8125 L 3.71875 0 L 0.578125 0 Z M 6.75 -8.71875 "/></g></g></g><g fill="#231f20" fill-opacity="1"><g transform="translate(565.399538, 102.442411)"><g><path d="M 5.953125 0 L 3.09375 0 L 3.09375 -22.71875 L 15.78125 -22.71875 L 15.78125 -20.203125 L 5.953125 -20.203125 L 5.953125 -12.15625 L 15.1875 -12.15625 L 15.1875 -9.640625 L 5.953125 -9.640625 Z M 5.953125 0 "/></g></g></g><g fill="#231f20" fill-opacity="1"><g transform="translate(860.148371, 102.442411)"><g><path d="M 12.953125 -12 L 20.8125 -12 L 20.8125 -0.859375 C 19.582031 -0.453125 18.34375 -0.15625 17.09375 0.03125 C 15.84375 0.21875 14.421875 0.3125 12.828125 0.3125 C 10.472656 0.3125 8.488281 -0.15625 6.875 -1.09375 C 5.257812 -2.039062 4.03125 -3.390625 3.1875 -5.140625 C 2.351562 -6.890625 1.9375 -8.960938 1.9375 -11.359375 C 1.9375 -13.710938 2.394531 -15.765625 3.3125 -17.515625 C 4.238281 -19.265625 5.582031 -20.625 7.34375 -21.59375 C 9.113281 -22.5625 11.238281 -23.046875 13.71875 -23.046875 C 14.988281 -23.046875 16.191406 -22.925781 17.328125 -22.6875 C 18.460938 -22.457031 19.519531 -22.128906 20.5 -21.703125 L 19.421875 -19.21875 C 18.609375 -19.5625 17.695312 -19.863281 16.6875 -20.125 C 15.6875 -20.394531 14.644531 -20.53125 13.5625 -20.53125 C 10.84375 -20.53125 8.722656 -19.707031 7.203125 -18.0625 C 5.691406 -16.414062 4.9375 -14.179688 4.9375 -11.359375 C 4.9375 -9.554688 5.226562 -7.957031 5.8125 -6.5625 C 6.394531 -5.175781 7.3125 -4.097656 8.5625 -3.328125 C 9.8125 -2.554688 11.457031 -2.171875 13.5 -2.171875 C 14.488281 -2.171875 15.332031 -2.222656 16.03125 -2.328125 C 16.738281 -2.429688 17.378906 -2.554688 17.953125 -2.703125 L 17.953125 -9.453125 L 12.953125 -9.453125 Z M 12.953125 -12 "/></g></g></g><g fill="#231f20" fill-opacity="1"><g transform="translate(912.807848, 102.442411)"><g><path d="M 6.75 -8.71875 L 0.859375 -17.0625 L 4.046875 -17.0625 L 8.4375 -10.625 L 12.796875 -17.0625 L 15.953125 -17.0625 L 10.0625 -8.71875 L 16.265625 0 L 13.078125 0 L 8.4375 -6.8125 L 3.71875 0 L 0.578125 0 Z M 6.75 -8.71875 "/></g></g></g><g fill="#231f20" fill-opacity="1"><g transform="translate(972.598133, 111.835223)"><g><path d="M 3.09375 -22.71875 L 9.578125 -22.71875 C 12.398438 -22.71875 14.539062 -22.289062 16 -21.4375 C 17.46875 -20.59375 18.203125 -19.144531 18.203125 -17.09375 C 18.203125 -15.757812 17.832031 -14.648438 17.09375 -13.765625 C 16.351562 -12.878906 15.28125 -12.3125 13.875 -12.0625 L 13.875 -11.90625 C 14.832031 -11.738281 15.695312 -11.453125 16.46875 -11.046875 C 17.238281 -10.640625 17.847656 -10.066406 18.296875 -9.328125 C 18.742188 -8.585938 18.96875 -7.632812 18.96875 -6.46875 C 18.96875 -4.40625 18.257812 -2.8125 16.84375 -1.6875 C 15.4375 -0.5625 13.515625 0 11.078125 0 L 3.09375 0 Z M 5.953125 -13.046875 L 10.15625 -13.046875 C 12.082031 -13.046875 13.410156 -13.359375 14.140625 -13.984375 C 14.878906 -14.609375 15.25 -15.539062 15.25 -16.78125 C 15.25 -18.03125 14.804688 -18.925781 13.921875 -19.46875 C 13.046875 -20.007812 11.640625 -20.28125 9.703125 -20.28125 L 5.953125 -20.28125 Z M 5.953125 -10.65625 L 5.953125 -2.421875 L 10.53125 -2.421875 C 12.550781 -2.421875 13.953125 -2.8125 14.734375 -3.59375 C 15.523438 -4.382812 15.921875 -5.414062 15.921875 -6.6875 C 15.921875 -7.875 15.507812 -8.832031 14.6875 -9.5625 C 13.875 -10.289062 12.414062 -10.65625 10.3125 -10.65625 Z M 5.953125 -10.65625 "/></g></g></g><g fill="#231f20" fill-opacity="1"><g transform="translate(970.114829, 268.090801)"><g><path d="M 10.28125 0 L 7.421875 0 L 7.421875 -20.203125 L 0.3125 -20.203125 L 0.3125 -22.71875 L 17.34375 -22.71875 L 17.34375 -20.203125 L 10.28125 -20.203125 Z M 10.28125 0 "/></g></g></g><g fill="#231f20" fill-opacity="1"><g transform="translate(970.114829, 311.50517)"><g><path d="M 6.75 -8.71875 L 0.859375 -17.0625 L 4.046875 -17.0625 L 8.4375 -10.625 L 12.796875 -17.0625 L 15.953125 -17.0625 L 10.0625 -8.71875 L 16.265625 0 L 13.078125 0 L 8.4375 -6.8125 L 3.71875 0 L 0.578125 0 Z M 6.75 -8.71875 "/></g></g></g><g fill="#231f20" fill-opacity="1"><g transform="translate(970.114829, 367.943849)"><g><path d="M 12.828125 -20.53125 C 10.390625 -20.53125 8.46875 -19.710938 7.0625 -18.078125 C 5.664062 -16.441406 4.96875 -14.203125 4.96875 -11.359375 C 4.96875 -8.535156 5.617188 -6.300781 6.921875 -4.65625 C 8.222656 -3.019531 10.179688 -2.203125 12.796875 -2.203125 C 13.773438 -2.203125 14.707031 -2.285156 15.59375 -2.453125 C 16.488281 -2.617188 17.367188 -2.832031 18.234375 -3.09375 L 18.234375 -0.609375 C 17.390625 -0.285156 16.515625 -0.0507812 15.609375 0.09375 C 14.710938 0.238281 13.632812 0.3125 12.375 0.3125 C 10.0625 0.3125 8.128906 -0.160156 6.578125 -1.109375 C 5.035156 -2.066406 3.875 -3.425781 3.09375 -5.1875 C 2.320312 -6.945312 1.9375 -9.015625 1.9375 -11.390625 C 1.9375 -13.679688 2.351562 -15.703125 3.1875 -17.453125 C 4.03125 -19.203125 5.269531 -20.570312 6.90625 -21.5625 C 8.539062 -22.550781 10.523438 -23.046875 12.859375 -23.046875 C 15.253906 -23.046875 17.34375 -22.597656 19.125 -21.703125 L 17.984375 -19.28125 C 17.285156 -19.601562 16.503906 -19.890625 15.640625 -20.140625 C 14.785156 -20.398438 13.847656 -20.53125 12.828125 -20.53125 Z M 12.828125 -20.53125 "/></g></g></g></svg>