<svg xmlns="http://www.w3.org/2000/svg" xmlns:xlink="http://www.w3.org/1999/xlink" width="794" zoomAndPan="magnify" viewBox="0 0 1440 809.999993" height="1123" preserveAspectRatio="xMidYMid meet" version="1.0"><defs><g/><clipPath id="ef68efac6c"><path d="M 531.246094 110.191406 L 532.691406 110.191406 L 532.691406 502.34375 L 531.246094 502.34375 Z M 531.246094 110.191406 " clip-rule="nonzero"/></clipPath><clipPath id="bd4a9136ed"><path d="M 527 97 L 536 97 L 536 113.441406 L 527 113.441406 Z M 527 97 " clip-rule="nonzero"/></clipPath><clipPath id="f194c94e00"><path d="M 535.988281 113.054688 L 531.796875 97.386719 L 527.605469 113.054688 Z M 535.988281 113.054688 " clip-rule="nonzero"/></clipPath><clipPath id="3d46badde7"><path d="M 464.679688 436.003906 L 945.539062 436.003906 L 945.539062 437.449219 L 464.679688 437.449219 Z M 464.679688 436.003906 " clip-rule="nonzero"/></clipPath><clipPath id="c2b2e6224d"><path d="M 942 432.0625 L 958.664062 432.0625 L 958.664062 441 L 942 441 Z M 942 432.0625 " clip-rule="nonzero"/></clipPath><clipPath id="79249535af"><path d="M 942.675781 440.746094 L 958.34375 436.554688 L 942.675781 432.363281 Z M 942.675781 440.746094 " clip-rule="nonzero"/></clipPath><clipPath id="0618ffa715"><path d="M 597 292 L 606 292 L 606 301 L 597 301 Z M 597 292 " clip-rule="nonzero"/></clipPath><clipPath id="cc219fdcab"><path d="M 605.589844 296.484375 C 605.589844 298.738281 603.769531 300.585938 601.484375 300.585938 C 599.203125 300.585938 597.378906 298.738281 597.378906 296.484375 C 597.378906 294.226562 599.203125 292.378906 601.484375 292.378906 C 603.769531 292.378906 605.589844 294.199219 605.589844 296.484375 " clip-rule="nonzero"/></clipPath><clipPath id="8cdd9b8336"><path d="M 667 153 L 675.632812 153 L 675.632812 162 L 667 162 Z M 667 153 " clip-rule="nonzero"/></clipPath><clipPath id="39bc3087c1"><path d="M 675.335938 157.710938 C 675.335938 159.964844 673.515625 161.816406 671.230469 161.816406 C 668.949219 161.816406 667.128906 159.964844 667.128906 157.710938 C 667.128906 155.457031 668.949219 153.605469 671.230469 153.605469 C 673.515625 153.605469 675.335938 155.457031 675.335938 157.710938 " clip-rule="nonzero"/></clipPath><clipPath id="d15a2946c9"><path d="M 527 258 L 536.660156 258 L 536.660156 267 L 527 267 Z M 527 258 " clip-rule="nonzero"/></clipPath><clipPath id="0fe298f0a9"><path d="M 536.074219 262.433594 C 536.074219 264.6875 534.253906 266.539062 531.96875 266.539062 C 529.6875 266.539062 527.863281 264.6875 527.863281 262.433594 C 527.863281 260.179688 529.6875 258.328125 531.96875 258.328125 C 534.253906 258.328125 536.074219 260.148438 536.074219 262.433594 " clip-rule="nonzero"/></clipPath><clipPath id="aee7f10c93"><path d="M 527 432.0625 L 536.660156 432.0625 L 536.660156 441 L 527 441 Z M 527 432.0625 " clip-rule="nonzero"/></clipPath><clipPath id="f75440c88b"><path d="M 536.074219 436.726562 C 536.074219 438.984375 534.222656 440.832031 531.96875 440.832031 C 529.714844 440.832031 527.863281 439.011719 527.863281 436.726562 C 527.863281 434.445312 529.6875 432.625 531.96875 432.625 C 534.253906 432.625 536.074219 434.472656 536.074219 436.726562 " clip-rule="nonzero"/></clipPath><clipPath id="f218852a20"><path d="M 876 432.0625 L 885 432.0625 L 885 441 L 876 441 Z M 876 432.0625 " clip-rule="nonzero"/></clipPath><clipPath id="0b13df6852"><path d="M 884.546875 436.726562 C 884.546875 438.984375 882.699219 440.832031 880.445312 440.832031 C 878.1875 440.832031 876.367188 439.011719 876.367188 436.726562 C 876.367188 434.445312 878.1875 432.625 880.445312 432.625 C 882.699219 432.625 884.546875 434.472656 884.546875 436.726562 " clip-rule="nonzero"/></clipPath><clipPath id="6720a9eea1"><path d="M 531 157 L 672 157 L 672 264 L 531 264 Z M 531 157 " clip-rule="nonzero"/></clipPath><clipPath id="e2e5e11541"><path d="M 531.535156 261.855469 L 670.828125 157.132812 L 671.695312 158.289062 L 532.402344 263.011719 Z M 531.535156 261.855469 " clip-rule="nonzero"/></clipPath><clipPath id="1f8b58533a"><path d="M 531 157 L 672 157 L 672 437.148438 L 531 437.148438 Z M 531 157 " clip-rule="nonzero"/></clipPath><clipPath id="08885d1973"><path d="M 531.304688 436.382812 L 670.597656 157.394531 L 671.898438 158.03125 L 532.605469 437.046875 Z M 531.304688 436.382812 " clip-rule="nonzero"/></clipPath><clipPath id="0e8a2fbbb3"><path d="M 670.550781 157 L 882 157 L 882 438 L 670.550781 438 Z M 670.550781 157 " clip-rule="nonzero"/></clipPath><clipPath id="b89ecf493c"><path d="M 879.867188 437.160156 L 670.683594 158.144531 L 671.839844 157.277344 L 881.050781 436.292969 Z M 879.867188 437.160156 " clip-rule="nonzero"/></clipPath><clipPath id="4a85eff72f"><path d="M 531.578125 261 L 881 261 L 881 438 L 531.578125 438 Z M 531.578125 261 " clip-rule="nonzero"/></clipPath><clipPath id="eef0a17c29"><path d="M 532.289062 261.769531 L 880.789062 436.0625 L 880.15625 437.363281 L 531.652344 263.070312 Z M 532.289062 261.769531 " clip-rule="nonzero"/></clipPath><clipPath id="e91ac64353"><path d="M 614 308.34375 L 627 308.34375 L 627 333 L 614 333 Z M 614 308.34375 " clip-rule="nonzero"/></clipPath><clipPath id="56c1b91ac6"><path d="M 614.117188 331.746094 L 625.503906 308.96875 L 626.804688 309.605469 L 615.417969 332.382812 Z M 614.117188 331.746094 " clip-rule="nonzero"/></clipPath><clipPath id="1b36f8a126"><path d="M 589.199219 319 L 616 319 L 616 333 L 589.199219 333 Z M 589.199219 319 " clip-rule="nonzero"/></clipPath><clipPath id="999d25fb6c"><path d="M 590.5 319.117188 L 615.097656 331.429688 L 614.464844 332.730469 L 589.867188 320.414062 Z M 590.5 319.117188 " clip-rule="nonzero"/></clipPath></defs><g clip-path="url(#ef68efac6c)"><path fill="#231f20" d="M 450.226562 82.933594 L 972.222656 82.933594 L 972.222656 516.804688 L 450.226562 516.804688 Z M 450.226562 82.933594 " fill-opacity="1" fill-rule="nonzero"/></g><g clip-path="url(#bd4a9136ed)"><g clip-path="url(#f194c94e00)"><path fill="#231f20" d="M 450.226562 82.933594 L 972.222656 82.933594 L 972.222656 516.804688 L 450.226562 516.804688 Z M 450.226562 82.933594 " fill-opacity="1" fill-rule="nonzero"/></g></g><g clip-path="url(#3d46badde7)"><path fill="#231f20" d="M 450.226562 82.933594 L 972.222656 82.933594 L 972.222656 516.804688 L 450.226562 516.804688 Z M 450.226562 82.933594 " fill-opacity="1" fill-rule="nonzero"/></g><g clip-path="url(#c2b2e6224d)"><g clip-path="url(#79249535af)"><path fill="#231f20" d="M 450.226562 82.933594 L 972.222656 82.933594 L 972.222656 516.804688 L 450.226562 516.804688 Z M 450.226562 82.933594 " fill-opacity="1" fill-rule="nonzero"/></g></g><g clip-path="url(#0618ffa715)"><g clip-path="url(#cc219fdcab)"><path fill="#231f20" d="M 450.226562 82.933594 L 972.222656 82.933594 L 972.222656 516.804688 L 450.226562 516.804688 Z M 450.226562 82.933594 " fill-opacity="1" fill-rule="nonzero"/></g></g><g clip-path="url(#8cdd9b8336)"><g clip-path="url(#39bc3087c1)"><path fill="#231f20" d="M 450.226562 82.933594 L 972.222656 82.933594 L 972.222656 516.804688 L 450.226562 516.804688 Z M 450.226562 82.933594 " fill-opacity="1" fill-rule="nonzero"/></g></g><g clip-path="url(#d15a2946c9)"><g clip-path="url(#0fe298f0a9)"><path fill="#231f20" d="M 450.226562 82.933594 L 972.222656 82.933594 L 972.222656 516.804688 L 450.226562 516.804688 Z M 450.226562 82.933594 " fill-opacity="1" fill-rule="nonzero"/></g></g><g clip-path="url(#aee7f10c93)"><g clip-path="url(#f75440c88b)"><path fill="#231f20" d="M 450.226562 82.933594 L 972.222656 82.933594 L 972.222656 516.804688 L 450.226562 516.804688 Z M 450.226562 82.933594 " fill-opacity="1" fill-rule="nonzero"/></g></g><g clip-path="url(#f218852a20)"><g clip-path="url(#0b13df6852)"><path fill="#231f20" d="M 450.226562 82.933594 L 972.222656 82.933594 L 972.222656 516.804688 L 450.226562 516.804688 Z M 450.226562 82.933594 " fill-opacity="1" fill-rule="nonzero"/></g></g><g clip-path="url(#6720a9eea1)"><g clip-path="url(#e2e5e11541)"><path fill="#231f20" d="M 450.226562 82.933594 L 972.222656 82.933594 L 972.222656 516.804688 L 450.226562 516.804688 Z M 450.226562 82.933594 " fill-opacity="1" fill-rule="nonzero"/></g></g><g clip-path="url(#1f8b58533a)"><g clip-path="url(#08885d1973)"><path fill="#231f20" d="M 450.226562 82.933594 L 972.222656 82.933594 L 972.222656 516.804688 L 450.226562 516.804688 Z M 450.226562 82.933594 " fill-opacity="1" fill-rule="nonzero"/></g></g><g clip-path="url(#0e8a2fbbb3)"><g clip-path="url(#b89ecf493c)"><path fill="#231f20" d="M 450.226562 82.933594 L 972.222656 82.933594 L 972.222656 516.804688 L 450.226562 516.804688 Z M 450.226562 82.933594 " fill-opacity="1" fill-rule="nonzero"/></g></g><g clip-path="url(#4a85eff72f)"><g clip-path="url(#eef0a17c29)"><path fill="#231f20" d="M 450.226562 82.933594 L 972.222656 82.933594 L 972.222656 516.804688 L 450.226562 516.804688 Z M 450.226562 82.933594 " fill-opacity="1" fill-rule="nonzero"/></g></g><g clip-path="url(#e91ac64353)"><g clip-path="url(#56c1b91ac6)"><path fill="#231f20" d="M 450.226562 82.933594 L 972.222656 82.933594 L 972.222656 516.804688 L 450.226562 516.804688 Z M 450.226562 82.933594 " fill-opacity="1" fill-rule="nonzero"/></g></g><g clip-path="url(#1b36f8a126)"><g clip-path="url(#999d25fb6c)"><path fill="#231f20" d="M 450.226562 82.933594 L 972.222656 82.933594 L 972.222656 516.804688 L 450.226562 516.804688 Z M 450.226562 82.933594 " fill-opacity="1" fill-rule="nonzero"/></g></g><g fill="#231f20" fill-opacity="1"><g transform="translate(504.117509, 271.894832)"><g><path d="M 17.328125 0 L 14.59375 -7.03125 L 5.59375 -7.03125 L 2.890625 0 L 0 0 L 8.859375 -22.78125 L 11.4375 -22.78125 L 20.28125 0 Z M 13.734375 -9.5625 L 11.1875 -16.4375 C 11.125 -16.601562 11.015625 -16.90625 10.859375 -17.34375 C 10.710938 -17.789062 10.570312 -18.253906 10.4375 -18.734375 C 10.300781 -19.210938 10.191406 -19.578125 10.109375 -19.828125 C 9.941406 -19.171875 9.765625 -18.53125 9.578125 -17.90625 C 9.398438 -17.28125 9.25 -16.789062 9.125 -16.4375 L 6.546875 -9.5625 Z M 13.734375 -9.5625 "/></g></g></g><g fill="#231f20" fill-opacity="1"><g transform="translate(511.971652, 111.13984)"><g><path d="M 0.03125 -17.03125 L 3.015625 -17.03125 L 6.703125 -7.34375 C 7.023438 -6.46875 7.3125 -5.648438 7.5625 -4.890625 C 7.8125 -4.128906 8.003906 -3.398438 8.140625 -2.703125 L 8.265625 -2.703125 C 8.390625 -3.234375 8.585938 -3.925781 8.859375 -4.78125 C 9.140625 -5.632812 9.425781 -6.5 9.71875 -7.375 L 13.1875 -17.03125 L 16.203125 -17.03125 L 8.859375 2.359375 C 8.242188 3.960938 7.472656 5.238281 6.546875 6.1875 C 5.617188 7.144531 4.328125 7.625 2.671875 7.625 C 2.160156 7.625 1.710938 7.597656 1.328125 7.546875 C 0.953125 7.492188 0.625 7.4375 0.34375 7.375 L 0.34375 5.15625 C 0.582031 5.195312 0.863281 5.238281 1.1875 5.28125 C 1.519531 5.320312 1.863281 5.34375 2.21875 5.34375 C 3.195312 5.34375 3.984375 5.066406 4.578125 4.515625 C 5.171875 3.960938 5.644531 3.226562 6 2.3125 L 6.890625 0.0625 Z M 0.03125 -17.03125 "/></g></g></g><g fill="#231f20" fill-opacity="1"><g transform="translate(537.851523, 466.546304)"><g><path d="M 22.875 -11.375 C 22.875 -9.019531 22.476562 -6.96875 21.6875 -5.21875 C 20.894531 -3.476562 19.71875 -2.117188 18.15625 -1.140625 C 16.601562 -0.171875 14.691406 0.3125 12.421875 0.3125 C 10.078125 0.3125 8.125 -0.171875 6.5625 -1.140625 C 5.007812 -2.117188 3.847656 -3.484375 3.078125 -5.234375 C 2.316406 -6.992188 1.9375 -9.050781 1.9375 -11.40625 C 1.9375 -13.71875 2.316406 -15.75 3.078125 -17.5 C 3.847656 -19.25 5.007812 -20.609375 6.5625 -21.578125 C 8.125 -22.554688 10.085938 -23.046875 12.453125 -23.046875 C 14.722656 -23.046875 16.628906 -22.5625 18.171875 -21.59375 C 19.722656 -20.632812 20.894531 -19.28125 21.6875 -17.53125 C 22.476562 -15.78125 22.875 -13.726562 22.875 -11.375 Z M 4.953125 -11.375 C 4.953125 -8.519531 5.554688 -6.269531 6.765625 -4.625 C 7.972656 -2.976562 9.859375 -2.15625 12.421875 -2.15625 C 14.984375 -2.15625 16.863281 -2.976562 18.0625 -4.625 C 19.257812 -6.269531 19.859375 -8.519531 19.859375 -11.375 C 19.859375 -14.238281 19.265625 -16.476562 18.078125 -18.09375 C 16.890625 -19.71875 15.015625 -20.53125 12.453125 -20.53125 C 9.867188 -20.53125 7.972656 -19.71875 6.765625 -18.09375 C 5.554688 -16.476562 4.953125 -14.238281 4.953125 -11.375 Z M 4.953125 -11.375 "/></g></g></g><g fill="#231f20" fill-opacity="1"><g transform="translate(586.181641, 284.232096)"><g><path d="M 15.765625 0 L 3.078125 0 L 3.078125 -22.6875 L 15.765625 -22.6875 L 15.765625 -20.1875 L 5.9375 -20.1875 L 5.9375 -13.09375 L 15.1875 -13.09375 L 15.1875 -10.609375 L 5.9375 -10.609375 L 5.9375 -2.515625 L 15.765625 -2.515625 Z M 15.765625 0 "/></g></g></g><g fill="#231f20" fill-opacity="1"><g transform="translate(662.425053, 149.8014)"><g><path d="M 3.078125 -22.6875 L 9.5625 -22.6875 C 12.382812 -22.6875 14.523438 -22.265625 15.984375 -21.421875 C 17.441406 -20.578125 18.171875 -19.125 18.171875 -17.0625 C 18.171875 -15.726562 17.800781 -14.617188 17.0625 -13.734375 C 16.320312 -12.859375 15.253906 -12.296875 13.859375 -12.046875 L 13.859375 -11.890625 C 14.804688 -11.710938 15.664062 -11.421875 16.4375 -11.015625 C 17.21875 -10.617188 17.828125 -10.050781 18.265625 -9.3125 C 18.710938 -8.570312 18.9375 -7.617188 18.9375 -6.453125 C 18.9375 -4.398438 18.234375 -2.8125 16.828125 -1.6875 C 15.421875 -0.5625 13.5 0 11.0625 0 L 3.078125 0 Z M 5.9375 -13.03125 L 10.140625 -13.03125 C 12.066406 -13.03125 13.394531 -13.34375 14.125 -13.96875 C 14.851562 -14.59375 15.21875 -15.519531 15.21875 -16.75 C 15.21875 -18 14.773438 -18.894531 13.890625 -19.4375 C 13.015625 -19.976562 11.613281 -20.25 9.6875 -20.25 L 5.9375 -20.25 Z M 5.9375 -10.640625 L 5.9375 -2.421875 L 10.515625 -2.421875 C 12.523438 -2.421875 13.921875 -2.8125 14.703125 -3.59375 C 15.492188 -4.375 15.890625 -5.398438 15.890625 -6.671875 C 15.890625 -7.859375 15.476562 -8.816406 14.65625 -9.546875 C 13.84375 -10.273438 12.390625 -10.640625 10.296875 -10.640625 Z M 5.9375 -10.640625 "/></g></g></g><g fill="#231f20" fill-opacity="1"><g transform="translate(871.63801, 466.546304)"><g><path d="M 12.8125 -20.5 C 10.375 -20.5 8.453125 -19.679688 7.046875 -18.046875 C 5.648438 -16.421875 4.953125 -14.1875 4.953125 -11.34375 C 4.953125 -8.53125 5.601562 -6.300781 6.90625 -4.65625 C 8.207031 -3.007812 10.164062 -2.1875 12.78125 -2.1875 C 13.75 -2.1875 14.675781 -2.269531 15.5625 -2.4375 C 16.457031 -2.613281 17.335938 -2.828125 18.203125 -3.078125 L 18.203125 -0.609375 C 17.359375 -0.285156 16.484375 -0.0507812 15.578125 0.09375 C 14.679688 0.238281 13.609375 0.3125 12.359375 0.3125 C 10.054688 0.3125 8.128906 -0.160156 6.578125 -1.109375 C 5.035156 -2.066406 3.875 -3.421875 3.09375 -5.171875 C 2.320312 -6.929688 1.9375 -9 1.9375 -11.375 C 1.9375 -13.664062 2.351562 -15.679688 3.1875 -17.421875 C 4.03125 -19.171875 5.265625 -20.539062 6.890625 -21.53125 C 8.523438 -22.519531 10.507812 -23.015625 12.84375 -23.015625 C 15.238281 -23.015625 17.320312 -22.566406 19.09375 -21.671875 L 17.953125 -19.265625 C 17.253906 -19.578125 16.472656 -19.859375 15.609375 -20.109375 C 14.753906 -20.367188 13.820312 -20.5 12.8125 -20.5 Z M 12.8125 -20.5 "/></g></g></g><g fill="#231f20" fill-opacity="1"><g transform="translate(946.071295, 458.850368)"><g><path d="M 6.734375 -8.703125 L 0.859375 -17.03125 L 4.03125 -17.03125 L 8.421875 -10.609375 L 12.78125 -17.03125 L 15.921875 -17.03125 L 10.046875 -8.703125 L 16.234375 0 L 13.0625 0 L 8.421875 -6.796875 L 3.71875 0 L 0.578125 0 Z M 6.734375 -8.703125 "/></g></g></g></svg>