<svg xmlns="http://www.w3.org/2000/svg" xmlns:xlink="http://www.w3.org/1999/xlink" width="794" zoomAndPan="magnify" viewBox="0 0 1440 809.999993" height="1123" preserveAspectRatio="xMidYMid meet" version="1.0"><defs><g/><clipPath id="b5853ed692"><path d="M 526 547 L 538 547 L 538 559 L 526 559 Z M 526 547 " clip-rule="nonzero"/></clipPath><clipPath id="841ec09723"><path d="M 537.253906 552.703125 C 537.253906 555.695312 534.800781 558.148438 531.808594 558.148438 C 528.816406 558.148438 526.402344 555.695312 526.402344 552.703125 C 526.402344 549.710938 528.855469 547.257812 531.847656 547.257812 C 534.839844 547.257812 537.292969 549.710938 537.292969 552.703125 " clip-rule="nonzero"/></clipPath><clipPath id="2d4a5807c4"><path d="M 632 547 L 644 547 L 644 559 L 632 559 Z M 632 547 " clip-rule="nonzero"/></clipPath><clipPath id="3d0430ce34"><path d="M 643.792969 552.703125 C 643.792969 555.695312 641.339844 558.148438 638.347656 558.148438 C 635.355469 558.148438 632.902344 555.695312 632.902344 552.703125 C 632.902344 549.710938 635.355469 547.257812 638.347656 547.257812 C 641.339844 547.257812 643.792969 549.710938 643.792969 552.703125 " clip-rule="nonzero"/></clipPath><clipPath id="133e7a1108"><path d="M 632 121 L 644 121 L 644 133 L 632 133 Z M 632 121 " clip-rule="nonzero"/></clipPath><clipPath id="65ab55d39e"><path d="M 643.140625 126.585938 C 643.140625 129.578125 640.6875 132.03125 637.695312 132.03125 C 634.703125 132.03125 632.25 129.578125 632.25 126.585938 C 632.25 123.597656 634.703125 121.140625 637.695312 121.140625 C 640.6875 121.140625 643.140625 123.597656 643.140625 126.585938 " clip-rule="nonzero"/></clipPath><clipPath id="89b573248f"><path d="M 951 547 L 963 547 L 963 559 L 951 559 Z M 951 547 " clip-rule="nonzero"/></clipPath><clipPath id="f35094be7a"><path d="M 962.5625 552.703125 C 962.5625 555.695312 960.148438 558.148438 957.117188 558.148438 C 954.089844 558.148438 951.671875 555.695312 951.671875 552.703125 C 951.671875 549.710938 954.089844 547.257812 957.117188 547.257812 C 960.148438 547.257812 962.5625 549.710938 962.5625 552.703125 " clip-rule="nonzero"/></clipPath><clipPath id="8e2511ac91"><path d="M 531.847656 551.742188 L 638.386719 551.742188 L 638.386719 553.660156 L 531.847656 553.660156 Z M 531.847656 551.742188 " clip-rule="nonzero"/></clipPath><clipPath id="b02253ff84"><path d="M 638.386719 551.742188 L 957.117188 551.742188 L 957.117188 553.660156 L 638.386719 553.660156 Z M 638.386719 551.742188 " clip-rule="nonzero"/></clipPath><clipPath id="04d18007a4"><path d="M 637.425781 126.585938 L 639.34375 126.585938 L 639.34375 552.703125 L 637.425781 552.703125 Z M 637.425781 126.585938 " clip-rule="nonzero"/></clipPath><clipPath id="88423de273"><path d="M 530 126.0625 L 640 126.0625 L 640 553 L 530 553 Z M 530 126.0625 " clip-rule="nonzero"/></clipPath><clipPath id="ef6484343a"><path d="M 530.886719 552.472656 L 637.425781 126.355469 L 639.304688 126.816406 L 532.765625 552.933594 Z M 530.886719 552.472656 " clip-rule="nonzero"/></clipPath><clipPath id="f77aaadea5"><path d="M 637 126 L 958 126 L 958 554 L 637 554 Z M 637 126 " clip-rule="nonzero"/></clipPath><clipPath id="7e3b8611b7"><path d="M 639.152344 126.011719 L 957.886719 552.128906 L 956.351562 553.277344 L 637.617188 127.164062 Z M 639.152344 126.011719 " clip-rule="nonzero"/></clipPath><clipPath id="1ab22f5d40"><path d="M 597.425781 512.433594 L 637.695312 512.433594 L 637.695312 514.351562 L 597.425781 514.351562 Z M 597.425781 514.351562 L 599.34375 514.351562 L 599.34375 552.703125 L 597.425781 552.703125 Z M 597.425781 514.351562 " clip-rule="nonzero"/></clipPath></defs><g clip-path="url(#b5853ed692)"><g clip-path="url(#841ec09723)"><path fill="#231f20" d="M 507.226562 101.964844 L 981.726562 101.964844 L 981.726562 576.46875 L 507.226562 576.46875 Z M 507.226562 101.964844 " fill-opacity="1" fill-rule="nonzero"/></g></g><g clip-path="url(#2d4a5807c4)"><g clip-path="url(#3d0430ce34)"><path fill="#231f20" d="M 507.226562 101.964844 L 981.726562 101.964844 L 981.726562 576.46875 L 507.226562 576.46875 Z M 507.226562 101.964844 " fill-opacity="1" fill-rule="nonzero"/></g></g><g clip-path="url(#133e7a1108)"><g clip-path="url(#65ab55d39e)"><path fill="#231f20" d="M 507.226562 101.964844 L 981.726562 101.964844 L 981.726562 576.46875 L 507.226562 576.46875 Z M 507.226562 101.964844 " fill-opacity="1" fill-rule="nonzero"/></g></g><g clip-path="url(#89b573248f)"><g clip-path="url(#f35094be7a)"><path fill="#231f20" d="M 507.226562 101.964844 L 981.726562 101.964844 L 981.726562 576.46875 L 507.226562 576.46875 Z M 507.226562 101.964844 " fill-opacity="1" fill-rule="nonzero"/></g></g><g clip-path="url(#8e2511ac91)"><path fill="#231f20" d="M 507.226562 101.964844 L 981.726562 101.964844 L 981.726562 576.46875 L 507.226562 576.46875 Z M 507.226562 101.964844 " fill-opacity="1" fill-rule="nonzero"/></g><g clip-path="url(#b02253ff84)"><path fill="#231f20" d="M 507.226562 101.964844 L 981.726562 101.964844 L 981.726562 576.46875 L 507.226562 576.46875 Z M 507.226562 101.964844 " fill-opacity="1" fill-rule="nonzero"/></g><g clip-path="url(#04d18007a4)"><path fill="#231f20" d="M 507.226562 101.964844 L 981.726562 101.964844 L 981.726562 576.46875 L 507.226562 576.46875 Z M 507.226562 101.964844 " fill-opacity="1" fill-rule="nonzero"/></g><g clip-path="url(#88423de273)"><g clip-path="url(#ef6484343a)"><path fill="#231f20" d="M 507.226562 101.964844 L 981.726562 101.964844 L 981.726562 576.46875 L 507.226562 576.46875 Z M 507.226562 101.964844 " fill-opacity="1" fill-rule="nonzero"/></g></g><g clip-path="url(#f77aaadea5)"><g clip-path="url(#7e3b8611b7)"><path fill="#231f20" d="M 507.226562 101.964844 L 981.726562 101.964844 L 981.726562 576.46875 L 507.226562 576.46875 Z M 507.226562 101.964844 " fill-opacity="1" fill-rule="nonzero"/></g></g><g clip-path="url(#1ab22f5d40)"><path fill="#231f20" d="M 507.226562 101.964844 L 981.726562 101.964844 L 981.726562 576.46875 L 507.226562 576.46875 Z M 507.226562 101.964844 " fill-opacity="1" fill-rule="nonzero"/></g><g fill="#231f20" fill-opacity="1"><g transform="translate(516.611044, 595.24103)"><g><path d="M 22.984375 0 L 19.359375 -9.3125 L 7.421875 -9.3125 L 3.84375 0 L 0 0 L 11.765625 -30.234375 L 15.1875 -30.234375 L 26.90625 0 Z M 18.21875 -12.6875 L 14.84375 -21.796875 C 14.757812 -22.023438 14.617188 -22.429688 14.421875 -23.015625 C 14.222656 -23.609375 14.03125 -24.222656 13.84375 -24.859375 C 13.664062 -25.492188 13.519531 -25.976562 13.40625 -26.3125 C 13.1875 -25.445312 12.957031 -24.597656 12.71875 -23.765625 C 12.476562 -22.929688 12.273438 -22.273438 12.109375 -21.796875 L 8.6875 -12.6875 Z M 18.21875 -12.6875 "/></g></g></g><g fill="#231f20" fill-opacity="1"><g transform="translate(626.040551, 113.774347)"><g><path d="M 4.09375 -30.109375 L 12.6875 -30.109375 C 16.425781 -30.109375 19.265625 -29.546875 21.203125 -28.421875 C 23.148438 -27.296875 24.125 -25.367188 24.125 -22.640625 C 24.125 -20.867188 23.628906 -19.398438 22.640625 -18.234375 C 21.660156 -17.066406 20.242188 -16.316406 18.390625 -15.984375 L 18.390625 -15.765625 C 19.648438 -15.546875 20.789062 -15.164062 21.8125 -14.625 C 22.84375 -14.09375 23.65625 -13.332031 24.25 -12.34375 C 24.84375 -11.363281 25.140625 -10.101562 25.140625 -8.5625 C 25.140625 -5.832031 24.203125 -3.722656 22.328125 -2.234375 C 20.460938 -0.742188 17.910156 0 14.671875 0 L 4.09375 0 Z M 7.890625 -17.296875 L 13.453125 -17.296875 C 16.015625 -17.296875 17.78125 -17.707031 18.75 -18.53125 C 19.71875 -19.363281 20.203125 -20.59375 20.203125 -22.21875 C 20.203125 -23.882812 19.617188 -25.070312 18.453125 -25.78125 C 17.285156 -26.5 15.421875 -26.859375 12.859375 -26.859375 L 7.890625 -26.859375 Z M 7.890625 -14.125 L 7.890625 -3.203125 L 13.953125 -3.203125 C 16.628906 -3.203125 18.488281 -3.722656 19.53125 -4.765625 C 20.570312 -5.804688 21.09375 -7.171875 21.09375 -8.859375 C 21.09375 -10.429688 20.550781 -11.703125 19.46875 -12.671875 C 18.382812 -13.640625 16.445312 -14.125 13.65625 -14.125 Z M 7.890625 -14.125 "/></g></g></g><g fill="#231f20" fill-opacity="1"><g transform="translate(628.404887, 595.24103)"><g><path d="M 20.921875 0 L 4.09375 0 L 4.09375 -30.109375 L 20.921875 -30.109375 L 20.921875 -26.78125 L 7.890625 -26.78125 L 7.890625 -17.375 L 20.15625 -17.375 L 20.15625 -14.078125 L 7.890625 -14.078125 L 7.890625 -3.328125 L 20.921875 -3.328125 Z M 20.921875 0 "/></g></g></g><g fill="#231f20" fill-opacity="1"><g transform="translate(943.027927, 595.24103)"><g><path d="M 17 -27.203125 C 13.757812 -27.203125 11.210938 -26.117188 9.359375 -23.953125 C 7.503906 -21.785156 6.578125 -18.820312 6.578125 -15.0625 C 6.578125 -11.320312 7.441406 -8.359375 9.171875 -6.171875 C 10.898438 -3.992188 13.492188 -2.90625 16.953125 -2.90625 C 18.242188 -2.90625 19.476562 -3.015625 20.65625 -3.234375 C 21.84375 -3.460938 23.015625 -3.75 24.171875 -4.09375 L 24.171875 -0.796875 C 23.046875 -0.378906 21.882812 -0.0703125 20.6875 0.125 C 19.488281 0.320312 18.0625 0.421875 16.40625 0.421875 C 13.34375 0.421875 10.785156 -0.207031 8.734375 -1.46875 C 6.679688 -2.738281 5.140625 -4.539062 4.109375 -6.875 C 3.085938 -9.207031 2.578125 -11.945312 2.578125 -15.09375 C 2.578125 -18.132812 3.128906 -20.8125 4.234375 -23.125 C 5.347656 -25.445312 6.988281 -27.257812 9.15625 -28.5625 C 11.320312 -29.875 13.945312 -30.53125 17.03125 -30.53125 C 20.207031 -30.53125 22.976562 -29.941406 25.34375 -28.765625 L 23.828125 -25.5625 C 22.898438 -25.976562 21.863281 -26.351562 20.71875 -26.6875 C 19.582031 -27.03125 18.34375 -27.203125 17 -27.203125 Z M 17 -27.203125 "/></g></g></g></svg>