<svg xmlns="http://www.w3.org/2000/svg" xmlns:xlink="http://www.w3.org/1999/xlink" width="794" zoomAndPan="magnify" viewBox="0 0 1440 809.999993" height="1123" preserveAspectRatio="xMidYMid meet" version="1.0"><defs><g/><clipPath id="983162e2ae"><path d="M 648.375 215.808594 L 649.800781 215.808594 L 649.800781 718.492188 L 648.375 718.492188 Z M 648.375 215.808594 " clip-rule="nonzero"/></clipPath><clipPath id="635bc4da5b"><path d="M 644.359375 203 L 653.960938 203 L 653.960938 219 L 644.359375 219 Z M 644.359375 203 " clip-rule="nonzero"/></clipPath><clipPath id="c4d43f3735"><path d="M 653.082031 218.632812 L 648.917969 203.175781 L 644.78125 218.632812 Z M 653.082031 218.632812 " clip-rule="nonzero"/></clipPath><clipPath id="27d4bdf1b4"><path d="M 495.410156 666.179688 L 945.808594 666.179688 L 945.808594 667.605469 L 495.410156 667.605469 Z M 495.410156 666.179688 " clip-rule="nonzero"/></clipPath><clipPath id="b029f3422c"><path d="M 942 662 L 959 662 L 959 670.871094 L 942 670.871094 Z M 942 662 " clip-rule="nonzero"/></clipPath><clipPath id="44408ddd4d"><path d="M 942.984375 670.859375 L 958.445312 666.722656 L 942.984375 662.585938 Z M 942.984375 670.859375 " clip-rule="nonzero"/></clipPath><clipPath id="94c5f79005"><path d="M 882.460938 662 L 891 662 L 891 670.871094 L 882.460938 670.871094 Z M 882.460938 662 " clip-rule="nonzero"/></clipPath><clipPath id="28fef5c72c"><path d="M 890.84375 666.808594 C 890.84375 669.03125 889.046875 670.859375 886.792969 670.859375 C 884.542969 670.859375 882.746094 669.0625 882.746094 666.808594 C 882.746094 664.554688 884.542969 662.757812 886.792969 662.757812 C 889.046875 662.757812 890.84375 664.554688 890.84375 666.808594 " clip-rule="nonzero"/></clipPath><clipPath id="24d01e7675"><path d="M 746.128906 256.117188 L 755 256.117188 L 755 265 L 746.128906 265 Z M 746.128906 256.117188 " clip-rule="nonzero"/></clipPath><clipPath id="ad235dc7f4"><path d="M 754.792969 260.5625 C 754.792969 262.785156 752.996094 264.613281 750.742188 264.613281 C 748.488281 264.613281 746.691406 262.816406 746.691406 260.5625 C 746.691406 258.308594 748.519531 256.511719 750.742188 256.511719 C 752.96875 256.511719 754.792969 258.308594 754.792969 260.5625 " clip-rule="nonzero"/></clipPath><clipPath id="5f6d19049e"><path d="M 643 459 L 652 459 L 652 468 L 643 468 Z M 643 459 " clip-rule="nonzero"/></clipPath><clipPath id="742f0b552e"><path d="M 651.710938 463.585938 C 651.710938 465.808594 649.914062 467.636719 647.660156 467.636719 C 645.410156 467.636719 643.613281 465.808594 643.613281 463.585938 C 643.613281 461.359375 645.4375 459.535156 647.660156 459.535156 C 649.886719 459.535156 651.710938 461.332031 651.710938 463.585938 " clip-rule="nonzero"/></clipPath><clipPath id="3db117f7cd"><path d="M 543 663 L 552 663 L 552 672 L 543 672 Z M 543 663 " clip-rule="nonzero"/></clipPath><clipPath id="e3d44280fe"><path d="M 551.511719 667.152344 C 551.511719 669.375 549.714844 671.199219 547.460938 671.199219 C 545.207031 671.199219 543.410156 669.402344 543.410156 667.152344 C 543.410156 664.898438 545.238281 663.101562 547.460938 663.101562 C 549.6875 663.101562 551.511719 664.898438 551.511719 667.152344 " clip-rule="nonzero"/></clipPath><clipPath id="28481dfd0e"><path d="M 647 463 L 881 463 L 881 663 L 647 663 Z M 647 463 " clip-rule="nonzero"/></clipPath><clipPath id="e4d4e15400"><path d="M 659.015625 472.542969 L 663.347656 476.21875 L 662.4375 477.304688 L 658.101562 473.625 Z M 669.882812 481.78125 L 674.214844 485.460938 L 673.304688 486.546875 L 668.96875 482.867188 Z M 680.75 491.023438 L 685.082031 494.703125 L 684.171875 495.789062 L 679.835938 492.109375 Z M 691.613281 500.265625 L 695.949219 503.945312 L 695.039062 505.027344 L 690.703125 501.347656 Z M 702.480469 509.507812 L 706.816406 513.1875 L 705.90625 514.269531 L 701.570312 510.589844 Z M 713.347656 518.746094 L 717.683594 522.425781 L 716.773438 523.511719 L 712.464844 519.773438 Z M 724.214844 527.988281 L 728.550781 531.667969 L 727.640625 532.753906 L 723.304688 529.074219 Z M 735.082031 537.230469 L 739.417969 540.910156 L 738.507812 541.992188 L 734.171875 538.3125 Z M 745.949219 546.472656 L 750.285156 550.152344 L 749.375 551.234375 L 745.039062 547.554688 Z M 756.816406 555.714844 L 761.152344 559.390625 L 760.242188 560.476562 L 755.90625 556.796875 Z M 767.683594 564.953125 L 772.019531 568.632812 L 771.109375 569.71875 L 766.773438 566.039062 Z M 778.550781 574.195312 L 782.886719 577.875 L 781.972656 578.957031 L 777.640625 575.28125 Z M 789.417969 583.4375 L 793.753906 587.117188 L 792.839844 588.199219 L 788.507812 584.519531 Z M 800.285156 592.679688 L 804.621094 596.359375 L 803.707031 597.441406 L 799.375 593.761719 Z M 811.152344 601.917969 L 815.488281 605.597656 L 814.574219 606.683594 L 810.242188 603.003906 Z M 822.019531 611.160156 L 826.355469 614.839844 L 825.441406 615.925781 L 821.109375 612.246094 Z M 832.886719 620.402344 L 837.222656 624.082031 L 836.308594 625.164062 L 831.972656 621.484375 Z M 843.753906 629.644531 L 848.089844 633.324219 L 847.175781 634.40625 L 842.839844 630.726562 Z M 854.621094 638.882812 L 858.957031 642.5625 L 858.042969 643.648438 L 853.707031 639.96875 Z M 865.488281 648.125 L 869.824219 651.804688 L 868.910156 652.890625 L 864.574219 649.210938 Z M 876.355469 657.367188 L 880.691406 661.046875 L 879.777344 662.128906 L 875.441406 658.449219 Z M 648.148438 463.328125 L 652.480469 467.007812 L 651.570312 468.089844 L 647.234375 464.414062 Z M 648.148438 463.328125 " clip-rule="nonzero"/></clipPath><clipPath id="085d176bc4"><path d="M 546.433594 260 L 751.890625 260 L 751.890625 667 L 546.433594 667 Z M 546.433594 260 " clip-rule="nonzero"/></clipPath><clipPath id="6293cb69ad"><path d="M 546.835938 666.292969 L 750.113281 260.246094 L 751.398438 260.875 L 548.089844 666.921875 Z M 546.835938 666.292969 " clip-rule="nonzero"/></clipPath><clipPath id="4911eb892d"><path d="M 750 260 L 888 260 L 888 668 L 750 668 Z M 750 260 " clip-rule="nonzero"/></clipPath><clipPath id="2cb79f8d5f"><path d="M 751.425781 260.363281 L 887.480469 666.921875 L 886.140625 667.378906 L 750.058594 260.789062 Z M 751.425781 260.363281 " clip-rule="nonzero"/></clipPath></defs><g clip-path="url(#983162e2ae)"><path fill="#231f20" d="M 481.148438 188.914062 L 972.707031 188.914062 L 972.707031 732.316406 L 481.148438 732.316406 Z M 481.148438 188.914062 " fill-opacity="1" fill-rule="nonzero"/></g><g clip-path="url(#635bc4da5b)"><g clip-path="url(#c4d43f3735)"><path fill="#231f20" d="M 481.148438 188.914062 L 972.707031 188.914062 L 972.707031 732.316406 L 481.148438 732.316406 Z M 481.148438 188.914062 " fill-opacity="1" fill-rule="nonzero"/></g></g><g clip-path="url(#27d4bdf1b4)"><path fill="#231f20" d="M 481.148438 188.914062 L 972.707031 188.914062 L 972.707031 732.316406 L 481.148438 732.316406 Z M 481.148438 188.914062 " fill-opacity="1" fill-rule="nonzero"/></g><g clip-path="url(#b029f3422c)"><g clip-path="url(#44408ddd4d)"><path fill="#231f20" d="M 481.148438 188.914062 L 972.707031 188.914062 L 972.707031 732.316406 L 481.148438 732.316406 Z M 481.148438 188.914062 " fill-opacity="1" fill-rule="nonzero"/></g></g><g clip-path="url(#94c5f79005)"><g clip-path="url(#28fef5c72c)"><path fill="#231f20" d="M 481.148438 188.914062 L 972.707031 188.914062 L 972.707031 732.316406 L 481.148438 732.316406 Z M 481.148438 188.914062 " fill-opacity="1" fill-rule="nonzero"/></g></g><g clip-path="url(#24d01e7675)"><g clip-path="url(#ad235dc7f4)"><path fill="#231f20" d="M 481.148438 188.914062 L 972.707031 188.914062 L 972.707031 732.316406 L 481.148438 732.316406 Z M 481.148438 188.914062 " fill-opacity="1" fill-rule="nonzero"/></g></g><g clip-path="url(#5f6d19049e)"><g clip-path="url(#742f0b552e)"><path fill="#231f20" d="M 481.148438 188.914062 L 972.707031 188.914062 L 972.707031 732.316406 L 481.148438 732.316406 Z M 481.148438 188.914062 " fill-opacity="1" fill-rule="nonzero"/></g></g><g clip-path="url(#3db117f7cd)"><g clip-path="url(#e3d44280fe)"><path fill="#231f20" d="M 481.148438 188.914062 L 972.707031 188.914062 L 972.707031 732.316406 L 481.148438 732.316406 Z M 481.148438 188.914062 " fill-opacity="1" fill-rule="nonzero"/></g></g><g clip-path="url(#28481dfd0e)"><g clip-path="url(#e4d4e15400)"><path fill="#231f20" d="M 481.148438 188.914062 L 972.707031 188.914062 L 972.707031 732.316406 L 481.148438 732.316406 Z M 481.148438 188.914062 " fill-opacity="1" fill-rule="nonzero"/></g></g><g clip-path="url(#085d176bc4)"><g clip-path="url(#6293cb69ad)"><path fill="#231f20" d="M 481.148438 188.914062 L 972.707031 188.914062 L 972.707031 732.316406 L 481.148438 732.316406 Z M 481.148438 188.914062 " fill-opacity="1" fill-rule="nonzero"/></g></g><g clip-path="url(#4911eb892d)"><g clip-path="url(#2cb79f8d5f)"><path fill="#231f20" d="M 481.148438 188.914062 L 972.707031 188.914062 L 972.707031 732.316406 L 481.148438 732.316406 Z M 481.148438 188.914062 " fill-opacity="1" fill-rule="nonzero"/></g></g><g fill="#231f20" fill-opacity="1"><g transform="translate(965.318286, 407.926967)"><g/></g></g><g fill="#231f20" fill-opacity="1"><g transform="translate(536.156763, 702.421423)"><g><path d="M 17.09375 0 L 14.390625 -6.9375 L 5.515625 -6.9375 L 2.859375 0 L 0 0 L 8.75 -22.484375 L 11.296875 -22.484375 L 20 0 Z M 13.546875 -9.4375 L 11.03125 -16.21875 C 10.96875 -16.382812 10.863281 -16.6875 10.71875 -17.125 C 10.570312 -17.5625 10.429688 -18.015625 10.296875 -18.484375 C 10.160156 -18.953125 10.050781 -19.3125 9.96875 -19.5625 C 9.800781 -18.914062 9.628906 -18.285156 9.453125 -17.671875 C 9.273438 -17.054688 9.125 -16.570312 9 -16.21875 L 6.453125 -9.4375 Z M 13.546875 -9.4375 "/></g></g></g><g fill="#231f20" fill-opacity="1"><g transform="translate(616.383023, 470.216035)"><g><path d="M 15.546875 0 L 3.046875 0 L 3.046875 -22.390625 L 15.546875 -22.390625 L 15.546875 -19.90625 L 5.859375 -19.90625 L 5.859375 -12.921875 L 14.984375 -12.921875 L 14.984375 -10.46875 L 5.859375 -10.46875 L 5.859375 -2.484375 L 15.546875 -2.484375 Z M 15.546875 0 "/></g></g></g><g fill="#231f20" fill-opacity="1"><g transform="translate(628.210631, 217.585465)"><g><path d="M 0.03125 -16.8125 L 2.984375 -16.8125 L 6.609375 -7.25 C 6.929688 -6.382812 7.21875 -5.578125 7.46875 -4.828125 C 7.71875 -4.078125 7.90625 -3.359375 8.03125 -2.671875 L 8.15625 -2.671875 C 8.28125 -3.191406 8.476562 -3.875 8.75 -4.71875 C 9.019531 -5.5625 9.300781 -6.414062 9.59375 -7.28125 L 13.015625 -16.8125 L 16 -16.8125 L 8.75 2.328125 C 8.144531 3.910156 7.378906 5.171875 6.453125 6.109375 C 5.535156 7.054688 4.265625 7.53125 2.640625 7.53125 C 2.128906 7.53125 1.6875 7.503906 1.3125 7.453125 C 0.9375 7.398438 0.613281 7.34375 0.34375 7.28125 L 0.34375 5.078125 C 0.570312 5.117188 0.847656 5.160156 1.171875 5.203125 C 1.492188 5.242188 1.832031 5.265625 2.1875 5.265625 C 3.15625 5.265625 3.929688 4.992188 4.515625 4.453125 C 5.097656 3.910156 5.566406 3.191406 5.921875 2.296875 L 6.8125 0.0625 Z M 0.03125 -16.8125 "/></g></g></g><g fill="#231f20" fill-opacity="1"><g transform="translate(741.410465, 248.926909)"><g><path d="M 3.046875 -22.390625 L 9.4375 -22.390625 C 12.21875 -22.390625 14.328125 -21.96875 15.765625 -21.125 C 17.210938 -20.289062 17.9375 -18.863281 17.9375 -16.84375 C 17.9375 -15.519531 17.570312 -14.425781 16.84375 -13.5625 C 16.113281 -12.695312 15.054688 -12.140625 13.671875 -11.890625 L 13.671875 -11.734375 C 14.609375 -11.566406 15.457031 -11.28125 16.21875 -10.875 C 16.988281 -10.476562 17.59375 -9.914062 18.03125 -9.1875 C 18.46875 -8.457031 18.6875 -7.515625 18.6875 -6.359375 C 18.6875 -4.335938 17.988281 -2.769531 16.59375 -1.65625 C 15.207031 -0.550781 13.3125 0 10.90625 0 L 3.046875 0 Z M 5.859375 -12.859375 L 10 -12.859375 C 11.90625 -12.859375 13.21875 -13.164062 13.9375 -13.78125 C 14.65625 -14.394531 15.015625 -15.3125 15.015625 -16.53125 C 15.015625 -17.757812 14.582031 -18.640625 13.71875 -19.171875 C 12.851562 -19.703125 11.46875 -19.96875 9.5625 -19.96875 L 5.859375 -19.96875 Z M 5.859375 -10.5 L 5.859375 -2.390625 L 10.375 -2.390625 C 12.363281 -2.390625 13.742188 -2.773438 14.515625 -3.546875 C 15.296875 -4.316406 15.6875 -5.328125 15.6875 -6.578125 C 15.6875 -7.753906 15.28125 -8.703125 14.46875 -9.421875 C 13.664062 -10.140625 12.226562 -10.5 10.15625 -10.5 Z M 5.859375 -10.5 "/></g></g></g><g fill="#231f20" fill-opacity="1"><g transform="translate(875.820442, 697.650944)"><g><path d="M 12.640625 -20.234375 C 10.234375 -20.234375 8.335938 -19.425781 6.953125 -17.8125 C 5.578125 -16.195312 4.890625 -13.992188 4.890625 -11.203125 C 4.890625 -8.421875 5.53125 -6.21875 6.8125 -4.59375 C 8.101562 -2.96875 10.035156 -2.15625 12.609375 -2.15625 C 13.566406 -2.15625 14.484375 -2.238281 15.359375 -2.40625 C 16.242188 -2.582031 17.113281 -2.796875 17.96875 -3.046875 L 17.96875 -0.59375 C 17.132812 -0.28125 16.269531 -0.0507812 15.375 0.09375 C 14.488281 0.238281 13.429688 0.3125 12.203125 0.3125 C 9.921875 0.3125 8.015625 -0.15625 6.484375 -1.09375 C 4.960938 -2.039062 3.816406 -3.378906 3.046875 -5.109375 C 2.285156 -6.847656 1.90625 -8.890625 1.90625 -11.234375 C 1.90625 -13.484375 2.316406 -15.46875 3.140625 -17.1875 C 3.972656 -18.914062 5.191406 -20.265625 6.796875 -21.234375 C 8.410156 -22.210938 10.367188 -22.703125 12.671875 -22.703125 C 15.035156 -22.703125 17.09375 -22.265625 18.84375 -21.390625 L 17.71875 -19 C 17.03125 -19.3125 16.257812 -19.59375 15.40625 -19.84375 C 14.5625 -20.101562 13.640625 -20.234375 12.640625 -20.234375 Z M 12.640625 -20.234375 "/></g></g></g><g fill="#231f20" fill-opacity="1"><g transform="translate(945.725047, 688.206464)"><g><path d="M 6.640625 -8.59375 L 0.84375 -16.8125 L 3.984375 -16.8125 L 8.3125 -10.46875 L 12.609375 -16.8125 L 15.71875 -16.8125 L 9.90625 -8.59375 L 16.03125 0 L 12.890625 0 L 8.3125 -6.703125 L 3.671875 0 L 0.5625 0 Z M 6.640625 -8.59375 "/></g></g></g></svg>