<svg xmlns="http://www.w3.org/2000/svg" xmlns:xlink="http://www.w3.org/1999/xlink" width="794" zoomAndPan="magnify" viewBox="0 0 1440 809.999993" height="1123" preserveAspectRatio="xMidYMid meet" version="1.0"><defs><g/><clipPath id="65393fe988"><path d="M 541.148438 434 L 896 434 L 896 448 L 541.148438 448 Z M 541.148438 434 " clip-rule="nonzero"/></clipPath><clipPath id="f840319d5d"><path d="M 548.003906 434.582031 L 889.253906 434.582031 C 892.742188 434.582031 895.558594 437.398438 895.558594 440.890625 C 895.558594 444.378906 892.742188 447.195312 889.253906 447.195312 L 548.003906 447.195312 C 544.511719 447.195312 541.695312 444.378906 541.695312 440.890625 C 541.695312 437.398438 544.511719 434.582031 548.003906 434.582031 Z M 548.003906 434.582031 " clip-rule="nonzero"/></clipPath><clipPath id="7e4a33a4bf"><path d="M 530 489.605469 L 907 489.605469 L 907 503 L 530 503 Z M 530 489.605469 " clip-rule="nonzero"/></clipPath><clipPath id="277a84704a"><path d="M 536.609375 489.878906 L 900.648438 489.878906 C 904.140625 489.878906 906.957031 492.695312 906.957031 496.1875 C 906.957031 499.675781 904.140625 502.496094 900.648438 502.496094 L 536.609375 502.496094 C 533.117188 502.496094 530.300781 499.675781 530.300781 496.1875 C 530.300781 492.695312 533.117188 489.878906 536.609375 489.878906 Z M 536.609375 489.878906 " clip-rule="nonzero"/></clipPath><clipPath id="527bc98d3a"><path d="M 603.234375 149 L 833 149 L 833 162 L 603.234375 162 Z M 603.234375 149 " clip-rule="nonzero"/></clipPath><clipPath id="d760eeafb4"><path d="M 609.820312 149.175781 L 826.050781 149.175781 C 829.539062 149.175781 832.355469 151.996094 832.355469 155.484375 C 832.355469 158.976562 829.539062 161.792969 826.050781 161.792969 L 609.820312 161.792969 C 606.328125 161.792969 603.511719 158.976562 603.511719 155.484375 C 603.511719 151.996094 606.328125 149.175781 609.820312 149.175781 Z M 609.820312 149.175781 " clip-rule="nonzero"/></clipPath><clipPath id="fb9c851bae"><path d="M 590 202.453125 L 845 202.453125 L 845 216 L 590 216 Z M 590 202.453125 " clip-rule="nonzero"/></clipPath><clipPath id="79385b85c7"><path d="M 597.160156 202.917969 L 838.371094 202.917969 C 841.859375 202.917969 844.679688 205.738281 844.679688 209.226562 C 844.679688 212.71875 841.859375 215.535156 838.371094 215.535156 L 597.160156 215.535156 C 593.671875 215.535156 590.855469 212.71875 590.855469 209.226562 C 590.855469 205.738281 593.671875 202.917969 597.160156 202.917969 Z M 597.160156 202.917969 " clip-rule="nonzero"/></clipPath><clipPath id="3f07bba541"><path d="M 518 545 L 919 545 L 919 558 L 518 558 Z M 518 545 " clip-rule="nonzero"/></clipPath><clipPath id="dda994328d"><path d="M 525.253906 545.136719 L 912.003906 545.136719 C 915.492188 545.136719 918.308594 547.953125 918.308594 551.441406 C 918.308594 554.933594 915.492188 557.75 912.003906 557.75 L 525.253906 557.75 C 521.761719 557.75 518.945312 554.933594 518.945312 551.441406 C 518.945312 547.953125 521.761719 545.136719 525.253906 545.136719 Z M 525.253906 545.136719 " clip-rule="nonzero"/></clipPath><clipPath id="74f6c12577"><path d="M 507 600.199219 L 930 600.199219 L 930 613.777344 L 507 613.777344 Z M 507 600.199219 " clip-rule="nonzero"/></clipPath><clipPath id="d2889195ed"><path d="M 513.859375 600.433594 L 923.398438 600.433594 C 926.890625 600.433594 929.707031 603.25 929.707031 606.742188 C 929.707031 610.230469 926.890625 613.050781 923.398438 613.050781 L 513.859375 613.050781 C 510.367188 613.050781 507.550781 610.230469 507.550781 606.742188 C 507.550781 603.25 510.367188 600.433594 513.859375 600.433594 Z M 513.859375 600.433594 " clip-rule="nonzero"/></clipPath><clipPath id="6f0364f43d"><path d="M 497 141 L 614.875 141 L 614.875 621.539062 L 497 621.539062 Z M 497 141 " clip-rule="nonzero"/></clipPath><clipPath id="2faaadbbb0"><path d="M 497.710938 608.800781 L 593.378906 150.3125 C 594.554688 144.636719 600.148438 140.976562 605.824219 142.15625 C 611.5 143.332031 615.117188 148.882812 613.941406 154.601562 L 518.316406 613.089844 C 517.136719 618.769531 511.542969 622.425781 505.867188 621.25 C 500.191406 620.070312 496.53125 614.480469 497.710938 608.800781 Z M 497.710938 608.800781 " clip-rule="nonzero"/></clipPath><clipPath id="49e9fc2477"><path d="M 493 141 L 610.996094 141 L 610.996094 621.539062 L 493 621.539062 Z M 493 141 " clip-rule="nonzero"/></clipPath><clipPath id="b430da1fd2"><path d="M 493.503906 608.800781 L 589.71875 149.386719 C 590.894531 143.710938 596.488281 140.050781 602.164062 141.269531 C 607.84375 142.492188 611.5 148.042969 610.28125 153.71875 L 514.109375 613.132812 C 512.933594 618.808594 507.339844 622.46875 501.664062 621.25 C 495.984375 620.03125 492.328125 614.480469 493.503906 608.800781 Z M 493.503906 608.800781 " clip-rule="nonzero"/></clipPath><clipPath id="90c4e61b19"><path d="M 825 141 L 942 141 L 942 621.539062 L 825 621.539062 Z M 825 141 " clip-rule="nonzero"/></clipPath><clipPath id="b0d0a4c6c7"><path d="M 921 613.089844 L 825.335938 154.601562 C 824.15625 148.925781 827.816406 143.332031 833.492188 142.15625 C 839.167969 140.976562 844.761719 144.636719 845.941406 150.3125 L 941.566406 608.84375 C 942.742188 614.519531 939.082031 620.113281 933.40625 621.289062 C 927.730469 622.46875 922.136719 618.808594 920.960938 613.132812 Z M 921 613.089844 " clip-rule="nonzero"/></clipPath><clipPath id="5266c4476d"><path d="M 828.300781 141 L 946 141 L 946 621.539062 L 828.300781 621.539062 Z M 828.300781 141 " clip-rule="nonzero"/></clipPath><clipPath id="157784e50f"><path d="M 925.207031 613.132812 L 828.992188 153.675781 C 827.816406 148 831.433594 142.40625 837.109375 141.230469 C 842.785156 140.050781 848.378906 143.667969 849.554688 149.34375 L 945.769531 608.757812 C 946.949219 614.4375 943.332031 620.03125 937.652344 621.207031 C 931.976562 622.382812 926.382812 618.769531 925.207031 613.089844 Z M 925.207031 613.132812 " clip-rule="nonzero"/></clipPath><clipPath id="284ecfbd5a"><path d="M 541.148438 438 L 896 438 L 896 452 L 541.148438 452 Z M 541.148438 438 " clip-rule="nonzero"/></clipPath><clipPath id="6586a313fa"><path d="M 548.003906 438.785156 L 889.253906 438.785156 C 892.742188 438.785156 895.558594 441.605469 895.558594 445.09375 C 895.558594 448.585938 892.742188 451.402344 889.253906 451.402344 L 548.003906 451.402344 C 544.511719 451.402344 541.695312 448.585938 541.695312 445.09375 C 541.695312 441.605469 544.511719 438.785156 548.003906 438.785156 Z M 548.003906 438.785156 " clip-rule="nonzero"/></clipPath><clipPath id="2ebc083f78"><path d="M 530 494 L 907 494 L 907 507 L 530 507 Z M 530 494 " clip-rule="nonzero"/></clipPath><clipPath id="d786bb82b3"><path d="M 536.609375 494.085938 L 900.648438 494.085938 C 904.140625 494.085938 906.957031 496.902344 906.957031 500.390625 C 906.957031 503.882812 904.140625 506.699219 900.648438 506.699219 L 536.609375 506.699219 C 533.117188 506.699219 530.300781 503.882812 530.300781 500.390625 C 530.300781 496.902344 533.117188 494.085938 536.609375 494.085938 Z M 536.609375 494.085938 " clip-rule="nonzero"/></clipPath><clipPath id="cae8b00822"><path d="M 603.234375 153 L 833 153 L 833 166 L 603.234375 166 Z M 603.234375 153 " clip-rule="nonzero"/></clipPath><clipPath id="38d0be4d30"><path d="M 609.820312 153.382812 L 826.050781 153.382812 C 829.539062 153.382812 832.355469 156.199219 832.355469 159.691406 C 832.355469 163.179688 829.539062 165.996094 826.050781 165.996094 L 609.820312 165.996094 C 606.328125 165.996094 603.511719 163.179688 603.511719 159.691406 C 603.511719 156.199219 606.328125 153.382812 609.820312 153.382812 Z M 609.820312 153.382812 " clip-rule="nonzero"/></clipPath><clipPath id="d7ae7c6420"><path d="M 590 207 L 845 207 L 845 219.917969 L 590 219.917969 Z M 590 207 " clip-rule="nonzero"/></clipPath><clipPath id="40cfd08a72"><path d="M 597.160156 207.125 L 838.371094 207.125 C 841.859375 207.125 844.679688 209.941406 844.679688 213.433594 C 844.679688 216.921875 841.859375 219.738281 838.371094 219.738281 L 597.160156 219.738281 C 593.671875 219.738281 590.855469 216.921875 590.855469 213.433594 C 590.855469 209.941406 593.671875 207.125 597.160156 207.125 Z M 597.160156 207.125 " clip-rule="nonzero"/></clipPath><clipPath id="310cdab2b7"><path d="M 518 549 L 919 549 L 919 562 L 518 562 Z M 518 549 " clip-rule="nonzero"/></clipPath><clipPath id="30a609da2f"><path d="M 525.253906 549.339844 L 912.003906 549.339844 C 915.492188 549.339844 918.308594 552.15625 918.308594 555.648438 C 918.308594 559.136719 915.492188 561.957031 912.003906 561.957031 L 525.253906 561.957031 C 521.761719 561.957031 518.945312 559.136719 518.945312 555.648438 C 518.945312 552.15625 521.761719 549.339844 525.253906 549.339844 Z M 525.253906 549.339844 " clip-rule="nonzero"/></clipPath><clipPath id="f6b204bdc0"><path d="M 507 604.078125 L 930 604.078125 L 930 617.660156 L 507 617.660156 Z M 507 604.078125 " clip-rule="nonzero"/></clipPath><clipPath id="afca09d229"><path d="M 513.859375 604.636719 L 923.398438 604.636719 C 926.890625 604.636719 929.707031 607.457031 929.707031 610.945312 C 929.707031 614.4375 926.890625 617.253906 923.398438 617.253906 L 513.859375 617.253906 C 510.367188 617.253906 507.550781 614.4375 507.550781 610.945312 C 507.550781 607.457031 510.367188 604.636719 513.859375 604.636719 Z M 513.859375 604.636719 " clip-rule="nonzero"/></clipPath></defs><g clip-path="url(#65393fe988)"><g clip-path="url(#f840319d5d)"><path fill="#58585a" d="M 471.300781 119.027344 L 967.996094 119.027344 L 967.996094 642.882812 L 471.300781 642.882812 Z M 471.300781 119.027344 " fill-opacity="1" fill-rule="nonzero"/></g></g><g clip-path="url(#7e4a33a4bf)"><g clip-path="url(#277a84704a)"><path fill="#58585a" d="M 471.300781 119.027344 L 967.996094 119.027344 L 967.996094 642.882812 L 471.300781 642.882812 Z M 471.300781 119.027344 " fill-opacity="1" fill-rule="nonzero"/></g></g><g clip-path="url(#527bc98d3a)"><g clip-path="url(#d760eeafb4)"><path fill="#58585a" d="M 471.300781 119.027344 L 967.996094 119.027344 L 967.996094 642.882812 L 471.300781 642.882812 Z M 471.300781 119.027344 " fill-opacity="1" fill-rule="nonzero"/><path fill="#58585a" d="M 471.300781 119.027344 L 967.996094 119.027344 L 967.996094 642.882812 L 471.300781 642.882812 Z M 471.300781 119.027344 " fill-opacity="1" fill-rule="nonzero"/></g></g><g clip-path="url(#fb9c851bae)"><g clip-path="url(#79385b85c7)"><path fill="#58585a" d="M 471.300781 119.027344 L 967.996094 119.027344 L 967.996094 642.882812 L 471.300781 642.882812 Z M 471.300781 119.027344 " fill-opacity="1" fill-rule="nonzero"/></g></g><g clip-path="url(#3f07bba541)"><g clip-path="url(#dda994328d)"><path fill="#58585a" d="M 471.300781 119.027344 L 967.996094 119.027344 L 967.996094 642.882812 L 471.300781 642.882812 Z M 471.300781 119.027344 " fill-opacity="1" fill-rule="nonzero"/></g></g><g clip-path="url(#74f6c12577)"><g clip-path="url(#d2889195ed)"><path fill="#58585a" d="M 471.300781 119.027344 L 967.996094 119.027344 L 967.996094 642.882812 L 471.300781 642.882812 Z M 471.300781 119.027344 " fill-opacity="1" fill-rule="nonzero"/></g></g><g clip-path="url(#6f0364f43d)"><g clip-path="url(#2faaadbbb0)"><path fill="#58585a" d="M 471.300781 119.027344 L 967.996094 119.027344 L 967.996094 642.882812 L 471.300781 642.882812 Z M 471.300781 119.027344 " fill-opacity="1" fill-rule="nonzero"/></g></g><g clip-path="url(#49e9fc2477)"><g clip-path="url(#b430da1fd2)"><path fill="#a7a9ac" d="M 471.300781 119.027344 L 967.996094 119.027344 L 967.996094 642.882812 L 471.300781 642.882812 Z M 471.300781 119.027344 " fill-opacity="1" fill-rule="nonzero"/></g></g><g clip-path="url(#90c4e61b19)"><g clip-path="url(#b0d0a4c6c7)"><path fill="#58585a" d="M 471.300781 119.027344 L 967.996094 119.027344 L 967.996094 642.882812 L 471.300781 642.882812 Z M 471.300781 119.027344 " fill-opacity="1" fill-rule="nonzero"/></g></g><g clip-path="url(#5266c4476d)"><g clip-path="url(#157784e50f)"><path fill="#a7a9ac" d="M 471.300781 119.027344 L 967.996094 119.027344 L 967.996094 642.882812 L 471.300781 642.882812 Z M 471.300781 119.027344 " fill-opacity="1" fill-rule="nonzero"/></g></g><g clip-path="url(#284ecfbd5a)"><g clip-path="url(#6586a313fa)"><path fill="#a7a9ac" d="M 471.300781 119.027344 L 967.996094 119.027344 L 967.996094 642.882812 L 471.300781 642.882812 Z M 471.300781 119.027344 " fill-opacity="1" fill-rule="nonzero"/></g></g><g clip-path="url(#2ebc083f78)"><g clip-path="url(#d786bb82b3)"><path fill="#a7a9ac" d="M 471.300781 119.027344 L 967.996094 119.027344 L 967.996094 642.882812 L 471.300781 642.882812 Z M 471.300781 119.027344 " fill-opacity="1" fill-rule="nonzero"/></g></g><g clip-path="url(#cae8b00822)"><g clip-path="url(#38d0be4d30)"><path fill="#a7a9ac" d="M 471.300781 119.027344 L 967.996094 119.027344 L 967.996094 642.882812 L 471.300781 642.882812 Z M 471.300781 119.027344 " fill-opacity="1" fill-rule="nonzero"/></g></g><g clip-path="url(#d7ae7c6420)"><g clip-path="url(#40cfd08a72)"><path fill="#a7a9ac" d="M 471.300781 119.027344 L 967.996094 119.027344 L 967.996094 642.882812 L 471.300781 642.882812 Z M 471.300781 119.027344 " fill-opacity="1" fill-rule="nonzero"/></g></g><g clip-path="url(#310cdab2b7)"><g clip-path="url(#30a609da2f)"><path fill="#a7a9ac" d="M 471.300781 119.027344 L 967.996094 119.027344 L 967.996094 642.882812 L 471.300781 642.882812 Z M 471.300781 119.027344 " fill-opacity="1" fill-rule="nonzero"/></g></g><g clip-path="url(#f6b204bdc0)"><g clip-path="url(#afca09d229)"><path fill="#a7a9ac" d="M 471.300781 119.027344 L 967.996094 119.027344 L 967.996094 642.882812 L 471.300781 642.882812 Z M 471.300781 119.027344 " fill-opacity="1" fill-rule="nonzero"/></g></g><g fill="#231f20" fill-opacity="1"><g transform="translate(650.32147, 430.944146)"><g><path d="M 1.328125 0 L 3.421875 -23.390625 C 3.441406 -23.597656 3.457031 -23.84375 3.46875 -24.125 C 3.488281 -24.414062 3.5 -24.6875 3.5 -24.9375 C 3.5 -25.5 3.445312 -26.09375 3.34375 -26.71875 C 3.25 -27.34375 3.113281 -27.972656 2.9375 -28.609375 C 2.90625 -28.773438 2.859375 -28.941406 2.796875 -29.109375 C 2.734375 -29.285156 2.671875 -29.457031 2.609375 -29.625 C 2.554688 -29.789062 2.507812 -29.953125 2.46875 -30.109375 C 2.363281 -30.390625 2.265625 -30.671875 2.171875 -30.953125 C 2.085938 -31.234375 1.992188 -31.515625 1.890625 -31.796875 L 5.625 -31.796875 C 5.863281 -31.234375 6.085938 -30.613281 6.296875 -29.9375 C 6.503906 -29.269531 6.65625 -28.65625 6.75 -28.09375 L 6.96875 -28.09375 C 7.195312 -28.601562 7.5 -29.101562 7.875 -29.59375 C 8.257812 -30.082031 8.664062 -30.492188 9.09375 -30.828125 C 9.550781 -31.203125 10.164062 -31.535156 10.9375 -31.828125 C 11.707031 -32.128906 12.570312 -32.28125 13.53125 -32.28125 C 14.53125 -32.28125 15.390625 -32.101562 16.109375 -31.75 C 16.835938 -31.394531 17.429688 -30.929688 17.890625 -30.359375 C 18.203125 -29.984375 18.476562 -29.515625 18.71875 -28.953125 C 18.957031 -28.398438 19.140625 -27.800781 19.265625 -27.15625 C 19.460938 -26.320312 19.609375 -25.347656 19.703125 -24.234375 C 19.804688 -23.128906 19.859375 -21.9375 19.859375 -20.65625 L 19.859375 0 L 10.5 0 L 10.5 -3.15625 L 16.109375 -3.15625 L 16.109375 -20.65625 C 16.109375 -22.457031 16.050781 -23.773438 15.9375 -24.609375 C 15.820312 -25.453125 15.691406 -26.128906 15.546875 -26.640625 C 15.335938 -27.347656 15.0625 -27.867188 14.71875 -28.203125 C 14.382812 -28.535156 14.054688 -28.753906 13.734375 -28.859375 C 13.421875 -28.972656 13.15625 -29.03125 12.9375 -29.03125 C 12 -29.03125 11.210938 -28.851562 10.578125 -28.5 C 9.953125 -28.144531 9.425781 -27.6875 9 -27.125 C 8.550781 -26.570312 8.1875 -26.019531 7.90625 -25.46875 C 7.625 -24.914062 7.394531 -24.335938 7.21875 -23.734375 L 5.078125 0 Z M 1.328125 0 "/></g></g></g><g fill="#231f20" fill-opacity="1"><g transform="translate(674.672731, 430.944146)"><g><path d="M 15.71875 -36.03125 L 16.09375 -35.484375 C 15.78125 -34.117188 15.429688 -32.78125 15.046875 -31.46875 C 14.660156 -30.15625 14.234375 -28.859375 13.765625 -27.578125 C 13.304688 -26.296875 12.804688 -25.019531 12.265625 -23.75 L 9.390625 -23.75 C 9.785156 -25.21875 10.128906 -26.648438 10.421875 -28.046875 C 10.722656 -29.441406 10.984375 -30.800781 11.203125 -32.125 C 11.421875 -33.457031 11.597656 -34.757812 11.734375 -36.03125 Z M 7.5625 -36.03125 L 7.953125 -35.484375 C 7.640625 -34.117188 7.289062 -32.78125 6.90625 -31.46875 C 6.519531 -30.15625 6.097656 -28.859375 5.640625 -27.578125 C 5.179688 -26.296875 4.679688 -25.019531 4.140625 -23.75 L 1.234375 -23.75 C 1.515625 -24.769531 1.769531 -25.816406 2 -26.890625 C 2.238281 -27.972656 2.460938 -29.046875 2.671875 -30.109375 C 2.878906 -31.179688 3.054688 -32.21875 3.203125 -33.21875 C 3.347656 -34.21875 3.460938 -35.15625 3.546875 -36.03125 Z M 7.5625 -36.03125 "/></g></g></g><g fill="#231f20" fill-opacity="1"><g transform="translate(693.356875, 430.944146)"><g><path d="M 11.4375 0.5 C 9.90625 0.5 8.570312 0.132812 7.4375 -0.59375 C 6.46875 -1.164062 5.640625 -1.960938 4.953125 -2.984375 C 4.273438 -4.015625 3.71875 -5.242188 3.28125 -6.671875 C 2.894531 -7.941406 2.609375 -9.363281 2.421875 -10.9375 C 2.234375 -12.519531 2.140625 -14.222656 2.140625 -16.046875 C 2.140625 -18.015625 2.265625 -19.769531 2.515625 -21.3125 C 2.773438 -22.851562 3.164062 -24.222656 3.6875 -25.421875 C 4.21875 -26.628906 4.882812 -27.707031 5.6875 -28.65625 L 5.765625 -28.828125 L 2.609375 -28.640625 L 2.609375 -31.8125 C 3.742188 -31.914062 4.8125 -32.003906 5.8125 -32.078125 C 6.8125 -32.148438 7.785156 -32.203125 8.734375 -32.234375 C 9.691406 -32.265625 10.675781 -32.28125 11.6875 -32.28125 C 12.488281 -32.28125 13.238281 -32.160156 13.9375 -31.921875 C 14.644531 -31.679688 15.304688 -31.347656 15.921875 -30.921875 C 16.578125 -30.453125 17.179688 -29.828125 17.734375 -29.046875 C 18.296875 -28.265625 18.773438 -27.332031 19.171875 -26.25 C 19.660156 -24.976562 20.03125 -23.472656 20.28125 -21.734375 C 20.539062 -20.003906 20.671875 -18.054688 20.671875 -15.890625 C 20.671875 -14.066406 20.578125 -12.378906 20.390625 -10.828125 C 20.203125 -9.273438 19.921875 -7.875 19.546875 -6.625 C 19.203125 -5.507812 18.773438 -4.515625 18.265625 -3.640625 C 17.765625 -2.773438 17.1875 -2.035156 16.53125 -1.421875 C 15.164062 -0.140625 13.46875 0.5 11.4375 0.5 Z M 11.390625 -2.765625 C 12.191406 -2.765625 12.898438 -2.960938 13.515625 -3.359375 C 14.128906 -3.765625 14.703125 -4.441406 15.234375 -5.390625 C 15.578125 -6.046875 15.867188 -6.890625 16.109375 -7.921875 C 16.347656 -8.953125 16.523438 -10.128906 16.640625 -11.453125 C 16.753906 -12.785156 16.8125 -14.25 16.8125 -15.84375 C 16.8125 -18.34375 16.675781 -20.484375 16.40625 -22.265625 C 16.132812 -24.046875 15.734375 -25.421875 15.203125 -26.390625 C 14.710938 -27.304688 14.160156 -27.972656 13.546875 -28.390625 C 12.941406 -28.816406 12.269531 -29.03125 11.53125 -29.03125 C 11.132812 -29.007812 10.753906 -28.988281 10.390625 -28.96875 C 10.035156 -28.957031 9.671875 -28.9375 9.296875 -28.90625 C 8.046875 -27.539062 7.1875 -25.835938 6.71875 -23.796875 C 6.25 -21.765625 6.015625 -19.320312 6.015625 -16.46875 C 6.015625 -13.59375 6.148438 -11.257812 6.421875 -9.46875 C 6.691406 -7.6875 7.082031 -6.320312 7.59375 -5.375 C 8.082031 -4.445312 8.632812 -3.78125 9.25 -3.375 C 9.863281 -2.96875 10.578125 -2.765625 11.390625 -2.765625 Z M 11.390625 -2.765625 "/></g></g></g><g fill="#231f20" fill-opacity="1"><g transform="translate(632.312078, 132.764318)"><g><path d="M 2.3125 12.125 L 2.3125 -20.328125 C 2.3125 -21.804688 2.253906 -23.238281 2.140625 -24.625 C 2.023438 -26.019531 1.882812 -27.242188 1.71875 -28.296875 C 1.5625 -29.347656 1.40625 -30.101562 1.25 -30.5625 C 1.207031 -30.769531 1.148438 -30.972656 1.078125 -31.171875 C 1.015625 -31.367188 0.953125 -31.578125 0.890625 -31.796875 L 7.4375 -31.796875 C 7.570312 -31.378906 7.695312 -30.941406 7.8125 -30.484375 C 7.925781 -30.023438 8.015625 -29.539062 8.078125 -29.03125 C 8.265625 -28.113281 8.414062 -27.160156 8.53125 -26.171875 C 8.644531 -25.179688 8.726562 -24.191406 8.78125 -23.203125 C 8.84375 -22.222656 8.875 -21.265625 8.875 -20.328125 L 8.875 12.125 Z M 2.3125 12.125 "/></g></g></g><g fill="#231f20" fill-opacity="1"><g transform="translate(645.329104, 132.764318)"><g><path d="M 2.78125 0 L 2.78125 -31.796875 L 9.359375 -31.796875 L 9.359375 0 Z M 2.78125 0 "/></g></g></g><g fill="#231f20" fill-opacity="1"><g transform="translate(658.814283, 132.764318)"><g><path d="M 2.78125 -10.75 L 2.78125 -31.796875 L 9.3125 -31.796875 L 9.3125 -17.078125 L 5.28125 -10.75 Z M 2.78125 -10.75 "/></g></g></g><g fill="#231f20" fill-opacity="1"><g transform="translate(672.299462, 132.764318)"><g><path d="M 6.1875 0 L 8.703125 -12.25 L 12.625 -26.484375 L 1.0625 -26.484375 L 1.0625 -38.34375 L 7.609375 -38.34375 L 7.609375 -31.796875 L 19.203125 -31.796875 L 19.203125 -27.359375 L 15.0625 -12.21875 L 12.546875 0 Z M 6.1875 0 "/></g></g></g><g fill="#231f20" fill-opacity="1"><g transform="translate(693.940363, 132.764318)"><g><path d="M 1.28125 1.484375 L 1.28125 -3.890625 L 4.640625 -4.5625 C 4.941406 -4.625 5.238281 -4.679688 5.53125 -4.734375 C 5.832031 -4.785156 6.140625 -4.84375 6.453125 -4.90625 L 1.0625 -31.796875 L 7.609375 -31.796875 L 10.296875 -17.453125 L 11.609375 -7.65625 C 12.378906 -8.414062 12.992188 -9.269531 13.453125 -10.21875 C 13.910156 -11.175781 14.265625 -12.1875 14.515625 -13.25 C 14.773438 -14.320312 14.957031 -15.382812 15.0625 -16.4375 L 16.359375 -31.765625 L 22.921875 -31.765625 L 21.703125 -17.515625 C 21.609375 -16.484375 21.46875 -15.332031 21.28125 -14.0625 C 21.09375 -12.800781 20.785156 -11.519531 20.359375 -10.21875 C 19.941406 -8.925781 19.320312 -7.707031 18.5 -6.5625 C 17.550781 -4.832031 16.265625 -3.414062 14.640625 -2.3125 C 13.015625 -1.21875 10.894531 -0.40625 8.28125 0.125 C 7.113281 0.332031 5.945312 0.550781 4.78125 0.78125 C 3.613281 1.019531 2.445312 1.253906 1.28125 1.484375 Z M 1.28125 1.484375 "/></g></g></g><g fill="#231f20" fill-opacity="1"><g transform="translate(719.252567, 132.764318)"><g/></g></g><g fill="#231f20" fill-opacity="1"><g transform="translate(729.657788, 132.764318)"><g><path d="M 2.09375 0 L 2.09375 -5.296875 L 12.15625 -5.296875 L 12.15625 -21.25 C 12.15625 -22.90625 11.953125 -24.1875 11.546875 -25.09375 C 11.140625 -26.007812 10.390625 -26.570312 9.296875 -26.78125 C 9.023438 -26.832031 8.742188 -26.867188 8.453125 -26.890625 C 8.160156 -26.921875 7.90625 -26.9375 7.6875 -26.9375 C 6.46875 -26.9375 5.492188 -26.910156 4.765625 -26.859375 C 4.035156 -26.804688 3.132812 -26.691406 2.0625 -26.515625 L 2.0625 -31.890625 C 3.050781 -32.015625 4.015625 -32.109375 4.953125 -32.171875 C 5.890625 -32.242188 6.84375 -32.28125 7.8125 -32.28125 C 9.4375 -32.28125 10.765625 -32.195312 11.796875 -32.03125 C 12.835938 -31.875 13.710938 -31.644531 14.421875 -31.34375 C 15.359375 -30.96875 16.097656 -30.507812 16.640625 -29.96875 C 17.191406 -29.425781 17.648438 -28.8125 18.015625 -28.125 C 18.210938 -27.769531 18.363281 -27.191406 18.46875 -26.390625 C 18.570312 -25.597656 18.644531 -24.734375 18.6875 -23.796875 C 18.726562 -22.867188 18.75 -22.007812 18.75 -21.21875 L 18.75 -5.296875 L 22.0625 -5.296875 L 22.0625 0 Z M 2.09375 0 "/></g></g></g><g fill="#231f20" fill-opacity="1"><g transform="translate(753.861208, 132.764318)"><g><path d="M 6.1875 0 L 8.703125 -12.25 L 12.625 -26.484375 L 1.0625 -26.484375 L 1.0625 -38.34375 L 7.609375 -38.34375 L 7.609375 -31.796875 L 19.203125 -31.796875 L 19.203125 -27.359375 L 15.0625 -12.21875 L 12.546875 0 Z M 6.1875 0 "/></g></g></g><g fill="#231f20" fill-opacity="1"><g transform="translate(775.502106, 132.764318)"><g><path d="M 3.625 0 L 1.0625 -31.796875 L 7.59375 -31.796875 L 8.96875 -15.421875 C 9.625 -15.535156 10.160156 -15.75 10.578125 -16.0625 C 11.003906 -16.375 11.335938 -16.785156 11.578125 -17.296875 C 11.859375 -17.835938 12.0625 -18.503906 12.1875 -19.296875 C 12.320312 -20.097656 12.441406 -21.039062 12.546875 -22.125 L 13.3125 -31.796875 L 19.78125 -31.796875 L 18.875 -19.9375 C 18.757812 -18.707031 18.566406 -17.660156 18.296875 -16.796875 C 18.023438 -15.929688 17.628906 -15.113281 17.109375 -14.34375 C 16.347656 -13.3125 15.410156 -12.488281 14.296875 -11.875 C 13.179688 -11.269531 11.75 -10.882812 10 -10.71875 C 9.882812 -10.71875 9.773438 -10.71875 9.671875 -10.71875 C 9.566406 -10.71875 9.457031 -10.71875 9.34375 -10.71875 L 9.78125 -5.296875 L 12.5625 -5.296875 C 14.207031 -5.296875 15.691406 -5.613281 17.015625 -6.25 C 18.335938 -6.882812 19.453125 -7.789062 20.359375 -8.96875 C 21.960938 -11.039062 22.921875 -13.882812 23.234375 -17.5 L 24.390625 -31.796875 L 30.921875 -31.796875 L 29.75 -17.515625 C 29.5625 -15.222656 29.15625 -13.046875 28.53125 -10.984375 C 27.90625 -8.929688 27.019531 -7.242188 25.875 -5.921875 C 25.414062 -5.222656 24.742188 -4.476562 23.859375 -3.6875 C 22.972656 -2.90625 21.976562 -2.25 20.875 -1.71875 C 19.757812 -1.164062 18.476562 -0.738281 17.03125 -0.4375 C 15.582031 -0.144531 14.09375 0 12.5625 0 Z M 3.625 0 "/></g></g></g><g fill="#231f20" fill-opacity="1"><g transform="translate(622.774336, 675.230613)"><g><path d="M 2.3125 12.125 L 2.3125 -20.328125 C 2.3125 -21.804688 2.253906 -23.238281 2.140625 -24.625 C 2.023438 -26.019531 1.882812 -27.242188 1.71875 -28.296875 C 1.5625 -29.347656 1.40625 -30.101562 1.25 -30.5625 C 1.207031 -30.769531 1.148438 -30.972656 1.078125 -31.171875 C 1.015625 -31.367188 0.953125 -31.578125 0.890625 -31.796875 L 7.4375 -31.796875 C 7.570312 -31.378906 7.695312 -30.941406 7.8125 -30.484375 C 7.925781 -30.023438 8.015625 -29.539062 8.078125 -29.03125 C 8.265625 -28.113281 8.414062 -27.160156 8.53125 -26.171875 C 8.644531 -25.179688 8.726562 -24.191406 8.78125 -23.203125 C 8.84375 -22.222656 8.875 -21.265625 8.875 -20.328125 L 8.875 12.125 Z M 2.3125 12.125 "/></g></g></g><g fill="#231f20" fill-opacity="1"><g transform="translate(635.791362, 675.230613)"><g><path d="M 2.78125 0 L 2.78125 -31.796875 L 9.359375 -31.796875 L 9.359375 0 Z M 2.78125 0 "/></g></g></g><g fill="#231f20" fill-opacity="1"><g transform="translate(649.276541, 675.230613)"><g><path d="M 3.453125 0.5 C 3.085938 0.5 2.65625 0.4375 2.15625 0.3125 C 1.664062 0.1875 1.207031 0.0234375 0.78125 -0.171875 L 0.78125 -5.453125 C 1.3125 -5.148438 1.835938 -5 2.359375 -5 C 3.296875 -5 3.882812 -5.351562 4.125 -6.0625 C 4.363281 -6.769531 4.484375 -7.738281 4.484375 -8.96875 L 4.484375 -26.3125 C 4.109375 -26.28125 3.722656 -26.222656 3.328125 -26.140625 C 2.929688 -26.054688 2.535156 -25.957031 2.140625 -25.84375 L 2.140625 -31.09375 C 2.710938 -31.226562 3.539062 -31.382812 4.625 -31.5625 C 5.71875 -31.75 6.953125 -31.914062 8.328125 -32.0625 C 9.710938 -32.207031 11.125 -32.28125 12.5625 -32.28125 C 13.800781 -32.28125 14.828125 -32.242188 15.640625 -32.171875 C 16.460938 -32.109375 17.164062 -32.007812 17.75 -31.875 C 18.332031 -31.738281 18.875 -31.5625 19.375 -31.34375 C 19.800781 -31.164062 20.191406 -30.960938 20.546875 -30.734375 C 20.910156 -30.503906 21.234375 -30.25 21.515625 -29.96875 C 22.515625 -29.039062 23.132812 -27.859375 23.375 -26.421875 C 23.613281 -24.984375 23.734375 -23.25 23.734375 -21.21875 L 23.734375 0 L 17.15625 0 L 17.15625 -21.25 C 17.15625 -22.625 17.019531 -23.703125 16.75 -24.484375 C 16.488281 -25.265625 16.023438 -25.816406 15.359375 -26.140625 C 14.972656 -26.453125 14.445312 -26.675781 13.78125 -26.8125 C 13.53125 -26.84375 13.175781 -26.867188 12.71875 -26.890625 C 12.269531 -26.921875 11.726562 -26.925781 11.09375 -26.90625 L 11.09375 -8.96875 C 11.09375 -7.738281 11.019531 -6.59375 10.875 -5.53125 C 10.738281 -4.46875 10.515625 -3.546875 10.203125 -2.765625 C 9.742188 -1.515625 8.988281 -0.648438 7.9375 -0.171875 C 7.28125 0.140625 6.546875 0.328125 5.734375 0.390625 C 4.929688 0.460938 4.171875 0.5 3.453125 0.5 Z M 3.453125 0.5 "/></g></g></g><g fill="#231f20" fill-opacity="1"><g transform="translate(676.880238, 675.230613)"><g><path d="M 2.78125 0 L 2.78125 -31.21875 C 3.46875 -31.363281 4.15625 -31.488281 4.84375 -31.59375 C 5.539062 -31.707031 6.21875 -31.804688 6.875 -31.890625 C 7.894531 -32.015625 8.890625 -32.109375 9.859375 -32.171875 C 10.828125 -32.242188 11.726562 -32.28125 12.5625 -32.28125 C 14.570312 -32.28125 16.203125 -32.109375 17.453125 -31.765625 C 18.710938 -31.421875 19.742188 -30.882812 20.546875 -30.15625 C 20.828125 -29.914062 21.070312 -29.660156 21.28125 -29.390625 C 21.488281 -29.117188 21.671875 -28.828125 21.828125 -28.515625 C 22.328125 -27.609375 22.65625 -26.554688 22.8125 -25.359375 C 22.976562 -24.160156 23.0625 -22.78125 23.0625 -21.21875 L 23.0625 0 L 16.484375 0 L 16.484375 -21.25 C 16.484375 -22.332031 16.40625 -23.25 16.25 -24 C 16.09375 -24.757812 15.828125 -25.351562 15.453125 -25.78125 C 15.085938 -26.1875 14.628906 -26.476562 14.078125 -26.65625 C 13.535156 -26.84375 12.828125 -26.9375 11.953125 -26.9375 C 11.578125 -26.9375 11.179688 -26.921875 10.765625 -26.890625 C 10.359375 -26.859375 9.890625 -26.800781 9.359375 -26.71875 L 9.359375 0 Z M 2.78125 0 "/></g></g></g><g fill="#231f20" fill-opacity="1"><g transform="translate(703.818659, 675.230613)"><g><path d="M 3.453125 0.5 C 3.085938 0.5 2.65625 0.4375 2.15625 0.3125 C 1.664062 0.1875 1.207031 0.0234375 0.78125 -0.171875 L 0.78125 -5.453125 C 1.3125 -5.148438 1.835938 -5 2.359375 -5 C 3.296875 -5 3.882812 -5.351562 4.125 -6.0625 C 4.363281 -6.769531 4.484375 -7.738281 4.484375 -8.96875 L 4.484375 -26.3125 C 4.109375 -26.28125 3.722656 -26.222656 3.328125 -26.140625 C 2.929688 -26.054688 2.535156 -25.957031 2.140625 -25.84375 L 2.140625 -31.09375 C 2.710938 -31.226562 3.539062 -31.382812 4.625 -31.5625 C 5.71875 -31.75 6.953125 -31.914062 8.328125 -32.0625 C 9.710938 -32.207031 11.125 -32.28125 12.5625 -32.28125 C 13.800781 -32.28125 14.828125 -32.242188 15.640625 -32.171875 C 16.460938 -32.109375 17.164062 -32.007812 17.75 -31.875 C 18.332031 -31.738281 18.875 -31.5625 19.375 -31.34375 C 19.800781 -31.164062 20.191406 -30.960938 20.546875 -30.734375 C 20.910156 -30.503906 21.234375 -30.25 21.515625 -29.96875 C 22.515625 -29.039062 23.132812 -27.859375 23.375 -26.421875 C 23.613281 -24.984375 23.734375 -23.25 23.734375 -21.21875 L 23.734375 0 L 17.15625 0 L 17.15625 -21.25 C 17.15625 -22.625 17.019531 -23.703125 16.75 -24.484375 C 16.488281 -25.265625 16.023438 -25.816406 15.359375 -26.140625 C 14.972656 -26.453125 14.445312 -26.675781 13.78125 -26.8125 C 13.53125 -26.84375 13.175781 -26.867188 12.71875 -26.890625 C 12.269531 -26.921875 11.726562 -26.925781 11.09375 -26.90625 L 11.09375 -8.96875 C 11.09375 -7.738281 11.019531 -6.59375 10.875 -5.53125 C 10.738281 -4.46875 10.515625 -3.546875 10.203125 -2.765625 C 9.742188 -1.515625 8.988281 -0.648438 7.9375 -0.171875 C 7.28125 0.140625 6.546875 0.328125 5.734375 0.390625 C 4.929688 0.460938 4.171875 0.5 3.453125 0.5 Z M 3.453125 0.5 "/></g></g></g><g fill="#231f20" fill-opacity="1"><g transform="translate(731.422351, 675.230613)"><g/></g></g><g fill="#231f20" fill-opacity="1"><g transform="translate(741.827571, 675.230613)"><g><path d="M 2.09375 0 L 2.09375 -5.296875 L 12.15625 -5.296875 L 12.15625 -21.25 C 12.15625 -22.90625 11.953125 -24.1875 11.546875 -25.09375 C 11.140625 -26.007812 10.390625 -26.570312 9.296875 -26.78125 C 9.023438 -26.832031 8.742188 -26.867188 8.453125 -26.890625 C 8.160156 -26.921875 7.90625 -26.9375 7.6875 -26.9375 C 6.46875 -26.9375 5.492188 -26.910156 4.765625 -26.859375 C 4.035156 -26.804688 3.132812 -26.691406 2.0625 -26.515625 L 2.0625 -31.890625 C 3.050781 -32.015625 4.015625 -32.109375 4.953125 -32.171875 C 5.890625 -32.242188 6.84375 -32.28125 7.8125 -32.28125 C 9.4375 -32.28125 10.765625 -32.195312 11.796875 -32.03125 C 12.835938 -31.875 13.710938 -31.644531 14.421875 -31.34375 C 15.359375 -30.96875 16.097656 -30.507812 16.640625 -29.96875 C 17.191406 -29.425781 17.648438 -28.8125 18.015625 -28.125 C 18.210938 -27.769531 18.363281 -27.191406 18.46875 -26.390625 C 18.570312 -25.597656 18.644531 -24.734375 18.6875 -23.796875 C 18.726562 -22.867188 18.75 -22.007812 18.75 -21.21875 L 18.75 -5.296875 L 22.0625 -5.296875 L 22.0625 0 Z M 2.09375 0 "/></g></g></g><g fill="#231f20" fill-opacity="1"><g transform="translate(766.030992, 675.230613)"><g><path d="M 6.1875 0 L 8.703125 -12.25 L 12.625 -26.484375 L 1.0625 -26.484375 L 1.0625 -38.34375 L 7.609375 -38.34375 L 7.609375 -31.796875 L 19.203125 -31.796875 L 19.203125 -27.359375 L 15.0625 -12.21875 L 12.546875 0 Z M 6.1875 0 "/></g></g></g><g fill="#231f20" fill-opacity="1"><g transform="translate(787.671889, 675.230613)"><g><path d="M 3.625 0 L 1.0625 -31.796875 L 7.59375 -31.796875 L 8.96875 -15.421875 C 9.625 -15.535156 10.160156 -15.75 10.578125 -16.0625 C 11.003906 -16.375 11.335938 -16.785156 11.578125 -17.296875 C 11.859375 -17.835938 12.0625 -18.503906 12.1875 -19.296875 C 12.320312 -20.097656 12.441406 -21.039062 12.546875 -22.125 L 13.3125 -31.796875 L 19.78125 -31.796875 L 18.875 -19.9375 C 18.757812 -18.707031 18.566406 -17.660156 18.296875 -16.796875 C 18.023438 -15.929688 17.628906 -15.113281 17.109375 -14.34375 C 16.347656 -13.3125 15.410156 -12.488281 14.296875 -11.875 C 13.179688 -11.269531 11.75 -10.882812 10 -10.71875 C 9.882812 -10.71875 9.773438 -10.71875 9.671875 -10.71875 C 9.566406 -10.71875 9.457031 -10.71875 9.34375 -10.71875 L 9.78125 -5.296875 L 12.5625 -5.296875 C 14.207031 -5.296875 15.691406 -5.613281 17.015625 -6.25 C 18.335938 -6.882812 19.453125 -7.789062 20.359375 -8.96875 C 21.960938 -11.039062 22.921875 -13.882812 23.234375 -17.5 L 24.390625 -31.796875 L 30.921875 -31.796875 L 29.75 -17.515625 C 29.5625 -15.222656 29.15625 -13.046875 28.53125 -10.984375 C 27.90625 -8.929688 27.019531 -7.242188 25.875 -5.921875 C 25.414062 -5.222656 24.742188 -4.476562 23.859375 -3.6875 C 22.972656 -2.90625 21.976562 -2.25 20.875 -1.71875 C 19.757812 -1.164062 18.476562 -0.738281 17.03125 -0.4375 C 15.582031 -0.144531 14.09375 0 12.5625 0 Z M 3.625 0 "/></g></g></g><g fill="#231f20" fill-opacity="1"><g transform="translate(725.800458, 429.432507)"><g/></g></g><g fill="#231f20" fill-opacity="1"><g transform="translate(734.391899, 429.432507)"><g><path d="M 9.625 -20.234375 C 11.3125 -20.234375 12.75 -19.828125 13.9375 -19.015625 C 15.125 -18.203125 16.03125 -17.070312 16.65625 -15.625 C 17.289062 -14.175781 17.609375 -12.5 17.609375 -10.59375 C 17.609375 -8.40625 17.25 -6.484375 16.53125 -4.828125 C 15.820312 -3.171875 14.773438 -1.875 13.390625 -0.9375 C 12.003906 -0.0078125 10.289062 0.453125 8.25 0.453125 C 7 0.453125 5.875 0.332031 4.875 0.09375 C 3.882812 -0.132812 3.015625 -0.472656 2.265625 -0.921875 L 2.265625 -4.5 C 3.097656 -3.9375 4.007812 -3.488281 5 -3.15625 C 5.988281 -2.832031 6.976562 -2.671875 7.96875 -2.671875 C 9.34375 -2.671875 10.46875 -3.023438 11.34375 -3.734375 C 12.226562 -4.453125 12.890625 -5.398438 13.328125 -6.578125 C 13.765625 -7.765625 13.984375 -9.066406 13.984375 -10.484375 C 13.984375 -12.660156 13.503906 -14.320312 12.546875 -15.46875 C 11.585938 -16.613281 10.210938 -17.1875 8.421875 -17.1875 C 7.671875 -17.1875 6.925781 -17.113281 6.1875 -16.96875 C 5.445312 -16.820312 4.707031 -16.640625 3.96875 -16.421875 L 2.546875 -17.796875 L 3.546875 -33.015625 L 15.859375 -33.015625 L 15.859375 -29.765625 L 6.53125 -29.765625 L 5.84375 -19.78125 C 6.476562 -19.9375 7.113281 -20.050781 7.75 -20.125 C 8.394531 -20.195312 9.019531 -20.234375 9.625 -20.234375 Z M 9.625 -20.234375 "/></g></g></g><g fill="#231f20" fill-opacity="1"><g transform="translate(754.061471, 429.432507)"><g><path d="M 19.03125 -7.265625 L 15.53125 -7.265625 L 15.53125 0 L 12.015625 0 L 12.015625 -7.265625 L 0.765625 -7.265625 L 0.765625 -10.203125 L 11.71875 -33.28125 L 15.53125 -33.28125 L 15.53125 -10.328125 L 19.03125 -10.328125 Z M 12.015625 -10.328125 L 12.015625 -23.640625 C 12.015625 -23.984375 12.019531 -24.375 12.03125 -24.8125 C 12.050781 -25.25 12.066406 -25.695312 12.078125 -26.15625 C 12.097656 -26.613281 12.113281 -27.050781 12.125 -27.46875 C 12.144531 -27.894531 12.160156 -28.269531 12.171875 -28.59375 L 12.015625 -28.59375 C 11.773438 -27.863281 11.515625 -27.160156 11.234375 -26.484375 C 10.953125 -25.804688 10.675781 -25.15625 10.40625 -24.53125 L 3.953125 -10.328125 Z M 12.015625 -10.328125 "/></g></g></g></svg>