<svg xmlns="http://www.w3.org/2000/svg" xmlns:xlink="http://www.w3.org/1999/xlink" width="794" zoomAndPan="magnify" viewBox="0 0 1440 809.999993" height="1123" preserveAspectRatio="xMidYMid meet" version="1.0"><defs><g/><clipPath id="ede95ffbb3"><path d="M 508.644531 404.738281 L 943.542969 404.738281 L 943.542969 406.316406 L 508.644531 406.316406 Z M 508.644531 404.738281 " clip-rule="nonzero"/></clipPath><clipPath id="51f74cd314"><path d="M 940.273438 400.191406 L 958 400.191406 L 958 410 L 940.273438 410 Z M 940.273438 400.191406 " clip-rule="nonzero"/></clipPath><clipPath id="6a318f1470"><path d="M 940.421875 409.910156 L 957.503906 405.339844 L 940.421875 400.769531 Z M 940.421875 409.910156 " clip-rule="nonzero"/></clipPath><clipPath id="a6bc2a6f00"><path d="M 507.855469 327.960938 L 509.433594 327.960938 L 509.433594 660.738281 L 507.855469 660.738281 Z M 507.855469 327.960938 " clip-rule="nonzero"/></clipPath><clipPath id="6483b2b16b"><path d="M 503 313.011719 L 513.246094 313.011719 L 513.246094 332 L 503 332 Z M 503 313.011719 " clip-rule="nonzero"/></clipPath><clipPath id="5555faba3e"><path d="M 513.027344 331.078125 L 508.457031 313.996094 L 503.886719 331.078125 Z M 513.027344 331.078125 " clip-rule="nonzero"/></clipPath><clipPath id="1cfbc51e6f"><path d="M 578 404.625 L 857 404.625 L 857 441.566406 L 578 441.566406 Z M 578 404.625 " clip-rule="nonzero"/></clipPath><clipPath id="955fce164e"><path d="M 578.363281 404.960938 L 856.738281 439.757812 L 856.550781 441.332031 L 578.144531 406.535156 Z M 578.363281 404.960938 " clip-rule="nonzero"/></clipPath><clipPath id="39e4a70311"><path d="M 509 439 L 857 439 L 857 615.921875 L 509 615.921875 Z M 509 439 " clip-rule="nonzero"/></clipPath><clipPath id="8c5212e70b"><path d="M 509.464844 614.027344 L 856.296875 439.851562 L 856.992188 441.269531 L 510.1875 615.445312 Z M 509.464844 614.027344 " clip-rule="nonzero"/></clipPath><clipPath id="3b79989f22"><path d="M 509 405 L 579.738281 405 L 579.738281 615.921875 L 509 615.921875 Z M 509 405 " clip-rule="nonzero"/></clipPath><clipPath id="9d7ffb14b2"><path d="M 509.085938 614.5 L 577.511719 405.527344 L 579.027344 406.03125 L 510.597656 615.003906 Z M 509.085938 614.5 " clip-rule="nonzero"/></clipPath><clipPath id="bded62031d"><path d="M 573 401 L 583 401 L 583 410.535156 L 573 410.535156 Z M 573 401 " clip-rule="nonzero"/></clipPath><clipPath id="c10b83fa17"><path d="M 582.714844 405.75 C 582.714844 408.207031 580.726562 410.222656 578.238281 410.222656 C 575.75 410.222656 573.761719 408.207031 573.761719 405.75 C 573.761719 403.289062 575.75 401.273438 578.238281 401.273438 C 580.726562 401.273438 582.714844 403.257812 582.714844 405.75 " clip-rule="nonzero"/></clipPath><clipPath id="f6cb71698c"><path d="M 852 436 L 861.960938 436 L 861.960938 446 L 852 446 Z M 852 436 " clip-rule="nonzero"/></clipPath><clipPath id="5f5161161f"><path d="M 861.121094 440.546875 C 861.121094 443.003906 859.136719 445.019531 856.644531 445.019531 C 854.15625 445.019531 852.167969 443.003906 852.167969 440.546875 C 852.167969 438.085938 854.15625 436.070312 856.644531 436.070312 C 859.136719 436.070312 861.121094 438.054688 861.121094 440.546875 " clip-rule="nonzero"/></clipPath><clipPath id="8946c67d11"><path d="M 504 610.011719 L 513.246094 610.011719 L 513.246094 620 L 504 620 Z M 504 610.011719 " clip-rule="nonzero"/></clipPath><clipPath id="609b531328"><path d="M 513.121094 614.71875 C 513.121094 617.175781 511.132812 619.195312 508.644531 619.195312 C 506.15625 619.195312 504.167969 617.175781 504.167969 614.71875 C 504.167969 612.261719 506.1875 610.273438 508.644531 610.273438 C 511.101562 610.273438 513.121094 612.261719 513.121094 614.75 " clip-rule="nonzero"/></clipPath><clipPath id="26b687a8e2"><path d="M 641 540 L 650.664062 540 L 650.664062 549.429688 L 641 549.429688 Z M 641 540 " clip-rule="nonzero"/></clipPath><clipPath id="4ac71c3943"><path d="M 650.480469 544.808594 C 650.480469 547.269531 648.492188 549.285156 646.003906 549.285156 C 643.515625 549.285156 641.527344 547.269531 641.527344 544.808594 C 641.527344 542.351562 643.515625 540.335938 646.003906 540.335938 C 648.492188 540.335938 650.480469 542.320312 650.480469 544.808594 " clip-rule="nonzero"/></clipPath></defs><g clip-path="url(#ede95ffbb3)"><path fill="#231f20" d="M 488.125 298.238281 L 972.78125 298.238281 L 972.78125 676.503906 L 488.125 676.503906 Z M 488.125 298.238281 " fill-opacity="1" fill-rule="nonzero"/></g><g clip-path="url(#51f74cd314)"><g clip-path="url(#6a318f1470)"><path fill="#231f20" d="M 488.125 298.238281 L 972.78125 298.238281 L 972.78125 676.503906 L 488.125 676.503906 Z M 488.125 298.238281 " fill-opacity="1" fill-rule="nonzero"/></g></g><g clip-path="url(#a6bc2a6f00)"><path fill="#231f20" d="M 488.125 298.238281 L 972.78125 298.238281 L 972.78125 676.503906 L 488.125 676.503906 Z M 488.125 298.238281 " fill-opacity="1" fill-rule="nonzero"/></g><g clip-path="url(#6483b2b16b)"><g clip-path="url(#5555faba3e)"><path fill="#231f20" d="M 488.125 298.238281 L 972.78125 298.238281 L 972.78125 676.503906 L 488.125 676.503906 Z M 488.125 298.238281 " fill-opacity="1" fill-rule="nonzero"/></g></g><g clip-path="url(#1cfbc51e6f)"><g clip-path="url(#955fce164e)"><path fill="#231f20" d="M 488.125 298.238281 L 972.78125 298.238281 L 972.78125 676.503906 L 488.125 676.503906 Z M 488.125 298.238281 " fill-opacity="1" fill-rule="nonzero"/></g></g><g clip-path="url(#39e4a70311)"><g clip-path="url(#8c5212e70b)"><path fill="#231f20" d="M 488.125 298.238281 L 972.78125 298.238281 L 972.78125 676.503906 L 488.125 676.503906 Z M 488.125 298.238281 " fill-opacity="1" fill-rule="nonzero"/></g></g><g clip-path="url(#3b79989f22)"><g clip-path="url(#9d7ffb14b2)"><path fill="#231f20" d="M 488.125 298.238281 L 972.78125 298.238281 L 972.78125 676.503906 L 488.125 676.503906 Z M 488.125 298.238281 " fill-opacity="1" fill-rule="nonzero"/></g></g><g clip-path="url(#bded62031d)"><g clip-path="url(#c10b83fa17)"><path fill="#231f20" d="M 488.125 298.238281 L 972.78125 298.238281 L 972.78125 676.503906 L 488.125 676.503906 Z M 488.125 298.238281 " fill-opacity="1" fill-rule="nonzero"/></g></g><g clip-path="url(#f6cb71698c)"><g clip-path="url(#5f5161161f)"><path fill="#231f20" d="M 488.125 298.238281 L 972.78125 298.238281 L 972.78125 676.503906 L 488.125 676.503906 Z M 488.125 298.238281 " fill-opacity="1" fill-rule="nonzero"/></g></g><g clip-path="url(#8946c67d11)"><g clip-path="url(#609b531328)"><path fill="#231f20" d="M 488.125 298.238281 L 972.78125 298.238281 L 972.78125 676.503906 L 488.125 676.503906 Z M 488.125 298.238281 " fill-opacity="1" fill-rule="nonzero"/></g></g><g clip-path="url(#26b687a8e2)"><g clip-path="url(#4ac71c3943)"><path fill="#231f20" d="M 488.125 298.238281 L 972.78125 298.238281 L 972.78125 676.503906 L 488.125 676.503906 Z M 488.125 298.238281 " fill-opacity="1" fill-rule="nonzero"/></g></g><g fill="#231f20" fill-opacity="1"><g transform="translate(479.580078, 626.499811)"><g><path d="M 18.890625 0 L 15.90625 -7.65625 L 6.09375 -7.65625 L 3.15625 0 L 0 0 L 9.671875 -24.84375 L 12.46875 -24.84375 L 22.109375 0 Z M 14.96875 -10.4375 L 12.203125 -17.921875 C 12.128906 -18.097656 12.007812 -18.429688 11.84375 -18.921875 C 11.6875 -19.410156 11.53125 -19.910156 11.375 -20.421875 C 11.226562 -20.941406 11.109375 -21.34375 11.015625 -21.625 C 10.835938 -20.90625 10.648438 -20.203125 10.453125 -19.515625 C 10.253906 -18.835938 10.085938 -18.304688 9.953125 -17.921875 L 7.140625 -10.4375 Z M 14.96875 -10.4375 "/></g></g></g><g fill="#231f20" fill-opacity="1"><g transform="translate(487.485006, 330.236006)"><g><path d="M 0.03125 -18.578125 L 3.296875 -18.578125 L 7.3125 -8 C 7.65625 -7.050781 7.96875 -6.160156 8.25 -5.328125 C 8.53125 -4.503906 8.738281 -3.710938 8.875 -2.953125 L 9.015625 -2.953125 C 9.148438 -3.523438 9.367188 -4.28125 9.671875 -5.21875 C 9.972656 -6.15625 10.285156 -7.097656 10.609375 -8.046875 L 14.375 -18.578125 L 17.671875 -18.578125 L 9.671875 2.5625 C 9.003906 4.320312 8.160156 5.71875 7.140625 6.75 C 6.117188 7.789062 4.707031 8.3125 2.90625 8.3125 C 2.351562 8.3125 1.867188 8.28125 1.453125 8.21875 C 1.035156 8.164062 0.675781 8.109375 0.375 8.046875 L 0.375 5.609375 C 0.632812 5.660156 0.941406 5.707031 1.296875 5.75 C 1.660156 5.800781 2.035156 5.828125 2.421875 5.828125 C 3.484375 5.828125 4.335938 5.523438 4.984375 4.921875 C 5.628906 4.316406 6.148438 3.519531 6.546875 2.53125 L 7.515625 0.0625 Z M 0.03125 -18.578125 "/></g></g></g><g fill="#231f20" fill-opacity="1"><g transform="translate(568.650458, 397.983796)"><g><path d="M 3.359375 -24.75 L 10.4375 -24.75 C 13.507812 -24.75 15.84375 -24.285156 17.4375 -23.359375 C 19.03125 -22.429688 19.828125 -20.847656 19.828125 -18.609375 C 19.828125 -17.148438 19.421875 -15.941406 18.609375 -14.984375 C 17.796875 -14.023438 16.628906 -13.410156 15.109375 -13.140625 L 15.109375 -12.96875 C 16.148438 -12.78125 17.09375 -12.46875 17.9375 -12.03125 C 18.78125 -11.59375 19.441406 -10.96875 19.921875 -10.15625 C 20.410156 -9.34375 20.65625 -8.300781 20.65625 -7.03125 C 20.65625 -4.789062 19.882812 -3.054688 18.34375 -1.828125 C 16.8125 -0.609375 14.71875 0 12.0625 0 L 3.359375 0 Z M 6.484375 -14.203125 L 11.0625 -14.203125 C 13.15625 -14.203125 14.597656 -14.539062 15.390625 -15.21875 C 16.191406 -15.90625 16.59375 -16.921875 16.59375 -18.265625 C 16.59375 -19.628906 16.113281 -20.601562 15.15625 -21.1875 C 14.195312 -21.78125 12.664062 -22.078125 10.5625 -22.078125 L 6.484375 -22.078125 Z M 6.484375 -11.609375 L 6.484375 -2.640625 L 11.46875 -2.640625 C 13.664062 -2.640625 15.191406 -3.066406 16.046875 -3.921875 C 16.898438 -4.773438 17.328125 -5.894531 17.328125 -7.28125 C 17.328125 -8.570312 16.878906 -9.613281 15.984375 -10.40625 C 15.097656 -11.207031 13.515625 -11.609375 11.234375 -11.609375 Z M 6.484375 -11.609375 "/></g></g></g><g fill="#231f20" fill-opacity="1"><g transform="translate(649.432894, 574.873989)"><g><path d="M 13.96875 -22.359375 C 11.3125 -22.359375 9.21875 -21.46875 7.6875 -19.6875 C 6.164062 -17.90625 5.40625 -15.46875 5.40625 -12.375 C 5.40625 -9.300781 6.113281 -6.867188 7.53125 -5.078125 C 8.957031 -3.285156 11.09375 -2.390625 13.9375 -2.390625 C 15 -2.390625 16.015625 -2.484375 16.984375 -2.671875 C 17.953125 -2.859375 18.910156 -3.085938 19.859375 -3.359375 L 19.859375 -0.65625 C 18.929688 -0.3125 17.976562 -0.0625 17 0.09375 C 16.019531 0.257812 14.847656 0.34375 13.484375 0.34375 C 10.960938 0.34375 8.859375 -0.171875 7.171875 -1.203125 C 5.484375 -2.242188 4.21875 -3.722656 3.375 -5.640625 C 2.53125 -7.566406 2.109375 -9.820312 2.109375 -12.40625 C 2.109375 -14.90625 2.566406 -17.109375 3.484375 -19.015625 C 4.398438 -20.921875 5.742188 -22.410156 7.515625 -23.484375 C 9.296875 -24.554688 11.457031 -25.09375 14 -25.09375 C 16.613281 -25.09375 18.890625 -24.609375 20.828125 -23.640625 L 19.578125 -21 C 18.816406 -21.34375 17.96875 -21.65625 17.03125 -21.9375 C 16.09375 -22.21875 15.070312 -22.359375 13.96875 -22.359375 Z M 13.96875 -22.359375 "/></g></g></g><g fill="#231f20" fill-opacity="1"><g transform="translate(859.850699, 454.982763)"><g><path d="M 23.1875 -12.609375 C 23.1875 -8.429688 22.046875 -5.285156 19.765625 -3.171875 C 17.492188 -1.054688 14.328125 0 10.265625 0 L 3.359375 0 L 3.359375 -24.75 L 10.984375 -24.75 C 13.453125 -24.75 15.601562 -24.285156 17.4375 -23.359375 C 19.28125 -22.429688 20.695312 -21.066406 21.6875 -19.265625 C 22.6875 -17.460938 23.1875 -15.242188 23.1875 -12.609375 Z M 19.890625 -12.515625 C 19.890625 -15.816406 19.070312 -18.234375 17.4375 -19.765625 C 15.8125 -21.304688 13.507812 -22.078125 10.53125 -22.078125 L 6.484375 -22.078125 L 6.484375 -2.671875 L 9.84375 -2.671875 C 16.539062 -2.671875 19.890625 -5.953125 19.890625 -12.515625 Z M 19.890625 -12.515625 "/></g></g></g><g fill="#231f20" fill-opacity="1"><g transform="translate(943.443943, 429.776237)"><g><path d="M 7.34375 -9.5 L 0.9375 -18.578125 L 4.40625 -18.578125 L 9.1875 -11.578125 L 13.9375 -18.578125 L 17.359375 -18.578125 L 10.953125 -9.5 L 17.703125 0 L 14.25 0 L 9.1875 -7.421875 L 4.0625 0 L 0.625 0 Z M 7.34375 -9.5 "/></g></g></g></svg>