<svg xmlns="http://www.w3.org/2000/svg" xmlns:xlink="http://www.w3.org/1999/xlink" width="794" zoomAndPan="magnify" viewBox="0 0 1440 809.999993" height="1123" preserveAspectRatio="xMidYMid meet" version="1.0"><defs><g/><clipPath id="184e5f1052"><path d="M 839.617188 590.605469 L 890.683594 590.605469 L 890.683594 592.875 L 839.617188 592.875 Z M 839.617188 592.875 L 841.886719 592.875 L 841.886719 641.671875 L 839.617188 641.671875 Z M 839.617188 592.875 " clip-rule="nonzero"/></clipPath><clipPath id="9b40b26c32"><path d="M 517.308594 130 L 892 130 L 892 645 L 517.308594 645 Z M 517.308594 130 " clip-rule="nonzero"/></clipPath><clipPath id="479852d48a"><path d="M 517.824219 642.808594 L 889.867188 130.730469 L 891.683594 132.046875 L 519.640625 644.125 Z M 517.824219 642.808594 " clip-rule="nonzero"/></clipPath><clipPath id="58dad6bd63"><path d="M 890.640625 129.503906 L 892.910156 129.503906 L 892.910156 643.941406 L 890.640625 643.941406 Z M 890.640625 129.503906 " clip-rule="nonzero"/></clipPath><clipPath id="770611f0d2"><path d="M 516.964844 642.21875 L 891.773438 642.21875 L 891.773438 644.488281 L 516.964844 644.488281 Z M 516.964844 642.21875 " clip-rule="nonzero"/></clipPath><clipPath id="7219fad048"><path d="M 887 452 L 892.570312 452 L 892.570312 457 L 887 457 Z M 887 452 " clip-rule="nonzero"/></clipPath><clipPath id="5c2ba14249"><path d="M 892.320312 454.335938 L 888.277344 456.378906 L 887.234375 454.335938 L 891.273438 452.292969 Z M 892.320312 454.335938 " clip-rule="nonzero"/></clipPath><clipPath id="60ffc2080a"><path d="M 531 458 L 881 458 L 881 638 L 531 638 Z M 531 458 " clip-rule="nonzero"/></clipPath><clipPath id="293d923312"><path d="M 863.992188 468.726562 L 855.914062 472.855469 L 854.871094 470.8125 L 862.949219 466.683594 Z M 847.832031 476.988281 L 839.753906 481.117188 L 838.710938 479.074219 L 846.789062 474.945312 Z M 831.671875 485.25 L 823.59375 489.378906 L 822.550781 487.335938 L 830.628906 483.207031 Z M 815.511719 493.511719 L 807.433594 497.640625 L 806.390625 495.597656 L 814.46875 491.46875 Z M 799.261719 501.726562 L 791.183594 505.855469 L 790.140625 503.8125 L 798.21875 499.683594 Z M 783.101562 509.988281 L 775.023438 514.117188 L 773.980469 512.074219 L 782.058594 507.945312 Z M 766.941406 518.25 L 758.863281 522.378906 L 757.820312 520.335938 L 765.898438 516.207031 Z M 750.738281 526.421875 L 742.65625 530.550781 L 741.613281 528.507812 L 749.695312 524.421875 Z M 734.578125 534.679688 L 726.496094 538.8125 L 725.453125 536.769531 L 733.535156 532.640625 Z M 718.417969 542.941406 L 710.335938 547.074219 L 709.292969 545.03125 L 717.375 540.902344 Z M 702.167969 551.160156 L 694.085938 555.289062 L 693.042969 553.246094 L 701.125 549.117188 Z M 686.007812 559.375 L 677.925781 563.507812 L 676.882812 561.464844 L 684.964844 557.332031 Z M 669.847656 567.636719 L 661.765625 571.769531 L 660.722656 569.726562 L 668.804688 565.59375 Z M 653.6875 575.898438 L 645.605469 580.027344 L 644.5625 577.988281 L 652.644531 573.855469 Z M 637.527344 584.160156 L 629.449219 588.289062 L 628.402344 586.246094 L 636.484375 582.117188 Z M 621.367188 592.421875 L 613.289062 596.550781 L 612.242188 594.507812 L 620.324219 590.378906 Z M 605.207031 600.683594 L 597.128906 604.8125 L 596.082031 602.769531 L 604.164062 598.640625 Z M 589.046875 608.945312 L 580.96875 613.074219 L 579.921875 611.03125 L 588.003906 606.902344 Z M 572.886719 617.207031 L 564.808594 621.335938 L 563.765625 619.292969 L 571.84375 615.164062 Z M 556.726562 625.46875 L 548.648438 629.597656 L 547.605469 627.554688 L 555.683594 623.425781 Z M 540.566406 633.730469 L 532.488281 637.859375 L 531.445312 635.816406 L 539.523438 631.6875 Z M 880.152344 460.507812 L 872.074219 464.640625 L 871.03125 462.597656 L 879.109375 458.464844 Z M 880.152344 460.507812 " clip-rule="nonzero"/></clipPath><clipPath id="fd6ec688b8"><path d="M 519 639 L 525 639 L 525 644 L 519 644 Z M 519 639 " clip-rule="nonzero"/></clipPath><clipPath id="866491ef0e"><path d="M 524.136719 641.855469 L 520.09375 643.898438 L 519.050781 641.855469 L 523.089844 639.8125 Z M 524.136719 641.855469 " clip-rule="nonzero"/></clipPath><clipPath id="e4221a052f"><path d="M 566 574.238281 L 602.894531 574.238281 L 602.894531 641.71875 L 566 641.71875 Z M 566 574.238281 " clip-rule="nonzero"/></clipPath><clipPath id="e1572faec1"><path d="M 567.714844 574.898438 C 588.503906 589.789062 602.074219 614.164062 602.074219 641.671875 L 599.804688 641.671875 C 599.804688 614.890625 586.640625 591.195312 566.398438 576.714844 Z M 567.714844 574.898438 " clip-rule="nonzero"/></clipPath></defs><g clip-path="url(#184e5f1052)"><path fill="#231f20" d="M 494.265625 106.804688 L 915.613281 106.804688 L 915.613281 666.410156 L 494.265625 666.410156 Z M 494.265625 106.804688 " fill-opacity="1" fill-rule="nonzero"/></g><g clip-path="url(#9b40b26c32)"><g clip-path="url(#479852d48a)"><path fill="#231f20" d="M 494.265625 106.804688 L 915.613281 106.804688 L 915.613281 666.410156 L 494.265625 666.410156 Z M 494.265625 106.804688 " fill-opacity="1" fill-rule="nonzero"/></g></g><g clip-path="url(#58dad6bd63)"><path fill="#231f20" d="M 494.265625 106.804688 L 915.613281 106.804688 L 915.613281 666.410156 L 494.265625 666.410156 Z M 494.265625 106.804688 " fill-opacity="1" fill-rule="nonzero"/></g><g clip-path="url(#770611f0d2)"><path fill="#231f20" d="M 494.265625 106.804688 L 915.613281 106.804688 L 915.613281 666.410156 L 494.265625 666.410156 Z M 494.265625 106.804688 " fill-opacity="1" fill-rule="nonzero"/></g><g clip-path="url(#7219fad048)"><g clip-path="url(#5c2ba14249)"><path fill="#231f20" d="M 494.265625 106.804688 L 915.613281 106.804688 L 915.613281 666.410156 L 494.265625 666.410156 Z M 494.265625 106.804688 " fill-opacity="1" fill-rule="nonzero"/></g></g><g clip-path="url(#60ffc2080a)"><g clip-path="url(#293d923312)"><path fill="#231f20" d="M 494.265625 106.804688 L 915.613281 106.804688 L 915.613281 666.410156 L 494.265625 666.410156 Z M 494.265625 106.804688 " fill-opacity="1" fill-rule="nonzero"/></g></g><g clip-path="url(#fd6ec688b8)"><g clip-path="url(#866491ef0e)"><path fill="#231f20" d="M 494.265625 106.804688 L 915.613281 106.804688 L 915.613281 666.410156 L 494.265625 666.410156 Z M 494.265625 106.804688 " fill-opacity="1" fill-rule="nonzero"/></g></g><g clip-path="url(#e4221a052f)"><g clip-path="url(#e1572faec1)"><path fill="#231f20" d="M 494.265625 106.804688 L 915.613281 106.804688 L 915.613281 666.410156 L 494.265625 666.410156 Z M 494.265625 106.804688 " fill-opacity="1" fill-rule="nonzero"/></g></g><g fill="#231f20" fill-opacity="1"><g transform="translate(479.580078, 663.241448)"><g><path d="M 27.203125 0 L 22.90625 -11.03125 L 8.78125 -11.03125 L 4.546875 0 L 0 0 L 13.921875 -35.78125 L 17.96875 -35.78125 L 31.84375 0 Z M 21.5625 -15.015625 L 17.5625 -25.796875 C 17.46875 -26.066406 17.300781 -26.550781 17.0625 -27.25 C 16.832031 -27.945312 16.609375 -28.671875 16.390625 -29.421875 C 16.171875 -30.171875 16 -30.742188 15.875 -31.140625 C 15.601562 -30.109375 15.328125 -29.101562 15.046875 -28.125 C 14.765625 -27.144531 14.523438 -26.367188 14.328125 -25.796875 L 10.28125 -15.015625 Z M 21.5625 -15.015625 "/></g></g></g><g fill="#231f20" fill-opacity="1"><g transform="translate(875.693698, 121.927036)"><g><path d="M 20.109375 -32.1875 C 16.285156 -32.1875 13.273438 -30.90625 11.078125 -28.34375 C 8.878906 -25.78125 7.78125 -22.269531 7.78125 -17.8125 C 7.78125 -13.382812 8.800781 -9.878906 10.84375 -7.296875 C 12.894531 -4.722656 15.96875 -3.4375 20.0625 -3.4375 C 21.59375 -3.4375 23.054688 -3.566406 24.453125 -3.828125 C 25.847656 -4.097656 27.226562 -4.4375 28.59375 -4.84375 L 28.59375 -0.953125 C 27.257812 -0.453125 25.882812 -0.0859375 24.46875 0.140625 C 23.0625 0.378906 21.375 0.5 19.40625 0.5 C 15.78125 0.5 12.753906 -0.25 10.328125 -1.75 C 7.898438 -3.25 6.078125 -5.378906 4.859375 -8.140625 C 3.648438 -10.898438 3.046875 -14.140625 3.046875 -17.859375 C 3.046875 -21.453125 3.703125 -24.617188 5.015625 -27.359375 C 6.328125 -30.109375 8.265625 -32.253906 10.828125 -33.796875 C 13.390625 -35.347656 16.5 -36.125 20.15625 -36.125 C 23.914062 -36.125 27.195312 -35.425781 30 -34.03125 L 28.203125 -30.25 C 27.097656 -30.738281 25.867188 -31.179688 24.515625 -31.578125 C 23.171875 -31.984375 21.703125 -32.1875 20.109375 -32.1875 Z M 20.109375 -32.1875 "/></g></g></g><g fill="#231f20" fill-opacity="1"><g transform="translate(898.364073, 663.592064)"><g><path d="M 4.84375 -35.640625 L 15.015625 -35.640625 C 19.441406 -35.640625 22.800781 -34.972656 25.09375 -33.640625 C 27.394531 -32.304688 28.546875 -30.023438 28.546875 -26.796875 C 28.546875 -24.703125 27.960938 -22.960938 26.796875 -21.578125 C 25.628906 -20.203125 23.953125 -19.316406 21.765625 -18.921875 L 21.765625 -18.671875 C 23.253906 -18.398438 24.601562 -17.945312 25.8125 -17.3125 C 27.03125 -16.6875 27.988281 -15.789062 28.6875 -14.625 C 29.394531 -13.457031 29.75 -11.957031 29.75 -10.125 C 29.75 -6.90625 28.640625 -4.410156 26.421875 -2.640625 C 24.210938 -0.878906 21.195312 0 17.375 0 L 4.84375 0 Z M 9.328125 -20.46875 L 15.921875 -20.46875 C 18.953125 -20.46875 21.039062 -20.957031 22.1875 -21.9375 C 23.332031 -22.914062 23.90625 -24.367188 23.90625 -26.296875 C 23.90625 -28.265625 23.210938 -29.671875 21.828125 -30.515625 C 20.453125 -31.367188 18.25 -31.796875 15.21875 -31.796875 L 9.328125 -31.796875 Z M 9.328125 -16.71875 L 9.328125 -3.796875 L 16.515625 -3.796875 C 19.679688 -3.796875 21.878906 -4.410156 23.109375 -5.640625 C 24.335938 -6.867188 24.953125 -8.484375 24.953125 -10.484375 C 24.953125 -12.347656 24.3125 -13.851562 23.03125 -15 C 21.75 -16.144531 19.460938 -16.71875 16.171875 -16.71875 Z M 9.328125 -16.71875 "/></g></g></g><g fill="#231f20" fill-opacity="1"><g transform="translate(897.863697, 468.406914)"><g><path d="M 9.328125 0 L 4.84375 0 L 4.84375 -35.640625 L 24.75 -35.640625 L 24.75 -31.6875 L 9.328125 -31.6875 L 9.328125 -19.0625 L 23.8125 -19.0625 L 23.8125 -15.125 L 9.328125 -15.125 Z M 9.328125 0 "/></g></g></g><g fill="#231f20" fill-opacity="1"><g transform="translate(675.54005, 421.281379)"><g/></g></g><g fill="#231f20" fill-opacity="1"><g transform="translate(680.947614, 413.754571)"><g><path d="M 8.390625 -11.671875 L 6.140625 -8.546875 L -13.734375 -22.828125 C -14.316406 -23.242188 -14.894531 -23.671875 -15.46875 -24.109375 C -16.050781 -24.546875 -16.632812 -24.992188 -17.21875 -25.453125 C -17.800781 -25.921875 -18.390625 -26.382812 -18.984375 -26.84375 C -18.847656 -26.488281 -18.726562 -26.054688 -18.625 -25.546875 C -18.519531 -25.035156 -18.410156 -24.40625 -18.296875 -23.65625 L -17.65625 -19.296875 L -20.890625 -18.90625 L -22.484375 -29.78125 L -20.546875 -32.46875 Z M 8.390625 -11.671875 "/></g></g></g><g fill="#231f20" fill-opacity="1"><g transform="translate(693.336311, 396.510699)"><g><path d="M 5.609375 -21.265625 L 3.40625 -18.1875 L 9.78125 -13.609375 L 7.5625 -10.53125 L 1.1875 -15.109375 L -5.890625 -5.25 L -8.46875 -7.09375 L -21.796875 -31.25 L -19.40625 -34.578125 L 0.734375 -20.109375 L 2.9375 -23.1875 Z M -1.484375 -17.03125 L -13.15625 -25.421875 C -13.457031 -25.640625 -13.796875 -25.894531 -14.171875 -26.1875 C -14.546875 -26.476562 -14.929688 -26.769531 -15.328125 -27.0625 C -15.722656 -27.363281 -16.097656 -27.648438 -16.453125 -27.921875 C -16.804688 -28.203125 -17.117188 -28.453125 -17.390625 -28.671875 L -17.5 -28.53125 C -17.007812 -27.875 -16.554688 -27.207031 -16.140625 -26.53125 C -15.722656 -25.863281 -15.320312 -25.207031 -14.9375 -24.5625 L -6.5625 -9.96875 Z M -1.484375 -17.03125 "/></g></g></g></svg>