<svg xmlns="http://www.w3.org/2000/svg" xmlns:xlink="http://www.w3.org/1999/xlink" width="794" zoomAndPan="magnify" viewBox="0 0 1440 809.999993" height="1123" preserveAspectRatio="xMidYMid meet" version="1.0"><defs><g/><clipPath id="4a3e2c0e85"><path d="M 470 391 L 848 391 L 848 635 L 470 635 Z M 470 391 " clip-rule="nonzero"/></clipPath><clipPath id="0a8f1adc2d"><path d="M 471.179688 391.90625 C 468.890625 448.613281 485.03125 499.183594 519.707031 544.082031 C 565.699219 603.640625 634.808594 634.867188 704.660156 634.867188 C 754.492188 634.867188 804.746094 618.972656 847.214844 586.164062 L 704.484375 401.351562 Z M 471.179688 391.90625 " clip-rule="nonzero"/></clipPath><clipPath id="dcadfc4034"><path d="M 470 390.351562 L 849 390.351562 L 849 636 L 470 636 Z M 470 390.351562 " clip-rule="nonzero"/></clipPath><clipPath id="5e29e370ba"><path d="M 472.027344 392.824219 L 704.027344 402.199219 L 845.980469 585.949219 C 803.796875 618.304688 754.035156 633.949219 704.660156 633.949219 C 635.054688 633.949219 566.226562 602.867188 520.414062 543.519531 C 486.015625 499.042969 469.945312 448.929688 472.027344 392.824219 Z M 470.335938 390.992188 L 470.300781 391.871094 C 468.007812 448.753906 484.21875 499.535156 519.003906 544.613281 C 565.171875 604.382812 634.527344 635.710938 704.660156 635.710938 C 754.703125 635.710938 805.101562 619.746094 847.777344 586.796875 L 848.484375 586.269531 L 847.953125 585.5625 L 705.1875 400.789062 L 704.941406 400.472656 L 704.519531 400.472656 L 471.214844 391.027344 Z M 470.335938 390.992188 " clip-rule="nonzero"/></clipPath><clipPath id="64f17f51d0"><path d="M 704 182 L 938.042969 182 L 938.042969 586.25 L 704 586.25 Z M 704 182 " clip-rule="nonzero"/></clipPath><clipPath id="008503b559"><path d="M 704.484375 401.351562 L 785.539062 182.390625 C 906.457031 227.148438 968.203125 361.492188 923.445312 482.445312 C 907.335938 525.96875 883.9375 557.792969 847.214844 586.164062 Z M 704.484375 401.351562 " clip-rule="nonzero"/></clipPath><clipPath id="0267c4c8e6"><path d="M 703 181 L 939 181 L 939 588 L 703 588 Z M 703 181 " clip-rule="nonzero"/></clipPath><clipPath id="7722175107"><path d="M 703.671875 401.035156 L 784.730469 182.074219 L 785.046875 181.265625 L 785.859375 181.582031 C 907.230469 226.515625 969.222656 361.351562 924.289062 482.761719 C 908.113281 526.460938 884.640625 558.390625 847.777344 586.867188 L 847.074219 587.394531 L 846.546875 586.691406 L 703.8125 401.914062 L 703.53125 401.527344 L 703.707031 401.070312 M 705.363281 401.667969 L 704.554688 401.351562 L 705.257812 400.824219 L 847.988281 585.597656 L 847.285156 586.125 L 846.757812 585.421875 C 883.375 557.15625 906.632812 525.476562 922.703125 482.09375 L 923.515625 482.410156 L 922.703125 482.09375 C 967.285156 361.597656 905.789062 227.785156 785.328125 183.167969 L 785.644531 182.355469 L 786.457031 182.675781 L 705.398438 401.632812 Z M 705.363281 401.667969 " clip-rule="nonzero"/></clipPath><clipPath id="0eb748d23b"><path d="M 610 167.363281 L 785.910156 167.363281 L 785.910156 402 L 610 402 Z M 610 167.363281 " clip-rule="nonzero"/></clipPath><clipPath id="59986d6c62"><path d="M 704.484375 401.351562 L 610.703125 187.503906 C 667.375 162.621094 727.496094 160.859375 785.574219 182.355469 Z M 704.484375 401.351562 " clip-rule="nonzero"/></clipPath><clipPath id="3da6989a82"><path d="M 609 166 L 787 166 L 787 404 L 609 404 Z M 609 166 " clip-rule="nonzero"/></clipPath><clipPath id="57f3cc395c"><path d="M 703.707031 401.703125 L 609.894531 187.855469 L 609.542969 187.042969 L 610.351562 186.691406 C 667.234375 161.738281 727.601562 159.976562 785.859375 181.546875 L 786.667969 181.863281 L 786.351562 182.675781 L 705.292969 401.632812 L 704.554688 403.679688 L 703.671875 401.667969 M 705.292969 400.964844 L 704.484375 401.316406 L 703.671875 401 L 784.730469 182.039062 L 785.539062 182.355469 L 785.222656 183.167969 C 727.425781 161.773438 667.550781 163.539062 611.054688 188.3125 L 610.703125 187.503906 L 611.515625 187.148438 L 705.292969 401 Z M 705.292969 400.964844 " clip-rule="nonzero"/></clipPath><clipPath id="5437d15539"><path d="M 471 187 L 704.636719 187 L 704.636719 402 L 471 402 Z M 471 187 " clip-rule="nonzero"/></clipPath><clipPath id="34f89397d8"><path d="M 704.484375 401.351562 L 471.179688 391.90625 C 474.949219 299.113281 525.664062 224.824219 610.703125 187.503906 Z M 704.484375 401.351562 " clip-rule="nonzero"/></clipPath><clipPath id="19e630732f"><path d="M 470 186.121094 L 706 186.121094 L 706 402.855469 L 470 402.855469 Z M 470 186.121094 " clip-rule="nonzero"/></clipPath><clipPath id="6aa0345cbe"><path d="M 704.449219 402.234375 L 471.144531 392.789062 L 470.265625 392.753906 L 470.300781 391.871094 C 474.070312 298.761719 525.03125 224.152344 610.351562 186.691406 L 611.164062 186.339844 L 611.515625 187.148438 L 705.292969 401 L 705.859375 402.304688 L 704.449219 402.234375 M 704.519531 400.472656 L 704.484375 401.351562 L 703.671875 401.703125 L 609.894531 187.855469 L 610.703125 187.503906 L 611.054688 188.3125 C 526.335938 225.492188 475.796875 299.5 472.0625 391.941406 L 471.179688 391.90625 L 471.214844 391.027344 Z M 704.519531 400.472656 " clip-rule="nonzero"/></clipPath></defs><g clip-path="url(#4a3e2c0e85)"><g clip-path="url(#0a8f1adc2d)"><path fill="#b1b3b6" d="M 450.386719 142.355469 L 985.976562 142.355469 L 985.976562 675.859375 L 450.386719 675.859375 Z M 450.386719 142.355469 " fill-opacity="1" fill-rule="nonzero"/></g></g><g clip-path="url(#dcadfc4034)"><g clip-path="url(#5e29e370ba)"><path fill="#231f20" d="M 450.386719 142.355469 L 985.976562 142.355469 L 985.976562 675.859375 L 450.386719 675.859375 Z M 450.386719 142.355469 " fill-opacity="1" fill-rule="nonzero"/></g></g><g clip-path="url(#64f17f51d0)"><g clip-path="url(#008503b559)"><path fill="#c7c8ca" d="M 450.386719 142.355469 L 985.976562 142.355469 L 985.976562 675.859375 L 450.386719 675.859375 Z M 450.386719 142.355469 " fill-opacity="1" fill-rule="nonzero"/></g></g><g clip-path="url(#0267c4c8e6)"><g clip-path="url(#7722175107)"><path fill="#231f20" d="M 450.386719 142.355469 L 985.976562 142.355469 L 985.976562 675.859375 L 450.386719 675.859375 Z M 450.386719 142.355469 " fill-opacity="1" fill-rule="nonzero"/></g></g><g clip-path="url(#0eb748d23b)"><g clip-path="url(#59986d6c62)"><path fill="#f1f2f2" d="M 450.386719 142.355469 L 985.976562 142.355469 L 985.976562 675.859375 L 450.386719 675.859375 Z M 450.386719 142.355469 " fill-opacity="1" fill-rule="nonzero"/></g></g><g clip-path="url(#3da6989a82)"><g clip-path="url(#57f3cc395c)"><path fill="#231f20" d="M 450.386719 142.355469 L 985.976562 142.355469 L 985.976562 675.859375 L 450.386719 675.859375 Z M 450.386719 142.355469 " fill-opacity="1" fill-rule="nonzero"/></g></g><g clip-path="url(#5437d15539)"><g clip-path="url(#34f89397d8)"><path fill="#dcddde" d="M 450.386719 142.355469 L 985.976562 142.355469 L 985.976562 675.859375 L 450.386719 675.859375 Z M 450.386719 142.355469 " fill-opacity="1" fill-rule="nonzero"/></g></g><g clip-path="url(#19e630732f)"><g clip-path="url(#6aa0345cbe)"><path fill="#231f20" d="M 450.386719 142.355469 L 985.976562 142.355469 L 985.976562 675.859375 L 450.386719 675.859375 Z M 450.386719 142.355469 " fill-opacity="1" fill-rule="nonzero"/></g></g><g fill="#231f20" fill-opacity="1"><g transform="translate(522.640357, 311.916598)"><g><path d="M 2.890625 0.40625 C 2.585938 0.40625 2.226562 0.351562 1.8125 0.25 C 1.40625 0.15625 1.019531 0.0234375 0.65625 -0.140625 L 0.65625 -4.5625 C 1.101562 -4.3125 1.546875 -4.1875 1.984375 -4.1875 C 2.765625 -4.1875 3.253906 -4.484375 3.453125 -5.078125 C 3.648438 -5.671875 3.75 -6.484375 3.75 -7.515625 L 3.75 -22.046875 C 3.4375 -22.015625 3.113281 -21.960938 2.78125 -21.890625 C 2.457031 -21.828125 2.128906 -21.75 1.796875 -21.65625 L 1.796875 -26.046875 C 2.273438 -26.160156 2.96875 -26.289062 3.875 -26.4375 C 4.789062 -26.59375 5.828125 -26.734375 6.984375 -26.859375 C 8.140625 -26.984375 9.320312 -27.046875 10.53125 -27.046875 C 11.5625 -27.046875 12.421875 -27.015625 13.109375 -26.953125 C 13.796875 -26.898438 14.382812 -26.816406 14.875 -26.703125 C 15.363281 -26.585938 15.816406 -26.441406 16.234375 -26.265625 C 16.585938 -26.109375 16.914062 -25.929688 17.21875 -25.734375 C 17.519531 -25.546875 17.785156 -25.335938 18.015625 -25.109375 C 18.859375 -24.335938 19.378906 -23.347656 19.578125 -22.140625 C 19.773438 -20.929688 19.875 -19.476562 19.875 -17.78125 L 19.875 0 L 14.375 0 L 14.375 -17.796875 C 14.375 -18.953125 14.257812 -19.851562 14.03125 -20.5 C 13.8125 -21.15625 13.421875 -21.625 12.859375 -21.90625 C 12.546875 -22.164062 12.109375 -22.351562 11.546875 -22.46875 C 11.335938 -22.488281 11.039062 -22.507812 10.65625 -22.53125 C 10.28125 -22.550781 9.828125 -22.554688 9.296875 -22.546875 L 9.296875 -7.515625 C 9.296875 -6.484375 9.234375 -5.519531 9.109375 -4.625 C 8.992188 -3.738281 8.804688 -2.96875 8.546875 -2.3125 C 8.160156 -1.269531 7.523438 -0.546875 6.640625 -0.140625 C 6.097656 0.117188 5.488281 0.273438 4.8125 0.328125 C 4.132812 0.378906 3.492188 0.40625 2.890625 0.40625 Z M 2.890625 0.40625 "/></g></g></g><g fill="#231f20" fill-opacity="1"><g transform="translate(545.769003, 311.916598)"><g><path d="M 2.328125 0 L 2.328125 -26.625 L 7.84375 -26.625 L 7.84375 0 Z M 2.328125 0 "/></g></g></g><g fill="#231f20" fill-opacity="1"><g transform="translate(557.068133, 311.916598)"><g><path d="M 1.078125 1.234375 L 1.078125 -3.265625 L 3.875 -3.8125 C 4.144531 -3.875 4.398438 -3.925781 4.640625 -3.96875 C 4.890625 -4.007812 5.144531 -4.054688 5.40625 -4.109375 L 0.890625 -26.625 L 6.375 -26.625 L 8.625 -14.609375 L 9.71875 -6.421875 C 10.363281 -7.054688 10.878906 -7.769531 11.265625 -8.5625 C 11.648438 -9.363281 11.945312 -10.210938 12.15625 -11.109375 C 12.375 -12.003906 12.523438 -12.890625 12.609375 -13.765625 L 13.703125 -26.609375 L 19.203125 -26.609375 L 18.1875 -14.671875 C 18.101562 -13.804688 17.984375 -12.84375 17.828125 -11.78125 C 17.671875 -10.726562 17.414062 -9.65625 17.0625 -8.5625 C 16.707031 -7.476562 16.1875 -6.453125 15.5 -5.484375 C 14.707031 -4.046875 13.628906 -2.863281 12.265625 -1.9375 C 10.898438 -1.019531 9.125 -0.335938 6.9375 0.109375 C 5.957031 0.285156 4.976562 0.46875 4 0.65625 C 3.03125 0.851562 2.054688 1.046875 1.078125 1.234375 Z M 1.078125 1.234375 "/></g></g></g><g fill="#231f20" fill-opacity="1"><g transform="translate(578.276806, 311.916598)"><g><path d="M 2.328125 -9 L 2.328125 -26.625 L 7.796875 -26.625 L 7.796875 -14.3125 L 4.421875 -9 Z M 2.328125 -9 "/></g></g></g><g fill="#231f20" fill-opacity="1"><g transform="translate(589.575936, 311.916598)"><g><path d="M 10.515625 0.40625 C 9.285156 0.40625 8.195312 0.179688 7.25 -0.265625 C 6.195312 -0.703125 5.3125 -1.351562 4.59375 -2.21875 C 3.875 -3.09375 3.28125 -4.128906 2.8125 -5.328125 C 2.363281 -6.484375 2.035156 -7.769531 1.828125 -9.1875 C 1.628906 -10.601562 1.53125 -12.097656 1.53125 -13.671875 C 1.53125 -14.953125 1.664062 -16.140625 1.9375 -17.234375 C 2.21875 -18.328125 2.585938 -19.289062 3.046875 -20.125 C 3.503906 -20.957031 3.992188 -21.613281 4.515625 -22.09375 L 4.515625 -22.28125 L 1.796875 -22.0625 L 1.796875 -26.46875 C 2.597656 -26.59375 3.414062 -26.695312 4.25 -26.78125 C 5.09375 -26.863281 6.0625 -26.925781 7.15625 -26.96875 C 8.25 -27.019531 9.5625 -27.046875 11.09375 -27.046875 C 11.882812 -27.046875 12.632812 -26.898438 13.34375 -26.609375 C 14.050781 -26.316406 14.6875 -25.929688 15.25 -25.453125 C 15.757812 -25.023438 16.257812 -24.457031 16.75 -23.75 C 17.25 -23.050781 17.6875 -22.238281 18.0625 -21.3125 C 18.457031 -20.332031 18.765625 -19.171875 18.984375 -17.828125 C 19.210938 -16.484375 19.328125 -14.976562 19.328125 -13.3125 C 19.328125 -11.894531 19.234375 -10.554688 19.046875 -9.296875 C 18.859375 -8.035156 18.585938 -6.878906 18.234375 -5.828125 C 17.859375 -4.773438 17.390625 -3.832031 16.828125 -3 C 16.265625 -2.164062 15.609375 -1.488281 14.859375 -0.96875 C 13.648438 -0.0507812 12.203125 0.40625 10.515625 0.40625 Z M 10.359375 -4.0625 C 10.878906 -4.0625 11.335938 -4.203125 11.734375 -4.484375 C 12.128906 -4.765625 12.476562 -5.238281 12.78125 -5.90625 C 13.007812 -6.4375 13.191406 -7.082031 13.328125 -7.84375 C 13.472656 -8.601562 13.578125 -9.4375 13.640625 -10.34375 C 13.703125 -11.25 13.734375 -12.195312 13.734375 -13.1875 C 13.734375 -14.925781 13.648438 -16.4375 13.484375 -17.71875 C 13.328125 -19.007812 13.085938 -20.015625 12.765625 -20.734375 C 12.484375 -21.316406 12.160156 -21.765625 11.796875 -22.078125 C 11.429688 -22.398438 11.070312 -22.5625 10.71875 -22.5625 C 10.375 -22.550781 10.070312 -22.535156 9.8125 -22.515625 C 9.5625 -22.492188 9.285156 -22.445312 8.984375 -22.375 C 8.265625 -21.375 7.78125 -20.171875 7.53125 -18.765625 C 7.28125 -17.359375 7.15625 -15.664062 7.15625 -13.6875 C 7.15625 -11.707031 7.234375 -10.070312 7.390625 -8.78125 C 7.554688 -7.5 7.773438 -6.535156 8.046875 -5.890625 C 8.304688 -5.253906 8.625 -4.789062 9 -4.5 C 9.375 -4.207031 9.828125 -4.0625 10.359375 -4.0625 Z M 10.359375 -4.0625 "/></g></g></g><g fill="#231f20" fill-opacity="1"><g transform="translate(611.816854, 311.916598)"><g><path d="M 0.890625 0 L 0.890625 -4.4375 L 6.765625 -4.4375 C 6.910156 -4.957031 7.007812 -5.613281 7.0625 -6.40625 C 7.113281 -7.195312 7.140625 -8.117188 7.140625 -9.171875 L 7.140625 -19.140625 C 7.140625 -19.691406 7.070312 -20.242188 6.9375 -20.796875 C 6.8125 -21.359375 6.582031 -21.757812 6.25 -22 C 6.03125 -22.1875 5.75 -22.3125 5.40625 -22.375 C 5.070312 -22.4375 4.773438 -22.46875 4.515625 -22.46875 C 4.253906 -22.46875 3.914062 -22.429688 3.5 -22.359375 C 3.082031 -22.285156 2.609375 -22.179688 2.078125 -22.046875 L 2.078125 -26.609375 C 2.847656 -26.773438 3.492188 -26.890625 4.015625 -26.953125 C 4.535156 -27.015625 5.023438 -27.046875 5.484375 -27.046875 C 6.296875 -27.046875 7.085938 -26.976562 7.859375 -26.84375 C 8.628906 -26.71875 9.25 -26.535156 9.71875 -26.296875 C 10.363281 -26.015625 10.914062 -25.554688 11.375 -24.921875 C 11.84375 -24.296875 12.164062 -23.554688 12.34375 -22.703125 C 12.425781 -22.316406 12.492188 -21.816406 12.546875 -21.203125 C 12.609375 -20.597656 12.640625 -19.910156 12.640625 -19.140625 L 12.640625 -7.53125 C 12.640625 -6.675781 12.597656 -5.820312 12.515625 -4.96875 C 12.441406 -4.125 12.34375 -3.34375 12.21875 -2.625 C 12.09375 -1.90625 11.96875 -1.328125 11.84375 -0.890625 L 11.609375 0 Z M 0.890625 0 "/></g></g></g><g fill="#231f20" fill-opacity="1"><g transform="translate(543.374819, 371.08705)"><g><path d="M 12.1875 0 L 8.921875 0 L 8.921875 -20.734375 C 8.921875 -21.335938 8.925781 -21.941406 8.9375 -22.546875 C 8.945312 -23.160156 8.96875 -23.785156 9 -24.421875 C 9.03125 -25.054688 9.054688 -25.691406 9.078125 -26.328125 C 8.898438 -26.066406 8.660156 -25.769531 8.359375 -25.4375 C 8.054688 -25.101562 7.675781 -24.71875 7.21875 -24.28125 L 4.546875 -21.671875 L 2.6875 -23.703125 L 9.375 -30.1875 L 12.1875 -30.1875 Z M 12.1875 0 "/></g></g></g><g fill="#231f20" fill-opacity="1"><g transform="translate(561.35651, 371.08705)"><g><path d="M 9.046875 -30.609375 C 10.472656 -30.609375 11.695312 -30.316406 12.71875 -29.734375 C 13.738281 -29.160156 14.519531 -28.351562 15.0625 -27.3125 C 15.601562 -26.269531 15.875 -25.03125 15.875 -23.59375 C 15.875 -22.46875 15.695312 -21.429688 15.34375 -20.484375 C 15 -19.546875 14.472656 -18.6875 13.765625 -17.90625 C 13.066406 -17.132812 12.1875 -16.429688 11.125 -15.796875 C 12.195312 -15.078125 13.140625 -14.320312 13.953125 -13.53125 C 14.765625 -12.75 15.398438 -11.875 15.859375 -10.90625 C 16.328125 -9.945312 16.5625 -8.851562 16.5625 -7.625 C 16.5625 -6.039062 16.253906 -4.644531 15.640625 -3.4375 C 15.035156 -2.226562 14.179688 -1.285156 13.078125 -0.609375 C 11.972656 0.0664062 10.671875 0.40625 9.171875 0.40625 C 7.546875 0.40625 6.15625 0.0820312 5 -0.5625 C 3.84375 -1.207031 2.957031 -2.117188 2.34375 -3.296875 C 1.738281 -4.472656 1.4375 -5.84375 1.4375 -7.40625 C 1.4375 -8.625 1.625 -9.726562 2 -10.71875 C 2.375 -11.71875 2.9375 -12.628906 3.6875 -13.453125 C 4.4375 -14.285156 5.367188 -15.054688 6.484375 -15.765625 C 5.515625 -16.492188 4.710938 -17.265625 4.078125 -18.078125 C 3.441406 -18.890625 2.960938 -19.75 2.640625 -20.65625 C 2.328125 -21.570312 2.171875 -22.539062 2.171875 -23.5625 C 2.171875 -24.976562 2.453125 -26.210938 3.015625 -27.265625 C 3.578125 -28.328125 4.375 -29.148438 5.40625 -29.734375 C 6.4375 -30.316406 7.648438 -30.609375 9.046875 -30.609375 Z M 4.671875 -7.390625 C 4.671875 -5.921875 5.046875 -4.707031 5.796875 -3.75 C 6.554688 -2.800781 7.625 -2.328125 9 -2.328125 C 10.414062 -2.328125 11.488281 -2.816406 12.21875 -3.796875 C 12.945312 -4.785156 13.3125 -6.050781 13.3125 -7.59375 C 13.3125 -8.34375 13.179688 -9.0625 12.921875 -9.75 C 12.660156 -10.445312 12.25 -11.125 11.6875 -11.78125 C 11.132812 -12.4375 10.410156 -13.070312 9.515625 -13.6875 L 8.6875 -14.265625 C 7.738281 -13.648438 6.96875 -13.003906 6.375 -12.328125 C 5.78125 -11.660156 5.347656 -10.925781 5.078125 -10.125 C 4.804688 -9.332031 4.671875 -8.421875 4.671875 -7.390625 Z M 8.984375 -27.84375 C 7.867188 -27.84375 6.976562 -27.441406 6.3125 -26.640625 C 5.65625 -25.847656 5.328125 -24.75 5.328125 -23.34375 C 5.328125 -22.476562 5.460938 -21.695312 5.734375 -21 C 6.015625 -20.3125 6.421875 -19.671875 6.953125 -19.078125 C 7.492188 -18.492188 8.160156 -17.929688 8.953125 -17.390625 C 9.828125 -17.929688 10.535156 -18.5 11.078125 -19.09375 C 11.617188 -19.695312 12.019531 -20.347656 12.28125 -21.046875 C 12.539062 -21.742188 12.671875 -22.507812 12.671875 -23.34375 C 12.671875 -24.75 12.347656 -25.847656 11.703125 -26.640625 C 11.054688 -27.441406 10.148438 -27.84375 8.984375 -27.84375 Z M 8.984375 -27.84375 "/></g></g></g><g fill="#231f20" fill-opacity="1"><g transform="translate(579.338201, 371.08705)"><g><path d="M 6.53125 -30.609375 C 8.070312 -30.609375 9.265625 -29.796875 10.109375 -28.171875 C 10.953125 -26.554688 11.375 -24.226562 11.375 -21.1875 C 11.375 -18.15625 10.953125 -15.8125 10.109375 -14.15625 C 9.273438 -12.5 8.082031 -11.671875 6.53125 -11.671875 C 4.96875 -11.671875 3.773438 -12.5 2.953125 -14.15625 C 2.128906 -15.820312 1.71875 -18.164062 1.71875 -21.1875 C 1.71875 -24.226562 2.125 -26.554688 2.9375 -28.171875 C 3.75 -29.796875 4.945312 -30.609375 6.53125 -30.609375 Z M 6.484375 -28.265625 C 5.722656 -28.265625 5.175781 -27.675781 4.84375 -26.5 C 4.519531 -25.320312 4.359375 -23.550781 4.359375 -21.1875 C 4.359375 -18.8125 4.523438 -17.03125 4.859375 -15.84375 C 5.203125 -14.664062 5.757812 -14.078125 6.53125 -14.078125 C 7.28125 -14.078125 7.832031 -14.660156 8.1875 -15.828125 C 8.539062 -17.003906 8.71875 -18.789062 8.71875 -21.1875 C 8.71875 -23.5625 8.523438 -25.332031 8.140625 -26.5 C 7.765625 -27.675781 7.210938 -28.265625 6.484375 -28.265625 Z M 20.3125 -30.1875 L 9.828125 0 L 7.25 0 L 17.734375 -30.1875 Z M 21.125 -18.5625 C 22.664062 -18.5625 23.859375 -17.75 24.703125 -16.125 C 25.546875 -14.5 25.96875 -12.164062 25.96875 -9.125 C 25.96875 -6.03125 25.539062 -3.671875 24.6875 -2.046875 C 23.832031 -0.429688 22.644531 0.375 21.125 0.375 C 19.582031 0.375 18.394531 -0.445312 17.5625 -2.09375 C 16.726562 -3.75 16.3125 -6.09375 16.3125 -9.125 C 16.3125 -12.25 16.722656 -14.601562 17.546875 -16.1875 C 18.367188 -17.769531 19.5625 -18.5625 21.125 -18.5625 Z M 21.078125 -16.203125 C 20.316406 -16.203125 19.769531 -15.617188 19.4375 -14.453125 C 19.101562 -13.285156 18.9375 -11.507812 18.9375 -9.125 C 18.9375 -6.757812 19.101562 -4.984375 19.4375 -3.796875 C 19.769531 -2.609375 20.332031 -2.015625 21.125 -2.015625 C 21.894531 -2.015625 22.441406 -2.617188 22.765625 -3.828125 C 23.097656 -5.035156 23.265625 -6.800781 23.265625 -9.125 C 23.265625 -11.425781 23.082031 -13.179688 22.71875 -14.390625 C 22.351562 -15.597656 21.804688 -16.203125 21.078125 -16.203125 Z M 21.078125 -16.203125 "/></g></g></g><g fill="#231f20" fill-opacity="1"><g transform="translate(622.772135, 528.064605)"><g><path d="M 1.9375 10.15625 L 1.9375 -17.03125 C 1.9375 -18.269531 1.890625 -19.46875 1.796875 -20.625 C 1.703125 -21.789062 1.582031 -22.8125 1.4375 -23.6875 C 1.300781 -24.570312 1.171875 -25.207031 1.046875 -25.59375 C 1.003906 -25.78125 0.957031 -25.953125 0.90625 -26.109375 C 0.851562 -26.273438 0.800781 -26.445312 0.75 -26.625 L 6.234375 -26.625 C 6.347656 -26.28125 6.453125 -25.914062 6.546875 -25.53125 C 6.640625 -25.144531 6.710938 -24.738281 6.765625 -24.3125 C 6.921875 -23.539062 7.046875 -22.742188 7.140625 -21.921875 C 7.234375 -21.097656 7.304688 -20.269531 7.359375 -19.4375 C 7.410156 -18.613281 7.4375 -17.8125 7.4375 -17.03125 L 7.4375 10.15625 Z M 1.9375 10.15625 "/></g></g></g><g fill="#231f20" fill-opacity="1"><g transform="translate(633.679012, 528.064605)"><g><path d="M 2.328125 0 L 2.328125 -26.625 L 7.84375 -26.625 L 7.84375 0 Z M 2.328125 0 "/></g></g></g><g fill="#231f20" fill-opacity="1"><g transform="translate(644.978143, 528.064605)"><g><path d="M 2.71875 0 L 2.71875 -8.953125 C 2.71875 -11.671875 3 -14.003906 3.5625 -15.953125 C 4.132812 -17.910156 4.773438 -19.332031 5.484375 -20.21875 C 5.640625 -20.457031 5.882812 -20.785156 6.21875 -21.203125 C 6.5625 -21.628906 6.910156 -21.957031 7.265625 -22.1875 L 2.015625 -22.1875 L 2.015625 -26.625 L 11.171875 -26.625 L 11.171875 -22.1875 C 11.015625 -21.988281 10.785156 -21.582031 10.484375 -20.96875 C 10.179688 -20.351562 9.878906 -19.625 9.578125 -18.78125 C 9.273438 -17.945312 9.035156 -17.078125 8.859375 -16.171875 C 8.722656 -15.453125 8.613281 -14.835938 8.53125 -14.328125 C 8.445312 -13.828125 8.390625 -13.316406 8.359375 -12.796875 C 8.304688 -12.285156 8.269531 -11.726562 8.25 -11.125 C 8.238281 -10.519531 8.234375 -9.796875 8.234375 -8.953125 L 8.234375 0 Z M 2.71875 0 "/></g></g></g><g fill="#231f20" fill-opacity="1"><g transform="translate(657.887574, 528.064605)"><g><path d="M 0.890625 0 L 2.359375 -17.28125 C 2.378906 -17.507812 2.394531 -17.789062 2.40625 -18.125 C 2.425781 -18.46875 2.4375 -18.804688 2.4375 -19.140625 C 2.4375 -19.816406 2.394531 -20.484375 2.3125 -21.140625 C 2.226562 -21.796875 2.117188 -22.4375 1.984375 -23.0625 C 1.953125 -23.195312 1.914062 -23.332031 1.875 -23.46875 C 1.832031 -23.613281 1.789062 -23.753906 1.75 -23.890625 C 1.707031 -24.023438 1.664062 -24.15625 1.625 -24.28125 C 1.519531 -24.675781 1.40625 -25.066406 1.28125 -25.453125 C 1.15625 -25.847656 1.03125 -26.238281 0.90625 -26.625 L 6.125 -26.625 C 6.394531 -25.976562 6.613281 -25.351562 6.78125 -24.75 C 6.957031 -24.15625 7.097656 -23.550781 7.203125 -22.9375 L 7.5 -22.9375 C 7.644531 -23.351562 7.90625 -23.820312 8.28125 -24.34375 C 8.664062 -24.863281 9.054688 -25.289062 9.453125 -25.625 C 9.890625 -25.976562 10.492188 -26.300781 11.265625 -26.59375 C 12.035156 -26.894531 12.890625 -27.046875 13.828125 -27.046875 C 14.796875 -27.046875 15.613281 -26.882812 16.28125 -26.5625 C 16.957031 -26.238281 17.507812 -25.835938 17.9375 -25.359375 C 18.394531 -24.859375 18.773438 -24.234375 19.078125 -23.484375 C 19.390625 -22.742188 19.625 -21.945312 19.78125 -21.09375 C 19.945312 -20.300781 20.066406 -19.394531 20.140625 -18.375 C 20.210938 -17.363281 20.25 -16.382812 20.25 -15.4375 L 20.25 0 L 9.8125 0 L 9.8125 -4.4375 L 14.765625 -4.4375 L 14.765625 -15.421875 C 14.765625 -16.609375 14.707031 -17.585938 14.59375 -18.359375 C 14.488281 -19.128906 14.335938 -19.796875 14.140625 -20.359375 C 13.992188 -20.835938 13.804688 -21.222656 13.578125 -21.515625 C 13.347656 -21.816406 13.097656 -22.039062 12.828125 -22.1875 C 12.554688 -22.332031 12.269531 -22.40625 11.96875 -22.40625 C 11.363281 -22.40625 10.835938 -22.257812 10.390625 -21.96875 C 9.941406 -21.6875 9.5625 -21.328125 9.25 -20.890625 C 8.945312 -20.453125 8.6875 -20.003906 8.46875 -19.546875 C 8.257812 -19.097656 8.078125 -18.625 7.921875 -18.125 L 6.375 0 Z M 0.890625 0 "/></g></g></g><g fill="#231f20" fill-opacity="1"><g transform="translate(653.118381, 249.664727)"><g><path d="M 9.375 10.15625 L 9.375 -15.234375 C 9.375 -16.140625 9.34375 -16.953125 9.28125 -17.671875 C 9.21875 -18.398438 9.097656 -19.078125 8.921875 -19.703125 C 8.804688 -20.097656 8.648438 -20.457031 8.453125 -20.78125 C 8.253906 -21.101562 8.054688 -21.347656 7.859375 -21.515625 C 7.253906 -22.046875 6.441406 -22.3125 5.421875 -22.3125 C 5.015625 -22.3125 4.679688 -22.300781 4.421875 -22.28125 C 4.171875 -22.257812 3.769531 -22.226562 3.21875 -22.1875 C 2.90625 -22.164062 2.578125 -22.128906 2.234375 -22.078125 C 1.890625 -22.023438 1.523438 -21.96875 1.140625 -21.90625 L 1.140625 -26.484375 C 1.535156 -26.578125 1.929688 -26.65625 2.328125 -26.71875 C 2.734375 -26.78125 3.128906 -26.84375 3.515625 -26.90625 C 3.921875 -26.957031 4.320312 -26.992188 4.71875 -27.015625 C 5.125 -27.035156 5.515625 -27.046875 5.890625 -27.046875 C 6.878906 -27.046875 7.769531 -26.957031 8.5625 -26.78125 C 9.351562 -26.613281 10.03125 -26.378906 10.59375 -26.078125 C 11.457031 -25.617188 12.171875 -25.035156 12.734375 -24.328125 C 13.296875 -23.628906 13.691406 -22.945312 13.921875 -22.28125 C 14.242188 -21.289062 14.476562 -20.242188 14.625 -19.140625 C 14.769531 -18.046875 14.84375 -16.742188 14.84375 -15.234375 L 14.84375 10.15625 Z M 9.375 10.15625 "/></g></g></g><g fill="#231f20" fill-opacity="1"><g transform="translate(671.209678, 249.664727)"><g><path d="M 2.328125 0 L 2.328125 -26.625 L 7.84375 -26.625 L 7.84375 0 Z M 2.328125 0 "/></g></g></g><g fill="#231f20" fill-opacity="1"><g transform="translate(682.508808, 249.664727)"><g><path d="M 0.890625 0 L 0.890625 -4.4375 L 6.765625 -4.4375 C 6.910156 -4.957031 7.007812 -5.613281 7.0625 -6.40625 C 7.113281 -7.195312 7.140625 -8.117188 7.140625 -9.171875 L 7.140625 -19.140625 C 7.140625 -19.691406 7.070312 -20.242188 6.9375 -20.796875 C 6.8125 -21.359375 6.582031 -21.757812 6.25 -22 C 6.03125 -22.1875 5.75 -22.3125 5.40625 -22.375 C 5.070312 -22.4375 4.773438 -22.46875 4.515625 -22.46875 C 4.253906 -22.46875 3.914062 -22.429688 3.5 -22.359375 C 3.082031 -22.285156 2.609375 -22.179688 2.078125 -22.046875 L 2.078125 -26.609375 C 2.847656 -26.773438 3.492188 -26.890625 4.015625 -26.953125 C 4.535156 -27.015625 5.023438 -27.046875 5.484375 -27.046875 C 6.296875 -27.046875 7.085938 -26.976562 7.859375 -26.84375 C 8.628906 -26.71875 9.25 -26.535156 9.71875 -26.296875 C 10.363281 -26.015625 10.914062 -25.554688 11.375 -24.921875 C 11.84375 -24.296875 12.164062 -23.554688 12.34375 -22.703125 C 12.425781 -22.316406 12.492188 -21.816406 12.546875 -21.203125 C 12.609375 -20.597656 12.640625 -19.910156 12.640625 -19.140625 L 12.640625 -7.53125 C 12.640625 -6.675781 12.597656 -5.820312 12.515625 -4.96875 C 12.441406 -4.125 12.34375 -3.34375 12.21875 -2.625 C 12.09375 -1.90625 11.96875 -1.328125 11.84375 -0.890625 L 11.609375 0 Z M 0.890625 0 "/></g></g></g><g fill="#231f20" fill-opacity="1"><g transform="translate(698.411747, 249.664727)"><g><path d="M 2.328125 -9 L 2.328125 -26.625 L 7.796875 -26.625 L 7.796875 -14.3125 L 4.421875 -9 Z M 2.328125 -9 "/></g></g></g><g fill="#231f20" fill-opacity="1"><g transform="translate(709.710877, 249.664727)"><g><path d="M 2.328125 0 L 2.328125 -26.15625 C 2.910156 -26.28125 3.488281 -26.382812 4.0625 -26.46875 C 4.644531 -26.5625 5.210938 -26.644531 5.765625 -26.71875 C 6.617188 -26.820312 7.445312 -26.898438 8.25 -26.953125 C 9.0625 -27.015625 9.820312 -27.046875 10.53125 -27.046875 C 12.207031 -27.046875 13.570312 -26.898438 14.625 -26.609375 C 15.675781 -26.316406 16.539062 -25.867188 17.21875 -25.265625 C 17.445312 -25.054688 17.644531 -24.835938 17.8125 -24.609375 C 17.988281 -24.390625 18.148438 -24.148438 18.296875 -23.890625 C 18.703125 -23.128906 18.972656 -22.242188 19.109375 -21.234375 C 19.253906 -20.234375 19.328125 -19.082031 19.328125 -17.78125 L 19.328125 0 L 13.8125 0 L 13.8125 -17.796875 C 13.8125 -18.703125 13.742188 -19.472656 13.609375 -20.109375 C 13.484375 -20.742188 13.257812 -21.238281 12.9375 -21.59375 C 12.632812 -21.9375 12.253906 -22.179688 11.796875 -22.328125 C 11.335938 -22.484375 10.742188 -22.5625 10.015625 -22.5625 C 9.691406 -22.5625 9.359375 -22.546875 9.015625 -22.515625 C 8.671875 -22.492188 8.28125 -22.445312 7.84375 -22.375 L 7.84375 0 Z M 2.328125 0 "/></g></g></g><g fill="#231f20" fill-opacity="1"><g transform="translate(812.249816, 370.658472)"><g><path d="M 9.359375 0 L 9.359375 -17.796875 C 9.359375 -18.785156 9.28125 -19.617188 9.125 -20.296875 C 8.96875 -20.984375 8.671875 -21.5 8.234375 -21.84375 C 7.929688 -22.09375 7.550781 -22.273438 7.09375 -22.390625 C 6.632812 -22.503906 6.140625 -22.5625 5.609375 -22.5625 C 5.265625 -22.5625 4.796875 -22.546875 4.203125 -22.515625 C 3.617188 -22.484375 3.019531 -22.441406 2.40625 -22.390625 C 1.800781 -22.335938 1.296875 -22.289062 0.890625 -22.25 L 0.890625 -26.71875 C 1.910156 -26.820312 2.859375 -26.898438 3.734375 -26.953125 C 4.617188 -27.015625 5.394531 -27.046875 6.0625 -27.046875 C 7.25 -27.046875 8.273438 -26.972656 9.140625 -26.828125 C 10.015625 -26.679688 10.773438 -26.472656 11.421875 -26.203125 C 11.984375 -25.953125 12.46875 -25.640625 12.875 -25.265625 C 13.28125 -24.898438 13.632812 -24.441406 13.9375 -23.890625 C 14.375 -23.117188 14.632812 -22.21875 14.71875 -21.1875 C 14.8125 -20.164062 14.859375 -19.03125 14.859375 -17.78125 L 14.859375 0 Z M 9.359375 0 "/></g></g></g><g fill="#231f20" fill-opacity="1"><g transform="translate(830.361757, 370.658472)"><g><path d="M 2.328125 0 L 2.328125 -26.625 L 7.84375 -26.625 L 7.84375 0 Z M 2.328125 0 "/></g></g></g><g fill="#231f20" fill-opacity="1"><g transform="translate(841.660887, 370.658472)"><g><path d="M 2.328125 -9 L 2.328125 -26.625 L 7.796875 -26.625 L 7.796875 -14.3125 L 4.421875 -9 Z M 2.328125 -9 "/></g></g></g><g fill="#231f20" fill-opacity="1"><g transform="translate(852.960017, 370.658472)"><g><path d="M 8.40625 0 L 8.40625 -17.078125 C 8.40625 -17.773438 8.507812 -18.441406 8.71875 -19.078125 C 8.9375 -19.722656 9.195312 -20.21875 9.5 -20.5625 C 9.832031 -20.945312 10.15625 -21.269531 10.46875 -21.53125 C 10.78125 -21.789062 11.128906 -22.007812 11.515625 -22.1875 L 0.5625 -22.1875 L 0.5625 -26.625 L 17.03125 -26.625 L 17.03125 -22.4375 C 16.644531 -22.300781 16.289062 -22.125 15.96875 -21.90625 C 15.644531 -21.6875 15.359375 -21.414062 15.109375 -21.09375 C 14.316406 -20.09375 13.921875 -18.695312 13.921875 -16.90625 L 13.921875 0 Z M 8.40625 0 "/></g></g></g><g fill="#231f20" fill-opacity="1"><g transform="translate(810.085043, 429.828924)"><g><path d="M 15.4375 -23.265625 C 15.4375 -22.054688 15.242188 -20.960938 14.859375 -19.984375 C 14.472656 -19.003906 13.910156 -18.164062 13.171875 -17.46875 C 12.441406 -16.78125 11.539062 -16.242188 10.46875 -15.859375 L 10.46875 -15.6875 C 12.226562 -15.300781 13.578125 -14.460938 14.515625 -13.171875 C 15.460938 -11.890625 15.9375 -10.238281 15.9375 -8.21875 C 15.9375 -6.507812 15.613281 -5.003906 14.96875 -3.703125 C 14.332031 -2.398438 13.40625 -1.390625 12.1875 -0.671875 C 10.96875 0.046875 9.484375 0.40625 7.734375 0.40625 C 6.523438 0.40625 5.425781 0.304688 4.4375 0.109375 C 3.457031 -0.078125 2.519531 -0.382812 1.625 -0.8125 L 1.625 -4.0625 C 2.507812 -3.539062 3.445312 -3.140625 4.4375 -2.859375 C 5.425781 -2.578125 6.425781 -2.4375 7.4375 -2.4375 C 9.164062 -2.4375 10.445312 -2.984375 11.28125 -4.078125 C 12.113281 -5.179688 12.53125 -6.613281 12.53125 -8.375 C 12.53125 -9.644531 12.296875 -10.707031 11.828125 -11.5625 C 11.359375 -12.425781 10.660156 -13.070312 9.734375 -13.5 C 8.816406 -13.9375 7.675781 -14.15625 6.3125 -14.15625 L 4.765625 -14.15625 L 4.765625 -17.015625 L 6.4375 -17.015625 C 7.625 -17.015625 8.644531 -17.257812 9.5 -17.75 C 10.363281 -18.25 11.03125 -18.941406 11.5 -19.828125 C 11.96875 -20.710938 12.203125 -21.75 12.203125 -22.9375 C 12.203125 -24.46875 11.835938 -25.648438 11.109375 -26.484375 C 10.378906 -27.328125 9.347656 -27.75 8.015625 -27.75 C 7.347656 -27.75 6.738281 -27.664062 6.1875 -27.5 C 5.644531 -27.332031 5.117188 -27.085938 4.609375 -26.765625 C 4.109375 -26.453125 3.597656 -26.0625 3.078125 -25.59375 L 1.484375 -27.875 C 2.546875 -28.851562 3.625 -29.550781 4.71875 -29.96875 C 5.820312 -30.394531 7.054688 -30.609375 8.421875 -30.609375 C 10.597656 -30.609375 12.3125 -29.953125 13.5625 -28.640625 C 14.8125 -27.328125 15.4375 -25.535156 15.4375 -23.265625 Z M 15.4375 -23.265625 "/></g></g></g><g fill="#231f20" fill-opacity="1"><g transform="translate(828.066734, 429.828924)"><g><path d="M 17.40625 -6.640625 L 14.203125 -6.640625 L 14.203125 0 L 10.984375 0 L 10.984375 -6.640625 L 0.703125 -6.640625 L 0.703125 -9.328125 L 10.71875 -30.4375 L 14.203125 -30.4375 L 14.203125 -9.4375 L 17.40625 -9.4375 Z M 10.984375 -9.4375 L 10.984375 -21.609375 C 10.984375 -21.929688 10.988281 -22.289062 11 -22.6875 C 11.019531 -23.082031 11.035156 -23.488281 11.046875 -23.90625 C 11.054688 -24.332031 11.066406 -24.738281 11.078125 -25.125 C 11.097656 -25.507812 11.113281 -25.847656 11.125 -26.140625 L 10.984375 -26.140625 C 10.765625 -25.472656 10.523438 -24.828125 10.265625 -24.203125 C 10.015625 -23.585938 9.765625 -22.992188 9.515625 -22.421875 L 3.609375 -9.4375 Z M 10.984375 -9.4375 "/></g></g></g><g fill="#231f20" fill-opacity="1"><g transform="translate(846.048425, 429.828924)"><g><path d="M 6.53125 -30.609375 C 8.070312 -30.609375 9.265625 -29.796875 10.109375 -28.171875 C 10.953125 -26.554688 11.375 -24.226562 11.375 -21.1875 C 11.375 -18.15625 10.953125 -15.8125 10.109375 -14.15625 C 9.273438 -12.5 8.082031 -11.671875 6.53125 -11.671875 C 4.96875 -11.671875 3.773438 -12.5 2.953125 -14.15625 C 2.128906 -15.820312 1.71875 -18.164062 1.71875 -21.1875 C 1.71875 -24.226562 2.125 -26.554688 2.9375 -28.171875 C 3.75 -29.796875 4.945312 -30.609375 6.53125 -30.609375 Z M 6.484375 -28.265625 C 5.722656 -28.265625 5.175781 -27.675781 4.84375 -26.5 C 4.519531 -25.320312 4.359375 -23.550781 4.359375 -21.1875 C 4.359375 -18.8125 4.523438 -17.03125 4.859375 -15.84375 C 5.203125 -14.664062 5.757812 -14.078125 6.53125 -14.078125 C 7.28125 -14.078125 7.832031 -14.660156 8.1875 -15.828125 C 8.539062 -17.003906 8.71875 -18.789062 8.71875 -21.1875 C 8.71875 -23.5625 8.523438 -25.332031 8.140625 -26.5 C 7.765625 -27.675781 7.210938 -28.265625 6.484375 -28.265625 Z M 20.3125 -30.1875 L 9.828125 0 L 7.25 0 L 17.734375 -30.1875 Z M 21.125 -18.5625 C 22.664062 -18.5625 23.859375 -17.75 24.703125 -16.125 C 25.546875 -14.5 25.96875 -12.164062 25.96875 -9.125 C 25.96875 -6.03125 25.539062 -3.671875 24.6875 -2.046875 C 23.832031 -0.429688 22.644531 0.375 21.125 0.375 C 19.582031 0.375 18.394531 -0.445312 17.5625 -2.09375 C 16.726562 -3.75 16.3125 -6.09375 16.3125 -9.125 C 16.3125 -12.25 16.722656 -14.601562 17.546875 -16.1875 C 18.367188 -17.769531 19.5625 -18.5625 21.125 -18.5625 Z M 21.078125 -16.203125 C 20.316406 -16.203125 19.769531 -15.617188 19.4375 -14.453125 C 19.101562 -13.285156 18.9375 -11.507812 18.9375 -9.125 C 18.9375 -6.757812 19.101562 -4.984375 19.4375 -3.796875 C 19.769531 -2.609375 20.332031 -2.015625 21.125 -2.015625 C 21.894531 -2.015625 22.441406 -2.617188 22.765625 -3.828125 C 23.097656 -5.035156 23.265625 -6.800781 23.265625 -9.125 C 23.265625 -11.425781 23.082031 -13.179688 22.71875 -14.390625 C 22.351562 -15.597656 21.804688 -16.203125 21.078125 -16.203125 Z M 21.078125 -16.203125 "/></g></g></g></svg>