<svg xmlns="http://www.w3.org/2000/svg" xmlns:xlink="http://www.w3.org/1999/xlink" width="794" zoomAndPan="magnify" viewBox="0 0 1440 809.999993" height="1123" preserveAspectRatio="xMidYMid meet" version="1.0"><defs><g/><clipPath id="7c3245d75c"><path d="M 708.957031 103.355469 L 710.222656 103.355469 L 710.222656 759.597656 L 708.957031 759.597656 Z M 708.957031 103.355469 " clip-rule="nonzero"/></clipPath><clipPath id="c1643e6ada"><path d="M 705 92 L 713.335938 92 L 713.335938 106 L 705 106 Z M 705 92 " clip-rule="nonzero"/></clipPath><clipPath id="8587abbeea"><path d="M 713.128906 105.859375 L 709.4375 92.152344 L 705.769531 105.859375 Z M 713.128906 105.859375 " clip-rule="nonzero"/></clipPath><clipPath id="b0d289c0bd"><path d="M 482.882812 668.828125 L 925.117188 668.828125 L 925.117188 670.09375 L 482.882812 670.09375 Z M 482.882812 668.828125 " clip-rule="nonzero"/></clipPath><clipPath id="9724064e61"><path d="M 922 665 L 937 665 L 937 673 L 922 673 Z M 922 665 " clip-rule="nonzero"/></clipPath><clipPath id="133ad5666f"><path d="M 922.613281 672.976562 L 936.320312 669.308594 L 922.613281 665.644531 Z M 922.613281 672.976562 " clip-rule="nonzero"/></clipPath><clipPath id="c367032755"><path d="M 705.855469 624 L 713.335938 624 L 713.335938 632 L 705.855469 632 Z M 705.855469 624 " clip-rule="nonzero"/></clipPath><clipPath id="c56b0ac7eb"><path d="M 713.179688 627.757812 C 713.179688 629.730469 711.585938 631.347656 709.589844 631.347656 C 707.589844 631.347656 705.996094 629.753906 705.996094 627.757812 C 705.996094 625.757812 707.589844 624.164062 709.589844 624.164062 C 711.585938 624.164062 713.179688 625.757812 713.179688 627.757812 " clip-rule="nonzero"/></clipPath><clipPath id="16d2c7b9c0"><path d="M 705.855469 212 L 713.335938 212 L 713.335938 219.757812 L 705.855469 219.757812 Z M 705.855469 212 " clip-rule="nonzero"/></clipPath><clipPath id="8abb01e2a3"><path d="M 713.179688 215.746094 C 713.179688 217.71875 711.585938 219.339844 709.589844 219.339844 C 707.589844 219.339844 705.996094 217.71875 705.996094 215.746094 C 705.996094 213.773438 707.589844 212.15625 709.589844 212.15625 C 711.585938 212.15625 713.179688 213.773438 713.179688 215.746094 " clip-rule="nonzero"/></clipPath><clipPath id="a8bd26c525"><path d="M 787 376.835938 L 795 376.835938 L 795 384.316406 L 787 384.316406 Z M 787 376.835938 " clip-rule="nonzero"/></clipPath><clipPath id="093bef184a"><path d="M 794.96875 380.566406 C 794.96875 382.539062 793.375 384.15625 791.378906 384.15625 C 789.378906 384.15625 787.789062 382.539062 787.789062 380.566406 C 787.789062 378.59375 789.378906 376.976562 791.378906 376.976562 C 793.375 376.976562 794.96875 378.59375 794.96875 380.566406 " clip-rule="nonzero"/></clipPath><clipPath id="62b9704db6"><path d="M 829.277344 665 L 836.753906 665 L 836.753906 674 L 829.277344 674 Z M 829.277344 665 " clip-rule="nonzero"/></clipPath><clipPath id="3229c20362"><path d="M 836.675781 669.460938 C 836.675781 671.433594 835.082031 673.054688 833.082031 673.054688 C 831.085938 673.054688 829.492188 671.433594 829.492188 669.460938 C 829.492188 667.488281 831.109375 665.871094 833.082031 665.871094 C 835.054688 665.871094 836.675781 667.488281 836.675781 669.460938 " clip-rule="nonzero"/></clipPath><clipPath id="1a31791760"><path d="M 582 582 L 589.917969 582 L 589.917969 590 L 582 590 Z M 582 582 " clip-rule="nonzero"/></clipPath><clipPath id="c22052b7f5"><path d="M 589.457031 586.078125 C 589.457031 588.050781 587.839844 589.667969 585.867188 589.667969 C 583.894531 589.667969 582.277344 588.050781 582.277344 586.078125 C 582.277344 584.105469 583.867188 582.488281 585.867188 582.488281 C 587.863281 582.488281 589.457031 584.105469 589.457031 586.078125 " clip-rule="nonzero"/></clipPath><clipPath id="647f32d014"><path d="M 585 585 L 834 585 L 834 670.421875 L 585 670.421875 Z M 585 585 " clip-rule="nonzero"/></clipPath><clipPath id="199fb7ce6a"><path d="M 586.070312 585.472656 L 833.285156 668.855469 L 832.878906 670.042969 L 585.664062 586.660156 Z M 586.070312 585.472656 " clip-rule="nonzero"/></clipPath><clipPath id="21abbb3c33"><path d="M 790.003906 380 L 834 380 L 834 670 L 790.003906 670 Z M 790.003906 380 " clip-rule="nonzero"/></clipPath><clipPath id="1a51757b03"><path d="M 832.449219 669.539062 L 790.773438 380.640625 L 792.011719 380.464844 L 833.691406 669.359375 Z M 832.449219 669.539062 " clip-rule="nonzero"/></clipPath><clipPath id="633610bb3b"><path d="M 585 380 L 791.875 380 L 791.875 587 L 585 587 Z M 585 380 " clip-rule="nonzero"/></clipPath><clipPath id="e694998c3d"><path d="M 791.835938 380.996094 L 586.324219 586.535156 L 585.4375 585.648438 L 790.949219 380.113281 Z M 791.835938 380.996094 " clip-rule="nonzero"/></clipPath><clipPath id="0dd9b286e8"><path d="M 709 380 L 792 380 L 792 628 L 709 628 Z M 709 380 " clip-rule="nonzero"/></clipPath><clipPath id="36cbeb42bc"><path d="M 791.984375 380.742188 L 710.195312 627.960938 L 709.007812 627.554688 L 790.796875 380.339844 Z M 791.984375 380.742188 " clip-rule="nonzero"/></clipPath><clipPath id="c8bc9d80a4"><path d="M 734 134 L 737 134 L 737 137.476562 L 734 137.476562 Z M 734 134 " clip-rule="nonzero"/></clipPath><clipPath id="47285011f1"><path d="M 736.5 134.917969 L 735.6875 137.320312 L 734.5 136.917969 L 735.308594 134.515625 Z M 736.5 134.917969 " clip-rule="nonzero"/></clipPath><clipPath id="016d482477"><path d="M 549 141.214844 L 735 141.214844 L 735 695 L 549 695 Z M 549 141.214844 " clip-rule="nonzero"/></clipPath><clipPath id="b0b7db74f2"><path d="M 730.910156 151.738281 L 729.316406 156.542969 L 728.125 156.136719 L 729.71875 151.332031 Z M 727.722656 161.347656 L 726.128906 166.152344 L 724.941406 165.75 L 726.535156 160.941406 Z M 724.535156 170.957031 L 722.941406 175.761719 L 721.753906 175.359375 L 723.347656 170.554688 Z M 721.347656 180.570312 L 719.753906 185.375 L 718.566406 184.96875 L 720.160156 180.164062 Z M 718.164062 190.179688 L 716.570312 194.984375 L 715.378906 194.578125 L 716.972656 189.773438 Z M 714.976562 199.789062 L 713.382812 204.59375 L 712.195312 204.191406 L 713.785156 199.382812 Z M 711.789062 209.398438 L 710.195312 214.203125 L 709.007812 213.800781 L 710.601562 208.996094 Z M 708.601562 219.011719 L 707.007812 223.816406 L 705.820312 223.410156 L 707.414062 218.605469 Z M 705.414062 228.621094 L 703.824219 233.425781 L 702.632812 233.019531 L 704.226562 228.214844 Z M 702.230469 238.230469 L 700.636719 243.035156 L 699.449219 242.632812 L 701.039062 237.828125 Z M 699.042969 247.839844 L 697.449219 252.648438 L 696.261719 252.242188 L 697.855469 247.4375 Z M 695.855469 257.453125 L 694.261719 262.257812 L 693.074219 261.851562 L 694.667969 257.046875 Z M 692.667969 267.0625 L 691.074219 271.867188 L 689.886719 271.464844 L 691.480469 266.65625 Z M 689.484375 276.671875 L 687.738281 281.503906 L 686.550781 281.097656 L 688.140625 276.292969 Z M 686.296875 286.285156 L 684.703125 291.089844 L 683.515625 290.683594 L 685.109375 285.878906 Z M 683.109375 295.894531 L 681.515625 300.699219 L 680.328125 300.292969 L 681.921875 295.488281 Z M 679.921875 305.503906 L 678.328125 310.308594 L 677.140625 309.90625 L 678.734375 305.097656 Z M 676.738281 315.113281 L 675.144531 319.917969 L 673.953125 319.515625 L 675.546875 314.710938 Z M 673.550781 324.726562 L 671.957031 329.53125 L 670.769531 329.125 L 672.359375 324.320312 Z M 670.363281 334.335938 L 668.769531 339.140625 L 667.582031 338.734375 L 669.175781 333.929688 Z M 667.175781 343.945312 L 665.582031 348.75 L 664.394531 348.347656 L 665.988281 343.542969 Z M 663.988281 353.554688 L 662.398438 358.363281 L 661.207031 357.957031 L 662.800781 353.152344 Z M 660.804688 363.167969 L 659.210938 367.972656 L 658.019531 367.566406 L 659.613281 362.761719 Z M 657.617188 372.777344 L 656.023438 377.582031 L 654.835938 377.175781 L 656.429688 372.371094 Z M 654.429688 382.386719 L 652.835938 387.191406 L 651.648438 386.789062 L 653.242188 381.984375 Z M 651.242188 392 L 649.648438 396.804688 L 648.460938 396.398438 L 650.054688 391.59375 Z M 648.058594 401.609375 L 646.464844 406.414062 L 645.273438 406.007812 L 646.867188 401.203125 Z M 644.871094 411.21875 L 643.277344 416.023438 L 642.089844 415.621094 L 643.679688 410.8125 Z M 641.683594 420.828125 L 640.089844 425.632812 L 638.902344 425.230469 L 640.496094 420.425781 Z M 638.496094 430.441406 L 636.902344 435.246094 L 635.714844 434.839844 L 637.308594 430.035156 Z M 635.308594 440.050781 L 633.71875 444.855469 L 632.527344 444.449219 L 634.121094 439.644531 Z M 632.125 449.660156 L 630.53125 454.464844 L 629.339844 454.0625 L 630.933594 449.257812 Z M 628.9375 459.269531 L 627.34375 464.078125 L 626.15625 463.671875 L 627.75 458.867188 Z M 625.371094 468.984375 L 623.777344 473.789062 L 622.589844 473.382812 L 624.183594 468.578125 Z M 622.183594 478.59375 L 620.589844 483.398438 L 619.402344 482.992188 L 620.996094 478.1875 Z M 618.996094 488.203125 L 617.40625 493.007812 L 616.214844 492.605469 L 617.808594 487.800781 Z M 615.8125 497.8125 L 614.21875 502.621094 L 613.027344 502.214844 L 614.621094 497.410156 Z M 612.625 507.425781 L 611.03125 512.230469 L 609.84375 511.824219 L 611.4375 507.019531 Z M 609.386719 517.035156 L 607.792969 521.839844 L 606.605469 521.433594 L 608.199219 516.628906 Z M 606.199219 526.644531 L 604.609375 531.449219 L 603.417969 531.046875 L 605.011719 526.242188 Z M 603.015625 536.253906 L 601.421875 541.0625 L 600.230469 540.65625 L 601.824219 535.851562 Z M 599.828125 545.867188 L 598.234375 550.671875 L 597.046875 550.265625 L 598.640625 545.460938 Z M 596.640625 555.476562 L 595.046875 560.28125 L 593.859375 559.878906 L 595.453125 555.070312 Z M 593.453125 565.085938 L 591.859375 569.890625 L 590.671875 569.488281 L 592.265625 564.683594 Z M 590.269531 574.699219 L 588.675781 579.503906 L 587.484375 579.097656 L 589.078125 574.292969 Z M 587.082031 584.308594 L 585.488281 589.113281 L 584.300781 588.707031 L 585.890625 583.902344 Z M 583.894531 593.917969 L 582.300781 598.722656 L 581.113281 598.320312 L 582.707031 593.515625 Z M 580.707031 603.527344 L 579.113281 608.335938 L 577.925781 607.929688 L 579.519531 603.125 Z M 577.519531 613.140625 L 575.929688 617.945312 L 574.738281 617.539062 L 576.332031 612.734375 Z M 574.335938 622.75 L 572.742188 627.554688 L 571.550781 627.148438 L 573.144531 622.34375 Z M 571.148438 632.359375 L 569.554688 637.164062 L 568.367188 636.761719 L 569.960938 631.957031 Z M 567.960938 641.96875 L 566.367188 646.777344 L 565.179688 646.371094 L 566.773438 641.566406 Z M 564.773438 651.582031 L 563.179688 656.386719 L 561.992188 655.980469 L 563.585938 651.175781 Z M 561.589844 661.191406 L 559.996094 665.996094 L 558.804688 665.59375 L 560.398438 660.785156 Z M 558.402344 670.800781 L 556.808594 675.605469 L 555.621094 675.203125 L 557.210938 670.398438 Z M 555.214844 680.414062 L 553.621094 685.21875 L 552.433594 684.8125 L 554.027344 680.007812 Z M 552.027344 690.023438 L 550.433594 694.828125 L 549.246094 694.421875 L 550.839844 689.617188 Z M 734.09375 142.125 L 732.503906 146.933594 L 731.3125 146.527344 L 732.90625 141.722656 Z M 734.09375 142.125 " clip-rule="nonzero"/></clipPath><clipPath id="55d2c20dbc"><path d="M 546 699 L 548.777344 699 L 548.777344 702.210938 L 546 702.210938 Z M 546 699 " clip-rule="nonzero"/></clipPath><clipPath id="77254012cb"><path d="M 548.664062 699.609375 L 547.855469 702.011719 L 546.667969 701.605469 L 547.476562 699.203125 Z M 548.664062 699.609375 " clip-rule="nonzero"/></clipPath><clipPath id="e07cb83cc1"><path d="M 715.207031 611 L 733 611 L 733 633 L 715.207031 633 Z M 715.207031 611 " clip-rule="nonzero"/></clipPath><clipPath id="0ff2abb88f"><path d="M 715.835938 611.21875 L 731.464844 616.476562 L 732.070312 616.679688 L 731.871094 617.285156 L 726.609375 632.917969 L 725.421875 632.511719 L 730.679688 616.882812 L 731.289062 617.085938 L 731.085938 617.691406 L 715.457031 612.429688 Z M 715.835938 611.21875 " clip-rule="nonzero"/></clipPath></defs><g clip-path="url(#7c3245d75c)"><path fill="#231f20" d="M 470.238281 79.507812 L 948.953125 79.507812 L 948.953125 771.402344 L 470.238281 771.402344 Z M 470.238281 79.507812 " fill-opacity="1" fill-rule="nonzero"/></g><g clip-path="url(#c1643e6ada)"><g clip-path="url(#8587abbeea)"><path fill="#231f20" d="M 470.238281 79.507812 L 948.953125 79.507812 L 948.953125 771.402344 L 470.238281 771.402344 Z M 470.238281 79.507812 " fill-opacity="1" fill-rule="nonzero"/></g></g><g clip-path="url(#b0d289c0bd)"><path fill="#231f20" d="M 470.238281 79.507812 L 948.953125 79.507812 L 948.953125 771.402344 L 470.238281 771.402344 Z M 470.238281 79.507812 " fill-opacity="1" fill-rule="nonzero"/></g><g clip-path="url(#9724064e61)"><g clip-path="url(#133ad5666f)"><path fill="#231f20" d="M 470.238281 79.507812 L 948.953125 79.507812 L 948.953125 771.402344 L 470.238281 771.402344 Z M 470.238281 79.507812 " fill-opacity="1" fill-rule="nonzero"/></g></g><g clip-path="url(#c367032755)"><g clip-path="url(#c56b0ac7eb)"><path fill="#231f20" d="M 470.238281 79.507812 L 948.953125 79.507812 L 948.953125 771.402344 L 470.238281 771.402344 Z M 470.238281 79.507812 " fill-opacity="1" fill-rule="nonzero"/></g></g><g clip-path="url(#16d2c7b9c0)"><g clip-path="url(#8abb01e2a3)"><path fill="#231f20" d="M 470.238281 79.507812 L 948.953125 79.507812 L 948.953125 771.402344 L 470.238281 771.402344 Z M 470.238281 79.507812 " fill-opacity="1" fill-rule="nonzero"/></g></g><g clip-path="url(#a8bd26c525)"><g clip-path="url(#093bef184a)"><path fill="#231f20" d="M 470.238281 79.507812 L 948.953125 79.507812 L 948.953125 771.402344 L 470.238281 771.402344 Z M 470.238281 79.507812 " fill-opacity="1" fill-rule="nonzero"/></g></g><g clip-path="url(#62b9704db6)"><g clip-path="url(#3229c20362)"><path fill="#231f20" d="M 470.238281 79.507812 L 948.953125 79.507812 L 948.953125 771.402344 L 470.238281 771.402344 Z M 470.238281 79.507812 " fill-opacity="1" fill-rule="nonzero"/></g></g><g clip-path="url(#1a31791760)"><g clip-path="url(#c22052b7f5)"><path fill="#231f20" d="M 470.238281 79.507812 L 948.953125 79.507812 L 948.953125 771.402344 L 470.238281 771.402344 Z M 470.238281 79.507812 " fill-opacity="1" fill-rule="nonzero"/></g></g><g clip-path="url(#647f32d014)"><g clip-path="url(#199fb7ce6a)"><path fill="#231f20" d="M 470.238281 79.507812 L 948.953125 79.507812 L 948.953125 771.402344 L 470.238281 771.402344 Z M 470.238281 79.507812 " fill-opacity="1" fill-rule="nonzero"/></g></g><g clip-path="url(#21abbb3c33)"><g clip-path="url(#1a51757b03)"><path fill="#231f20" d="M 470.238281 79.507812 L 948.953125 79.507812 L 948.953125 771.402344 L 470.238281 771.402344 Z M 470.238281 79.507812 " fill-opacity="1" fill-rule="nonzero"/></g></g><g clip-path="url(#633610bb3b)"><g clip-path="url(#e694998c3d)"><path fill="#231f20" d="M 470.238281 79.507812 L 948.953125 79.507812 L 948.953125 771.402344 L 470.238281 771.402344 Z M 470.238281 79.507812 " fill-opacity="1" fill-rule="nonzero"/></g></g><g clip-path="url(#0dd9b286e8)"><g clip-path="url(#36cbeb42bc)"><path fill="#231f20" d="M 470.238281 79.507812 L 948.953125 79.507812 L 948.953125 771.402344 L 470.238281 771.402344 Z M 470.238281 79.507812 " fill-opacity="1" fill-rule="nonzero"/></g></g><g clip-path="url(#c8bc9d80a4)"><g clip-path="url(#47285011f1)"><path fill="#231f20" d="M 470.238281 79.507812 L 948.953125 79.507812 L 948.953125 771.402344 L 470.238281 771.402344 Z M 470.238281 79.507812 " fill-opacity="1" fill-rule="nonzero"/></g></g><g clip-path="url(#016d482477)"><g clip-path="url(#b0b7db74f2)"><path fill="#231f20" d="M 470.238281 79.507812 L 948.953125 79.507812 L 948.953125 771.402344 L 470.238281 771.402344 Z M 470.238281 79.507812 " fill-opacity="1" fill-rule="nonzero"/></g></g><g clip-path="url(#55d2c20dbc)"><g clip-path="url(#77254012cb)"><path fill="#231f20" d="M 470.238281 79.507812 L 948.953125 79.507812 L 948.953125 771.402344 L 470.238281 771.402344 Z M 470.238281 79.507812 " fill-opacity="1" fill-rule="nonzero"/></g></g><g clip-path="url(#e07cb83cc1)"><g clip-path="url(#0ff2abb88f)"><path fill="#231f20" d="M 470.238281 79.507812 L 948.953125 79.507812 L 948.953125 771.402344 L 470.238281 771.402344 Z M 470.238281 79.507812 " fill-opacity="1" fill-rule="nonzero"/></g></g><g fill="#231f20" fill-opacity="1"><g transform="translate(561.652706, 591.63425)"><g><path d="M 2.703125 -19.859375 L 8.375 -19.859375 C 10.84375 -19.859375 12.710938 -19.488281 13.984375 -18.75 C 15.265625 -18.007812 15.90625 -16.738281 15.90625 -14.9375 C 15.90625 -13.769531 15.582031 -12.800781 14.9375 -12.03125 C 14.289062 -11.257812 13.351562 -10.765625 12.125 -10.546875 L 12.125 -10.40625 C 12.957031 -10.25 13.710938 -9.992188 14.390625 -9.640625 C 15.066406 -9.296875 15.597656 -8.796875 15.984375 -8.140625 C 16.378906 -7.492188 16.578125 -6.660156 16.578125 -5.640625 C 16.578125 -3.847656 15.957031 -2.457031 14.71875 -1.46875 C 13.488281 -0.488281 11.804688 0 9.671875 0 L 2.703125 0 Z M 5.203125 -11.40625 L 8.875 -11.40625 C 10.5625 -11.40625 11.722656 -11.675781 12.359375 -12.21875 C 13.003906 -12.769531 13.328125 -13.582031 13.328125 -14.65625 C 13.328125 -15.75 12.941406 -16.53125 12.171875 -17 C 11.398438 -17.476562 10.171875 -17.71875 8.484375 -17.71875 L 5.203125 -17.71875 Z M 5.203125 -9.3125 L 5.203125 -2.109375 L 9.203125 -2.109375 C 10.960938 -2.109375 12.1875 -2.453125 12.875 -3.140625 C 13.5625 -3.828125 13.90625 -4.726562 13.90625 -5.84375 C 13.90625 -6.875 13.546875 -7.707031 12.828125 -8.34375 C 12.117188 -8.988281 10.847656 -9.3125 9.015625 -9.3125 Z M 5.203125 -9.3125 "/></g></g></g><g fill="#231f20" fill-opacity="1"><g transform="translate(689.620292, 649.636415)"><g><path d="M 13.796875 0 L 2.703125 0 L 2.703125 -19.859375 L 13.796875 -19.859375 L 13.796875 -17.65625 L 5.203125 -17.65625 L 5.203125 -11.453125 L 13.296875 -11.453125 L 13.296875 -9.296875 L 5.203125 -9.296875 L 5.203125 -2.203125 L 13.796875 -2.203125 Z M 13.796875 0 "/></g></g></g><g fill="#231f20" fill-opacity="1"><g transform="translate(693.070579, 104.830123)"><g><path d="M 0.03125 -14.90625 L 2.640625 -14.90625 L 5.875 -6.421875 C 6.144531 -5.660156 6.390625 -4.945312 6.609375 -4.28125 C 6.835938 -3.613281 7.007812 -2.972656 7.125 -2.359375 L 7.234375 -2.359375 C 7.335938 -2.828125 7.507812 -3.4375 7.75 -4.1875 C 8 -4.9375 8.253906 -5.691406 8.515625 -6.453125 L 11.546875 -14.90625 L 14.1875 -14.90625 L 7.765625 2.0625 C 7.222656 3.46875 6.539062 4.585938 5.71875 5.421875 C 4.90625 6.253906 3.78125 6.671875 2.34375 6.671875 C 1.894531 6.671875 1.503906 6.644531 1.171875 6.59375 C 0.835938 6.550781 0.550781 6.503906 0.3125 6.453125 L 0.3125 4.5 C 0.507812 4.539062 0.75 4.578125 1.03125 4.609375 C 1.320312 4.648438 1.628906 4.671875 1.953125 4.671875 C 2.796875 4.671875 3.476562 4.425781 4 3.9375 C 4.519531 3.457031 4.9375 2.820312 5.25 2.03125 L 6.03125 0.0625 Z M 0.03125 -14.90625 "/></g></g></g><g fill="#231f20" fill-opacity="1"><g transform="translate(718.55217, 238.97371)"><g><path d="M 5.203125 0 L 2.703125 0 L 2.703125 -19.859375 L 13.796875 -19.859375 L 13.796875 -17.65625 L 5.203125 -17.65625 L 5.203125 -10.625 L 13.265625 -10.625 L 13.265625 -8.421875 L 5.203125 -8.421875 Z M 5.203125 0 "/></g></g></g><g fill="#231f20" fill-opacity="1"><g transform="translate(782.952279, 371.307688)"><g><path d="M 15.15625 0 L 12.765625 -6.140625 L 4.890625 -6.140625 L 2.53125 0 L 0 0 L 7.765625 -19.9375 L 10.015625 -19.9375 L 17.75 0 Z M 12.015625 -8.375 L 9.796875 -14.375 C 9.734375 -14.519531 9.632812 -14.785156 9.5 -15.171875 C 9.375 -15.566406 9.25 -15.972656 9.125 -16.390625 C 9.007812 -16.804688 8.914062 -17.128906 8.84375 -17.359375 C 8.695312 -16.785156 8.546875 -16.222656 8.390625 -15.671875 C 8.234375 -15.128906 8.097656 -14.695312 7.984375 -14.375 L 5.734375 -8.375 Z M 12.015625 -8.375 "/></g></g></g><g fill="#231f20" fill-opacity="1"><g transform="translate(823.818829, 695.732133)"><g><path d="M 11.203125 -17.9375 C 9.078125 -17.9375 7.398438 -17.222656 6.171875 -15.796875 C 4.953125 -14.367188 4.34375 -12.410156 4.34375 -9.921875 C 4.34375 -7.460938 4.910156 -5.515625 6.046875 -4.078125 C 7.191406 -2.640625 8.90625 -1.921875 11.1875 -1.921875 C 12.03125 -1.921875 12.84375 -1.992188 13.625 -2.140625 C 14.40625 -2.285156 15.175781 -2.472656 15.9375 -2.703125 L 15.9375 -0.53125 C 15.195312 -0.25 14.429688 -0.046875 13.640625 0.078125 C 12.847656 0.210938 11.90625 0.28125 10.8125 0.28125 C 8.789062 0.28125 7.101562 -0.132812 5.75 -0.96875 C 4.40625 -1.800781 3.394531 -2.988281 2.71875 -4.53125 C 2.039062 -6.070312 1.703125 -7.878906 1.703125 -9.953125 C 1.703125 -11.953125 2.066406 -13.71875 2.796875 -15.25 C 3.523438 -16.78125 4.601562 -17.976562 6.03125 -18.84375 C 7.457031 -19.707031 9.191406 -20.140625 11.234375 -20.140625 C 13.328125 -20.140625 15.15625 -19.75 16.71875 -18.96875 L 15.71875 -16.859375 C 15.101562 -17.128906 14.421875 -17.375 13.671875 -17.59375 C 12.921875 -17.820312 12.097656 -17.9375 11.203125 -17.9375 Z M 11.203125 -17.9375 "/></g></g></g><g fill="#231f20" fill-opacity="1"><g transform="translate(924.578744, 688.554861)"><g><path d="M 5.890625 -7.625 L 0.75 -14.90625 L 3.53125 -14.90625 L 7.375 -9.296875 L 11.1875 -14.90625 L 13.9375 -14.90625 L 8.78125 -7.625 L 14.21875 0 L 11.4375 0 L 7.375 -5.953125 L 3.25 0 L 0.5 0 Z M 5.890625 -7.625 "/></g></g></g></svg>