<svg xmlns="http://www.w3.org/2000/svg" xmlns:xlink="http://www.w3.org/1999/xlink" width="794" zoomAndPan="magnify" viewBox="0 0 1440 809.999993" height="1123" preserveAspectRatio="xMidYMid meet" version="1.0"><defs><g/><clipPath id="0a19ad278d"><path d="M 500.746094 126.210938 L 957 126.210938 L 957 415.917969 L 500.746094 415.917969 Z M 500.746094 126.210938 " clip-rule="nonzero"/></clipPath><clipPath id="6eacd38891"><path d="M 500.816406 415.234375 L 500.816406 126.28125 L 501.753906 126.875 L 954.589844 414.714844 L 956.394531 415.851562 L 500.816406 415.851562 L 500.816406 415.234375 M 502.050781 415.234375 L 501.433594 415.234375 L 501.433594 414.617188 L 954.269531 414.617188 L 954.269531 415.234375 L 953.949219 415.753906 L 501.113281 127.9375 L 501.433594 127.417969 L 502.050781 127.417969 Z M 502.050781 415.234375 " clip-rule="nonzero"/></clipPath><clipPath id="765020b781"><path d="M 500.746094 127 L 660 127 L 660 415.917969 L 500.746094 415.917969 Z M 500.746094 127 " clip-rule="nonzero"/></clipPath><clipPath id="bd5aa9390f"><path d="M 501.976562 127.097656 L 659.589844 414.9375 L 658.503906 415.53125 L 500.890625 127.6875 Z M 501.976562 127.097656 " clip-rule="nonzero"/></clipPath><clipPath id="e5b33d85f2"><path d="M 500.816406 388.246094 L 528.398438 388.246094 L 528.398438 389.480469 L 500.816406 389.480469 Z M 527.164062 389.480469 L 528.398438 389.480469 L 528.398438 414.59375 L 527.164062 414.59375 Z M 500.816406 389.480469 L 502.050781 389.480469 L 502.050781 414.59375 L 500.816406 414.59375 Z M 500.816406 414.59375 L 528.398438 414.59375 L 528.398438 415.828125 L 500.816406 415.828125 Z M 500.816406 414.59375 " clip-rule="nonzero"/></clipPath><clipPath id="7a4bcbec97"><path d="M 845 360 L 870 360 L 870 415.917969 L 845 415.917969 Z M 845 360 " clip-rule="nonzero"/></clipPath><clipPath id="0ced9c007c"><path d="M 845.375 415.234375 C 845.375 394.589844 854.042969 375.628906 868.511719 360.589844 L 869.402344 361.453125 C 855.105469 376.292969 846.609375 394.960938 846.609375 415.234375 Z M 845.375 415.234375 " clip-rule="nonzero"/></clipPath></defs><g clip-path="url(#0a19ad278d)"><g clip-path="url(#6eacd38891)"><path fill="#231f20" d="M 488.46875 113.933594 L 968.453125 113.933594 L 968.453125 428.195312 L 488.46875 428.195312 Z M 488.46875 113.933594 " fill-opacity="1" fill-rule="nonzero"/></g></g><g clip-path="url(#765020b781)"><g clip-path="url(#bd5aa9390f)"><path fill="#231f20" d="M 488.46875 113.933594 L 968.453125 113.933594 L 968.453125 428.195312 L 488.46875 428.195312 Z M 488.46875 113.933594 " fill-opacity="1" fill-rule="nonzero"/></g></g><g clip-path="url(#e5b33d85f2)"><path fill="#231f20" d="M 488.46875 113.933594 L 968.453125 113.933594 L 968.453125 428.195312 L 488.46875 428.195312 Z M 488.46875 113.933594 " fill-opacity="1" fill-rule="nonzero"/></g><g clip-path="url(#7a4bcbec97)"><g clip-path="url(#0ced9c007c)"><path fill="#231f20" d="M 488.46875 113.933594 L 968.453125 113.933594 L 968.453125 428.195312 L 488.46875 428.195312 Z M 488.46875 113.933594 " fill-opacity="1" fill-rule="nonzero"/></g></g><g fill="#231f20" fill-opacity="1"><g transform="translate(482.470374, 449.034315)"><g><path d="M 7.90625 -17.765625 C 7.132812 -17.765625 6.472656 -17.546875 5.921875 -17.109375 C 5.367188 -16.679688 4.914062 -16.085938 4.5625 -15.328125 C 4.21875 -14.578125 3.960938 -13.71875 3.796875 -12.75 C 3.628906 -11.78125 3.546875 -10.757812 3.546875 -9.6875 C 3.546875 -8.03125 3.726562 -6.597656 4.09375 -5.390625 C 4.46875 -4.191406 4.988281 -3.265625 5.65625 -2.609375 C 6.332031 -1.960938 7.125 -1.640625 8.03125 -1.640625 C 8.582031 -1.640625 9.097656 -1.707031 9.578125 -1.84375 C 10.066406 -1.988281 10.515625 -2.164062 10.921875 -2.375 L 10.921875 -0.46875 C 10.503906 -0.21875 10.03125 -0.0351562 9.5 0.078125 C 8.976562 0.203125 8.410156 0.265625 7.796875 0.265625 C 6.484375 0.265625 5.34375 -0.128906 4.375 -0.921875 C 3.414062 -1.722656 2.671875 -2.867188 2.140625 -4.359375 C 1.617188 -5.847656 1.359375 -7.632812 1.359375 -9.71875 C 1.359375 -11.09375 1.488281 -12.378906 1.75 -13.578125 C 2.007812 -14.773438 2.40625 -15.832031 2.9375 -16.75 C 3.476562 -17.675781 4.15625 -18.394531 4.96875 -18.90625 C 5.78125 -19.425781 6.738281 -19.6875 7.84375 -19.6875 C 8.476562 -19.6875 9.085938 -19.601562 9.671875 -19.4375 C 10.265625 -19.28125 10.828125 -19.046875 11.359375 -18.734375 L 10.609375 -16.953125 C 10.203125 -17.203125 9.769531 -17.398438 9.3125 -17.546875 C 8.863281 -17.691406 8.394531 -17.765625 7.90625 -17.765625 Z M 7.90625 -17.765625 "/></g></g></g><g fill="#231f20" fill-opacity="1"><g transform="translate(491.709773, 113.595771)"><g><path d="M 9.765625 0 L 8.3125 -6.234375 L 3.71875 -6.234375 L 2.25 0 L 0 0 L 4.6875 -19.390625 L 7.234375 -19.390625 L 12.015625 0 Z M 7.921875 -8.1875 L 6.4375 -14.765625 C 6.375 -15.085938 6.3125 -15.40625 6.25 -15.71875 C 6.195312 -16.03125 6.144531 -16.332031 6.09375 -16.625 C 6.039062 -16.925781 5.992188 -17.21875 5.953125 -17.5 C 5.921875 -17.21875 5.882812 -16.925781 5.84375 -16.625 C 5.800781 -16.320312 5.75 -16.019531 5.6875 -15.71875 C 5.625 -15.414062 5.554688 -15.101562 5.484375 -14.78125 L 4.046875 -8.1875 Z M 7.921875 -8.1875 "/></g></g></g><g fill="#231f20" fill-opacity="1"><g transform="translate(648.347542, 449.034315)"><g><path d="M 12.53125 -9.9375 C 12.53125 -7.75 12.273438 -5.914062 11.765625 -4.4375 C 11.265625 -2.96875 10.515625 -1.859375 9.515625 -1.109375 C 8.523438 -0.367188 7.289062 0 5.8125 0 L 2 0 L 2 -19.390625 L 5.96875 -19.390625 C 7.40625 -19.390625 8.609375 -19.03125 9.578125 -18.3125 C 10.554688 -17.59375 11.289062 -16.53125 11.78125 -15.125 C 12.28125 -13.71875 12.53125 -11.988281 12.53125 -9.9375 Z M 10.328125 -9.828125 C 10.328125 -11.515625 10.160156 -12.925781 9.828125 -14.0625 C 9.503906 -15.207031 9.015625 -16.066406 8.359375 -16.640625 C 7.710938 -17.210938 6.890625 -17.5 5.890625 -17.5 L 4.109375 -17.5 L 4.109375 -1.890625 L 5.734375 -1.890625 C 7.328125 -1.890625 8.488281 -2.554688 9.21875 -3.890625 C 9.957031 -5.222656 10.328125 -7.203125 10.328125 -9.828125 Z M 10.328125 -9.828125 "/></g></g></g><g fill="#231f20" fill-opacity="1"><g transform="translate(861.177203, 407.113529)"><g><path d="M 9.921875 -14.9375 C 9.921875 -14.164062 9.796875 -13.460938 9.546875 -12.828125 C 9.296875 -12.203125 8.929688 -11.664062 8.453125 -11.21875 C 7.984375 -10.78125 7.40625 -10.4375 6.71875 -10.1875 L 6.71875 -10.078125 C 7.851562 -9.828125 8.722656 -9.289062 9.328125 -8.46875 C 9.929688 -7.644531 10.234375 -6.582031 10.234375 -5.28125 C 10.234375 -4.1875 10.023438 -3.21875 9.609375 -2.375 C 9.203125 -1.539062 8.609375 -0.890625 7.828125 -0.421875 C 7.046875 0.0351562 6.09375 0.265625 4.96875 0.265625 C 4.195312 0.265625 3.492188 0.203125 2.859375 0.078125 C 2.222656 -0.046875 1.617188 -0.242188 1.046875 -0.515625 L 1.046875 -2.609375 C 1.609375 -2.273438 2.207031 -2.015625 2.84375 -1.828125 C 3.488281 -1.648438 4.132812 -1.5625 4.78125 -1.5625 C 5.882812 -1.5625 6.703125 -1.914062 7.234375 -2.625 C 7.773438 -3.332031 8.046875 -4.253906 8.046875 -5.390625 C 8.046875 -6.203125 7.894531 -6.882812 7.59375 -7.4375 C 7.289062 -7.988281 6.84375 -8.398438 6.25 -8.671875 C 5.664062 -8.953125 4.9375 -9.09375 4.0625 -9.09375 L 3.0625 -9.09375 L 3.0625 -10.921875 L 4.140625 -10.921875 C 4.898438 -10.921875 5.554688 -11.078125 6.109375 -11.390625 C 6.660156 -11.710938 7.085938 -12.160156 7.390625 -12.734375 C 7.691406 -13.304688 7.84375 -13.972656 7.84375 -14.734375 C 7.84375 -15.710938 7.609375 -16.472656 7.140625 -17.015625 C 6.671875 -17.554688 6.003906 -17.828125 5.140625 -17.828125 C 4.722656 -17.828125 4.335938 -17.769531 3.984375 -17.65625 C 3.628906 -17.550781 3.289062 -17.394531 2.96875 -17.1875 C 2.644531 -16.988281 2.3125 -16.738281 1.96875 -16.4375 L 0.953125 -17.90625 C 1.628906 -18.53125 2.320312 -18.976562 3.03125 -19.25 C 3.738281 -19.53125 4.53125 -19.671875 5.40625 -19.671875 C 6.800781 -19.671875 7.898438 -19.242188 8.703125 -18.390625 C 9.515625 -17.546875 9.921875 -16.394531 9.921875 -14.9375 Z M 9.921875 -14.9375 "/></g></g></g><g fill="#231f20" fill-opacity="1"><g transform="translate(873.158436, 407.113529)"><g><path d="M 10.265625 0 L 0.921875 0 L 0.921875 -1.546875 L 4.765625 -7.203125 C 5.515625 -8.304688 6.109375 -9.257812 6.546875 -10.0625 C 6.984375 -10.863281 7.296875 -11.625 7.484375 -12.34375 C 7.671875 -13.070312 7.765625 -13.859375 7.765625 -14.703125 C 7.765625 -15.648438 7.535156 -16.394531 7.078125 -16.9375 C 6.628906 -17.488281 5.976562 -17.765625 5.125 -17.765625 C 4.5625 -17.765625 4.046875 -17.660156 3.578125 -17.453125 C 3.117188 -17.253906 2.644531 -16.921875 2.15625 -16.453125 L 1.09375 -17.921875 C 1.53125 -18.328125 1.960938 -18.660156 2.390625 -18.921875 C 2.828125 -19.179688 3.28125 -19.367188 3.75 -19.484375 C 4.226562 -19.609375 4.742188 -19.671875 5.296875 -19.671875 C 6.253906 -19.671875 7.078125 -19.460938 7.765625 -19.046875 C 8.453125 -18.640625 8.972656 -18.070312 9.328125 -17.34375 C 9.691406 -16.613281 9.875 -15.757812 9.875 -14.78125 C 9.875 -13.75 9.753906 -12.800781 9.515625 -11.9375 C 9.273438 -11.070312 8.914062 -10.210938 8.4375 -9.359375 C 7.957031 -8.503906 7.347656 -7.570312 6.609375 -6.5625 L 3.390625 -1.984375 L 3.390625 -1.890625 L 10.265625 -1.890625 Z M 10.265625 0 "/></g></g></g><g fill="#231f20" fill-opacity="1"><g transform="translate(885.139669, 407.113529)"><g><path d="M 10.8125 -7.296875 C 10.8125 -6.140625 10.710938 -5.097656 10.515625 -4.171875 C 10.316406 -3.242188 10.019531 -2.445312 9.625 -1.78125 C 9.226562 -1.125 8.722656 -0.617188 8.109375 -0.265625 C 7.503906 0.0859375 6.785156 0.265625 5.953125 0.265625 C 5.160156 0.265625 4.460938 0.0859375 3.859375 -0.265625 C 3.253906 -0.617188 2.753906 -1.125 2.359375 -1.78125 C 1.960938 -2.4375 1.660156 -3.226562 1.453125 -4.15625 C 1.253906 -5.09375 1.15625 -6.140625 1.15625 -7.296875 C 1.15625 -8.898438 1.328125 -10.257812 1.671875 -11.375 C 2.015625 -12.5 2.546875 -13.351562 3.265625 -13.9375 C 3.984375 -14.53125 4.894531 -14.828125 6 -14.828125 C 7.03125 -14.828125 7.898438 -14.539062 8.609375 -13.96875 C 9.328125 -13.394531 9.875 -12.550781 10.25 -11.4375 C 10.625 -10.320312 10.8125 -8.941406 10.8125 -7.296875 Z M 3.234375 -7.296875 C 3.234375 -6.023438 3.328125 -4.960938 3.515625 -4.109375 C 3.710938 -3.253906 4.015625 -2.609375 4.421875 -2.171875 C 4.835938 -1.742188 5.363281 -1.53125 6 -1.53125 C 6.632812 -1.53125 7.148438 -1.738281 7.546875 -2.15625 C 7.953125 -2.582031 8.25 -3.222656 8.4375 -4.078125 C 8.632812 -4.929688 8.734375 -6.003906 8.734375 -7.296875 C 8.734375 -8.554688 8.632812 -9.613281 8.4375 -10.46875 C 8.25 -11.320312 7.953125 -11.960938 7.546875 -12.390625 C 7.148438 -12.816406 6.632812 -13.03125 6 -13.03125 C 5.019531 -13.03125 4.3125 -12.550781 3.875 -11.59375 C 3.445312 -10.632812 3.234375 -9.203125 3.234375 -7.296875 Z M 3.234375 -7.296875 "/></g></g></g><g fill="#231f20" fill-opacity="1"><g transform="translate(948.976062, 449.034315)"><g><path d="M 2 -19.390625 L 6.234375 -19.390625 C 7.921875 -19.390625 9.195312 -19.003906 10.0625 -18.234375 C 10.925781 -17.460938 11.359375 -16.300781 11.359375 -14.75 C 11.359375 -13.914062 11.253906 -13.1875 11.046875 -12.5625 C 10.835938 -11.9375 10.523438 -11.429688 10.109375 -11.046875 C 9.703125 -10.660156 9.191406 -10.398438 8.578125 -10.265625 L 8.578125 -10.15625 C 9.304688 -9.988281 9.90625 -9.707031 10.375 -9.3125 C 10.84375 -8.914062 11.191406 -8.40625 11.421875 -7.78125 C 11.648438 -7.15625 11.765625 -6.410156 11.765625 -5.546875 C 11.765625 -4.429688 11.570312 -3.457031 11.1875 -2.625 C 10.8125 -1.789062 10.257812 -1.144531 9.53125 -0.6875 C 8.800781 -0.226562 7.910156 0 6.859375 0 L 2 0 Z M 4.109375 -11.03125 L 6.203125 -11.03125 C 7.253906 -11.03125 8.019531 -11.320312 8.5 -11.90625 C 8.976562 -12.5 9.21875 -13.382812 9.21875 -14.5625 C 9.21875 -15.539062 8.960938 -16.285156 8.453125 -16.796875 C 7.953125 -17.316406 7.191406 -17.578125 6.171875 -17.578125 L 4.109375 -17.578125 Z M 4.109375 -9.234375 L 4.109375 -1.84375 L 6.609375 -1.84375 C 7.585938 -1.84375 8.328125 -2.15625 8.828125 -2.78125 C 9.328125 -3.414062 9.578125 -4.375 9.578125 -5.65625 C 9.578125 -6.445312 9.445312 -7.109375 9.1875 -7.640625 C 8.925781 -8.171875 8.554688 -8.566406 8.078125 -8.828125 C 7.609375 -9.097656 7.035156 -9.234375 6.359375 -9.234375 Z M 4.109375 -9.234375 "/></g></g></g></svg>