<svg xmlns="http://www.w3.org/2000/svg" xmlns:xlink="http://www.w3.org/1999/xlink" width="794" zoomAndPan="magnify" viewBox="0 0 1440 809.999993" height="1123" preserveAspectRatio="xMidYMid meet" version="1.0"><defs><g/><clipPath id="780ee05865"><path d="M 629 360.082031 L 640 360.082031 L 640 371 L 629 371 Z M 629 360.082031 " clip-rule="nonzero"/></clipPath><clipPath id="a76ad1ccef"><path d="M 639.496094 365.558594 C 639.496094 368.359375 637.234375 370.660156 634.398438 370.660156 C 631.558594 370.660156 629.296875 368.359375 629.296875 365.558594 C 629.296875 362.757812 631.59375 360.457031 634.398438 360.457031 C 637.199219 360.457031 639.496094 362.722656 639.496094 365.558594 " clip-rule="nonzero"/></clipPath><clipPath id="593a285dca"><path d="M 497 360.082031 L 508 360.082031 L 508 371 L 497 371 Z M 497 360.082031 " clip-rule="nonzero"/></clipPath><clipPath id="b4b85cdfd1"><path d="M 507.605469 365.558594 C 507.605469 368.359375 505.308594 370.660156 502.507812 370.660156 C 499.707031 370.660156 497.441406 368.359375 497.441406 365.558594 C 497.441406 362.757812 499.742188 360.457031 502.542969 360.457031 C 505.34375 360.457031 507.644531 362.722656 507.644531 365.558594 " clip-rule="nonzero"/></clipPath><clipPath id="83098c8deb"><path d="M 497 95 L 508 95 L 508 107 L 497 107 Z M 497 95 " clip-rule="nonzero"/></clipPath><clipPath id="c69218a5b3"><path d="M 507.605469 101.023438 C 507.605469 103.824219 505.308594 106.125 502.507812 106.125 C 499.707031 106.125 497.441406 103.824219 497.441406 101.023438 C 497.441406 98.222656 499.742188 95.925781 502.542969 95.925781 C 505.34375 95.925781 507.644531 98.1875 507.644531 101.023438 " clip-rule="nonzero"/></clipPath><clipPath id="cf7fe0d0cd"><path d="M 920 95 L 931 95 L 931 107 L 920 107 Z M 920 95 " clip-rule="nonzero"/></clipPath><clipPath id="d3df2a4702"><path d="M 930.503906 101.023438 C 930.503906 103.824219 928.238281 106.125 925.402344 106.125 C 922.5625 106.125 920.300781 103.824219 920.300781 101.023438 C 920.300781 98.222656 922.601562 95.925781 925.402344 95.925781 C 928.203125 95.925781 930.503906 98.1875 930.503906 101.023438 " clip-rule="nonzero"/></clipPath><clipPath id="dbc8d4d8b4"><path d="M 497 519 L 508 519 L 508 530 L 497 530 Z M 497 519 " clip-rule="nonzero"/></clipPath><clipPath id="9724d5292b"><path d="M 507.605469 524.277344 C 507.605469 527.082031 505.308594 529.378906 502.507812 529.378906 C 499.707031 529.378906 497.441406 527.082031 497.441406 524.277344 C 497.441406 521.476562 499.742188 519.179688 502.542969 519.179688 C 505.34375 519.179688 507.644531 521.441406 507.644531 524.277344 " clip-rule="nonzero"/></clipPath><clipPath id="cc892fcaa3"><path d="M 708.472656 519 L 719 519 L 719 530 L 708.472656 530 Z M 708.472656 519 " clip-rule="nonzero"/></clipPath><clipPath id="e98de78193"><path d="M 718.875 524.277344 C 718.875 527.082031 716.613281 529.378906 713.773438 529.378906 C 710.9375 529.378906 708.675781 527.082031 708.675781 524.277344 C 708.675781 521.476562 710.972656 519.179688 713.773438 519.179688 C 716.578125 519.179688 718.875 521.441406 718.875 524.277344 " clip-rule="nonzero"/></clipPath><clipPath id="30780a49f5"><path d="M 920 519 L 931 519 L 931 530 L 920 530 Z M 920 519 " clip-rule="nonzero"/></clipPath><clipPath id="9b1887ea86"><path d="M 930.503906 524.277344 C 930.503906 527.082031 928.238281 529.378906 925.402344 529.378906 C 922.5625 529.378906 920.300781 527.082031 920.300781 524.277344 C 920.300781 521.476562 922.5625 519.179688 925.402344 519.179688 C 928.238281 519.179688 930.503906 521.441406 930.503906 524.277344 " clip-rule="nonzero"/></clipPath><clipPath id="2f8650894c"><path d="M 501.25 100.125 L 926.300781 100.125 L 926.300781 101.921875 L 501.25 101.921875 Z M 924.503906 101.921875 L 926.300781 101.921875 L 926.300781 523.382812 L 924.503906 523.382812 Z M 501.25 101.921875 L 503.046875 101.921875 L 503.046875 523.382812 L 501.25 523.382812 Z M 501.25 523.382812 L 926.300781 523.382812 L 926.300781 525.175781 L 501.25 525.175781 Z M 501.25 523.382812 " clip-rule="nonzero"/></clipPath><clipPath id="e6bea0c163"><path d="M 502.148438 364.660156 L 634.398438 364.660156 L 634.398438 366.457031 L 502.148438 366.457031 Z M 502.148438 364.660156 " clip-rule="nonzero"/></clipPath><clipPath id="a7ec613cec"><path d="M 501 100 L 715 100 L 715 524.953125 L 501 524.953125 Z M 501 100 " clip-rule="nonzero"/></clipPath><clipPath id="b932a9fb56"><path d="M 502.9375 100.628906 L 714.566406 523.882812 L 712.949219 524.675781 L 501.355469 101.417969 Z M 502.9375 100.628906 " clip-rule="nonzero"/></clipPath><clipPath id="930d5f4d45"><path d="M 502.542969 329.640625 L 538.425781 329.640625 L 538.425781 331.4375 L 502.542969 331.4375 Z M 536.628906 331.4375 L 538.425781 331.4375 L 538.425781 365.523438 L 536.628906 365.523438 Z M 536.628906 331.4375 " clip-rule="nonzero"/></clipPath></defs><g clip-path="url(#780ee05865)"><g clip-path="url(#a76ad1ccef)"><path fill="#231f20" d="M 479.484375 77.964844 L 948.453125 77.964844 L 948.453125 546.9375 L 479.484375 546.9375 Z M 479.484375 77.964844 " fill-opacity="1" fill-rule="nonzero"/></g></g><g clip-path="url(#593a285dca)"><g clip-path="url(#b4b85cdfd1)"><path fill="#231f20" d="M 479.484375 77.964844 L 948.453125 77.964844 L 948.453125 546.9375 L 479.484375 546.9375 Z M 479.484375 77.964844 " fill-opacity="1" fill-rule="nonzero"/></g></g><g clip-path="url(#83098c8deb)"><g clip-path="url(#c69218a5b3)"><path fill="#231f20" d="M 479.484375 77.964844 L 948.453125 77.964844 L 948.453125 546.9375 L 479.484375 546.9375 Z M 479.484375 77.964844 " fill-opacity="1" fill-rule="nonzero"/></g></g><g clip-path="url(#cf7fe0d0cd)"><g clip-path="url(#d3df2a4702)"><path fill="#231f20" d="M 479.484375 77.964844 L 948.453125 77.964844 L 948.453125 546.9375 L 479.484375 546.9375 Z M 479.484375 77.964844 " fill-opacity="1" fill-rule="nonzero"/></g></g><g clip-path="url(#dbc8d4d8b4)"><g clip-path="url(#9724d5292b)"><path fill="#231f20" d="M 479.484375 77.964844 L 948.453125 77.964844 L 948.453125 546.9375 L 479.484375 546.9375 Z M 479.484375 77.964844 " fill-opacity="1" fill-rule="nonzero"/></g></g><g clip-path="url(#cc892fcaa3)"><g clip-path="url(#e98de78193)"><path fill="#231f20" d="M 479.484375 77.964844 L 948.453125 77.964844 L 948.453125 546.9375 L 479.484375 546.9375 Z M 479.484375 77.964844 " fill-opacity="1" fill-rule="nonzero"/></g></g><g clip-path="url(#30780a49f5)"><g clip-path="url(#9b1887ea86)"><path fill="#231f20" d="M 479.484375 77.964844 L 948.453125 77.964844 L 948.453125 546.9375 L 479.484375 546.9375 Z M 479.484375 77.964844 " fill-opacity="1" fill-rule="nonzero"/></g></g><g clip-path="url(#2f8650894c)"><path fill="#231f20" d="M 479.484375 77.964844 L 948.453125 77.964844 L 948.453125 546.9375 L 479.484375 546.9375 Z M 479.484375 77.964844 " fill-opacity="1" fill-rule="nonzero"/></g><g clip-path="url(#e6bea0c163)"><path fill="#231f20" d="M 479.484375 77.964844 L 948.453125 77.964844 L 948.453125 546.9375 L 479.484375 546.9375 Z M 479.484375 77.964844 " fill-opacity="1" fill-rule="nonzero"/></g><g clip-path="url(#a7ec613cec)"><g clip-path="url(#b932a9fb56)"><path fill="#231f20" d="M 479.484375 77.964844 L 948.453125 77.964844 L 948.453125 546.9375 L 479.484375 546.9375 Z M 479.484375 77.964844 " fill-opacity="1" fill-rule="nonzero"/></g></g><g clip-path="url(#930d5f4d45)"><path fill="#231f20" d="M 479.484375 77.964844 L 948.453125 77.964844 L 948.453125 546.9375 L 479.484375 546.9375 Z M 479.484375 77.964844 " fill-opacity="1" fill-rule="nonzero"/></g><g fill="#231f20" fill-opacity="1"><g transform="translate(463.026919, 379.927817)"><g><path d="M 16.0625 -14.890625 L 25.828125 -14.890625 L 25.828125 -1.0625 C 24.296875 -0.5625 22.753906 -0.195312 21.203125 0.03125 C 19.648438 0.269531 17.882812 0.390625 15.90625 0.390625 C 12.988281 0.390625 10.53125 -0.191406 8.53125 -1.359375 C 6.53125 -2.535156 5.007812 -4.207031 3.96875 -6.375 C 2.925781 -8.550781 2.40625 -11.125 2.40625 -14.09375 C 2.40625 -17.019531 2.976562 -19.566406 4.125 -21.734375 C 5.269531 -23.910156 6.929688 -25.597656 9.109375 -26.796875 C 11.296875 -27.992188 13.929688 -28.59375 17.015625 -28.59375 C 18.597656 -28.59375 20.09375 -28.445312 21.5 -28.15625 C 22.90625 -27.863281 24.210938 -27.453125 25.421875 -26.921875 L 24.078125 -23.84375 C 23.078125 -24.269531 21.953125 -24.644531 20.703125 -24.96875 C 19.453125 -25.300781 18.15625 -25.46875 16.8125 -25.46875 C 13.445312 -25.46875 10.820312 -24.445312 8.9375 -22.40625 C 7.0625 -20.363281 6.125 -17.59375 6.125 -14.09375 C 6.125 -11.851562 6.484375 -9.867188 7.203125 -8.140625 C 7.929688 -6.421875 9.070312 -5.082031 10.625 -4.125 C 12.175781 -3.164062 14.210938 -2.6875 16.734375 -2.6875 C 17.972656 -2.6875 19.023438 -2.75 19.890625 -2.875 C 20.765625 -3.007812 21.554688 -3.171875 22.265625 -3.359375 L 22.265625 -11.734375 L 16.0625 -11.734375 Z M 16.0625 -14.890625 "/></g></g></g><g fill="#231f20" fill-opacity="1"><g transform="translate(463.026919, 540.138121)"><g><path d="M 26.421875 -14.375 C 26.421875 -9.601562 25.125 -6.015625 22.53125 -3.609375 C 19.9375 -1.203125 16.320312 0 11.6875 0 L 3.828125 0 L 3.828125 -28.1875 L 12.515625 -28.1875 C 15.328125 -28.1875 17.78125 -27.660156 19.875 -26.609375 C 21.96875 -25.554688 23.582031 -24.003906 24.71875 -21.953125 C 25.851562 -19.898438 26.421875 -17.375 26.421875 -14.375 Z M 22.65625 -14.25 C 22.65625 -18.019531 21.726562 -20.78125 19.875 -22.53125 C 18.019531 -24.28125 15.394531 -25.15625 12 -25.15625 L 7.390625 -25.15625 L 7.390625 -3.046875 L 11.21875 -3.046875 C 18.84375 -3.046875 22.65625 -6.78125 22.65625 -14.25 Z M 22.65625 -14.25 "/></g></g></g><g fill="#231f20" fill-opacity="1"><g transform="translate(466.623199, 116.873065)"><g><path d="M 21.515625 0 L 18.125 -8.71875 L 6.953125 -8.71875 L 3.59375 0 L 0 0 L 11.015625 -28.3125 L 14.21875 -28.3125 L 25.1875 0 Z M 17.0625 -11.890625 L 13.90625 -20.40625 C 13.820312 -20.625 13.6875 -21.007812 13.5 -21.5625 C 13.320312 -22.113281 13.144531 -22.6875 12.96875 -23.28125 C 12.800781 -23.875 12.664062 -24.328125 12.5625 -24.640625 C 12.34375 -23.828125 12.117188 -23.03125 11.890625 -22.25 C 11.671875 -21.46875 11.484375 -20.851562 11.328125 -20.40625 L 8.140625 -11.890625 Z M 17.0625 -11.890625 "/></g></g></g><g fill="#231f20" fill-opacity="1"><g transform="translate(648.602134, 379.927817)"><g><path d="M 7.390625 0 L 3.828125 0 L 3.828125 -28.1875 L 19.578125 -28.1875 L 19.578125 -25.078125 L 7.390625 -25.078125 L 7.390625 -15.078125 L 18.828125 -15.078125 L 18.828125 -11.96875 L 7.390625 -11.96875 Z M 7.390625 0 "/></g></g></g><g fill="#231f20" fill-opacity="1"><g transform="translate(701.702851, 562.580232)"><g><path d="M 19.578125 0 L 3.828125 0 L 3.828125 -28.1875 L 19.578125 -28.1875 L 19.578125 -25.078125 L 7.390625 -25.078125 L 7.390625 -16.265625 L 18.875 -16.265625 L 18.875 -13.1875 L 7.390625 -13.1875 L 7.390625 -3.125 L 19.578125 -3.125 Z M 19.578125 0 "/></g></g></g><g fill="#231f20" fill-opacity="1"><g transform="translate(937.574479, 116.873065)"><g><path d="M 3.828125 -28.1875 L 11.890625 -28.1875 C 15.390625 -28.1875 18.046875 -27.660156 19.859375 -26.609375 C 21.671875 -25.554688 22.578125 -23.753906 22.578125 -21.203125 C 22.578125 -19.546875 22.117188 -18.171875 21.203125 -17.078125 C 20.285156 -15.984375 18.957031 -15.28125 17.21875 -14.96875 L 17.21875 -14.765625 C 18.394531 -14.554688 19.460938 -14.203125 20.421875 -13.703125 C 21.390625 -13.203125 22.148438 -12.488281 22.703125 -11.5625 C 23.253906 -10.644531 23.53125 -9.460938 23.53125 -8.015625 C 23.53125 -5.460938 22.65625 -3.488281 20.90625 -2.09375 C 19.15625 -0.695312 16.765625 0 13.734375 0 L 3.828125 0 Z M 7.390625 -16.1875 L 12.59375 -16.1875 C 14.988281 -16.1875 16.640625 -16.570312 17.546875 -17.34375 C 18.453125 -18.125 18.90625 -19.28125 18.90625 -20.8125 C 18.90625 -22.363281 18.359375 -23.472656 17.265625 -24.140625 C 16.179688 -24.816406 14.441406 -25.15625 12.046875 -25.15625 L 7.390625 -25.15625 Z M 7.390625 -13.234375 L 7.390625 -3 L 13.0625 -3 C 15.5625 -3 17.296875 -3.484375 18.265625 -4.453125 C 19.242188 -5.429688 19.734375 -6.710938 19.734375 -8.296875 C 19.734375 -9.765625 19.226562 -10.953125 18.21875 -11.859375 C 17.207031 -12.773438 15.398438 -13.234375 12.796875 -13.234375 Z M 7.390625 -13.234375 "/></g></g></g><g fill="#231f20" fill-opacity="1"><g transform="translate(937.574479, 540.138121)"><g><path d="M 15.90625 -25.46875 C 12.882812 -25.46875 10.503906 -24.453125 8.765625 -22.421875 C 7.023438 -20.398438 6.15625 -17.625 6.15625 -14.09375 C 6.15625 -10.59375 6.960938 -7.820312 8.578125 -5.78125 C 10.203125 -3.738281 12.632812 -2.71875 15.875 -2.71875 C 17.082031 -2.71875 18.238281 -2.820312 19.34375 -3.03125 C 20.445312 -3.25 21.539062 -3.515625 22.625 -3.828125 L 22.625 -0.75 C 21.570312 -0.351562 20.484375 -0.0664062 19.359375 0.109375 C 18.242188 0.296875 16.910156 0.390625 15.359375 0.390625 C 12.492188 0.390625 10.097656 -0.195312 8.171875 -1.375 C 6.253906 -2.5625 4.8125 -4.25 3.84375 -6.4375 C 2.882812 -8.625 2.40625 -11.191406 2.40625 -14.140625 C 2.40625 -16.984375 2.925781 -19.488281 3.96875 -21.65625 C 5.007812 -23.832031 6.539062 -25.53125 8.5625 -26.75 C 10.59375 -27.976562 13.054688 -28.59375 15.953125 -28.59375 C 18.921875 -28.59375 21.515625 -28.035156 23.734375 -26.921875 L 22.3125 -23.921875 C 21.4375 -24.316406 20.46875 -24.671875 19.40625 -24.984375 C 18.34375 -25.304688 17.175781 -25.46875 15.90625 -25.46875 Z M 15.90625 -25.46875 "/></g></g></g></svg>