<svg xmlns="http://www.w3.org/2000/svg" xmlns:xlink="http://www.w3.org/1999/xlink" width="794" zoomAndPan="magnify" viewBox="0 0 1440 809.999993" height="1123" preserveAspectRatio="xMidYMid meet" version="1.0"><defs><g/><clipPath id="360bd1fb8f"><path d="M 479.570312 201.015625 L 808 201.015625 L 808 586.886719 L 479.570312 586.886719 Z M 479.570312 201.015625 " clip-rule="nonzero"/></clipPath><clipPath id="14d9c921ea"><path d="M 705.890625 360.988281 L 807.382812 560.222656 L 807.816406 561.089844 L 806.949219 561.523438 C 696.425781 617.847656 561.210938 573.910156 504.882812 463.386719 L 505.75 462.953125 L 504.882812 463.386719 C 459.878906 374.992188 476.050781 272.789062 546.222656 202.617188 L 546.929688 201.90625 L 547.640625 202.617188 L 705.734375 360.75 L 705.851562 360.867188 L 705.929688 361.027344 M 704.15625 361.933594 L 705.023438 361.5 L 704.3125 362.210938 L 546.222656 204.039062 L 546.929688 203.328125 L 547.640625 204.039062 C 478.0625 273.578125 462.007812 374.871094 506.660156 462.476562 C 562.472656 572.015625 696.503906 615.5625 806.042969 559.746094 L 806.476562 560.617188 L 805.609375 561.050781 L 704.15625 361.894531 Z M 704.15625 361.933594 " clip-rule="nonzero"/></clipPath><clipPath id="8daca39f13"><path d="M 703.625 201.015625 L 929.753906 201.015625 L 929.753906 562 L 703.625 562 Z M 703.625 201.015625 " clip-rule="nonzero"/></clipPath><clipPath id="63b788bf63"><path d="M 704.3125 360.75 L 862.40625 202.65625 L 863.117188 201.949219 L 863.828125 202.65625 C 951.511719 290.34375 951.511719 432.539062 863.828125 520.265625 L 863.117188 519.554688 L 863.828125 520.265625 C 846.273438 537.816406 829.078125 550.320312 806.988281 561.5625 L 806.121094 561.996094 L 805.6875 561.128906 L 704.15625 361.894531 L 703.839844 361.261719 L 704.355469 360.75 M 705.734375 362.132812 L 705.023438 361.421875 L 705.890625 360.988281 L 807.382812 560.222656 L 806.515625 560.65625 L 806.082031 559.789062 C 828.011719 548.625 845.050781 536.238281 862.40625 518.84375 C 949.34375 431.910156 949.34375 290.972656 862.40625 204.039062 L 863.117188 203.328125 L 863.828125 204.039062 Z M 705.734375 362.132812 " clip-rule="nonzero"/></clipPath><clipPath id="18a9655b7f"><path d="M 545 136.703125 L 865 136.703125 L 865 363 L 545 363 Z M 545 136.703125 " clip-rule="nonzero"/></clipPath><clipPath id="954f47a10f"><path d="M 704.3125 362.132812 L 546.222656 204.039062 L 545.511719 203.328125 L 546.222656 202.617188 C 633.90625 114.933594 776.101562 114.933594 863.828125 202.617188 L 864.539062 203.328125 L 705.734375 362.132812 L 705.023438 362.839844 L 704.3125 362.132812 M 705.695312 360.75 L 704.984375 361.460938 L 704.273438 360.75 L 862.367188 202.65625 L 863.078125 203.367188 L 862.367188 204.078125 C 775.433594 117.140625 634.496094 117.140625 547.5625 204.078125 L 546.851562 203.367188 L 547.5625 202.65625 L 705.734375 360.75 Z M 705.695312 360.75 " clip-rule="nonzero"/></clipPath></defs><g clip-path="url(#360bd1fb8f)"><g clip-path="url(#14d9c921ea)"><path fill="#231f20" d="M 440.15625 95.210938 L 971.246094 95.210938 L 971.246094 636.675781 L 440.15625 636.675781 Z M 440.15625 95.210938 " fill-opacity="1" fill-rule="nonzero"/></g></g><g clip-path="url(#8daca39f13)"><g clip-path="url(#63b788bf63)"><path fill="#231f20" d="M 440.15625 95.210938 L 971.246094 95.210938 L 971.246094 636.675781 L 440.15625 636.675781 Z M 440.15625 95.210938 " fill-opacity="1" fill-rule="nonzero"/></g></g><g clip-path="url(#18a9655b7f)"><g clip-path="url(#954f47a10f)"><path fill="#231f20" d="M 440.15625 95.210938 L 971.246094 95.210938 L 971.246094 636.675781 L 440.15625 636.675781 Z M 440.15625 95.210938 " fill-opacity="1" fill-rule="nonzero"/></g></g><g fill="#231f20" fill-opacity="1"><g transform="translate(537.562809, 420.445289)"><g><path d="M 6.90625 -33.78125 L 6.21875 -21.578125 L 3.53125 -21.578125 L 2.796875 -33.78125 Z M 6.90625 -33.78125 "/></g></g></g><g fill="#231f20" fill-opacity="1"><g transform="translate(548.878803, 420.445289)"><g><path d="M 2.125 0 L 2.125 -2.953125 L 12.0625 -2.953125 L 12.0625 -21.28125 C 12.0625 -23.175781 11.820312 -24.578125 11.34375 -25.484375 C 10.863281 -26.398438 10.039062 -26.945312 8.875 -27.125 C 8.613281 -27.175781 8.332031 -27.210938 8.03125 -27.234375 C 7.726562 -27.253906 7.425781 -27.265625 7.125 -27.265625 C 6.207031 -27.265625 5.414062 -27.242188 4.75 -27.203125 C 4.082031 -27.171875 3.203125 -27.09375 2.109375 -26.96875 L 2.109375 -30 C 2.929688 -30.09375 3.726562 -30.160156 4.5 -30.203125 C 5.269531 -30.242188 6.023438 -30.265625 6.765625 -30.265625 C 7.796875 -30.265625 8.660156 -30.226562 9.359375 -30.15625 C 10.054688 -30.082031 10.664062 -29.957031 11.1875 -29.78125 C 11.90625 -29.550781 12.535156 -29.234375 13.078125 -28.828125 C 13.628906 -28.421875 14.082031 -27.929688 14.4375 -27.359375 C 14.707031 -26.960938 14.925781 -26.441406 15.09375 -25.796875 C 15.257812 -25.160156 15.378906 -24.453125 15.453125 -23.671875 C 15.535156 -22.898438 15.578125 -22.097656 15.578125 -21.265625 L 15.578125 -2.953125 L 17.9375 -2.953125 L 17.9375 0 Z M 2.125 0 "/></g></g></g><g fill="#231f20" fill-opacity="1"><g transform="translate(569.252252, 420.445289)"><g/></g></g><g fill="#231f20" fill-opacity="1"><g transform="translate(579.73644, 420.445289)"><g><path d="M 8.34375 0 L 8.34375 -20.65625 C 8.34375 -21.539062 8.453125 -22.359375 8.671875 -23.109375 C 8.898438 -23.859375 9.175781 -24.453125 9.5 -24.890625 C 9.863281 -25.410156 10.195312 -25.8125 10.5 -26.09375 C 10.800781 -26.382812 11.160156 -26.640625 11.578125 -26.859375 L 0.46875 -26.859375 L 0.46875 -29.8125 L 16.3125 -29.8125 L 16.3125 -27.125 C 15.5 -26.832031 14.816406 -26.484375 14.265625 -26.078125 C 13.722656 -25.671875 13.304688 -25.257812 13.015625 -24.84375 C 12.242188 -23.757812 11.859375 -22.347656 11.859375 -20.609375 L 11.859375 0 Z M 8.34375 0 "/></g></g></g><g fill="#231f20" fill-opacity="1"><g transform="translate(598.376962, 420.445289)"><g><path d="M 1.25 0 L 3.21875 -21.9375 C 3.226562 -22.132812 3.238281 -22.367188 3.25 -22.640625 C 3.269531 -22.910156 3.28125 -23.160156 3.28125 -23.390625 C 3.28125 -23.910156 3.234375 -24.460938 3.140625 -25.046875 C 3.046875 -25.628906 2.914062 -26.222656 2.75 -26.828125 C 2.71875 -26.984375 2.675781 -27.140625 2.625 -27.296875 C 2.570312 -27.460938 2.515625 -27.625 2.453125 -27.78125 C 2.398438 -27.9375 2.351562 -28.085938 2.3125 -28.234375 C 2.21875 -28.492188 2.128906 -28.753906 2.046875 -29.015625 C 1.960938 -29.285156 1.875 -29.550781 1.78125 -29.8125 L 5.265625 -29.8125 C 5.492188 -29.289062 5.703125 -28.710938 5.890625 -28.078125 C 6.085938 -27.441406 6.234375 -26.863281 6.328125 -26.34375 L 6.546875 -26.34375 C 6.753906 -26.820312 7.035156 -27.289062 7.390625 -27.75 C 7.742188 -28.21875 8.125 -28.601562 8.53125 -28.90625 C 8.957031 -29.257812 9.53125 -29.570312 10.25 -29.84375 C 10.976562 -30.125 11.789062 -30.265625 12.6875 -30.265625 C 13.625 -30.265625 14.429688 -30.097656 15.109375 -29.765625 C 15.785156 -29.441406 16.34375 -29.007812 16.78125 -28.46875 C 17.070312 -28.113281 17.328125 -27.675781 17.546875 -27.15625 C 17.773438 -26.632812 17.953125 -26.070312 18.078125 -25.46875 C 18.253906 -24.675781 18.390625 -23.757812 18.484375 -22.71875 C 18.578125 -21.6875 18.625 -20.566406 18.625 -19.359375 L 18.625 0 L 9.84375 0 L 9.84375 -2.953125 L 15.109375 -2.953125 L 15.109375 -19.359375 C 15.109375 -21.054688 15.054688 -22.296875 14.953125 -23.078125 C 14.847656 -23.867188 14.722656 -24.503906 14.578125 -24.984375 C 14.378906 -25.640625 14.117188 -26.125 13.796875 -26.4375 C 13.484375 -26.757812 13.175781 -26.96875 12.875 -27.0625 C 12.582031 -27.164062 12.332031 -27.21875 12.125 -27.21875 C 11.25 -27.21875 10.515625 -27.050781 9.921875 -26.71875 C 9.328125 -26.394531 8.832031 -25.96875 8.4375 -25.4375 C 8.019531 -24.914062 7.679688 -24.394531 7.421875 -23.875 C 7.160156 -23.363281 6.941406 -22.820312 6.765625 -22.25 L 4.765625 0 Z M 1.25 0 "/></g></g></g><g fill="#231f20" fill-opacity="1"><g transform="translate(621.638639, 420.445289)"><g><path d="M 1.5 1.21875 L 1.5 -1.78125 L 5.40625 -2.46875 C 5.75 -2.53125 6.085938 -2.59375 6.421875 -2.65625 C 6.765625 -2.71875 7.113281 -2.769531 7.46875 -2.8125 L 1.578125 -29.8125 L 5.078125 -29.8125 L 8 -16.34375 L 10.328125 -4.15625 C 11.472656 -4.882812 12.335938 -5.867188 12.921875 -7.109375 C 13.515625 -8.359375 13.953125 -9.773438 14.234375 -11.359375 C 14.515625 -12.953125 14.742188 -14.601562 14.921875 -16.3125 L 16.203125 -29.8125 L 19.71875 -29.8125 L 18.4375 -16.640625 C 18.238281 -14.640625 18.015625 -12.8125 17.765625 -11.15625 C 17.523438 -9.5 17.128906 -8.007812 16.578125 -6.6875 C 16.035156 -5.375 15.207031 -4.21875 14.09375 -3.21875 C 13.375 -2.351562 12.488281 -1.644531 11.4375 -1.09375 C 10.394531 -0.550781 9.132812 -0.140625 7.65625 0.140625 C 6.632812 0.304688 5.609375 0.484375 4.578125 0.671875 C 3.554688 0.859375 2.53125 1.039062 1.5 1.21875 Z M 1.5 1.21875 "/></g></g></g><g fill="#231f20" fill-opacity="1"><g transform="translate(643.860546, 420.445289)"><g><path d="M 3.09375 0 L 3.09375 -29.8125 L 6.625 -29.8125 L 6.625 0 Z M 3.09375 0 "/></g></g></g><g fill="#231f20" fill-opacity="1"><g transform="translate(655.292073, 420.445289)"><g><path d="M 1.25 0 L 3.21875 -21.9375 C 3.226562 -22.132812 3.238281 -22.367188 3.25 -22.640625 C 3.269531 -22.910156 3.28125 -23.160156 3.28125 -23.390625 C 3.28125 -23.910156 3.234375 -24.460938 3.140625 -25.046875 C 3.046875 -25.628906 2.914062 -26.222656 2.75 -26.828125 C 2.71875 -26.984375 2.675781 -27.140625 2.625 -27.296875 C 2.570312 -27.460938 2.515625 -27.625 2.453125 -27.78125 C 2.398438 -27.9375 2.351562 -28.085938 2.3125 -28.234375 C 2.21875 -28.492188 2.128906 -28.753906 2.046875 -29.015625 C 1.960938 -29.285156 1.875 -29.550781 1.78125 -29.8125 L 5.265625 -29.8125 C 5.492188 -29.289062 5.703125 -28.710938 5.890625 -28.078125 C 6.085938 -27.441406 6.234375 -26.863281 6.328125 -26.34375 L 6.546875 -26.34375 C 6.753906 -26.820312 7.035156 -27.289062 7.390625 -27.75 C 7.742188 -28.21875 8.125 -28.601562 8.53125 -28.90625 C 8.957031 -29.257812 9.53125 -29.570312 10.25 -29.84375 C 10.976562 -30.125 11.789062 -30.265625 12.6875 -30.265625 C 13.625 -30.265625 14.429688 -30.097656 15.109375 -29.765625 C 15.785156 -29.441406 16.34375 -29.007812 16.78125 -28.46875 C 17.070312 -28.113281 17.328125 -27.675781 17.546875 -27.15625 C 17.773438 -26.632812 17.953125 -26.070312 18.078125 -25.46875 C 18.253906 -24.675781 18.390625 -23.757812 18.484375 -22.71875 C 18.578125 -21.6875 18.625 -20.566406 18.625 -19.359375 L 18.625 0 L 9.84375 0 L 9.84375 -2.953125 L 15.109375 -2.953125 L 15.109375 -19.359375 C 15.109375 -21.054688 15.054688 -22.296875 14.953125 -23.078125 C 14.847656 -23.867188 14.722656 -24.503906 14.578125 -24.984375 C 14.378906 -25.640625 14.117188 -26.125 13.796875 -26.4375 C 13.484375 -26.757812 13.175781 -26.96875 12.875 -27.0625 C 12.582031 -27.164062 12.332031 -27.21875 12.125 -27.21875 C 11.25 -27.21875 10.515625 -27.050781 9.921875 -26.71875 C 9.328125 -26.394531 8.832031 -25.96875 8.4375 -25.4375 C 8.019531 -24.914062 7.679688 -24.394531 7.421875 -23.875 C 7.160156 -23.363281 6.941406 -22.820312 6.765625 -22.25 L 4.765625 0 Z M 1.25 0 "/></g></g></g><g fill="#231f20" fill-opacity="1"><g transform="translate(575.42378, 482.502104)"><g><path d="M 17.859375 -6.8125 L 14.578125 -6.8125 L 14.578125 0 L 11.265625 0 L 11.265625 -6.8125 L 0.71875 -6.8125 L 0.71875 -9.578125 L 10.984375 -31.21875 L 14.578125 -31.21875 L 14.578125 -9.671875 L 17.859375 -9.671875 Z M 11.265625 -9.671875 L 11.265625 -22.171875 C 11.265625 -22.492188 11.269531 -22.859375 11.28125 -23.265625 C 11.300781 -23.679688 11.316406 -24.101562 11.328125 -24.53125 C 11.347656 -24.96875 11.363281 -25.382812 11.375 -25.78125 C 11.382812 -26.175781 11.398438 -26.519531 11.421875 -26.8125 L 11.265625 -26.8125 C 11.035156 -26.132812 10.789062 -25.476562 10.53125 -24.84375 C 10.269531 -24.207031 10.015625 -23.59375 9.765625 -23 L 3.703125 -9.671875 Z M 11.265625 -9.671875 "/></g></g></g><g fill="#231f20" fill-opacity="1"><g transform="translate(593.870603, 482.502104)"><g><path d="M 9.015625 -18.984375 C 10.597656 -18.984375 11.945312 -18.597656 13.0625 -17.828125 C 14.175781 -17.066406 15.03125 -16.007812 15.625 -14.65625 C 16.21875 -13.300781 16.515625 -11.726562 16.515625 -9.9375 C 16.515625 -7.882812 16.175781 -6.082031 15.5 -4.53125 C 14.832031 -2.976562 13.847656 -1.765625 12.546875 -0.890625 C 11.253906 -0.015625 9.648438 0.421875 7.734375 0.421875 C 6.554688 0.421875 5.5 0.3125 4.5625 0.09375 C 3.632812 -0.125 2.820312 -0.445312 2.125 -0.875 L 2.125 -4.21875 C 2.90625 -3.695312 3.757812 -3.28125 4.6875 -2.96875 C 5.613281 -2.65625 6.539062 -2.5 7.46875 -2.5 C 8.757812 -2.5 9.816406 -2.832031 10.640625 -3.5 C 11.460938 -4.175781 12.078125 -5.066406 12.484375 -6.171875 C 12.898438 -7.285156 13.109375 -8.503906 13.109375 -9.828125 C 13.109375 -11.867188 12.660156 -13.425781 11.765625 -14.5 C 10.867188 -15.582031 9.582031 -16.125 7.90625 -16.125 C 7.195312 -16.125 6.492188 -16.054688 5.796875 -15.921875 C 5.109375 -15.785156 4.421875 -15.609375 3.734375 -15.390625 L 2.390625 -16.6875 L 3.328125 -30.96875 L 14.875 -30.96875 L 14.875 -27.921875 L 6.125 -27.921875 L 5.484375 -18.546875 C 6.078125 -18.691406 6.671875 -18.800781 7.265625 -18.875 C 7.867188 -18.945312 8.453125 -18.984375 9.015625 -18.984375 Z M 9.015625 -18.984375 "/></g></g></g><g fill="#231f20" fill-opacity="1"><g transform="translate(612.317425, 482.502104)"><g><path d="M 6.6875 -31.40625 C 8.269531 -31.40625 9.492188 -30.570312 10.359375 -28.90625 C 11.234375 -27.238281 11.671875 -24.847656 11.671875 -21.734375 C 11.671875 -18.628906 11.238281 -16.222656 10.375 -14.515625 C 9.507812 -12.816406 8.28125 -11.96875 6.6875 -11.96875 C 5.09375 -11.96875 3.875 -12.820312 3.03125 -14.53125 C 2.1875 -16.238281 1.765625 -18.640625 1.765625 -21.734375 C 1.765625 -24.847656 2.175781 -27.238281 3 -28.90625 C 3.832031 -30.570312 5.0625 -31.40625 6.6875 -31.40625 Z M 6.65625 -29 C 5.875 -29 5.3125 -28.394531 4.96875 -27.1875 C 4.632812 -25.976562 4.46875 -24.160156 4.46875 -21.734375 C 4.46875 -19.304688 4.640625 -17.484375 4.984375 -16.265625 C 5.328125 -15.046875 5.894531 -14.4375 6.6875 -14.4375 C 7.46875 -14.4375 8.035156 -15.035156 8.390625 -16.234375 C 8.753906 -17.441406 8.9375 -19.273438 8.9375 -21.734375 C 8.9375 -24.171875 8.738281 -25.988281 8.34375 -27.1875 C 7.957031 -28.394531 7.394531 -29 6.65625 -29 Z M 20.84375 -30.96875 L 10.078125 0 L 7.4375 0 L 18.1875 -30.96875 Z M 21.671875 -19.046875 C 23.242188 -19.046875 24.460938 -18.210938 25.328125 -16.546875 C 26.203125 -14.878906 26.640625 -12.484375 26.640625 -9.359375 C 26.640625 -6.179688 26.203125 -3.765625 25.328125 -2.109375 C 24.453125 -0.453125 23.234375 0.375 21.671875 0.375 C 20.085938 0.375 18.867188 -0.46875 18.015625 -2.15625 C 17.160156 -3.851562 16.734375 -6.253906 16.734375 -9.359375 C 16.734375 -12.566406 17.15625 -14.984375 18 -16.609375 C 18.84375 -18.234375 20.066406 -19.046875 21.671875 -19.046875 Z M 21.625 -16.625 C 20.84375 -16.625 20.28125 -16.023438 19.9375 -14.828125 C 19.59375 -13.628906 19.421875 -11.804688 19.421875 -9.359375 C 19.421875 -6.929688 19.59375 -5.109375 19.9375 -3.890625 C 20.28125 -2.679688 20.859375 -2.078125 21.671875 -2.078125 C 22.460938 -2.078125 23.023438 -2.691406 23.359375 -3.921875 C 23.703125 -5.160156 23.875 -6.972656 23.875 -9.359375 C 23.875 -11.710938 23.6875 -13.507812 23.3125 -14.75 C 22.9375 -16 22.375 -16.625 21.625 -16.625 Z M 21.625 -16.625 "/></g></g></g><g fill="#231f20" fill-opacity="1"><g transform="translate(636.289392, 217.627722)"><g><path d="M 6.90625 -33.78125 L 6.21875 -21.578125 L 3.53125 -21.578125 L 2.796875 -33.78125 Z M 6.90625 -33.78125 "/></g></g></g><g fill="#231f20" fill-opacity="1"><g transform="translate(647.605387, 217.627722)"><g><path d="M 1.78125 0 L 1.78125 -10.53125 C 1.78125 -11.15625 1.800781 -11.75 1.84375 -12.3125 C 1.894531 -12.875 1.96875 -13.410156 2.0625 -13.921875 C 2.164062 -14.441406 2.300781 -14.945312 2.46875 -15.4375 C 2.78125 -16.394531 3.25 -17.203125 3.875 -17.859375 C 4.5 -18.523438 5.25 -19.066406 6.125 -19.484375 L 1.578125 -29.8125 L 5.5 -29.8125 L 12.453125 -13.234375 C 12.867188 -13.515625 13.222656 -13.835938 13.515625 -14.203125 C 13.804688 -14.578125 14.039062 -15.023438 14.21875 -15.546875 C 14.382812 -16.015625 14.5 -16.535156 14.5625 -17.109375 C 14.632812 -17.691406 14.671875 -18.335938 14.671875 -19.046875 L 14.671875 -29.8125 L 18.125 -29.8125 L 18.125 -19.046875 C 18.125 -18.367188 18.0625 -17.550781 17.9375 -16.59375 C 17.820312 -15.632812 17.597656 -14.734375 17.265625 -13.890625 C 16.984375 -13.179688 16.5625 -12.519531 16 -11.90625 C 15.4375 -11.289062 14.6875 -10.765625 13.75 -10.328125 L 18.203125 0 L 14.265625 0 L 7.421875 -16.59375 C 7.015625 -16.3125 6.675781 -15.988281 6.40625 -15.625 C 6.144531 -15.269531 5.921875 -14.84375 5.734375 -14.34375 C 5.378906 -13.363281 5.203125 -12.09375 5.203125 -10.53125 L 5.203125 0 Z M 1.78125 0 "/></g></g></g><g fill="#231f20" fill-opacity="1"><g transform="translate(669.157234, 217.627722)"><g/></g></g><g fill="#231f20" fill-opacity="1"><g transform="translate(679.641422, 217.627722)"><g><path d="M 8.34375 0 L 8.34375 -20.65625 C 8.34375 -21.539062 8.453125 -22.359375 8.671875 -23.109375 C 8.898438 -23.859375 9.175781 -24.453125 9.5 -24.890625 C 9.863281 -25.410156 10.195312 -25.8125 10.5 -26.09375 C 10.800781 -26.382812 11.160156 -26.640625 11.578125 -26.859375 L 0.46875 -26.859375 L 0.46875 -29.8125 L 16.3125 -29.8125 L 16.3125 -27.125 C 15.5 -26.832031 14.816406 -26.484375 14.265625 -26.078125 C 13.722656 -25.671875 13.304688 -25.257812 13.015625 -24.84375 C 12.242188 -23.757812 11.859375 -22.347656 11.859375 -20.609375 L 11.859375 0 Z M 8.34375 0 "/></g></g></g><g fill="#231f20" fill-opacity="1"><g transform="translate(698.281944, 217.627722)"><g><path d="M 1.25 0 L 3.21875 -21.9375 C 3.226562 -22.132812 3.238281 -22.367188 3.25 -22.640625 C 3.269531 -22.910156 3.28125 -23.160156 3.28125 -23.390625 C 3.28125 -23.910156 3.234375 -24.460938 3.140625 -25.046875 C 3.046875 -25.628906 2.914062 -26.222656 2.75 -26.828125 C 2.71875 -26.984375 2.675781 -27.140625 2.625 -27.296875 C 2.570312 -27.460938 2.515625 -27.625 2.453125 -27.78125 C 2.398438 -27.9375 2.351562 -28.085938 2.3125 -28.234375 C 2.21875 -28.492188 2.128906 -28.753906 2.046875 -29.015625 C 1.960938 -29.285156 1.875 -29.550781 1.78125 -29.8125 L 5.265625 -29.8125 C 5.492188 -29.289062 5.703125 -28.710938 5.890625 -28.078125 C 6.085938 -27.441406 6.234375 -26.863281 6.328125 -26.34375 L 6.546875 -26.34375 C 6.753906 -26.820312 7.035156 -27.289062 7.390625 -27.75 C 7.742188 -28.21875 8.125 -28.601562 8.53125 -28.90625 C 8.957031 -29.257812 9.53125 -29.570312 10.25 -29.84375 C 10.976562 -30.125 11.789062 -30.265625 12.6875 -30.265625 C 13.625 -30.265625 14.429688 -30.097656 15.109375 -29.765625 C 15.785156 -29.441406 16.34375 -29.007812 16.78125 -28.46875 C 17.070312 -28.113281 17.328125 -27.675781 17.546875 -27.15625 C 17.773438 -26.632812 17.953125 -26.070312 18.078125 -25.46875 C 18.253906 -24.675781 18.390625 -23.757812 18.484375 -22.71875 C 18.578125 -21.6875 18.625 -20.566406 18.625 -19.359375 L 18.625 0 L 9.84375 0 L 9.84375 -2.953125 L 15.109375 -2.953125 L 15.109375 -19.359375 C 15.109375 -21.054688 15.054688 -22.296875 14.953125 -23.078125 C 14.847656 -23.867188 14.722656 -24.503906 14.578125 -24.984375 C 14.378906 -25.640625 14.117188 -26.125 13.796875 -26.4375 C 13.484375 -26.757812 13.175781 -26.96875 12.875 -27.0625 C 12.582031 -27.164062 12.332031 -27.21875 12.125 -27.21875 C 11.25 -27.21875 10.515625 -27.050781 9.921875 -26.71875 C 9.328125 -26.394531 8.832031 -25.96875 8.4375 -25.4375 C 8.019531 -24.914062 7.679688 -24.394531 7.421875 -23.875 C 7.160156 -23.363281 6.941406 -22.820312 6.765625 -22.25 L 4.765625 0 Z M 1.25 0 "/></g></g></g><g fill="#231f20" fill-opacity="1"><g transform="translate(721.543621, 217.627722)"><g><path d="M 1.5 1.21875 L 1.5 -1.78125 L 5.40625 -2.46875 C 5.75 -2.53125 6.085938 -2.59375 6.421875 -2.65625 C 6.765625 -2.71875 7.113281 -2.769531 7.46875 -2.8125 L 1.578125 -29.8125 L 5.078125 -29.8125 L 8 -16.34375 L 10.328125 -4.15625 C 11.472656 -4.882812 12.335938 -5.867188 12.921875 -7.109375 C 13.515625 -8.359375 13.953125 -9.773438 14.234375 -11.359375 C 14.515625 -12.953125 14.742188 -14.601562 14.921875 -16.3125 L 16.203125 -29.8125 L 19.71875 -29.8125 L 18.4375 -16.640625 C 18.238281 -14.640625 18.015625 -12.8125 17.765625 -11.15625 C 17.523438 -9.5 17.128906 -8.007812 16.578125 -6.6875 C 16.035156 -5.375 15.207031 -4.21875 14.09375 -3.21875 C 13.375 -2.351562 12.488281 -1.644531 11.4375 -1.09375 C 10.394531 -0.550781 9.132812 -0.140625 7.65625 0.140625 C 6.632812 0.304688 5.609375 0.484375 4.578125 0.671875 C 3.554688 0.859375 2.53125 1.039062 1.5 1.21875 Z M 1.5 1.21875 "/></g></g></g><g fill="#231f20" fill-opacity="1"><g transform="translate(743.765528, 217.627722)"><g><path d="M 3.09375 0 L 3.09375 -29.8125 L 6.625 -29.8125 L 6.625 0 Z M 3.09375 0 "/></g></g></g><g fill="#231f20" fill-opacity="1"><g transform="translate(755.197055, 217.627722)"><g><path d="M 1.25 0 L 3.21875 -21.9375 C 3.226562 -22.132812 3.238281 -22.367188 3.25 -22.640625 C 3.269531 -22.910156 3.28125 -23.160156 3.28125 -23.390625 C 3.28125 -23.910156 3.234375 -24.460938 3.140625 -25.046875 C 3.046875 -25.628906 2.914062 -26.222656 2.75 -26.828125 C 2.71875 -26.984375 2.675781 -27.140625 2.625 -27.296875 C 2.570312 -27.460938 2.515625 -27.625 2.453125 -27.78125 C 2.398438 -27.9375 2.351562 -28.085938 2.3125 -28.234375 C 2.21875 -28.492188 2.128906 -28.753906 2.046875 -29.015625 C 1.960938 -29.285156 1.875 -29.550781 1.78125 -29.8125 L 5.265625 -29.8125 C 5.492188 -29.289062 5.703125 -28.710938 5.890625 -28.078125 C 6.085938 -27.441406 6.234375 -26.863281 6.328125 -26.34375 L 6.546875 -26.34375 C 6.753906 -26.820312 7.035156 -27.289062 7.390625 -27.75 C 7.742188 -28.21875 8.125 -28.601562 8.53125 -28.90625 C 8.957031 -29.257812 9.53125 -29.570312 10.25 -29.84375 C 10.976562 -30.125 11.789062 -30.265625 12.6875 -30.265625 C 13.625 -30.265625 14.429688 -30.097656 15.109375 -29.765625 C 15.785156 -29.441406 16.34375 -29.007812 16.78125 -28.46875 C 17.070312 -28.113281 17.328125 -27.675781 17.546875 -27.15625 C 17.773438 -26.632812 17.953125 -26.070312 18.078125 -25.46875 C 18.253906 -24.675781 18.390625 -23.757812 18.484375 -22.71875 C 18.578125 -21.6875 18.625 -20.566406 18.625 -19.359375 L 18.625 0 L 9.84375 0 L 9.84375 -2.953125 L 15.109375 -2.953125 L 15.109375 -19.359375 C 15.109375 -21.054688 15.054688 -22.296875 14.953125 -23.078125 C 14.847656 -23.867188 14.722656 -24.503906 14.578125 -24.984375 C 14.378906 -25.640625 14.117188 -26.125 13.796875 -26.4375 C 13.484375 -26.757812 13.175781 -26.96875 12.875 -27.0625 C 12.582031 -27.164062 12.332031 -27.21875 12.125 -27.21875 C 11.25 -27.21875 10.515625 -27.050781 9.921875 -26.71875 C 9.328125 -26.394531 8.832031 -25.96875 8.4375 -25.4375 C 8.019531 -24.914062 7.679688 -24.394531 7.421875 -23.875 C 7.160156 -23.363281 6.941406 -22.820312 6.765625 -22.25 L 4.765625 0 Z M 1.25 0 "/></g></g></g><g fill="#231f20" fill-opacity="1"><g transform="translate(674.747931, 279.684537)"><g><path d="M 16.390625 0 L 1.484375 0 L 1.484375 -2.484375 L 7.609375 -11.5 C 8.804688 -13.257812 9.753906 -14.78125 10.453125 -16.0625 C 11.148438 -17.351562 11.648438 -18.570312 11.953125 -19.71875 C 12.253906 -20.875 12.40625 -22.128906 12.40625 -23.484375 C 12.40625 -24.992188 12.039062 -26.1875 11.3125 -27.0625 C 10.59375 -27.9375 9.554688 -28.375 8.203125 -28.375 C 7.296875 -28.375 6.46875 -28.210938 5.71875 -27.890625 C 4.976562 -27.566406 4.222656 -27.03125 3.453125 -26.28125 L 1.734375 -28.609375 C 2.441406 -29.273438 3.140625 -29.8125 3.828125 -30.21875 C 4.523438 -30.632812 5.25 -30.9375 6 -31.125 C 6.757812 -31.3125 7.582031 -31.40625 8.46875 -31.40625 C 10 -31.40625 11.3125 -31.078125 12.40625 -30.421875 C 13.5 -29.773438 14.332031 -28.863281 14.90625 -27.6875 C 15.488281 -26.519531 15.78125 -25.160156 15.78125 -23.609375 C 15.78125 -21.960938 15.585938 -20.445312 15.203125 -19.0625 C 14.828125 -17.675781 14.253906 -16.300781 13.484375 -14.9375 C 12.710938 -13.570312 11.738281 -12.085938 10.5625 -10.484375 L 5.421875 -3.171875 L 5.421875 -3.03125 L 16.390625 -3.03125 Z M 16.390625 0 "/></g></g></g><g fill="#231f20" fill-opacity="1"><g transform="translate(693.194754, 279.684537)"><g><path d="M 9.015625 -18.984375 C 10.597656 -18.984375 11.945312 -18.597656 13.0625 -17.828125 C 14.175781 -17.066406 15.03125 -16.007812 15.625 -14.65625 C 16.21875 -13.300781 16.515625 -11.726562 16.515625 -9.9375 C 16.515625 -7.882812 16.175781 -6.082031 15.5 -4.53125 C 14.832031 -2.976562 13.847656 -1.765625 12.546875 -0.890625 C 11.253906 -0.015625 9.648438 0.421875 7.734375 0.421875 C 6.554688 0.421875 5.5 0.3125 4.5625 0.09375 C 3.632812 -0.125 2.820312 -0.445312 2.125 -0.875 L 2.125 -4.21875 C 2.90625 -3.695312 3.757812 -3.28125 4.6875 -2.96875 C 5.613281 -2.65625 6.539062 -2.5 7.46875 -2.5 C 8.757812 -2.5 9.816406 -2.832031 10.640625 -3.5 C 11.460938 -4.175781 12.078125 -5.066406 12.484375 -6.171875 C 12.898438 -7.285156 13.109375 -8.503906 13.109375 -9.828125 C 13.109375 -11.867188 12.660156 -13.425781 11.765625 -14.5 C 10.867188 -15.582031 9.582031 -16.125 7.90625 -16.125 C 7.195312 -16.125 6.492188 -16.054688 5.796875 -15.921875 C 5.109375 -15.785156 4.421875 -15.609375 3.734375 -15.390625 L 2.390625 -16.6875 L 3.328125 -30.96875 L 14.875 -30.96875 L 14.875 -27.921875 L 6.125 -27.921875 L 5.484375 -18.546875 C 6.078125 -18.691406 6.671875 -18.800781 7.265625 -18.875 C 7.867188 -18.945312 8.453125 -18.984375 9.015625 -18.984375 Z M 9.015625 -18.984375 "/></g></g></g><g fill="#231f20" fill-opacity="1"><g transform="translate(711.641576, 279.684537)"><g><path d="M 6.6875 -31.40625 C 8.269531 -31.40625 9.492188 -30.570312 10.359375 -28.90625 C 11.234375 -27.238281 11.671875 -24.847656 11.671875 -21.734375 C 11.671875 -18.628906 11.238281 -16.222656 10.375 -14.515625 C 9.507812 -12.816406 8.28125 -11.96875 6.6875 -11.96875 C 5.09375 -11.96875 3.875 -12.820312 3.03125 -14.53125 C 2.1875 -16.238281 1.765625 -18.640625 1.765625 -21.734375 C 1.765625 -24.847656 2.175781 -27.238281 3 -28.90625 C 3.832031 -30.570312 5.0625 -31.40625 6.6875 -31.40625 Z M 6.65625 -29 C 5.875 -29 5.3125 -28.394531 4.96875 -27.1875 C 4.632812 -25.976562 4.46875 -24.160156 4.46875 -21.734375 C 4.46875 -19.304688 4.640625 -17.484375 4.984375 -16.265625 C 5.328125 -15.046875 5.894531 -14.4375 6.6875 -14.4375 C 7.46875 -14.4375 8.035156 -15.035156 8.390625 -16.234375 C 8.753906 -17.441406 8.9375 -19.273438 8.9375 -21.734375 C 8.9375 -24.171875 8.738281 -25.988281 8.34375 -27.1875 C 7.957031 -28.394531 7.394531 -29 6.65625 -29 Z M 20.84375 -30.96875 L 10.078125 0 L 7.4375 0 L 18.1875 -30.96875 Z M 21.671875 -19.046875 C 23.242188 -19.046875 24.460938 -18.210938 25.328125 -16.546875 C 26.203125 -14.878906 26.640625 -12.484375 26.640625 -9.359375 C 26.640625 -6.179688 26.203125 -3.765625 25.328125 -2.109375 C 24.453125 -0.453125 23.234375 0.375 21.671875 0.375 C 20.085938 0.375 18.867188 -0.46875 18.015625 -2.15625 C 17.160156 -3.851562 16.734375 -6.253906 16.734375 -9.359375 C 16.734375 -12.566406 17.15625 -14.984375 18 -16.609375 C 18.84375 -18.234375 20.066406 -19.046875 21.671875 -19.046875 Z M 21.625 -16.625 C 20.84375 -16.625 20.28125 -16.023438 19.9375 -14.828125 C 19.59375 -13.628906 19.421875 -11.804688 19.421875 -9.359375 C 19.421875 -6.929688 19.59375 -5.109375 19.9375 -3.890625 C 20.28125 -2.679688 20.859375 -2.078125 21.671875 -2.078125 C 22.460938 -2.078125 23.023438 -2.691406 23.359375 -3.921875 C 23.703125 -5.160156 23.875 -6.972656 23.875 -9.359375 C 23.875 -11.710938 23.6875 -13.507812 23.3125 -14.75 C 22.9375 -16 22.375 -16.625 21.625 -16.625 Z M 21.625 -16.625 "/></g></g></g><g fill="#231f20" fill-opacity="1"><g transform="translate(760.968832, 389.675661)"><g><path d="M 6.90625 -33.78125 L 6.21875 -21.578125 L 3.53125 -21.578125 L 2.796875 -33.78125 Z M 6.90625 -33.78125 "/></g></g></g><g fill="#231f20" fill-opacity="1"><g transform="translate(772.284826, 389.675661)"><g><path d="M 3.921875 0.234375 C 3.617188 0.234375 3.3125 0.207031 3 0.15625 C 2.695312 0.113281 2.382812 0.0546875 2.0625 -0.015625 L 2.5 -3.375 C 2.65625 -3.300781 2.863281 -3.238281 3.125 -3.1875 C 3.394531 -3.144531 3.660156 -3.125 3.921875 -3.125 C 5.398438 -3.125 6.585938 -3.515625 7.484375 -4.296875 C 8.378906 -5.085938 8.984375 -6.207031 9.296875 -7.65625 C 9.429688 -8.238281 9.53125 -8.882812 9.59375 -9.59375 C 9.65625 -10.300781 9.6875 -11.078125 9.6875 -11.921875 L 9.6875 -22.828125 C 9.6875 -24.171875 9.460938 -25.242188 9.015625 -26.046875 C 8.578125 -26.847656 7.726562 -27.25 6.46875 -27.25 C 6.132812 -27.25 5.753906 -27.207031 5.328125 -27.125 C 4.898438 -27.050781 4.429688 -26.9375 3.921875 -26.78125 L 3.921875 -29.859375 C 4.867188 -30.128906 5.832031 -30.265625 6.8125 -30.265625 C 7.84375 -30.265625 8.757812 -30.140625 9.5625 -29.890625 C 10.363281 -29.640625 11.03125 -29.234375 11.5625 -28.671875 C 12.25 -27.953125 12.691406 -27.097656 12.890625 -26.109375 C 13.097656 -25.128906 13.203125 -24.035156 13.203125 -22.828125 L 13.203125 0 L 10.484375 0 L 9.984375 -4.734375 L 9.78125 -4.734375 C 9.59375 -4.179688 9.363281 -3.617188 9.09375 -3.046875 C 8.820312 -2.484375 8.488281 -1.96875 8.09375 -1.5 C 7.675781 -0.988281 7.113281 -0.570312 6.40625 -0.25 C 5.695312 0.0703125 4.867188 0.234375 3.921875 0.234375 Z M 3.921875 0.234375 "/></g></g></g><g fill="#231f20" fill-opacity="1"><g transform="translate(790.139753, 389.675661)"><g/></g></g><g fill="#231f20" fill-opacity="1"><g transform="translate(800.623942, 389.675661)"><g><path d="M 8.34375 0 L 8.34375 -20.65625 C 8.34375 -21.539062 8.453125 -22.359375 8.671875 -23.109375 C 8.898438 -23.859375 9.175781 -24.453125 9.5 -24.890625 C 9.863281 -25.410156 10.195312 -25.8125 10.5 -26.09375 C 10.800781 -26.382812 11.160156 -26.640625 11.578125 -26.859375 L 0.46875 -26.859375 L 0.46875 -29.8125 L 16.3125 -29.8125 L 16.3125 -27.125 C 15.5 -26.832031 14.816406 -26.484375 14.265625 -26.078125 C 13.722656 -25.671875 13.304688 -25.257812 13.015625 -24.84375 C 12.242188 -23.757812 11.859375 -22.347656 11.859375 -20.609375 L 11.859375 0 Z M 8.34375 0 "/></g></g></g><g fill="#231f20" fill-opacity="1"><g transform="translate(819.264464, 389.675661)"><g><path d="M 1.25 0 L 3.21875 -21.9375 C 3.226562 -22.132812 3.238281 -22.367188 3.25 -22.640625 C 3.269531 -22.910156 3.28125 -23.160156 3.28125 -23.390625 C 3.28125 -23.910156 3.234375 -24.460938 3.140625 -25.046875 C 3.046875 -25.628906 2.914062 -26.222656 2.75 -26.828125 C 2.71875 -26.984375 2.675781 -27.140625 2.625 -27.296875 C 2.570312 -27.460938 2.515625 -27.625 2.453125 -27.78125 C 2.398438 -27.9375 2.351562 -28.085938 2.3125 -28.234375 C 2.21875 -28.492188 2.128906 -28.753906 2.046875 -29.015625 C 1.960938 -29.285156 1.875 -29.550781 1.78125 -29.8125 L 5.265625 -29.8125 C 5.492188 -29.289062 5.703125 -28.710938 5.890625 -28.078125 C 6.085938 -27.441406 6.234375 -26.863281 6.328125 -26.34375 L 6.546875 -26.34375 C 6.753906 -26.820312 7.035156 -27.289062 7.390625 -27.75 C 7.742188 -28.21875 8.125 -28.601562 8.53125 -28.90625 C 8.957031 -29.257812 9.53125 -29.570312 10.25 -29.84375 C 10.976562 -30.125 11.789062 -30.265625 12.6875 -30.265625 C 13.625 -30.265625 14.429688 -30.097656 15.109375 -29.765625 C 15.785156 -29.441406 16.34375 -29.007812 16.78125 -28.46875 C 17.070312 -28.113281 17.328125 -27.675781 17.546875 -27.15625 C 17.773438 -26.632812 17.953125 -26.070312 18.078125 -25.46875 C 18.253906 -24.675781 18.390625 -23.757812 18.484375 -22.71875 C 18.578125 -21.6875 18.625 -20.566406 18.625 -19.359375 L 18.625 0 L 9.84375 0 L 9.84375 -2.953125 L 15.109375 -2.953125 L 15.109375 -19.359375 C 15.109375 -21.054688 15.054688 -22.296875 14.953125 -23.078125 C 14.847656 -23.867188 14.722656 -24.503906 14.578125 -24.984375 C 14.378906 -25.640625 14.117188 -26.125 13.796875 -26.4375 C 13.484375 -26.757812 13.175781 -26.96875 12.875 -27.0625 C 12.582031 -27.164062 12.332031 -27.21875 12.125 -27.21875 C 11.25 -27.21875 10.515625 -27.050781 9.921875 -26.71875 C 9.328125 -26.394531 8.832031 -25.96875 8.4375 -25.4375 C 8.019531 -24.914062 7.679688 -24.394531 7.421875 -23.875 C 7.160156 -23.363281 6.941406 -22.820312 6.765625 -22.25 L 4.765625 0 Z M 1.25 0 "/></g></g></g><g fill="#231f20" fill-opacity="1"><g transform="translate(842.526141, 389.675661)"><g><path d="M 1.5 1.21875 L 1.5 -1.78125 L 5.40625 -2.46875 C 5.75 -2.53125 6.085938 -2.59375 6.421875 -2.65625 C 6.765625 -2.71875 7.113281 -2.769531 7.46875 -2.8125 L 1.578125 -29.8125 L 5.078125 -29.8125 L 8 -16.34375 L 10.328125 -4.15625 C 11.472656 -4.882812 12.335938 -5.867188 12.921875 -7.109375 C 13.515625 -8.359375 13.953125 -9.773438 14.234375 -11.359375 C 14.515625 -12.953125 14.742188 -14.601562 14.921875 -16.3125 L 16.203125 -29.8125 L 19.71875 -29.8125 L 18.4375 -16.640625 C 18.238281 -14.640625 18.015625 -12.8125 17.765625 -11.15625 C 17.523438 -9.5 17.128906 -8.007812 16.578125 -6.6875 C 16.035156 -5.375 15.207031 -4.21875 14.09375 -3.21875 C 13.375 -2.351562 12.488281 -1.644531 11.4375 -1.09375 C 10.394531 -0.550781 9.132812 -0.140625 7.65625 0.140625 C 6.632812 0.304688 5.609375 0.484375 4.578125 0.671875 C 3.554688 0.859375 2.53125 1.039062 1.5 1.21875 Z M 1.5 1.21875 "/></g></g></g><g fill="#231f20" fill-opacity="1"><g transform="translate(864.748047, 389.675661)"><g><path d="M 3.09375 0 L 3.09375 -29.8125 L 6.625 -29.8125 L 6.625 0 Z M 3.09375 0 "/></g></g></g><g fill="#231f20" fill-opacity="1"><g transform="translate(876.179575, 389.675661)"><g><path d="M 1.25 0 L 3.21875 -21.9375 C 3.226562 -22.132812 3.238281 -22.367188 3.25 -22.640625 C 3.269531 -22.910156 3.28125 -23.160156 3.28125 -23.390625 C 3.28125 -23.910156 3.234375 -24.460938 3.140625 -25.046875 C 3.046875 -25.628906 2.914062 -26.222656 2.75 -26.828125 C 2.71875 -26.984375 2.675781 -27.140625 2.625 -27.296875 C 2.570312 -27.460938 2.515625 -27.625 2.453125 -27.78125 C 2.398438 -27.9375 2.351562 -28.085938 2.3125 -28.234375 C 2.21875 -28.492188 2.128906 -28.753906 2.046875 -29.015625 C 1.960938 -29.285156 1.875 -29.550781 1.78125 -29.8125 L 5.265625 -29.8125 C 5.492188 -29.289062 5.703125 -28.710938 5.890625 -28.078125 C 6.085938 -27.441406 6.234375 -26.863281 6.328125 -26.34375 L 6.546875 -26.34375 C 6.753906 -26.820312 7.035156 -27.289062 7.390625 -27.75 C 7.742188 -28.21875 8.125 -28.601562 8.53125 -28.90625 C 8.957031 -29.257812 9.53125 -29.570312 10.25 -29.84375 C 10.976562 -30.125 11.789062 -30.265625 12.6875 -30.265625 C 13.625 -30.265625 14.429688 -30.097656 15.109375 -29.765625 C 15.785156 -29.441406 16.34375 -29.007812 16.78125 -28.46875 C 17.070312 -28.113281 17.328125 -27.675781 17.546875 -27.15625 C 17.773438 -26.632812 17.953125 -26.070312 18.078125 -25.46875 C 18.253906 -24.675781 18.390625 -23.757812 18.484375 -22.71875 C 18.578125 -21.6875 18.625 -20.566406 18.625 -19.359375 L 18.625 0 L 9.84375 0 L 9.84375 -2.953125 L 15.109375 -2.953125 L 15.109375 -19.359375 C 15.109375 -21.054688 15.054688 -22.296875 14.953125 -23.078125 C 14.847656 -23.867188 14.722656 -24.503906 14.578125 -24.984375 C 14.378906 -25.640625 14.117188 -26.125 13.796875 -26.4375 C 13.484375 -26.757812 13.175781 -26.96875 12.875 -27.0625 C 12.582031 -27.164062 12.332031 -27.21875 12.125 -27.21875 C 11.25 -27.21875 10.515625 -27.050781 9.921875 -26.71875 C 9.328125 -26.394531 8.832031 -25.96875 8.4375 -25.4375 C 8.019531 -24.914062 7.679688 -24.394531 7.421875 -23.875 C 7.160156 -23.363281 6.941406 -22.820312 6.765625 -22.25 L 4.765625 0 Z M 1.25 0 "/></g></g></g></svg>