<svg xmlns="http://www.w3.org/2000/svg" xmlns:xlink="http://www.w3.org/1999/xlink" width="794" zoomAndPan="magnify" viewBox="0 0 1440 809.999993" height="1123" preserveAspectRatio="xMidYMid meet" version="1.0"><defs><g/><clipPath id="18db56831a"><path d="M 630.839844 62 L 820 62 L 820 399 L 630.839844 399 Z M 630.839844 62 " clip-rule="nonzero"/></clipPath><clipPath id="dc80a463cd"><path d="M 631.863281 62.449219 C 631.863281 62.449219 631.679688 65.382812 631.679688 70.625 C 631.679688 97.304688 636.570312 183.125 695.925781 240.488281 C 695.910156 240.472656 786.386719 330.261719 795.613281 342.035156 L 795.28125 342.285156 L 795.597656 342.019531 C 795.597656 342 820 371.480469 820 398.492188 L 819.164062 398.492188 C 819.164062 371.832031 794.996094 342.585938 794.976562 342.554688 C 785.78125 330.828125 695.375 241.109375 695.355469 241.089844 L 695.660156 240.789062 L 695.375 241.089844 C 635.75 183.476562 630.875 97.320312 630.875 70.625 C 630.875 65.363281 631.058594 62.398438 631.058594 62.398438 Z M 631.863281 62.449219 " clip-rule="nonzero"/></clipPath><clipPath id="baa29964d5"><path d="M 619.921875 398.359375 L 819.867188 398.359375 L 819.867188 399.199219 L 619.921875 399.199219 Z M 619.921875 398.359375 " clip-rule="nonzero"/></clipPath><clipPath id="b4193f29c4"><path d="M 631 398.207031 L 820 398.207031 L 820 731.386719 L 631 731.386719 Z M 631 398.207031 " clip-rule="nonzero"/></clipPath><clipPath id="7fb83c580c"><path d="M 631.527344 731.121094 C 631.527344 731.105469 631.292969 727.886719 631.292969 722.226562 C 631.292969 695.296875 636.402344 612.777344 695.339844 555.929688 L 695.625 556.230469 L 695.324219 555.929688 C 695.339844 555.914062 785.75 466.34375 794.945312 454.636719 C 794.996094 454.601562 819.164062 425.390625 819.164062 398.777344 L 820 398.777344 C 820 425.742188 795.597656 455.171875 795.613281 455.15625 L 795.296875 454.886719 L 795.632812 455.136719 C 786.402344 466.894531 695.925781 556.515625 695.945312 556.5 C 637.273438 613.109375 632.148438 695.3125 632.148438 722.195312 C 632.148438 727.839844 632.367188 731.035156 632.367188 731.035156 Z M 631.527344 731.121094 " clip-rule="nonzero"/></clipPath><clipPath id="e881de88f0"><path d="M 628.230469 42.035156 L 629.066406 42.035156 L 629.066406 762.222656 L 628.230469 762.222656 Z M 628.230469 42.035156 " clip-rule="nonzero"/></clipPath><clipPath id="629babe81e"><path d="M 624.058594 760.210938 L 632.535156 760.210938 L 632.535156 765.296875 L 624.058594 765.296875 Z M 624.058594 760.210938 " clip-rule="nonzero"/></clipPath><clipPath id="89aca83ac4"><path d="M 628.648438 761.886719 C 629.519531 761.015625 631.261719 760.597656 632.449219 760.566406 C 630.84375 761.769531 629.433594 763.328125 628.648438 765.203125 C 627.894531 763.3125 626.402344 761.835938 624.847656 760.566406 C 626.136719 760.664062 627.691406 760.984375 628.648438 761.886719 " clip-rule="nonzero"/></clipPath><clipPath id="5f81c6db88"><path d="M 619.722656 453.078125 L 796.132812 453.078125 L 796.132812 453.914062 L 619.722656 453.914062 Z M 619.722656 453.078125 " clip-rule="nonzero"/></clipPath><clipPath id="8bd67fbdf0"><path d="M 619.9375 506.671875 L 745.335938 506.671875 L 745.335938 507.511719 L 619.9375 507.511719 Z M 619.9375 506.671875 " clip-rule="nonzero"/></clipPath><clipPath id="634aecd575"><path d="M 619.9375 561.375 L 690.066406 561.375 L 690.066406 562.210938 L 619.9375 562.210938 Z M 619.9375 561.375 " clip-rule="nonzero"/></clipPath><clipPath id="5775f8ced6"><path d="M 619.921875 616.089844 L 653.769531 616.089844 L 653.769531 616.929688 L 619.921875 616.929688 Z M 619.921875 616.089844 " clip-rule="nonzero"/></clipPath><clipPath id="6261e0284a"><path d="M 619.921875 669.6875 L 635.898438 669.6875 L 635.898438 670.523438 L 619.921875 670.523438 Z M 619.921875 669.6875 " clip-rule="nonzero"/></clipPath><clipPath id="cee0b45d18"><path d="M 619.921875 343.640625 L 796.6875 343.640625 L 796.6875 344.480469 L 619.921875 344.480469 Z M 619.921875 343.640625 " clip-rule="nonzero"/></clipPath><clipPath id="898e36e26a"><path d="M 619.921875 290.046875 L 745.886719 290.046875 L 745.886719 290.882812 L 619.921875 290.882812 Z M 619.921875 290.046875 " clip-rule="nonzero"/></clipPath><clipPath id="1a6c7f22b8"><path d="M 619.921875 234.222656 L 689.496094 234.222656 L 689.496094 235.0625 L 619.921875 235.0625 Z M 619.921875 234.222656 " clip-rule="nonzero"/></clipPath><clipPath id="6a6d5ea5a3"><path d="M 619.9375 179.507812 L 653.21875 179.507812 L 653.21875 180.34375 L 619.9375 180.34375 Z M 619.9375 179.507812 " clip-rule="nonzero"/></clipPath><clipPath id="571d69c2af"><path d="M 619.921875 124.804688 L 635.347656 124.804688 L 635.347656 125.644531 L 619.921875 125.644531 Z M 619.921875 124.804688 " clip-rule="nonzero"/></clipPath><clipPath id="8fb2ad1f40"><path d="M 640 609.304688 L 688 609.304688 L 688 661.867188 L 640 661.867188 Z M 640 609.304688 " clip-rule="nonzero"/></clipPath><clipPath id="2ef1ed2e9b"><path d="M 660.21875 635.488281 C 660.21875 649.570312 666.367188 660.527344 673.535156 660.527344 L 673.535156 660.945312 L 673.535156 660.527344 C 680.6875 660.527344 686.847656 649.570312 686.847656 635.488281 L 687.269531 635.488281 L 686.847656 635.488281 C 686.847656 621.402344 680.703125 610.449219 673.535156 610.449219 L 673.535156 610.027344 L 673.535156 610.449219 C 668.058594 610.449219 663.167969 616.8125 661.15625 626.242188 L 661.074219 626.609375 L 660.6875 626.558594 L 640.304688 624.164062 L 640.355469 623.746094 L 640.574219 623.394531 L 660 635.117188 L 660.203125 635.234375 L 660.203125 635.46875 M 659.363281 635.46875 L 659.785156 635.46875 L 659.566406 635.820312 L 640.136719 624.097656 L 640.40625 623.328125 L 660.789062 625.722656 L 660.738281 626.140625 L 660.335938 626.058594 C 662.347656 616.59375 667.386719 609.59375 673.535156 609.59375 C 681.539062 609.59375 687.6875 621.433594 687.6875 635.46875 C 687.6875 649.503906 681.539062 661.347656 673.535156 661.347656 C 665.527344 661.347656 659.382812 649.503906 659.382812 635.46875 Z M 659.363281 635.46875 " clip-rule="nonzero"/></clipPath><clipPath id="b689691a4b"><path d="M 640.167969 135.394531 L 688.488281 135.394531 L 688.488281 187.957031 L 640.167969 187.957031 Z M 640.167969 135.394531 " clip-rule="nonzero"/></clipPath><clipPath id="189e313b11"><path d="M 660.050781 161.5 C 660.050781 147.464844 666.199219 135.625 674.203125 135.625 L 674.203125 136.042969 L 674.203125 135.625 C 682.210938 135.625 688.355469 147.464844 688.355469 161.5 L 687.9375 161.5 L 688.355469 161.5 C 688.355469 175.535156 682.210938 187.378906 674.203125 187.378906 L 674.203125 186.960938 L 674.203125 187.378906 C 668.058594 187.378906 663.015625 180.378906 661.007812 170.914062 L 661.40625 170.832031 L 661.457031 171.25 L 641.074219 173.644531 L 640.808594 172.875 L 660.234375 161.148438 L 660.453125 161.5 L 660.035156 161.5 M 660.871094 161.5 L 660.871094 161.734375 L 660.671875 161.851562 L 641.242188 173.578125 L 641.023438 173.226562 L 640.976562 172.808594 L 661.359375 170.410156 L 661.742188 170.363281 L 661.828125 170.730469 C 663.835938 180.160156 668.726562 186.523438 674.203125 186.523438 C 681.355469 186.523438 687.519531 175.570312 687.519531 161.484375 C 687.519531 147.398438 681.371094 136.445312 674.203125 136.445312 C 667.035156 136.445312 660.890625 147.417969 660.890625 161.5 Z M 660.871094 161.5 " clip-rule="nonzero"/></clipPath><clipPath id="943a9f233f"><path d="M 630.839844 677.128906 L 672.382812 677.128906 L 672.382812 739 L 630.839844 739 Z M 630.839844 677.128906 " clip-rule="nonzero"/></clipPath><clipPath id="885b3fc2bf"><path d="M 645.230469 702.429688 C 644.527344 705.445312 644.140625 708.761719 644.140625 712.261719 L 643.722656 712.261719 L 644.140625 712.261719 C 644.140625 726.363281 650.386719 737.335938 657.671875 737.335938 L 657.671875 737.753906 L 657.671875 737.335938 C 664.957031 737.335938 671.207031 726.363281 671.207031 712.261719 L 671.625 712.261719 L 671.207031 712.261719 C 671.207031 698.160156 664.957031 687.1875 657.671875 687.1875 L 657.671875 686.769531 L 657.671875 687.1875 C 654.039062 687.1875 650.671875 689.867188 648.175781 694.441406 L 647.910156 694.925781 L 647.507812 694.542969 L 630.925781 678.414062 L 631.210938 678.113281 L 631.578125 677.910156 L 645.179688 702.128906 L 645.261719 702.261719 L 645.230469 702.414062 M 644.40625 702.230469 L 644.808594 702.328125 L 644.441406 702.53125 L 630.84375 678.3125 L 631.496094 677.808594 L 648.074219 693.9375 L 647.792969 694.242188 L 647.421875 694.039062 C 649.984375 689.367188 653.570312 686.351562 657.65625 686.351562 C 665.78125 686.351562 672.027344 698.210938 672.027344 712.261719 C 672.027344 726.3125 665.78125 738.171875 657.65625 738.171875 C 649.535156 738.171875 643.285156 726.3125 643.285156 712.261719 C 643.285156 708.710938 643.671875 705.328125 644.390625 702.246094 Z M 644.40625 702.230469 " clip-rule="nonzero"/></clipPath><clipPath id="9763c85ea3"><path d="M 630.839844 58.246094 L 672.382812 58.246094 L 672.382812 119 L 630.839844 119 Z M 630.839844 58.246094 " clip-rule="nonzero"/></clipPath><clipPath id="974ef87176"><path d="M 644.40625 94.523438 C 643.6875 91.441406 643.304688 88.058594 643.304688 84.507812 L 643.722656 84.507812 L 643.304688 84.507812 C 643.304688 70.457031 649.550781 58.597656 657.671875 58.597656 L 657.671875 59.015625 L 657.671875 58.597656 C 665.796875 58.597656 672.042969 70.457031 672.042969 84.507812 L 671.625 84.507812 L 672.042969 84.507812 C 672.042969 98.558594 665.796875 110.417969 657.671875 110.417969 L 657.671875 110 L 657.671875 110.417969 C 653.601562 110.417969 650.003906 107.402344 647.441406 102.730469 L 647.808594 102.53125 L 648.09375 102.832031 L 631.511719 118.960938 L 630.859375 118.457031 L 644.457031 94.238281 L 644.828125 94.441406 L 644.425781 94.539062 M 645.246094 94.355469 L 645.277344 94.507812 L 645.195312 94.640625 L 631.59375 118.859375 L 631.226562 118.660156 L 630.941406 118.355469 L 647.523438 102.226562 L 647.925781 101.84375 L 648.195312 102.328125 C 650.6875 106.882812 654.054688 109.582031 657.691406 109.582031 C 664.976562 109.582031 671.222656 98.609375 671.222656 84.507812 C 671.222656 70.40625 664.976562 59.4375 657.691406 59.4375 C 650.402344 59.4375 644.140625 70.40625 644.140625 84.492188 C 644.140625 87.992188 644.527344 91.308594 645.230469 94.324219 Z M 645.246094 94.355469 " clip-rule="nonzero"/></clipPath><clipPath id="03f419cea3"><path d="M 621.378906 723.066406 L 628.664062 723.066406 L 628.664062 723.902344 L 621.378906 723.902344 Z M 621.378906 723.066406 " clip-rule="nonzero"/></clipPath><clipPath id="759801e6c5"><path d="M 619.921875 72.316406 L 629.199219 72.316406 L 629.199219 73.152344 L 619.921875 73.152344 Z M 619.921875 72.316406 " clip-rule="nonzero"/></clipPath></defs><g clip-path="url(#18db56831a)"><g clip-path="url(#dc80a463cd)"><path fill="#231f20" d="M 828.375 33.660156 L 828.375 773.777344 L 611.339844 773.777344 L 611.339844 33.660156 Z M 828.375 33.660156 " fill-opacity="1" fill-rule="nonzero"/></g></g><g clip-path="url(#baa29964d5)"><path fill="#231f20" d="M 828.375 33.660156 L 828.375 773.777344 L 611.339844 773.777344 L 611.339844 33.660156 Z M 828.375 33.660156 " fill-opacity="1" fill-rule="nonzero"/></g><g clip-path="url(#b4193f29c4)"><g clip-path="url(#7fb83c580c)"><path fill="#231f20" d="M 828.375 33.660156 L 828.375 773.777344 L 611.339844 773.777344 L 611.339844 33.660156 Z M 828.375 33.660156 " fill-opacity="1" fill-rule="nonzero"/></g></g><g clip-path="url(#e881de88f0)"><path fill="#231f20" d="M 828.375 33.660156 L 828.375 773.777344 L 611.339844 773.777344 L 611.339844 33.660156 Z M 828.375 33.660156 " fill-opacity="1" fill-rule="nonzero"/></g><g clip-path="url(#629babe81e)"><g clip-path="url(#89aca83ac4)"><path fill="#231f20" d="M 828.375 33.660156 L 828.375 773.777344 L 611.339844 773.777344 L 611.339844 33.660156 Z M 828.375 33.660156 " fill-opacity="1" fill-rule="nonzero"/></g></g><g clip-path="url(#5f81c6db88)"><path fill="#231f20" d="M 828.375 33.660156 L 828.375 773.777344 L 611.339844 773.777344 L 611.339844 33.660156 Z M 828.375 33.660156 " fill-opacity="1" fill-rule="nonzero"/></g><g clip-path="url(#8bd67fbdf0)"><path fill="#231f20" d="M 828.375 33.660156 L 828.375 773.777344 L 611.339844 773.777344 L 611.339844 33.660156 Z M 828.375 33.660156 " fill-opacity="1" fill-rule="nonzero"/></g><g clip-path="url(#634aecd575)"><path fill="#231f20" d="M 828.375 33.660156 L 828.375 773.777344 L 611.339844 773.777344 L 611.339844 33.660156 Z M 828.375 33.660156 " fill-opacity="1" fill-rule="nonzero"/></g><g clip-path="url(#5775f8ced6)"><path fill="#231f20" d="M 828.375 33.660156 L 828.375 773.777344 L 611.339844 773.777344 L 611.339844 33.660156 Z M 828.375 33.660156 " fill-opacity="1" fill-rule="nonzero"/></g><g clip-path="url(#6261e0284a)"><path fill="#231f20" d="M 828.375 33.660156 L 828.375 773.777344 L 611.339844 773.777344 L 611.339844 33.660156 Z M 828.375 33.660156 " fill-opacity="1" fill-rule="nonzero"/></g><g clip-path="url(#cee0b45d18)"><path fill="#231f20" d="M 828.375 33.660156 L 828.375 773.777344 L 611.339844 773.777344 L 611.339844 33.660156 Z M 828.375 33.660156 " fill-opacity="1" fill-rule="nonzero"/></g><g clip-path="url(#898e36e26a)"><path fill="#231f20" d="M 828.375 33.660156 L 828.375 773.777344 L 611.339844 773.777344 L 611.339844 33.660156 Z M 828.375 33.660156 " fill-opacity="1" fill-rule="nonzero"/></g><g clip-path="url(#1a6c7f22b8)"><path fill="#231f20" d="M 828.375 33.660156 L 828.375 773.777344 L 611.339844 773.777344 L 611.339844 33.660156 Z M 828.375 33.660156 " fill-opacity="1" fill-rule="nonzero"/></g><g clip-path="url(#6a6d5ea5a3)"><path fill="#231f20" d="M 828.375 33.660156 L 828.375 773.777344 L 611.339844 773.777344 L 611.339844 33.660156 Z M 828.375 33.660156 " fill-opacity="1" fill-rule="nonzero"/></g><g clip-path="url(#571d69c2af)"><path fill="#231f20" d="M 828.375 33.660156 L 828.375 773.777344 L 611.339844 773.777344 L 611.339844 33.660156 Z M 828.375 33.660156 " fill-opacity="1" fill-rule="nonzero"/></g><g clip-path="url(#8fb2ad1f40)"><g clip-path="url(#2ef1ed2e9b)"><path fill="#231f20" d="M 828.375 33.660156 L 828.375 773.777344 L 611.339844 773.777344 L 611.339844 33.660156 Z M 828.375 33.660156 " fill-opacity="1" fill-rule="nonzero"/></g></g><g clip-path="url(#b689691a4b)"><g clip-path="url(#189e313b11)"><path fill="#231f20" d="M 828.375 33.660156 L 828.375 773.777344 L 611.339844 773.777344 L 611.339844 33.660156 Z M 828.375 33.660156 " fill-opacity="1" fill-rule="nonzero"/></g></g><g clip-path="url(#943a9f233f)"><g clip-path="url(#885b3fc2bf)"><path fill="#231f20" d="M 828.375 33.660156 L 828.375 773.777344 L 611.339844 773.777344 L 611.339844 33.660156 Z M 828.375 33.660156 " fill-opacity="1" fill-rule="nonzero"/></g></g><g clip-path="url(#9763c85ea3)"><g clip-path="url(#974ef87176)"><path fill="#231f20" d="M 828.375 33.660156 L 828.375 773.777344 L 611.339844 773.777344 L 611.339844 33.660156 Z M 828.375 33.660156 " fill-opacity="1" fill-rule="nonzero"/></g></g><g clip-path="url(#03f419cea3)"><path fill="#231f20" d="M 828.375 33.660156 L 828.375 773.777344 L 611.339844 773.777344 L 611.339844 33.660156 Z M 828.375 33.660156 " fill-opacity="1" fill-rule="nonzero"/></g><g clip-path="url(#759801e6c5)"><path fill="#231f20" d="M 828.375 33.660156 L 828.375 773.777344 L 611.339844 773.777344 L 611.339844 33.660156 Z M 828.375 33.660156 " fill-opacity="1" fill-rule="nonzero"/></g><g fill="#231f20" fill-opacity="1"><g transform="translate(648.096116, 71.395504)"><g><path d="M 5.375 5.765625 C 4.507812 5.765625 3.734375 5.71875 3.046875 5.625 C 2.367188 5.53125 1.789062 5.378906 1.3125 5.171875 C 0.84375 4.960938 0.484375 4.695312 0.234375 4.375 C -0.015625 4.050781 -0.140625 3.660156 -0.140625 3.203125 C -0.140625 2.660156 0.0234375 2.195312 0.359375 1.8125 C 0.703125 1.425781 1.269531 1.128906 2.0625 0.921875 C 2.863281 0.722656 3.96875 0.625 5.375 0.625 C 6.601562 0.625 7.625 0.71875 8.4375 0.90625 C 9.257812 1.09375 9.875 1.375 10.28125 1.75 C 10.695312 2.132812 10.90625 2.617188 10.90625 3.203125 C 10.90625 3.785156 10.695312 4.265625 10.28125 4.640625 C 9.875 5.023438 9.257812 5.304688 8.4375 5.484375 C 7.613281 5.671875 6.59375 5.765625 5.375 5.765625 Z M 5.375 1.8125 C 4.382812 1.8125 3.5625 1.859375 2.90625 1.953125 C 2.25 2.046875 1.753906 2.191406 1.421875 2.390625 C 1.085938 2.597656 0.921875 2.867188 0.921875 3.203125 C 0.921875 3.523438 1.085938 3.789062 1.421875 4 C 1.753906 4.207031 2.25 4.359375 2.90625 4.453125 C 3.570312 4.546875 4.394531 4.59375 5.375 4.59375 C 6.351562 4.59375 7.171875 4.539062 7.828125 4.4375 C 8.492188 4.34375 8.992188 4.191406 9.328125 3.984375 C 9.671875 3.785156 9.84375 3.523438 9.84375 3.203125 C 9.84375 2.867188 9.675781 2.597656 9.34375 2.390625 C 9.007812 2.191406 8.507812 2.046875 7.84375 1.953125 C 7.1875 1.859375 6.363281 1.8125 5.375 1.8125 Z M 5.375 1.8125 "/></g></g></g><g fill="#231f20" fill-opacity="1"><g transform="translate(648.096116, 77.801781)"><g><path d="M 0.78125 0.890625 C 1.082031 0.890625 1.3125 0.953125 1.46875 1.078125 C 1.625 1.210938 1.703125 1.40625 1.703125 1.65625 C 1.703125 1.894531 1.628906 2.082031 1.484375 2.21875 C 1.335938 2.363281 1.101562 2.4375 0.78125 2.4375 C 0.46875 2.4375 0.238281 2.363281 0.09375 2.21875 C -0.0507812 2.082031 -0.125 1.894531 -0.125 1.65625 C -0.125 1.414062 -0.046875 1.226562 0.109375 1.09375 C 0.265625 0.957031 0.488281 0.890625 0.78125 0.890625 Z M 0.78125 0.890625 "/></g></g></g><g fill="#231f20" fill-opacity="1"><g transform="translate(648.096116, 81.133634)"><g><path d="M 6.59375 3.140625 C 6.59375 3.679688 6.457031 4.144531 6.1875 4.53125 C 5.925781 4.925781 5.5625 5.222656 5.09375 5.421875 C 4.625 5.628906 4.078125 5.734375 3.453125 5.734375 C 2.742188 5.734375 2.117188 5.613281 1.578125 5.375 C 1.035156 5.144531 0.613281 4.804688 0.3125 4.359375 C 0.0078125 3.910156 -0.140625 3.351562 -0.140625 2.6875 C -0.140625 2.28125 -0.101562 1.914062 -0.03125 1.59375 C 0.0390625 1.269531 0.148438 0.984375 0.296875 0.734375 L 1.46875 0.734375 C 1.28125 1.003906 1.132812 1.300781 1.03125 1.625 C 0.925781 1.945312 0.875 2.269531 0.875 2.59375 C 0.875 3.039062 0.988281 3.40625 1.21875 3.6875 C 1.445312 3.976562 1.753906 4.191406 2.140625 4.328125 C 2.523438 4.472656 2.945312 4.546875 3.40625 4.546875 C 4.125 4.546875 4.664062 4.390625 5.03125 4.078125 C 5.40625 3.773438 5.59375 3.332031 5.59375 2.75 C 5.59375 2.5 5.566406 2.253906 5.515625 2.015625 C 5.472656 1.773438 5.414062 1.535156 5.34375 1.296875 L 5.796875 0.828125 L 10.75 1.15625 L 10.75 5.15625 L 9.6875 5.15625 L 9.6875 2.125 L 6.4375 1.90625 C 6.488281 2.113281 6.523438 2.320312 6.546875 2.53125 C 6.578125 2.738281 6.59375 2.941406 6.59375 3.140625 Z M 6.59375 3.140625 "/></g></g></g><g fill="#231f20" fill-opacity="1"><g transform="translate(648.096116, 87.539911)"><g><path d="M 10.90625 2.328125 C 10.90625 2.867188 10.613281 3.289062 10.03125 3.59375 C 9.457031 3.894531 8.628906 4.046875 7.546875 4.046875 C 6.460938 4.046875 5.625 3.894531 5.03125 3.59375 C 4.445312 3.300781 4.15625 2.878906 4.15625 2.328125 C 4.15625 1.773438 4.453125 1.347656 5.046875 1.046875 C 5.640625 0.753906 6.472656 0.609375 7.546875 0.609375 C 8.628906 0.609375 9.457031 0.753906 10.03125 1.046875 C 10.613281 1.335938 10.90625 1.765625 10.90625 2.328125 Z M 10.0625 2.3125 C 10.0625 2.039062 9.851562 1.84375 9.4375 1.71875 C 9.019531 1.601562 8.390625 1.546875 7.546875 1.546875 C 6.703125 1.546875 6.066406 1.601562 5.640625 1.71875 C 5.222656 1.84375 5.015625 2.046875 5.015625 2.328125 C 5.015625 2.597656 5.222656 2.796875 5.640625 2.921875 C 6.054688 3.046875 6.691406 3.109375 7.546875 3.109375 C 8.390625 3.109375 9.019531 3.039062 9.4375 2.90625 C 9.851562 2.769531 10.0625 2.570312 10.0625 2.3125 Z M 10.75 7.234375 L 0 3.5 L 0 2.578125 L 10.75 6.3125 Z M 6.609375 7.53125 C 6.609375 8.070312 6.316406 8.492188 5.734375 8.796875 C 5.160156 9.097656 4.332031 9.25 3.25 9.25 C 2.144531 9.25 1.304688 9.097656 0.734375 8.796875 C 0.160156 8.492188 -0.125 8.070312 -0.125 7.53125 C -0.125 6.976562 0.164062 6.550781 0.75 6.25 C 1.332031 5.957031 2.164062 5.8125 3.25 5.8125 C 4.363281 5.8125 5.203125 5.957031 5.765625 6.25 C 6.328125 6.539062 6.609375 6.96875 6.609375 7.53125 Z M 5.78125 7.515625 C 5.78125 7.242188 5.566406 7.046875 5.140625 6.921875 C 4.722656 6.804688 4.09375 6.75 3.25 6.75 C 2.40625 6.75 1.769531 6.804688 1.34375 6.921875 C 0.925781 7.046875 0.71875 7.25 0.71875 7.53125 C 0.71875 7.800781 0.929688 7.992188 1.359375 8.109375 C 1.796875 8.222656 2.425781 8.28125 3.25 8.28125 C 4.070312 8.28125 4.695312 8.21875 5.125 8.09375 C 5.5625 7.96875 5.78125 7.773438 5.78125 7.515625 Z M 5.78125 7.515625 "/></g></g></g><g fill="#231f20" fill-opacity="1"><g transform="translate(664.677212, 148.814192)"><g><path d="M 0 4.34375 L 0 3.171875 L 7.390625 3.171875 C 7.597656 3.171875 7.8125 3.171875 8.03125 3.171875 C 8.25 3.179688 8.46875 3.191406 8.6875 3.203125 C 8.914062 3.210938 9.144531 3.222656 9.375 3.234375 C 9.28125 3.171875 9.175781 3.082031 9.0625 2.96875 C 8.945312 2.863281 8.8125 2.734375 8.65625 2.578125 L 7.71875 1.625 L 8.4375 0.953125 L 10.75 3.34375 L 10.75 4.34375 Z M 0 4.34375 "/></g></g></g><g fill="#231f20" fill-opacity="1"><g transform="translate(664.677212, 155.220469)"><g><path d="M 0.78125 0.890625 C 1.082031 0.890625 1.3125 0.953125 1.46875 1.078125 C 1.625 1.210938 1.703125 1.40625 1.703125 1.65625 C 1.703125 1.894531 1.628906 2.082031 1.484375 2.21875 C 1.335938 2.363281 1.101562 2.4375 0.78125 2.4375 C 0.46875 2.4375 0.238281 2.363281 0.09375 2.21875 C -0.0507812 2.082031 -0.125 1.894531 -0.125 1.65625 C -0.125 1.414062 -0.046875 1.226562 0.109375 1.09375 C 0.265625 0.957031 0.488281 0.890625 0.78125 0.890625 Z M 0.78125 0.890625 "/></g></g></g><g fill="#231f20" fill-opacity="1"><g transform="translate(664.677212, 158.552321)"><g><path d="M 6.59375 3.140625 C 6.59375 3.679688 6.457031 4.144531 6.1875 4.53125 C 5.925781 4.925781 5.5625 5.222656 5.09375 5.421875 C 4.625 5.628906 4.078125 5.734375 3.453125 5.734375 C 2.742188 5.734375 2.117188 5.613281 1.578125 5.375 C 1.035156 5.144531 0.613281 4.804688 0.3125 4.359375 C 0.0078125 3.910156 -0.140625 3.351562 -0.140625 2.6875 C -0.140625 2.28125 -0.101562 1.914062 -0.03125 1.59375 C 0.0390625 1.269531 0.148438 0.984375 0.296875 0.734375 L 1.46875 0.734375 C 1.28125 1.003906 1.132812 1.300781 1.03125 1.625 C 0.925781 1.945312 0.875 2.269531 0.875 2.59375 C 0.875 3.039062 0.988281 3.40625 1.21875 3.6875 C 1.445312 3.976562 1.753906 4.191406 2.140625 4.328125 C 2.523438 4.472656 2.945312 4.546875 3.40625 4.546875 C 4.125 4.546875 4.664062 4.390625 5.03125 4.078125 C 5.40625 3.773438 5.59375 3.332031 5.59375 2.75 C 5.59375 2.5 5.566406 2.253906 5.515625 2.015625 C 5.472656 1.773438 5.414062 1.535156 5.34375 1.296875 L 5.796875 0.828125 L 10.75 1.15625 L 10.75 5.15625 L 9.6875 5.15625 L 9.6875 2.125 L 6.4375 1.90625 C 6.488281 2.113281 6.523438 2.320312 6.546875 2.53125 C 6.578125 2.738281 6.59375 2.941406 6.59375 3.140625 Z M 6.59375 3.140625 "/></g></g></g><g fill="#231f20" fill-opacity="1"><g transform="translate(664.677212, 164.958598)"><g><path d="M 10.90625 2.328125 C 10.90625 2.867188 10.613281 3.289062 10.03125 3.59375 C 9.457031 3.894531 8.628906 4.046875 7.546875 4.046875 C 6.460938 4.046875 5.625 3.894531 5.03125 3.59375 C 4.445312 3.300781 4.15625 2.878906 4.15625 2.328125 C 4.15625 1.773438 4.453125 1.347656 5.046875 1.046875 C 5.640625 0.753906 6.472656 0.609375 7.546875 0.609375 C 8.628906 0.609375 9.457031 0.753906 10.03125 1.046875 C 10.613281 1.335938 10.90625 1.765625 10.90625 2.328125 Z M 10.0625 2.3125 C 10.0625 2.039062 9.851562 1.84375 9.4375 1.71875 C 9.019531 1.601562 8.390625 1.546875 7.546875 1.546875 C 6.703125 1.546875 6.066406 1.601562 5.640625 1.71875 C 5.222656 1.84375 5.015625 2.046875 5.015625 2.328125 C 5.015625 2.597656 5.222656 2.796875 5.640625 2.921875 C 6.054688 3.046875 6.691406 3.109375 7.546875 3.109375 C 8.390625 3.109375 9.019531 3.039062 9.4375 2.90625 C 9.851562 2.769531 10.0625 2.570312 10.0625 2.3125 Z M 10.75 7.234375 L 0 3.5 L 0 2.578125 L 10.75 6.3125 Z M 6.609375 7.53125 C 6.609375 8.070312 6.316406 8.492188 5.734375 8.796875 C 5.160156 9.097656 4.332031 9.25 3.25 9.25 C 2.144531 9.25 1.304688 9.097656 0.734375 8.796875 C 0.160156 8.492188 -0.125 8.070312 -0.125 7.53125 C -0.125 6.976562 0.164062 6.550781 0.75 6.25 C 1.332031 5.957031 2.164062 5.8125 3.25 5.8125 C 4.363281 5.8125 5.203125 5.957031 5.765625 6.25 C 6.328125 6.539062 6.609375 6.96875 6.609375 7.53125 Z M 5.78125 7.515625 C 5.78125 7.242188 5.566406 7.046875 5.140625 6.921875 C 4.722656 6.804688 4.09375 6.75 3.25 6.75 C 2.40625 6.75 1.769531 6.804688 1.34375 6.921875 C 0.925781 7.046875 0.71875 7.25 0.71875 7.53125 C 0.71875 7.800781 0.929688 7.992188 1.359375 8.109375 C 1.796875 8.222656 2.425781 8.28125 3.25 8.28125 C 4.070312 8.28125 4.695312 8.21875 5.125 8.09375 C 5.5625 7.96875 5.78125 7.773438 5.78125 7.515625 Z M 5.78125 7.515625 "/></g></g></g><g fill="#231f20" fill-opacity="1"><g transform="translate(642.060141, 202.824855)"><g><path d="M 6.59375 3.140625 C 6.59375 3.679688 6.457031 4.144531 6.1875 4.53125 C 5.925781 4.925781 5.5625 5.222656 5.09375 5.421875 C 4.625 5.628906 4.078125 5.734375 3.453125 5.734375 C 2.742188 5.734375 2.117188 5.613281 1.578125 5.375 C 1.035156 5.144531 0.613281 4.804688 0.3125 4.359375 C 0.0078125 3.910156 -0.140625 3.351562 -0.140625 2.6875 C -0.140625 2.28125 -0.101562 1.914062 -0.03125 1.59375 C 0.0390625 1.269531 0.148438 0.984375 0.296875 0.734375 L 1.46875 0.734375 C 1.28125 1.003906 1.132812 1.300781 1.03125 1.625 C 0.925781 1.945312 0.875 2.269531 0.875 2.59375 C 0.875 3.039062 0.988281 3.40625 1.21875 3.6875 C 1.445312 3.976562 1.753906 4.191406 2.140625 4.328125 C 2.523438 4.472656 2.945312 4.546875 3.40625 4.546875 C 4.125 4.546875 4.664062 4.390625 5.03125 4.078125 C 5.40625 3.773438 5.59375 3.332031 5.59375 2.75 C 5.59375 2.5 5.566406 2.253906 5.515625 2.015625 C 5.472656 1.773438 5.414062 1.535156 5.34375 1.296875 L 5.796875 0.828125 L 10.75 1.15625 L 10.75 5.15625 L 9.6875 5.15625 L 9.6875 2.125 L 6.4375 1.90625 C 6.488281 2.113281 6.523438 2.320312 6.546875 2.53125 C 6.578125 2.738281 6.59375 2.941406 6.59375 3.140625 Z M 6.59375 3.140625 "/></g></g></g><g fill="#231f20" fill-opacity="1"><g transform="translate(642.060141, 209.231132)"><g><path d="M 10.90625 2.328125 C 10.90625 2.867188 10.613281 3.289062 10.03125 3.59375 C 9.457031 3.894531 8.628906 4.046875 7.546875 4.046875 C 6.460938 4.046875 5.625 3.894531 5.03125 3.59375 C 4.445312 3.300781 4.15625 2.878906 4.15625 2.328125 C 4.15625 1.773438 4.453125 1.347656 5.046875 1.046875 C 5.640625 0.753906 6.472656 0.609375 7.546875 0.609375 C 8.628906 0.609375 9.457031 0.753906 10.03125 1.046875 C 10.613281 1.335938 10.90625 1.765625 10.90625 2.328125 Z M 10.0625 2.3125 C 10.0625 2.039062 9.851562 1.84375 9.4375 1.71875 C 9.019531 1.601562 8.390625 1.546875 7.546875 1.546875 C 6.703125 1.546875 6.066406 1.601562 5.640625 1.71875 C 5.222656 1.84375 5.015625 2.046875 5.015625 2.328125 C 5.015625 2.597656 5.222656 2.796875 5.640625 2.921875 C 6.054688 3.046875 6.691406 3.109375 7.546875 3.109375 C 8.390625 3.109375 9.019531 3.039062 9.4375 2.90625 C 9.851562 2.769531 10.0625 2.570312 10.0625 2.3125 Z M 10.75 7.234375 L 0 3.5 L 0 2.578125 L 10.75 6.3125 Z M 6.609375 7.53125 C 6.609375 8.070312 6.316406 8.492188 5.734375 8.796875 C 5.160156 9.097656 4.332031 9.25 3.25 9.25 C 2.144531 9.25 1.304688 9.097656 0.734375 8.796875 C 0.160156 8.492188 -0.125 8.070312 -0.125 7.53125 C -0.125 6.976562 0.164062 6.550781 0.75 6.25 C 1.332031 5.957031 2.164062 5.8125 3.25 5.8125 C 4.363281 5.8125 5.203125 5.957031 5.765625 6.25 C 6.328125 6.539062 6.609375 6.96875 6.609375 7.53125 Z M 5.78125 7.515625 C 5.78125 7.242188 5.566406 7.046875 5.140625 6.921875 C 4.722656 6.804688 4.09375 6.75 3.25 6.75 C 2.40625 6.75 1.769531 6.804688 1.34375 6.921875 C 0.925781 7.046875 0.71875 7.25 0.71875 7.53125 C 0.71875 7.800781 0.929688 7.992188 1.359375 8.109375 C 1.796875 8.222656 2.425781 8.28125 3.25 8.28125 C 4.070312 8.28125 4.695312 8.21875 5.125 8.09375 C 5.5625 7.96875 5.78125 7.773438 5.78125 7.515625 Z M 5.78125 7.515625 "/></g></g></g><g fill="#231f20" fill-opacity="1"><g transform="translate(669.419035, 254.738914)"><g><path d="M 6.265625 5.671875 C 5.429688 5.671875 4.675781 5.625 4 5.53125 C 3.332031 5.445312 2.738281 5.3125 2.21875 5.125 C 1.707031 4.945312 1.273438 4.71875 0.921875 4.4375 C 0.566406 4.164062 0.300781 3.84375 0.125 3.46875 C -0.0507812 3.09375 -0.140625 2.664062 -0.140625 2.1875 C -0.140625 2.007812 -0.125 1.804688 -0.09375 1.578125 C -0.0625 1.359375 -0.03125 1.175781 0 1.03125 L 1.0625 1.03125 C 1.007812 1.1875 0.960938 1.359375 0.921875 1.546875 C 0.890625 1.734375 0.875 1.941406 0.875 2.171875 C 0.875 2.734375 1.070312 3.179688 1.46875 3.515625 C 1.875 3.859375 2.40625 4.109375 3.0625 4.265625 C 3.71875 4.429688 4.429688 4.523438 5.203125 4.546875 L 5.203125 4.5 C 4.960938 4.394531 4.75 4.257812 4.5625 4.09375 C 4.375 3.9375 4.226562 3.75 4.125 3.53125 C 4.019531 3.3125 3.96875 3.0625 3.96875 2.78125 C 3.96875 2.28125 4.117188 1.863281 4.421875 1.53125 C 4.722656 1.207031 5.128906 0.960938 5.640625 0.796875 C 6.148438 0.640625 6.722656 0.5625 7.359375 0.5625 C 8.035156 0.5625 8.640625 0.65625 9.171875 0.84375 C 9.710938 1.03125 10.132812 1.3125 10.4375 1.6875 C 10.75 2.0625 10.90625 2.535156 10.90625 3.109375 C 10.90625 3.523438 10.800781 3.890625 10.59375 4.203125 C 10.394531 4.523438 10.097656 4.796875 9.703125 5.015625 C 9.304688 5.234375 8.820312 5.394531 8.25 5.5 C 7.675781 5.613281 7.015625 5.671875 6.265625 5.671875 Z M 9.859375 3.109375 C 9.859375 2.648438 9.648438 2.304688 9.234375 2.078125 C 8.828125 1.847656 8.210938 1.734375 7.390625 1.734375 C 6.617188 1.734375 6.023438 1.84375 5.609375 2.0625 C 5.203125 2.28125 5 2.613281 5 3.0625 C 5 3.382812 5.09375 3.648438 5.28125 3.859375 C 5.476562 4.078125 5.734375 4.238281 6.046875 4.34375 C 6.359375 4.445312 6.6875 4.5 7.03125 4.5 C 7.289062 4.5 7.582031 4.476562 7.90625 4.4375 C 8.226562 4.394531 8.535156 4.320312 8.828125 4.21875 C 9.128906 4.125 9.375 3.984375 9.5625 3.796875 C 9.757812 3.617188 9.859375 3.390625 9.859375 3.109375 Z M 9.859375 3.109375 "/></g></g></g><g fill="#231f20" fill-opacity="1"><g transform="translate(669.419035, 261.145191)"><g><path d="M 10.90625 2.328125 C 10.90625 2.867188 10.613281 3.289062 10.03125 3.59375 C 9.457031 3.894531 8.628906 4.046875 7.546875 4.046875 C 6.460938 4.046875 5.625 3.894531 5.03125 3.59375 C 4.445312 3.300781 4.15625 2.878906 4.15625 2.328125 C 4.15625 1.773438 4.453125 1.347656 5.046875 1.046875 C 5.640625 0.753906 6.472656 0.609375 7.546875 0.609375 C 8.628906 0.609375 9.457031 0.753906 10.03125 1.046875 C 10.613281 1.335938 10.90625 1.765625 10.90625 2.328125 Z M 10.0625 2.3125 C 10.0625 2.039062 9.851562 1.84375 9.4375 1.71875 C 9.019531 1.601562 8.390625 1.546875 7.546875 1.546875 C 6.703125 1.546875 6.066406 1.601562 5.640625 1.71875 C 5.222656 1.84375 5.015625 2.046875 5.015625 2.328125 C 5.015625 2.597656 5.222656 2.796875 5.640625 2.921875 C 6.054688 3.046875 6.691406 3.109375 7.546875 3.109375 C 8.390625 3.109375 9.019531 3.039062 9.4375 2.90625 C 9.851562 2.769531 10.0625 2.570312 10.0625 2.3125 Z M 10.75 7.234375 L 0 3.5 L 0 2.578125 L 10.75 6.3125 Z M 6.609375 7.53125 C 6.609375 8.070312 6.316406 8.492188 5.734375 8.796875 C 5.160156 9.097656 4.332031 9.25 3.25 9.25 C 2.144531 9.25 1.304688 9.097656 0.734375 8.796875 C 0.160156 8.492188 -0.125 8.070312 -0.125 7.53125 C -0.125 6.976562 0.164062 6.550781 0.75 6.25 C 1.332031 5.957031 2.164062 5.8125 3.25 5.8125 C 4.363281 5.8125 5.203125 5.957031 5.765625 6.25 C 6.328125 6.539062 6.609375 6.96875 6.609375 7.53125 Z M 5.78125 7.515625 C 5.78125 7.242188 5.566406 7.046875 5.140625 6.921875 C 4.722656 6.804688 4.09375 6.75 3.25 6.75 C 2.40625 6.75 1.769531 6.804688 1.34375 6.921875 C 0.925781 7.046875 0.71875 7.25 0.71875 7.53125 C 0.71875 7.800781 0.929688 7.992188 1.359375 8.109375 C 1.796875 8.222656 2.425781 8.28125 3.25 8.28125 C 4.070312 8.28125 4.695312 8.21875 5.125 8.09375 C 5.5625 7.96875 5.78125 7.773438 5.78125 7.515625 Z M 5.78125 7.515625 "/></g></g></g><g fill="#231f20" fill-opacity="1"><g transform="translate(712.968017, 300.803326)"><g><path d="M 0 4.34375 L 0 3.171875 L 7.390625 3.171875 C 7.597656 3.171875 7.8125 3.171875 8.03125 3.171875 C 8.25 3.179688 8.46875 3.191406 8.6875 3.203125 C 8.914062 3.210938 9.144531 3.222656 9.375 3.234375 C 9.28125 3.171875 9.175781 3.082031 9.0625 2.96875 C 8.945312 2.863281 8.8125 2.734375 8.65625 2.578125 L 7.71875 1.625 L 8.4375 0.953125 L 10.75 3.34375 L 10.75 4.34375 Z M 0 4.34375 "/></g></g></g><g fill="#231f20" fill-opacity="1"><g transform="translate(712.968017, 307.209603)"><g><path d="M 6.59375 3.140625 C 6.59375 3.679688 6.457031 4.144531 6.1875 4.53125 C 5.925781 4.925781 5.5625 5.222656 5.09375 5.421875 C 4.625 5.628906 4.078125 5.734375 3.453125 5.734375 C 2.742188 5.734375 2.117188 5.613281 1.578125 5.375 C 1.035156 5.144531 0.613281 4.804688 0.3125 4.359375 C 0.0078125 3.910156 -0.140625 3.351562 -0.140625 2.6875 C -0.140625 2.28125 -0.101562 1.914062 -0.03125 1.59375 C 0.0390625 1.269531 0.148438 0.984375 0.296875 0.734375 L 1.46875 0.734375 C 1.28125 1.003906 1.132812 1.300781 1.03125 1.625 C 0.925781 1.945312 0.875 2.269531 0.875 2.59375 C 0.875 3.039062 0.988281 3.40625 1.21875 3.6875 C 1.445312 3.976562 1.753906 4.191406 2.140625 4.328125 C 2.523438 4.472656 2.945312 4.546875 3.40625 4.546875 C 4.125 4.546875 4.664062 4.390625 5.03125 4.078125 C 5.40625 3.773438 5.59375 3.332031 5.59375 2.75 C 5.59375 2.5 5.566406 2.253906 5.515625 2.015625 C 5.472656 1.773438 5.414062 1.535156 5.34375 1.296875 L 5.796875 0.828125 L 10.75 1.15625 L 10.75 5.15625 L 9.6875 5.15625 L 9.6875 2.125 L 6.4375 1.90625 C 6.488281 2.113281 6.523438 2.320312 6.546875 2.53125 C 6.578125 2.738281 6.59375 2.941406 6.59375 3.140625 Z M 6.59375 3.140625 "/></g></g></g><g fill="#231f20" fill-opacity="1"><g transform="translate(712.968017, 313.61588)"><g><path d="M 10.90625 2.328125 C 10.90625 2.867188 10.613281 3.289062 10.03125 3.59375 C 9.457031 3.894531 8.628906 4.046875 7.546875 4.046875 C 6.460938 4.046875 5.625 3.894531 5.03125 3.59375 C 4.445312 3.300781 4.15625 2.878906 4.15625 2.328125 C 4.15625 1.773438 4.453125 1.347656 5.046875 1.046875 C 5.640625 0.753906 6.472656 0.609375 7.546875 0.609375 C 8.628906 0.609375 9.457031 0.753906 10.03125 1.046875 C 10.613281 1.335938 10.90625 1.765625 10.90625 2.328125 Z M 10.0625 2.3125 C 10.0625 2.039062 9.851562 1.84375 9.4375 1.71875 C 9.019531 1.601562 8.390625 1.546875 7.546875 1.546875 C 6.703125 1.546875 6.066406 1.601562 5.640625 1.71875 C 5.222656 1.84375 5.015625 2.046875 5.015625 2.328125 C 5.015625 2.597656 5.222656 2.796875 5.640625 2.921875 C 6.054688 3.046875 6.691406 3.109375 7.546875 3.109375 C 8.390625 3.109375 9.019531 3.039062 9.4375 2.90625 C 9.851562 2.769531 10.0625 2.570312 10.0625 2.3125 Z M 10.75 7.234375 L 0 3.5 L 0 2.578125 L 10.75 6.3125 Z M 6.609375 7.53125 C 6.609375 8.070312 6.316406 8.492188 5.734375 8.796875 C 5.160156 9.097656 4.332031 9.25 3.25 9.25 C 2.144531 9.25 1.304688 9.097656 0.734375 8.796875 C 0.160156 8.492188 -0.125 8.070312 -0.125 7.53125 C -0.125 6.976562 0.164062 6.550781 0.75 6.25 C 1.332031 5.957031 2.164062 5.8125 3.25 5.8125 C 4.363281 5.8125 5.203125 5.957031 5.765625 6.25 C 6.328125 6.539062 6.609375 6.96875 6.609375 7.53125 Z M 5.78125 7.515625 C 5.78125 7.242188 5.566406 7.046875 5.140625 6.921875 C 4.722656 6.804688 4.09375 6.75 3.25 6.75 C 2.40625 6.75 1.769531 6.804688 1.34375 6.921875 C 0.925781 7.046875 0.71875 7.25 0.71875 7.53125 C 0.71875 7.800781 0.929688 7.992188 1.359375 8.109375 C 1.796875 8.222656 2.425781 8.28125 3.25 8.28125 C 4.070312 8.28125 4.695312 8.21875 5.125 8.09375 C 5.5625 7.96875 5.78125 7.773438 5.78125 7.515625 Z M 5.78125 7.515625 "/></g></g></g><g fill="#231f20" fill-opacity="1"><g transform="translate(746.461888, 359.982892)"><g><path d="M 0 4.34375 L 0 3.171875 L 7.390625 3.171875 C 7.597656 3.171875 7.8125 3.171875 8.03125 3.171875 C 8.25 3.179688 8.46875 3.191406 8.6875 3.203125 C 8.914062 3.210938 9.144531 3.222656 9.375 3.234375 C 9.28125 3.171875 9.175781 3.082031 9.0625 2.96875 C 8.945312 2.863281 8.8125 2.734375 8.65625 2.578125 L 7.71875 1.625 L 8.4375 0.953125 L 10.75 3.34375 L 10.75 4.34375 Z M 0 4.34375 "/></g></g></g><g fill="#231f20" fill-opacity="1"><g transform="translate(746.461888, 366.389169)"><g><path d="M 6.265625 5.671875 C 5.429688 5.671875 4.675781 5.625 4 5.53125 C 3.332031 5.445312 2.738281 5.3125 2.21875 5.125 C 1.707031 4.945312 1.273438 4.71875 0.921875 4.4375 C 0.566406 4.164062 0.300781 3.84375 0.125 3.46875 C -0.0507812 3.09375 -0.140625 2.664062 -0.140625 2.1875 C -0.140625 2.007812 -0.125 1.804688 -0.09375 1.578125 C -0.0625 1.359375 -0.03125 1.175781 0 1.03125 L 1.0625 1.03125 C 1.007812 1.1875 0.960938 1.359375 0.921875 1.546875 C 0.890625 1.734375 0.875 1.941406 0.875 2.171875 C 0.875 2.734375 1.070312 3.179688 1.46875 3.515625 C 1.875 3.859375 2.40625 4.109375 3.0625 4.265625 C 3.71875 4.429688 4.429688 4.523438 5.203125 4.546875 L 5.203125 4.5 C 4.960938 4.394531 4.75 4.257812 4.5625 4.09375 C 4.375 3.9375 4.226562 3.75 4.125 3.53125 C 4.019531 3.3125 3.96875 3.0625 3.96875 2.78125 C 3.96875 2.28125 4.117188 1.863281 4.421875 1.53125 C 4.722656 1.207031 5.128906 0.960938 5.640625 0.796875 C 6.148438 0.640625 6.722656 0.5625 7.359375 0.5625 C 8.035156 0.5625 8.640625 0.65625 9.171875 0.84375 C 9.710938 1.03125 10.132812 1.3125 10.4375 1.6875 C 10.75 2.0625 10.90625 2.535156 10.90625 3.109375 C 10.90625 3.523438 10.800781 3.890625 10.59375 4.203125 C 10.394531 4.523438 10.097656 4.796875 9.703125 5.015625 C 9.304688 5.234375 8.820312 5.394531 8.25 5.5 C 7.675781 5.613281 7.015625 5.671875 6.265625 5.671875 Z M 9.859375 3.109375 C 9.859375 2.648438 9.648438 2.304688 9.234375 2.078125 C 8.828125 1.847656 8.210938 1.734375 7.390625 1.734375 C 6.617188 1.734375 6.023438 1.84375 5.609375 2.0625 C 5.203125 2.28125 5 2.613281 5 3.0625 C 5 3.382812 5.09375 3.648438 5.28125 3.859375 C 5.476562 4.078125 5.734375 4.238281 6.046875 4.34375 C 6.359375 4.445312 6.6875 4.5 7.03125 4.5 C 7.289062 4.5 7.582031 4.476562 7.90625 4.4375 C 8.226562 4.394531 8.535156 4.320312 8.828125 4.21875 C 9.128906 4.125 9.375 3.984375 9.5625 3.796875 C 9.757812 3.617188 9.859375 3.390625 9.859375 3.109375 Z M 9.859375 3.109375 "/></g></g></g><g fill="#231f20" fill-opacity="1"><g transform="translate(746.461888, 372.795446)"><g><path d="M 10.90625 2.328125 C 10.90625 2.867188 10.613281 3.289062 10.03125 3.59375 C 9.457031 3.894531 8.628906 4.046875 7.546875 4.046875 C 6.460938 4.046875 5.625 3.894531 5.03125 3.59375 C 4.445312 3.300781 4.15625 2.878906 4.15625 2.328125 C 4.15625 1.773438 4.453125 1.347656 5.046875 1.046875 C 5.640625 0.753906 6.472656 0.609375 7.546875 0.609375 C 8.628906 0.609375 9.457031 0.753906 10.03125 1.046875 C 10.613281 1.335938 10.90625 1.765625 10.90625 2.328125 Z M 10.0625 2.3125 C 10.0625 2.039062 9.851562 1.84375 9.4375 1.71875 C 9.019531 1.601562 8.390625 1.546875 7.546875 1.546875 C 6.703125 1.546875 6.066406 1.601562 5.640625 1.71875 C 5.222656 1.84375 5.015625 2.046875 5.015625 2.328125 C 5.015625 2.597656 5.222656 2.796875 5.640625 2.921875 C 6.054688 3.046875 6.691406 3.109375 7.546875 3.109375 C 8.390625 3.109375 9.019531 3.039062 9.4375 2.90625 C 9.851562 2.769531 10.0625 2.570312 10.0625 2.3125 Z M 10.75 7.234375 L 0 3.5 L 0 2.578125 L 10.75 6.3125 Z M 6.609375 7.53125 C 6.609375 8.070312 6.316406 8.492188 5.734375 8.796875 C 5.160156 9.097656 4.332031 9.25 3.25 9.25 C 2.144531 9.25 1.304688 9.097656 0.734375 8.796875 C 0.160156 8.492188 -0.125 8.070312 -0.125 7.53125 C -0.125 6.976562 0.164062 6.550781 0.75 6.25 C 1.332031 5.957031 2.164062 5.8125 3.25 5.8125 C 4.363281 5.8125 5.203125 5.957031 5.765625 6.25 C 6.328125 6.539062 6.609375 6.96875 6.609375 7.53125 Z M 5.78125 7.515625 C 5.78125 7.242188 5.566406 7.046875 5.140625 6.921875 C 4.722656 6.804688 4.09375 6.75 3.25 6.75 C 2.40625 6.75 1.769531 6.804688 1.34375 6.921875 C 0.925781 7.046875 0.71875 7.25 0.71875 7.53125 C 0.71875 7.800781 0.929688 7.992188 1.359375 8.109375 C 1.796875 8.222656 2.425781 8.28125 3.25 8.28125 C 4.070312 8.28125 4.695312 8.21875 5.125 8.09375 C 5.5625 7.96875 5.78125 7.773438 5.78125 7.515625 Z M 5.78125 7.515625 "/></g></g></g><g fill="#231f20" fill-opacity="1"><g transform="translate(746.461888, 413.585159)"><g><path d="M 0 4.34375 L 0 3.171875 L 7.390625 3.171875 C 7.597656 3.171875 7.8125 3.171875 8.03125 3.171875 C 8.25 3.179688 8.46875 3.191406 8.6875 3.203125 C 8.914062 3.210938 9.144531 3.222656 9.375 3.234375 C 9.28125 3.171875 9.175781 3.082031 9.0625 2.96875 C 8.945312 2.863281 8.8125 2.734375 8.65625 2.578125 L 7.71875 1.625 L 8.4375 0.953125 L 10.75 3.34375 L 10.75 4.34375 Z M 0 4.34375 "/></g></g></g><g fill="#231f20" fill-opacity="1"><g transform="translate(746.461888, 419.991436)"><g><path d="M 6.265625 5.671875 C 5.429688 5.671875 4.675781 5.625 4 5.53125 C 3.332031 5.445312 2.738281 5.3125 2.21875 5.125 C 1.707031 4.945312 1.273438 4.71875 0.921875 4.4375 C 0.566406 4.164062 0.300781 3.84375 0.125 3.46875 C -0.0507812 3.09375 -0.140625 2.664062 -0.140625 2.1875 C -0.140625 2.007812 -0.125 1.804688 -0.09375 1.578125 C -0.0625 1.359375 -0.03125 1.175781 0 1.03125 L 1.0625 1.03125 C 1.007812 1.1875 0.960938 1.359375 0.921875 1.546875 C 0.890625 1.734375 0.875 1.941406 0.875 2.171875 C 0.875 2.734375 1.070312 3.179688 1.46875 3.515625 C 1.875 3.859375 2.40625 4.109375 3.0625 4.265625 C 3.71875 4.429688 4.429688 4.523438 5.203125 4.546875 L 5.203125 4.5 C 4.960938 4.394531 4.75 4.257812 4.5625 4.09375 C 4.375 3.9375 4.226562 3.75 4.125 3.53125 C 4.019531 3.3125 3.96875 3.0625 3.96875 2.78125 C 3.96875 2.28125 4.117188 1.863281 4.421875 1.53125 C 4.722656 1.207031 5.128906 0.960938 5.640625 0.796875 C 6.148438 0.640625 6.722656 0.5625 7.359375 0.5625 C 8.035156 0.5625 8.640625 0.65625 9.171875 0.84375 C 9.710938 1.03125 10.132812 1.3125 10.4375 1.6875 C 10.75 2.0625 10.90625 2.535156 10.90625 3.109375 C 10.90625 3.523438 10.800781 3.890625 10.59375 4.203125 C 10.394531 4.523438 10.097656 4.796875 9.703125 5.015625 C 9.304688 5.234375 8.820312 5.394531 8.25 5.5 C 7.675781 5.613281 7.015625 5.671875 6.265625 5.671875 Z M 9.859375 3.109375 C 9.859375 2.648438 9.648438 2.304688 9.234375 2.078125 C 8.828125 1.847656 8.210938 1.734375 7.390625 1.734375 C 6.617188 1.734375 6.023438 1.84375 5.609375 2.0625 C 5.203125 2.28125 5 2.613281 5 3.0625 C 5 3.382812 5.09375 3.648438 5.28125 3.859375 C 5.476562 4.078125 5.734375 4.238281 6.046875 4.34375 C 6.359375 4.445312 6.6875 4.5 7.03125 4.5 C 7.289062 4.5 7.582031 4.476562 7.90625 4.4375 C 8.226562 4.394531 8.535156 4.320312 8.828125 4.21875 C 9.128906 4.125 9.375 3.984375 9.5625 3.796875 C 9.757812 3.617188 9.859375 3.390625 9.859375 3.109375 Z M 9.859375 3.109375 "/></g></g></g><g fill="#231f20" fill-opacity="1"><g transform="translate(746.461888, 426.397713)"><g><path d="M 10.90625 2.328125 C 10.90625 2.867188 10.613281 3.289062 10.03125 3.59375 C 9.457031 3.894531 8.628906 4.046875 7.546875 4.046875 C 6.460938 4.046875 5.625 3.894531 5.03125 3.59375 C 4.445312 3.300781 4.15625 2.878906 4.15625 2.328125 C 4.15625 1.773438 4.453125 1.347656 5.046875 1.046875 C 5.640625 0.753906 6.472656 0.609375 7.546875 0.609375 C 8.628906 0.609375 9.457031 0.753906 10.03125 1.046875 C 10.613281 1.335938 10.90625 1.765625 10.90625 2.328125 Z M 10.0625 2.3125 C 10.0625 2.039062 9.851562 1.84375 9.4375 1.71875 C 9.019531 1.601562 8.390625 1.546875 7.546875 1.546875 C 6.703125 1.546875 6.066406 1.601562 5.640625 1.71875 C 5.222656 1.84375 5.015625 2.046875 5.015625 2.328125 C 5.015625 2.597656 5.222656 2.796875 5.640625 2.921875 C 6.054688 3.046875 6.691406 3.109375 7.546875 3.109375 C 8.390625 3.109375 9.019531 3.039062 9.4375 2.90625 C 9.851562 2.769531 10.0625 2.570312 10.0625 2.3125 Z M 10.75 7.234375 L 0 3.5 L 0 2.578125 L 10.75 6.3125 Z M 6.609375 7.53125 C 6.609375 8.070312 6.316406 8.492188 5.734375 8.796875 C 5.160156 9.097656 4.332031 9.25 3.25 9.25 C 2.144531 9.25 1.304688 9.097656 0.734375 8.796875 C 0.160156 8.492188 -0.125 8.070312 -0.125 7.53125 C -0.125 6.976562 0.164062 6.550781 0.75 6.25 C 1.332031 5.957031 2.164062 5.8125 3.25 5.8125 C 4.363281 5.8125 5.203125 5.957031 5.765625 6.25 C 6.328125 6.539062 6.609375 6.96875 6.609375 7.53125 Z M 5.78125 7.515625 C 5.78125 7.242188 5.566406 7.046875 5.140625 6.921875 C 4.722656 6.804688 4.09375 6.75 3.25 6.75 C 2.40625 6.75 1.769531 6.804688 1.34375 6.921875 C 0.925781 7.046875 0.71875 7.25 0.71875 7.53125 C 0.71875 7.800781 0.929688 7.992188 1.359375 8.109375 C 1.796875 8.222656 2.425781 8.28125 3.25 8.28125 C 4.070312 8.28125 4.695312 8.21875 5.125 8.09375 C 5.5625 7.96875 5.78125 7.773438 5.78125 7.515625 Z M 5.78125 7.515625 "/></g></g></g><g fill="#231f20" fill-opacity="1"><g transform="translate(712.968017, 465.499221)"><g><path d="M 0 4.34375 L 0 3.171875 L 7.390625 3.171875 C 7.597656 3.171875 7.8125 3.171875 8.03125 3.171875 C 8.25 3.179688 8.46875 3.191406 8.6875 3.203125 C 8.914062 3.210938 9.144531 3.222656 9.375 3.234375 C 9.28125 3.171875 9.175781 3.082031 9.0625 2.96875 C 8.945312 2.863281 8.8125 2.734375 8.65625 2.578125 L 7.71875 1.625 L 8.4375 0.953125 L 10.75 3.34375 L 10.75 4.34375 Z M 0 4.34375 "/></g></g></g><g fill="#231f20" fill-opacity="1"><g transform="translate(712.968017, 471.905498)"><g><path d="M 6.59375 3.140625 C 6.59375 3.679688 6.457031 4.144531 6.1875 4.53125 C 5.925781 4.925781 5.5625 5.222656 5.09375 5.421875 C 4.625 5.628906 4.078125 5.734375 3.453125 5.734375 C 2.742188 5.734375 2.117188 5.613281 1.578125 5.375 C 1.035156 5.144531 0.613281 4.804688 0.3125 4.359375 C 0.0078125 3.910156 -0.140625 3.351562 -0.140625 2.6875 C -0.140625 2.28125 -0.101562 1.914062 -0.03125 1.59375 C 0.0390625 1.269531 0.148438 0.984375 0.296875 0.734375 L 1.46875 0.734375 C 1.28125 1.003906 1.132812 1.300781 1.03125 1.625 C 0.925781 1.945312 0.875 2.269531 0.875 2.59375 C 0.875 3.039062 0.988281 3.40625 1.21875 3.6875 C 1.445312 3.976562 1.753906 4.191406 2.140625 4.328125 C 2.523438 4.472656 2.945312 4.546875 3.40625 4.546875 C 4.125 4.546875 4.664062 4.390625 5.03125 4.078125 C 5.40625 3.773438 5.59375 3.332031 5.59375 2.75 C 5.59375 2.5 5.566406 2.253906 5.515625 2.015625 C 5.472656 1.773438 5.414062 1.535156 5.34375 1.296875 L 5.796875 0.828125 L 10.75 1.15625 L 10.75 5.15625 L 9.6875 5.15625 L 9.6875 2.125 L 6.4375 1.90625 C 6.488281 2.113281 6.523438 2.320312 6.546875 2.53125 C 6.578125 2.738281 6.59375 2.941406 6.59375 3.140625 Z M 6.59375 3.140625 "/></g></g></g><g fill="#231f20" fill-opacity="1"><g transform="translate(712.968017, 478.311775)"><g><path d="M 10.90625 2.328125 C 10.90625 2.867188 10.613281 3.289062 10.03125 3.59375 C 9.457031 3.894531 8.628906 4.046875 7.546875 4.046875 C 6.460938 4.046875 5.625 3.894531 5.03125 3.59375 C 4.445312 3.300781 4.15625 2.878906 4.15625 2.328125 C 4.15625 1.773438 4.453125 1.347656 5.046875 1.046875 C 5.640625 0.753906 6.472656 0.609375 7.546875 0.609375 C 8.628906 0.609375 9.457031 0.753906 10.03125 1.046875 C 10.613281 1.335938 10.90625 1.765625 10.90625 2.328125 Z M 10.0625 2.3125 C 10.0625 2.039062 9.851562 1.84375 9.4375 1.71875 C 9.019531 1.601562 8.390625 1.546875 7.546875 1.546875 C 6.703125 1.546875 6.066406 1.601562 5.640625 1.71875 C 5.222656 1.84375 5.015625 2.046875 5.015625 2.328125 C 5.015625 2.597656 5.222656 2.796875 5.640625 2.921875 C 6.054688 3.046875 6.691406 3.109375 7.546875 3.109375 C 8.390625 3.109375 9.019531 3.039062 9.4375 2.90625 C 9.851562 2.769531 10.0625 2.570312 10.0625 2.3125 Z M 10.75 7.234375 L 0 3.5 L 0 2.578125 L 10.75 6.3125 Z M 6.609375 7.53125 C 6.609375 8.070312 6.316406 8.492188 5.734375 8.796875 C 5.160156 9.097656 4.332031 9.25 3.25 9.25 C 2.144531 9.25 1.304688 9.097656 0.734375 8.796875 C 0.160156 8.492188 -0.125 8.070312 -0.125 7.53125 C -0.125 6.976562 0.164062 6.550781 0.75 6.25 C 1.332031 5.957031 2.164062 5.8125 3.25 5.8125 C 4.363281 5.8125 5.203125 5.957031 5.765625 6.25 C 6.328125 6.539062 6.609375 6.96875 6.609375 7.53125 Z M 5.78125 7.515625 C 5.78125 7.242188 5.566406 7.046875 5.140625 6.921875 C 4.722656 6.804688 4.09375 6.75 3.25 6.75 C 2.40625 6.75 1.769531 6.804688 1.34375 6.921875 C 0.925781 7.046875 0.71875 7.25 0.71875 7.53125 C 0.71875 7.800781 0.929688 7.992188 1.359375 8.109375 C 1.796875 8.222656 2.425781 8.28125 3.25 8.28125 C 4.070312 8.28125 4.695312 8.21875 5.125 8.09375 C 5.5625 7.96875 5.78125 7.773438 5.78125 7.515625 Z M 5.78125 7.515625 "/></g></g></g><g fill="#231f20" fill-opacity="1"><g transform="translate(670.263187, 524.393322)"><g><path d="M 6.265625 5.671875 C 5.429688 5.671875 4.675781 5.625 4 5.53125 C 3.332031 5.445312 2.738281 5.3125 2.21875 5.125 C 1.707031 4.945312 1.273438 4.71875 0.921875 4.4375 C 0.566406 4.164062 0.300781 3.84375 0.125 3.46875 C -0.0507812 3.09375 -0.140625 2.664062 -0.140625 2.1875 C -0.140625 2.007812 -0.125 1.804688 -0.09375 1.578125 C -0.0625 1.359375 -0.03125 1.175781 0 1.03125 L 1.0625 1.03125 C 1.007812 1.1875 0.960938 1.359375 0.921875 1.546875 C 0.890625 1.734375 0.875 1.941406 0.875 2.171875 C 0.875 2.734375 1.070312 3.179688 1.46875 3.515625 C 1.875 3.859375 2.40625 4.109375 3.0625 4.265625 C 3.71875 4.429688 4.429688 4.523438 5.203125 4.546875 L 5.203125 4.5 C 4.960938 4.394531 4.75 4.257812 4.5625 4.09375 C 4.375 3.9375 4.226562 3.75 4.125 3.53125 C 4.019531 3.3125 3.96875 3.0625 3.96875 2.78125 C 3.96875 2.28125 4.117188 1.863281 4.421875 1.53125 C 4.722656 1.207031 5.128906 0.960938 5.640625 0.796875 C 6.148438 0.640625 6.722656 0.5625 7.359375 0.5625 C 8.035156 0.5625 8.640625 0.65625 9.171875 0.84375 C 9.710938 1.03125 10.132812 1.3125 10.4375 1.6875 C 10.75 2.0625 10.90625 2.535156 10.90625 3.109375 C 10.90625 3.523438 10.800781 3.890625 10.59375 4.203125 C 10.394531 4.523438 10.097656 4.796875 9.703125 5.015625 C 9.304688 5.234375 8.820312 5.394531 8.25 5.5 C 7.675781 5.613281 7.015625 5.671875 6.265625 5.671875 Z M 9.859375 3.109375 C 9.859375 2.648438 9.648438 2.304688 9.234375 2.078125 C 8.828125 1.847656 8.210938 1.734375 7.390625 1.734375 C 6.617188 1.734375 6.023438 1.84375 5.609375 2.0625 C 5.203125 2.28125 5 2.613281 5 3.0625 C 5 3.382812 5.09375 3.648438 5.28125 3.859375 C 5.476562 4.078125 5.734375 4.238281 6.046875 4.34375 C 6.359375 4.445312 6.6875 4.5 7.03125 4.5 C 7.289062 4.5 7.582031 4.476562 7.90625 4.4375 C 8.226562 4.394531 8.535156 4.320312 8.828125 4.21875 C 9.128906 4.125 9.375 3.984375 9.5625 3.796875 C 9.757812 3.617188 9.859375 3.390625 9.859375 3.109375 Z M 9.859375 3.109375 "/></g></g></g><g fill="#231f20" fill-opacity="1"><g transform="translate(670.263187, 530.799599)"><g><path d="M 10.90625 2.328125 C 10.90625 2.867188 10.613281 3.289062 10.03125 3.59375 C 9.457031 3.894531 8.628906 4.046875 7.546875 4.046875 C 6.460938 4.046875 5.625 3.894531 5.03125 3.59375 C 4.445312 3.300781 4.15625 2.878906 4.15625 2.328125 C 4.15625 1.773438 4.453125 1.347656 5.046875 1.046875 C 5.640625 0.753906 6.472656 0.609375 7.546875 0.609375 C 8.628906 0.609375 9.457031 0.753906 10.03125 1.046875 C 10.613281 1.335938 10.90625 1.765625 10.90625 2.328125 Z M 10.0625 2.3125 C 10.0625 2.039062 9.851562 1.84375 9.4375 1.71875 C 9.019531 1.601562 8.390625 1.546875 7.546875 1.546875 C 6.703125 1.546875 6.066406 1.601562 5.640625 1.71875 C 5.222656 1.84375 5.015625 2.046875 5.015625 2.328125 C 5.015625 2.597656 5.222656 2.796875 5.640625 2.921875 C 6.054688 3.046875 6.691406 3.109375 7.546875 3.109375 C 8.390625 3.109375 9.019531 3.039062 9.4375 2.90625 C 9.851562 2.769531 10.0625 2.570312 10.0625 2.3125 Z M 10.75 7.234375 L 0 3.5 L 0 2.578125 L 10.75 6.3125 Z M 6.609375 7.53125 C 6.609375 8.070312 6.316406 8.492188 5.734375 8.796875 C 5.160156 9.097656 4.332031 9.25 3.25 9.25 C 2.144531 9.25 1.304688 9.097656 0.734375 8.796875 C 0.160156 8.492188 -0.125 8.070312 -0.125 7.53125 C -0.125 6.976562 0.164062 6.550781 0.75 6.25 C 1.332031 5.957031 2.164062 5.8125 3.25 5.8125 C 4.363281 5.8125 5.203125 5.957031 5.765625 6.25 C 6.328125 6.539062 6.609375 6.96875 6.609375 7.53125 Z M 5.78125 7.515625 C 5.78125 7.242188 5.566406 7.046875 5.140625 6.921875 C 4.722656 6.804688 4.09375 6.75 3.25 6.75 C 2.40625 6.75 1.769531 6.804688 1.34375 6.921875 C 0.925781 7.046875 0.71875 7.25 0.71875 7.53125 C 0.71875 7.800781 0.929688 7.992188 1.359375 8.109375 C 1.796875 8.222656 2.425781 8.28125 3.25 8.28125 C 4.070312 8.28125 4.695312 8.21875 5.125 8.09375 C 5.5625 7.96875 5.78125 7.773438 5.78125 7.515625 Z M 5.78125 7.515625 "/></g></g></g><g fill="#231f20" fill-opacity="1"><g transform="translate(641.231085, 576.307263)"><g><path d="M 6.59375 3.140625 C 6.59375 3.679688 6.457031 4.144531 6.1875 4.53125 C 5.925781 4.925781 5.5625 5.222656 5.09375 5.421875 C 4.625 5.628906 4.078125 5.734375 3.453125 5.734375 C 2.742188 5.734375 2.117188 5.613281 1.578125 5.375 C 1.035156 5.144531 0.613281 4.804688 0.3125 4.359375 C 0.0078125 3.910156 -0.140625 3.351562 -0.140625 2.6875 C -0.140625 2.28125 -0.101562 1.914062 -0.03125 1.59375 C 0.0390625 1.269531 0.148438 0.984375 0.296875 0.734375 L 1.46875 0.734375 C 1.28125 1.003906 1.132812 1.300781 1.03125 1.625 C 0.925781 1.945312 0.875 2.269531 0.875 2.59375 C 0.875 3.039062 0.988281 3.40625 1.21875 3.6875 C 1.445312 3.976562 1.753906 4.191406 2.140625 4.328125 C 2.523438 4.472656 2.945312 4.546875 3.40625 4.546875 C 4.125 4.546875 4.664062 4.390625 5.03125 4.078125 C 5.40625 3.773438 5.59375 3.332031 5.59375 2.75 C 5.59375 2.5 5.566406 2.253906 5.515625 2.015625 C 5.472656 1.773438 5.414062 1.535156 5.34375 1.296875 L 5.796875 0.828125 L 10.75 1.15625 L 10.75 5.15625 L 9.6875 5.15625 L 9.6875 2.125 L 6.4375 1.90625 C 6.488281 2.113281 6.523438 2.320312 6.546875 2.53125 C 6.578125 2.738281 6.59375 2.941406 6.59375 3.140625 Z M 6.59375 3.140625 "/></g></g></g><g fill="#231f20" fill-opacity="1"><g transform="translate(641.231085, 582.71354)"><g><path d="M 10.90625 2.328125 C 10.90625 2.867188 10.613281 3.289062 10.03125 3.59375 C 9.457031 3.894531 8.628906 4.046875 7.546875 4.046875 C 6.460938 4.046875 5.625 3.894531 5.03125 3.59375 C 4.445312 3.300781 4.15625 2.878906 4.15625 2.328125 C 4.15625 1.773438 4.453125 1.347656 5.046875 1.046875 C 5.640625 0.753906 6.472656 0.609375 7.546875 0.609375 C 8.628906 0.609375 9.457031 0.753906 10.03125 1.046875 C 10.613281 1.335938 10.90625 1.765625 10.90625 2.328125 Z M 10.0625 2.3125 C 10.0625 2.039062 9.851562 1.84375 9.4375 1.71875 C 9.019531 1.601562 8.390625 1.546875 7.546875 1.546875 C 6.703125 1.546875 6.066406 1.601562 5.640625 1.71875 C 5.222656 1.84375 5.015625 2.046875 5.015625 2.328125 C 5.015625 2.597656 5.222656 2.796875 5.640625 2.921875 C 6.054688 3.046875 6.691406 3.109375 7.546875 3.109375 C 8.390625 3.109375 9.019531 3.039062 9.4375 2.90625 C 9.851562 2.769531 10.0625 2.570312 10.0625 2.3125 Z M 10.75 7.234375 L 0 3.5 L 0 2.578125 L 10.75 6.3125 Z M 6.609375 7.53125 C 6.609375 8.070312 6.316406 8.492188 5.734375 8.796875 C 5.160156 9.097656 4.332031 9.25 3.25 9.25 C 2.144531 9.25 1.304688 9.097656 0.734375 8.796875 C 0.160156 8.492188 -0.125 8.070312 -0.125 7.53125 C -0.125 6.976562 0.164062 6.550781 0.75 6.25 C 1.332031 5.957031 2.164062 5.8125 3.25 5.8125 C 4.363281 5.8125 5.203125 5.957031 5.765625 6.25 C 6.328125 6.539062 6.609375 6.96875 6.609375 7.53125 Z M 5.78125 7.515625 C 5.78125 7.242188 5.566406 7.046875 5.140625 6.921875 C 4.722656 6.804688 4.09375 6.75 3.25 6.75 C 2.40625 6.75 1.769531 6.804688 1.34375 6.921875 C 0.925781 7.046875 0.71875 7.25 0.71875 7.53125 C 0.71875 7.800781 0.929688 7.992188 1.359375 8.109375 C 1.796875 8.222656 2.425781 8.28125 3.25 8.28125 C 4.070312 8.28125 4.695312 8.21875 5.125 8.09375 C 5.5625 7.96875 5.78125 7.773438 5.78125 7.515625 Z M 5.78125 7.515625 "/></g></g></g><g fill="#231f20" fill-opacity="1"><g transform="translate(664.672172, 624.470269)"><g><path d="M 0 4.34375 L 0 3.171875 L 7.390625 3.171875 C 7.597656 3.171875 7.8125 3.171875 8.03125 3.171875 C 8.25 3.179688 8.46875 3.191406 8.6875 3.203125 C 8.914062 3.210938 9.144531 3.222656 9.375 3.234375 C 9.28125 3.171875 9.175781 3.082031 9.0625 2.96875 C 8.945312 2.863281 8.8125 2.734375 8.65625 2.578125 L 7.71875 1.625 L 8.4375 0.953125 L 10.75 3.34375 L 10.75 4.34375 Z M 0 4.34375 "/></g></g></g><g fill="#231f20" fill-opacity="1"><g transform="translate(664.672172, 630.876546)"><g><path d="M 0.78125 0.890625 C 1.082031 0.890625 1.3125 0.953125 1.46875 1.078125 C 1.625 1.210938 1.703125 1.40625 1.703125 1.65625 C 1.703125 1.894531 1.628906 2.082031 1.484375 2.21875 C 1.335938 2.363281 1.101562 2.4375 0.78125 2.4375 C 0.46875 2.4375 0.238281 2.363281 0.09375 2.21875 C -0.0507812 2.082031 -0.125 1.894531 -0.125 1.65625 C -0.125 1.414062 -0.046875 1.226562 0.109375 1.09375 C 0.265625 0.957031 0.488281 0.890625 0.78125 0.890625 Z M 0.78125 0.890625 "/></g></g></g><g fill="#231f20" fill-opacity="1"><g transform="translate(664.672172, 634.208398)"><g><path d="M 6.59375 3.140625 C 6.59375 3.679688 6.457031 4.144531 6.1875 4.53125 C 5.925781 4.925781 5.5625 5.222656 5.09375 5.421875 C 4.625 5.628906 4.078125 5.734375 3.453125 5.734375 C 2.742188 5.734375 2.117188 5.613281 1.578125 5.375 C 1.035156 5.144531 0.613281 4.804688 0.3125 4.359375 C 0.0078125 3.910156 -0.140625 3.351562 -0.140625 2.6875 C -0.140625 2.28125 -0.101562 1.914062 -0.03125 1.59375 C 0.0390625 1.269531 0.148438 0.984375 0.296875 0.734375 L 1.46875 0.734375 C 1.28125 1.003906 1.132812 1.300781 1.03125 1.625 C 0.925781 1.945312 0.875 2.269531 0.875 2.59375 C 0.875 3.039062 0.988281 3.40625 1.21875 3.6875 C 1.445312 3.976562 1.753906 4.191406 2.140625 4.328125 C 2.523438 4.472656 2.945312 4.546875 3.40625 4.546875 C 4.125 4.546875 4.664062 4.390625 5.03125 4.078125 C 5.40625 3.773438 5.59375 3.332031 5.59375 2.75 C 5.59375 2.5 5.566406 2.253906 5.515625 2.015625 C 5.472656 1.773438 5.414062 1.535156 5.34375 1.296875 L 5.796875 0.828125 L 10.75 1.15625 L 10.75 5.15625 L 9.6875 5.15625 L 9.6875 2.125 L 6.4375 1.90625 C 6.488281 2.113281 6.523438 2.320312 6.546875 2.53125 C 6.578125 2.738281 6.59375 2.941406 6.59375 3.140625 Z M 6.59375 3.140625 "/></g></g></g><g fill="#231f20" fill-opacity="1"><g transform="translate(664.672172, 640.614675)"><g><path d="M 10.90625 2.328125 C 10.90625 2.867188 10.613281 3.289062 10.03125 3.59375 C 9.457031 3.894531 8.628906 4.046875 7.546875 4.046875 C 6.460938 4.046875 5.625 3.894531 5.03125 3.59375 C 4.445312 3.300781 4.15625 2.878906 4.15625 2.328125 C 4.15625 1.773438 4.453125 1.347656 5.046875 1.046875 C 5.640625 0.753906 6.472656 0.609375 7.546875 0.609375 C 8.628906 0.609375 9.457031 0.753906 10.03125 1.046875 C 10.613281 1.335938 10.90625 1.765625 10.90625 2.328125 Z M 10.0625 2.3125 C 10.0625 2.039062 9.851562 1.84375 9.4375 1.71875 C 9.019531 1.601562 8.390625 1.546875 7.546875 1.546875 C 6.703125 1.546875 6.066406 1.601562 5.640625 1.71875 C 5.222656 1.84375 5.015625 2.046875 5.015625 2.328125 C 5.015625 2.597656 5.222656 2.796875 5.640625 2.921875 C 6.054688 3.046875 6.691406 3.109375 7.546875 3.109375 C 8.390625 3.109375 9.019531 3.039062 9.4375 2.90625 C 9.851562 2.769531 10.0625 2.570312 10.0625 2.3125 Z M 10.75 7.234375 L 0 3.5 L 0 2.578125 L 10.75 6.3125 Z M 6.609375 7.53125 C 6.609375 8.070312 6.316406 8.492188 5.734375 8.796875 C 5.160156 9.097656 4.332031 9.25 3.25 9.25 C 2.144531 9.25 1.304688 9.097656 0.734375 8.796875 C 0.160156 8.492188 -0.125 8.070312 -0.125 7.53125 C -0.125 6.976562 0.164062 6.550781 0.75 6.25 C 1.332031 5.957031 2.164062 5.8125 3.25 5.8125 C 4.363281 5.8125 5.203125 5.957031 5.765625 6.25 C 6.328125 6.539062 6.609375 6.96875 6.609375 7.53125 Z M 5.78125 7.515625 C 5.78125 7.242188 5.566406 7.046875 5.140625 6.921875 C 4.722656 6.804688 4.09375 6.75 3.25 6.75 C 2.40625 6.75 1.769531 6.804688 1.34375 6.921875 C 0.925781 7.046875 0.71875 7.25 0.71875 7.53125 C 0.71875 7.800781 0.929688 7.992188 1.359375 8.109375 C 1.796875 8.222656 2.425781 8.28125 3.25 8.28125 C 4.070312 8.28125 4.695312 8.21875 5.125 8.09375 C 5.5625 7.96875 5.78125 7.773438 5.78125 7.515625 Z M 5.78125 7.515625 "/></g></g></g><g fill="#231f20" fill-opacity="1"><g transform="translate(649.181396, 701.372793)"><g><path d="M 5.375 5.765625 C 4.507812 5.765625 3.734375 5.71875 3.046875 5.625 C 2.367188 5.53125 1.789062 5.378906 1.3125 5.171875 C 0.84375 4.960938 0.484375 4.695312 0.234375 4.375 C -0.015625 4.050781 -0.140625 3.660156 -0.140625 3.203125 C -0.140625 2.660156 0.0234375 2.195312 0.359375 1.8125 C 0.703125 1.425781 1.269531 1.128906 2.0625 0.921875 C 2.863281 0.722656 3.96875 0.625 5.375 0.625 C 6.601562 0.625 7.625 0.71875 8.4375 0.90625 C 9.257812 1.09375 9.875 1.375 10.28125 1.75 C 10.695312 2.132812 10.90625 2.617188 10.90625 3.203125 C 10.90625 3.785156 10.695312 4.265625 10.28125 4.640625 C 9.875 5.023438 9.257812 5.304688 8.4375 5.484375 C 7.613281 5.671875 6.59375 5.765625 5.375 5.765625 Z M 5.375 1.8125 C 4.382812 1.8125 3.5625 1.859375 2.90625 1.953125 C 2.25 2.046875 1.753906 2.191406 1.421875 2.390625 C 1.085938 2.597656 0.921875 2.867188 0.921875 3.203125 C 0.921875 3.523438 1.085938 3.789062 1.421875 4 C 1.753906 4.207031 2.25 4.359375 2.90625 4.453125 C 3.570312 4.546875 4.394531 4.59375 5.375 4.59375 C 6.351562 4.59375 7.171875 4.539062 7.828125 4.4375 C 8.492188 4.34375 8.992188 4.191406 9.328125 3.984375 C 9.671875 3.785156 9.84375 3.523438 9.84375 3.203125 C 9.84375 2.867188 9.675781 2.597656 9.34375 2.390625 C 9.007812 2.191406 8.507812 2.046875 7.84375 1.953125 C 7.1875 1.859375 6.363281 1.8125 5.375 1.8125 Z M 5.375 1.8125 "/></g></g></g><g fill="#231f20" fill-opacity="1"><g transform="translate(649.181396, 707.77907)"><g><path d="M 0.78125 0.890625 C 1.082031 0.890625 1.3125 0.953125 1.46875 1.078125 C 1.625 1.210938 1.703125 1.40625 1.703125 1.65625 C 1.703125 1.894531 1.628906 2.082031 1.484375 2.21875 C 1.335938 2.363281 1.101562 2.4375 0.78125 2.4375 C 0.46875 2.4375 0.238281 2.363281 0.09375 2.21875 C -0.0507812 2.082031 -0.125 1.894531 -0.125 1.65625 C -0.125 1.414062 -0.046875 1.226562 0.109375 1.09375 C 0.265625 0.957031 0.488281 0.890625 0.78125 0.890625 Z M 0.78125 0.890625 "/></g></g></g><g fill="#231f20" fill-opacity="1"><g transform="translate(649.181396, 711.110922)"><g><path d="M 6.59375 3.140625 C 6.59375 3.679688 6.457031 4.144531 6.1875 4.53125 C 5.925781 4.925781 5.5625 5.222656 5.09375 5.421875 C 4.625 5.628906 4.078125 5.734375 3.453125 5.734375 C 2.742188 5.734375 2.117188 5.613281 1.578125 5.375 C 1.035156 5.144531 0.613281 4.804688 0.3125 4.359375 C 0.0078125 3.910156 -0.140625 3.351562 -0.140625 2.6875 C -0.140625 2.28125 -0.101562 1.914062 -0.03125 1.59375 C 0.0390625 1.269531 0.148438 0.984375 0.296875 0.734375 L 1.46875 0.734375 C 1.28125 1.003906 1.132812 1.300781 1.03125 1.625 C 0.925781 1.945312 0.875 2.269531 0.875 2.59375 C 0.875 3.039062 0.988281 3.40625 1.21875 3.6875 C 1.445312 3.976562 1.753906 4.191406 2.140625 4.328125 C 2.523438 4.472656 2.945312 4.546875 3.40625 4.546875 C 4.125 4.546875 4.664062 4.390625 5.03125 4.078125 C 5.40625 3.773438 5.59375 3.332031 5.59375 2.75 C 5.59375 2.5 5.566406 2.253906 5.515625 2.015625 C 5.472656 1.773438 5.414062 1.535156 5.34375 1.296875 L 5.796875 0.828125 L 10.75 1.15625 L 10.75 5.15625 L 9.6875 5.15625 L 9.6875 2.125 L 6.4375 1.90625 C 6.488281 2.113281 6.523438 2.320312 6.546875 2.53125 C 6.578125 2.738281 6.59375 2.941406 6.59375 3.140625 Z M 6.59375 3.140625 "/></g></g></g><g fill="#231f20" fill-opacity="1"><g transform="translate(649.181396, 717.517199)"><g><path d="M 10.90625 2.328125 C 10.90625 2.867188 10.613281 3.289062 10.03125 3.59375 C 9.457031 3.894531 8.628906 4.046875 7.546875 4.046875 C 6.460938 4.046875 5.625 3.894531 5.03125 3.59375 C 4.445312 3.300781 4.15625 2.878906 4.15625 2.328125 C 4.15625 1.773438 4.453125 1.347656 5.046875 1.046875 C 5.640625 0.753906 6.472656 0.609375 7.546875 0.609375 C 8.628906 0.609375 9.457031 0.753906 10.03125 1.046875 C 10.613281 1.335938 10.90625 1.765625 10.90625 2.328125 Z M 10.0625 2.3125 C 10.0625 2.039062 9.851562 1.84375 9.4375 1.71875 C 9.019531 1.601562 8.390625 1.546875 7.546875 1.546875 C 6.703125 1.546875 6.066406 1.601562 5.640625 1.71875 C 5.222656 1.84375 5.015625 2.046875 5.015625 2.328125 C 5.015625 2.597656 5.222656 2.796875 5.640625 2.921875 C 6.054688 3.046875 6.691406 3.109375 7.546875 3.109375 C 8.390625 3.109375 9.019531 3.039062 9.4375 2.90625 C 9.851562 2.769531 10.0625 2.570312 10.0625 2.3125 Z M 10.75 7.234375 L 0 3.5 L 0 2.578125 L 10.75 6.3125 Z M 6.609375 7.53125 C 6.609375 8.070312 6.316406 8.492188 5.734375 8.796875 C 5.160156 9.097656 4.332031 9.25 3.25 9.25 C 2.144531 9.25 1.304688 9.097656 0.734375 8.796875 C 0.160156 8.492188 -0.125 8.070312 -0.125 7.53125 C -0.125 6.976562 0.164062 6.550781 0.75 6.25 C 1.332031 5.957031 2.164062 5.8125 3.25 5.8125 C 4.363281 5.8125 5.203125 5.957031 5.765625 6.25 C 6.328125 6.539062 6.609375 6.96875 6.609375 7.53125 Z M 5.78125 7.515625 C 5.78125 7.242188 5.566406 7.046875 5.140625 6.921875 C 4.722656 6.804688 4.09375 6.75 3.25 6.75 C 2.40625 6.75 1.769531 6.804688 1.34375 6.921875 C 0.925781 7.046875 0.71875 7.25 0.71875 7.53125 C 0.71875 7.800781 0.929688 7.992188 1.359375 8.109375 C 1.796875 8.222656 2.425781 8.28125 3.25 8.28125 C 4.070312 8.28125 4.695312 8.21875 5.125 8.09375 C 5.5625 7.96875 5.78125 7.773438 5.78125 7.515625 Z M 5.78125 7.515625 "/></g></g></g><g fill="#231f20" fill-opacity="1"><g transform="translate(619.209762, 767.800181)"><g><path d="M 4.625 2.359375 L 8.984375 0.375 L 8.984375 1.71875 L 5.65625 3.09375 L 8.984375 4.5 L 8.984375 5.828125 L 4.5625 3.828125 L 0 5.90625 L 0 4.578125 L 3.546875 3.0625 L 0 1.5625 L 0 0.25 Z M 4.625 2.359375 "/></g></g></g></svg>