<svg xmlns="http://www.w3.org/2000/svg" xmlns:xlink="http://www.w3.org/1999/xlink" width="794" zoomAndPan="magnify" viewBox="0 0 1440 809.999993" height="1123" preserveAspectRatio="xMidYMid meet" version="1.0"><defs><g/><clipPath id="0f1a7b62e0"><path d="M 702.230469 102.683594 L 703.460938 102.683594 L 703.460938 740.4375 L 702.230469 740.4375 Z M 702.230469 102.683594 " clip-rule="nonzero"/></clipPath><clipPath id="b5dfc7dc07"><path d="M 699 91 L 706.488281 91 L 706.488281 106 L 699 106 Z M 699 91 " clip-rule="nonzero"/></clipPath><clipPath id="ef47f913bb"><path d="M 706.285156 105.117188 L 702.699219 91.796875 L 699.132812 105.117188 Z M 706.285156 105.117188 " clip-rule="nonzero"/></clipPath><clipPath id="ade296237e"><path d="M 482.527344 652.226562 L 912.300781 652.226562 L 912.300781 653.453125 L 482.527344 653.453125 Z M 482.527344 652.226562 " clip-rule="nonzero"/></clipPath><clipPath id="4f981a8332"><path d="M 909 649 L 924 649 L 924 657 L 909 657 Z M 909 649 " clip-rule="nonzero"/></clipPath><clipPath id="556b512fd5"><path d="M 909.867188 656.257812 L 923.1875 652.691406 L 909.867188 649.128906 Z M 909.867188 656.257812 " clip-rule="nonzero"/></clipPath><clipPath id="a2382a0b15"><path d="M 699.21875 608.339844 L 706.488281 608.339844 L 706.488281 616 L 699.21875 616 Z M 699.21875 608.339844 " clip-rule="nonzero"/></clipPath><clipPath id="84ff1b97f0"><path d="M 706.335938 612.308594 C 706.335938 614.226562 704.785156 615.800781 702.84375 615.800781 C 700.902344 615.800781 699.355469 614.253906 699.355469 612.308594 C 699.355469 610.367188 700.902344 608.820312 702.84375 608.820312 C 704.785156 608.820312 706.335938 610.367188 706.335938 612.308594 " clip-rule="nonzero"/></clipPath><clipPath id="714060029c"><path d="M 699.21875 208 L 706.488281 208 L 706.488281 215.804688 L 699.21875 215.804688 Z M 699.21875 208 " clip-rule="nonzero"/></clipPath><clipPath id="82ce721825"><path d="M 706.335938 211.910156 C 706.335938 213.824219 704.785156 215.398438 702.84375 215.398438 C 700.902344 215.398438 699.355469 213.824219 699.355469 211.910156 C 699.355469 209.992188 700.902344 208.417969 702.84375 208.417969 C 704.785156 208.417969 706.335938 209.992188 706.335938 211.910156 " clip-rule="nonzero"/></clipPath><clipPath id="4b24b3d7ba"><path d="M 778 368.457031 L 786 368.457031 L 786 375.726562 L 778 375.726562 Z M 778 368.457031 " clip-rule="nonzero"/></clipPath><clipPath id="42ad63d9c2"><path d="M 785.820312 372.085938 C 785.820312 374 784.273438 375.574219 782.332031 375.574219 C 780.390625 375.574219 778.839844 374 778.839844 372.085938 C 778.839844 370.167969 780.390625 368.59375 782.332031 368.59375 C 784.273438 368.59375 785.820312 370.167969 785.820312 372.085938 " clip-rule="nonzero"/></clipPath><clipPath id="4b5627f68d"><path d="M 819.160156 649 L 826.429688 649 L 826.429688 657 L 819.160156 657 Z M 819.160156 649 " clip-rule="nonzero"/></clipPath><clipPath id="145e8ea847"><path d="M 826.351562 652.839844 C 826.351562 654.757812 824.800781 656.328125 822.859375 656.328125 C 820.917969 656.328125 819.371094 654.757812 819.371094 652.839844 C 819.371094 650.921875 820.941406 649.351562 822.859375 649.351562 C 824.777344 649.351562 826.351562 650.921875 826.351562 652.839844 " clip-rule="nonzero"/></clipPath><clipPath id="87903b5c9d"><path d="M 579 568 L 586.546875 568 L 586.546875 575.628906 L 579 575.628906 Z M 579 568 " clip-rule="nonzero"/></clipPath><clipPath id="2729f5aa2e"><path d="M 586.097656 571.804688 C 586.097656 573.722656 584.527344 575.296875 582.609375 575.296875 C 580.691406 575.296875 579.121094 573.722656 579.121094 571.804688 C 579.121094 569.886719 580.667969 568.316406 582.609375 568.316406 C 584.550781 568.316406 586.097656 569.886719 586.097656 571.804688 " clip-rule="nonzero"/></clipPath><clipPath id="4f3cfa8d62"><path d="M 582 571 L 824 571 L 824 653.773438 L 582 653.773438 Z M 582 571 " clip-rule="nonzero"/></clipPath><clipPath id="f0ae8db6d3"><path d="M 582.804688 571.214844 L 823.054688 652.25 L 822.664062 653.40625 L 582.414062 572.371094 Z M 582.804688 571.214844 " clip-rule="nonzero"/></clipPath><clipPath id="783647a390"><path d="M 781 371 L 824 371 L 824 653 L 781 653 Z M 781 371 " clip-rule="nonzero"/></clipPath><clipPath id="471c7d59f0"><path d="M 822.246094 652.914062 L 781.742188 372.15625 L 782.945312 371.984375 L 823.449219 652.742188 Z M 822.246094 652.914062 " clip-rule="nonzero"/></clipPath><clipPath id="3db5da6acb"><path d="M 582 371 L 782.8125 371 L 782.8125 573 L 582 573 Z M 582 371 " clip-rule="nonzero"/></clipPath><clipPath id="320a1697ab"><path d="M 782.773438 372.503906 L 583.050781 572.25 L 582.191406 571.386719 L 781.914062 371.640625 Z M 782.773438 372.503906 " clip-rule="nonzero"/></clipPath><clipPath id="e037b26086"><path d="M 702 371 L 783 371 L 783 613 L 702 613 Z M 702 371 " clip-rule="nonzero"/></clipPath><clipPath id="bbf01eef72"><path d="M 782.921875 372.257812 L 703.433594 612.507812 L 702.28125 612.113281 L 781.765625 371.863281 Z M 782.921875 372.257812 " clip-rule="nonzero"/></clipPath><clipPath id="1aa31fe25d"><path d="M 727 132.207031 L 729 132.207031 L 729 135.84375 L 727 135.84375 Z M 727 132.207031 " clip-rule="nonzero"/></clipPath><clipPath id="34cf1c9178"><path d="M 728.996094 133.359375 L 728.210938 135.691406 L 727.054688 135.300781 L 727.839844 132.964844 Z M 728.996094 133.359375 " clip-rule="nonzero"/></clipPath><clipPath id="65232ea918"><path d="M 547 139.476562 L 727 139.476562 L 727 678 L 547 678 Z M 547 139.476562 " clip-rule="nonzero"/></clipPath><clipPath id="7285182779"><path d="M 723.566406 149.703125 L 722.015625 154.371094 L 720.859375 153.976562 L 722.410156 149.308594 Z M 720.46875 159.042969 L 718.917969 163.710938 L 717.765625 163.316406 L 719.3125 158.648438 Z M 717.371094 168.382812 L 715.824219 173.050781 L 714.667969 172.65625 L 716.214844 167.988281 Z M 714.273438 177.722656 L 712.726562 182.390625 L 711.570312 181.996094 L 713.117188 177.328125 Z M 711.175781 187.0625 L 709.628906 191.730469 L 708.472656 191.335938 L 710.023438 186.667969 Z M 708.082031 196.398438 L 706.53125 201.070312 L 705.375 200.675781 L 706.925781 196.007812 Z M 704.984375 205.738281 L 703.433594 210.410156 L 702.28125 210.015625 L 703.828125 205.347656 Z M 701.886719 215.078125 L 700.339844 219.75 L 699.183594 219.355469 L 700.730469 214.6875 Z M 698.789062 224.417969 L 697.242188 229.089844 L 696.085938 228.695312 L 697.632812 224.027344 Z M 695.691406 233.757812 L 694.144531 238.429688 L 692.988281 238.035156 L 694.539062 233.367188 Z M 692.597656 243.097656 L 691.046875 247.769531 L 689.894531 247.375 L 691.441406 242.707031 Z M 689.5 252.4375 L 687.949219 257.109375 L 686.796875 256.714844 L 688.34375 252.046875 Z M 686.402344 261.777344 L 684.855469 266.449219 L 683.699219 266.054688 L 685.246094 261.382812 Z M 683.304688 271.117188 L 681.609375 275.8125 L 680.453125 275.417969 L 682.003906 270.75 Z M 680.207031 280.457031 L 678.660156 285.128906 L 677.503906 284.734375 L 679.054688 280.0625 Z M 677.113281 289.796875 L 675.5625 294.464844 L 674.410156 294.074219 L 675.957031 289.402344 Z M 674.015625 299.136719 L 672.464844 303.804688 L 671.3125 303.414062 L 672.859375 298.742188 Z M 670.917969 308.476562 L 669.371094 313.144531 L 668.214844 312.753906 L 669.761719 308.082031 Z M 667.820312 317.816406 L 666.273438 322.484375 L 665.117188 322.09375 L 666.667969 317.421875 Z M 664.726562 327.15625 L 663.175781 331.824219 L 662.019531 331.433594 L 663.570312 326.761719 Z M 661.628906 336.496094 L 660.078125 341.164062 L 658.925781 340.773438 L 660.472656 336.101562 Z M 658.53125 345.835938 L 656.984375 350.503906 L 655.828125 350.113281 L 657.375 345.441406 Z M 655.433594 355.175781 L 653.886719 359.84375 L 652.730469 359.453125 L 654.277344 354.78125 Z M 652.335938 364.515625 L 650.789062 369.183594 L 649.632812 368.789062 L 651.183594 364.121094 Z M 649.242188 373.855469 L 647.691406 378.523438 L 646.535156 378.128906 L 648.085938 373.460938 Z M 646.144531 383.195312 L 644.59375 387.863281 L 643.441406 387.46875 L 644.988281 382.800781 Z M 643.046875 392.535156 L 641.5 397.203125 L 640.34375 396.808594 L 641.890625 392.140625 Z M 639.949219 401.871094 L 638.402344 406.542969 L 637.246094 406.148438 L 638.792969 401.480469 Z M 636.851562 411.210938 L 635.304688 415.882812 L 634.148438 415.488281 L 635.699219 410.820312 Z M 633.757812 420.550781 L 632.207031 425.222656 L 631.050781 424.828125 L 632.601562 420.160156 Z M 630.660156 429.890625 L 629.109375 434.5625 L 627.957031 434.167969 L 629.503906 429.5 Z M 627.5625 439.230469 L 626.015625 443.902344 L 624.859375 443.507812 L 626.40625 438.839844 Z M 624.464844 448.570312 L 622.917969 453.242188 L 621.761719 452.847656 L 623.3125 448.179688 Z M 621 458.007812 L 619.453125 462.679688 L 618.296875 462.285156 L 619.84375 457.617188 Z M 617.902344 467.347656 L 616.355469 472.019531 L 615.199219 471.625 L 616.75 466.957031 Z M 614.804688 476.6875 L 613.257812 481.359375 L 612.101562 480.964844 L 613.652344 476.296875 Z M 611.710938 486.027344 L 610.160156 490.699219 L 609.007812 490.304688 L 610.554688 485.636719 Z M 608.613281 495.367188 L 607.066406 500.039062 L 605.910156 499.644531 L 607.457031 494.976562 Z M 605.46875 504.707031 L 603.917969 509.378906 L 602.761719 508.984375 L 604.3125 504.3125 Z M 602.371094 514.046875 L 600.820312 518.71875 L 599.667969 518.324219 L 601.214844 513.652344 Z M 599.273438 523.386719 L 597.726562 528.058594 L 596.570312 527.664062 L 598.117188 522.992188 Z M 596.175781 532.726562 L 594.628906 537.398438 L 593.472656 537.003906 L 595.019531 532.332031 Z M 593.078125 542.066406 L 591.53125 546.734375 L 590.375 546.34375 L 591.925781 541.671875 Z M 589.984375 551.40625 L 588.433594 556.074219 L 587.277344 555.683594 L 588.828125 551.011719 Z M 586.886719 560.746094 L 585.335938 565.414062 L 584.183594 565.023438 L 585.730469 560.351562 Z M 583.789062 570.085938 L 582.242188 574.753906 L 581.085938 574.363281 L 582.632812 569.691406 Z M 580.691406 579.425781 L 579.144531 584.09375 L 577.988281 583.703125 L 579.535156 579.03125 Z M 577.59375 588.765625 L 576.046875 593.433594 L 574.890625 593.042969 L 576.441406 588.371094 Z M 574.5 598.105469 L 572.949219 602.773438 L 571.796875 602.382812 L 573.34375 597.710938 Z M 571.402344 607.445312 L 569.851562 612.113281 L 568.699219 611.71875 L 570.246094 607.050781 Z M 568.304688 616.785156 L 566.757812 621.453125 L 565.601562 621.058594 L 567.148438 616.390625 Z M 565.207031 626.125 L 563.660156 630.792969 L 562.503906 630.398438 L 564.054688 625.730469 Z M 562.109375 635.464844 L 560.5625 640.132812 L 559.40625 639.738281 L 560.957031 635.070312 Z M 559.015625 644.800781 L 557.464844 649.472656 L 556.3125 649.078125 L 557.859375 644.410156 Z M 555.917969 654.140625 L 554.367188 658.8125 L 553.214844 658.417969 L 554.761719 653.75 Z M 552.820312 663.480469 L 551.273438 668.152344 L 550.117188 667.757812 L 551.664062 663.089844 Z M 549.722656 672.820312 L 548.175781 677.492188 L 547.019531 677.097656 L 548.570312 672.429688 Z M 726.660156 140.363281 L 725.113281 145.03125 L 723.957031 144.640625 L 725.507812 139.96875 Z M 726.660156 140.363281 " clip-rule="nonzero"/></clipPath><clipPath id="bc29113a6e"><path d="M 544 681.03125 L 546.566406 681.03125 L 546.566406 684.667969 L 544 684.667969 Z M 544 681.03125 " clip-rule="nonzero"/></clipPath><clipPath id="4005457e83"><path d="M 546.453125 682.136719 L 545.667969 684.472656 L 544.511719 684.078125 L 545.300781 681.742188 Z M 546.453125 682.136719 " clip-rule="nonzero"/></clipPath><clipPath id="a37f4996e6"><path d="M 708.304688 596 L 725 596 L 725 617.425781 L 708.304688 617.425781 Z M 708.304688 596 " clip-rule="nonzero"/></clipPath><clipPath id="11ff881244"><path d="M 708.917969 596.238281 L 724.105469 601.347656 L 724.695312 601.546875 L 724.5 602.136719 L 719.386719 617.324219 L 718.230469 616.929688 L 723.34375 601.742188 L 723.933594 601.9375 L 723.738281 602.527344 L 708.546875 597.417969 Z M 708.917969 596.238281 " clip-rule="nonzero"/></clipPath></defs><g clip-path="url(#0f1a7b62e0)"><path fill="#231f20" d="M 470.238281 79.507812 L 935.46875 79.507812 L 935.46875 751.90625 L 470.238281 751.90625 Z M 470.238281 79.507812 " fill-opacity="1" fill-rule="nonzero"/></g><g clip-path="url(#b5dfc7dc07)"><g clip-path="url(#ef47f913bb)"><path fill="#231f20" d="M 470.238281 79.507812 L 935.46875 79.507812 L 935.46875 751.90625 L 470.238281 751.90625 Z M 470.238281 79.507812 " fill-opacity="1" fill-rule="nonzero"/></g></g><g clip-path="url(#ade296237e)"><path fill="#231f20" d="M 470.238281 79.507812 L 935.46875 79.507812 L 935.46875 751.90625 L 470.238281 751.90625 Z M 470.238281 79.507812 " fill-opacity="1" fill-rule="nonzero"/></g><g clip-path="url(#4f981a8332)"><g clip-path="url(#556b512fd5)"><path fill="#231f20" d="M 470.238281 79.507812 L 935.46875 79.507812 L 935.46875 751.90625 L 470.238281 751.90625 Z M 470.238281 79.507812 " fill-opacity="1" fill-rule="nonzero"/></g></g><g clip-path="url(#a2382a0b15)"><g clip-path="url(#84ff1b97f0)"><path fill="#231f20" d="M 470.238281 79.507812 L 935.46875 79.507812 L 935.46875 751.90625 L 470.238281 751.90625 Z M 470.238281 79.507812 " fill-opacity="1" fill-rule="nonzero"/></g></g><g clip-path="url(#714060029c)"><g clip-path="url(#82ce721825)"><path fill="#231f20" d="M 470.238281 79.507812 L 935.46875 79.507812 L 935.46875 751.90625 L 470.238281 751.90625 Z M 470.238281 79.507812 " fill-opacity="1" fill-rule="nonzero"/></g></g><g clip-path="url(#4b24b3d7ba)"><g clip-path="url(#42ad63d9c2)"><path fill="#231f20" d="M 470.238281 79.507812 L 935.46875 79.507812 L 935.46875 751.90625 L 470.238281 751.90625 Z M 470.238281 79.507812 " fill-opacity="1" fill-rule="nonzero"/></g></g><g clip-path="url(#4b5627f68d)"><g clip-path="url(#145e8ea847)"><path fill="#231f20" d="M 470.238281 79.507812 L 935.46875 79.507812 L 935.46875 751.90625 L 470.238281 751.90625 Z M 470.238281 79.507812 " fill-opacity="1" fill-rule="nonzero"/></g></g><g clip-path="url(#87903b5c9d)"><g clip-path="url(#2729f5aa2e)"><path fill="#231f20" d="M 470.238281 79.507812 L 935.46875 79.507812 L 935.46875 751.90625 L 470.238281 751.90625 Z M 470.238281 79.507812 " fill-opacity="1" fill-rule="nonzero"/></g></g><g clip-path="url(#4f3cfa8d62)"><g clip-path="url(#f0ae8db6d3)"><path fill="#231f20" d="M 470.238281 79.507812 L 935.46875 79.507812 L 935.46875 751.90625 L 470.238281 751.90625 Z M 470.238281 79.507812 " fill-opacity="1" fill-rule="nonzero"/></g></g><g clip-path="url(#783647a390)"><g clip-path="url(#471c7d59f0)"><path fill="#231f20" d="M 470.238281 79.507812 L 935.46875 79.507812 L 935.46875 751.90625 L 470.238281 751.90625 Z M 470.238281 79.507812 " fill-opacity="1" fill-rule="nonzero"/></g></g><g clip-path="url(#3db5da6acb)"><g clip-path="url(#320a1697ab)"><path fill="#231f20" d="M 470.238281 79.507812 L 935.46875 79.507812 L 935.46875 751.90625 L 470.238281 751.90625 Z M 470.238281 79.507812 " fill-opacity="1" fill-rule="nonzero"/></g></g><g clip-path="url(#e037b26086)"><g clip-path="url(#bbf01eef72)"><path fill="#231f20" d="M 470.238281 79.507812 L 935.46875 79.507812 L 935.46875 751.90625 L 470.238281 751.90625 Z M 470.238281 79.507812 " fill-opacity="1" fill-rule="nonzero"/></g></g><g clip-path="url(#1aa31fe25d)"><g clip-path="url(#34cf1c9178)"><path fill="#231f20" d="M 470.238281 79.507812 L 935.46875 79.507812 L 935.46875 751.90625 L 470.238281 751.90625 Z M 470.238281 79.507812 " fill-opacity="1" fill-rule="nonzero"/></g></g><g clip-path="url(#65232ea918)"><g clip-path="url(#7285182779)"><path fill="#231f20" d="M 470.238281 79.507812 L 935.46875 79.507812 L 935.46875 751.90625 L 470.238281 751.90625 Z M 470.238281 79.507812 " fill-opacity="1" fill-rule="nonzero"/></g></g><g clip-path="url(#bc29113a6e)"><g clip-path="url(#4005457e83)"><path fill="#231f20" d="M 470.238281 79.507812 L 935.46875 79.507812 L 935.46875 751.90625 L 470.238281 751.90625 Z M 470.238281 79.507812 " fill-opacity="1" fill-rule="nonzero"/></g></g><g clip-path="url(#a37f4996e6)"><g clip-path="url(#11ff881244)"><path fill="#231f20" d="M 470.238281 79.507812 L 935.46875 79.507812 L 935.46875 751.90625 L 470.238281 751.90625 Z M 470.238281 79.507812 " fill-opacity="1" fill-rule="nonzero"/></g></g><g fill="#231f20" fill-opacity="1"><g transform="translate(559.07717, 577.205138)"><g><path d="M 2.625 -19.296875 L 8.140625 -19.296875 C 10.535156 -19.296875 12.351562 -18.9375 13.59375 -18.21875 C 14.84375 -17.5 15.46875 -16.265625 15.46875 -14.515625 C 15.46875 -13.378906 15.148438 -12.4375 14.515625 -11.6875 C 13.878906 -10.9375 12.96875 -10.457031 11.78125 -10.25 L 11.78125 -10.109375 C 12.59375 -9.960938 13.328125 -9.71875 13.984375 -9.375 C 14.640625 -9.03125 15.15625 -8.539062 15.53125 -7.90625 C 15.914062 -7.28125 16.109375 -6.472656 16.109375 -5.484375 C 16.109375 -3.734375 15.507812 -2.378906 14.3125 -1.421875 C 13.113281 -0.472656 11.476562 0 9.40625 0 L 2.625 0 Z M 5.0625 -11.078125 L 8.625 -11.078125 C 10.257812 -11.078125 11.390625 -11.34375 12.015625 -11.875 C 12.640625 -12.40625 12.953125 -13.195312 12.953125 -14.25 C 12.953125 -15.3125 12.578125 -16.070312 11.828125 -16.53125 C 11.078125 -16.988281 9.882812 -17.21875 8.25 -17.21875 L 5.0625 -17.21875 Z M 5.0625 -9.0625 L 5.0625 -2.046875 L 8.953125 -2.046875 C 10.660156 -2.046875 11.847656 -2.378906 12.515625 -3.046875 C 13.179688 -3.710938 13.515625 -4.585938 13.515625 -5.671875 C 13.515625 -6.679688 13.164062 -7.5 12.46875 -8.125 C 11.78125 -8.75 10.546875 -9.0625 8.765625 -9.0625 Z M 5.0625 -9.0625 "/></g></g></g><g fill="#231f20" fill-opacity="1"><g transform="translate(683.439284, 633.573263)"><g><path d="M 13.40625 0 L 2.625 0 L 2.625 -19.296875 L 13.40625 -19.296875 L 13.40625 -17.171875 L 5.0625 -17.171875 L 5.0625 -11.140625 L 12.921875 -11.140625 L 12.921875 -9.03125 L 5.0625 -9.03125 L 5.0625 -2.140625 L 13.40625 -2.140625 Z M 13.40625 0 "/></g></g></g><g fill="#231f20" fill-opacity="1"><g transform="translate(686.792324, 104.116524)"><g><path d="M 0.03125 -14.484375 L 2.5625 -14.484375 L 5.703125 -6.25 C 5.972656 -5.507812 6.210938 -4.8125 6.421875 -4.15625 C 6.640625 -3.507812 6.804688 -2.890625 6.921875 -2.296875 L 7.03125 -2.296875 C 7.132812 -2.742188 7.300781 -3.332031 7.53125 -4.0625 C 7.769531 -4.789062 8.015625 -5.523438 8.265625 -6.265625 L 11.21875 -14.484375 L 13.78125 -14.484375 L 7.546875 2 C 7.015625 3.363281 6.351562 4.453125 5.5625 5.265625 C 4.769531 6.078125 3.671875 6.484375 2.265625 6.484375 C 1.835938 6.484375 1.460938 6.460938 1.140625 6.421875 C 0.816406 6.378906 0.535156 6.328125 0.296875 6.265625 L 0.296875 4.375 C 0.492188 4.414062 0.734375 4.453125 1.015625 4.484375 C 1.296875 4.523438 1.585938 4.546875 1.890625 4.546875 C 2.722656 4.546875 3.390625 4.3125 3.890625 3.84375 C 4.398438 3.375 4.804688 2.75 5.109375 1.96875 L 5.859375 0.046875 Z M 0.03125 -14.484375 "/></g></g></g><g fill="#231f20" fill-opacity="1"><g transform="translate(711.556074, 234.480699)"><g><path d="M 5.0625 0 L 2.625 0 L 2.625 -19.296875 L 13.40625 -19.296875 L 13.40625 -17.171875 L 5.0625 -17.171875 L 5.0625 -10.328125 L 12.890625 -10.328125 L 12.890625 -8.1875 L 5.0625 -8.1875 Z M 5.0625 0 "/></g></g></g><g fill="#231f20" fill-opacity="1"><g transform="translate(774.141711, 363.086238)"><g><path d="M 14.734375 0 L 12.40625 -5.96875 L 4.75 -5.96875 L 2.453125 0 L 0 0 L 7.546875 -19.375 L 9.734375 -19.375 L 17.25 0 Z M 11.671875 -8.140625 L 9.515625 -13.96875 C 9.460938 -14.113281 9.375 -14.375 9.25 -14.75 C 9.125 -15.132812 9 -15.53125 8.875 -15.9375 C 8.757812 -16.34375 8.664062 -16.65625 8.59375 -16.875 C 8.445312 -16.3125 8.296875 -15.765625 8.140625 -15.234375 C 7.992188 -14.703125 7.867188 -14.28125 7.765625 -13.96875 L 5.5625 -8.140625 Z M 11.671875 -8.140625 "/></g></g></g><g fill="#231f20" fill-opacity="1"><g transform="translate(813.856909, 678.370509)"><g><path d="M 10.890625 -17.4375 C 8.816406 -17.4375 7.1875 -16.738281 6 -15.34375 C 4.8125 -13.957031 4.21875 -12.0625 4.21875 -9.65625 C 4.21875 -7.257812 4.769531 -5.359375 5.875 -3.953125 C 6.988281 -2.554688 8.648438 -1.859375 10.859375 -1.859375 C 11.691406 -1.859375 12.484375 -1.929688 13.234375 -2.078125 C 13.992188 -2.222656 14.742188 -2.40625 15.484375 -2.625 L 15.484375 -0.515625 C 14.765625 -0.242188 14.019531 -0.046875 13.25 0.078125 C 12.488281 0.203125 11.578125 0.265625 10.515625 0.265625 C 8.546875 0.265625 6.90625 -0.132812 5.59375 -0.9375 C 4.28125 -1.75 3.296875 -2.90625 2.640625 -4.40625 C 1.984375 -5.90625 1.65625 -7.660156 1.65625 -9.671875 C 1.65625 -11.617188 2.007812 -13.335938 2.71875 -14.828125 C 3.425781 -16.316406 4.472656 -17.476562 5.859375 -18.3125 C 7.253906 -19.15625 8.941406 -19.578125 10.921875 -19.578125 C 12.953125 -19.578125 14.726562 -19.195312 16.25 -18.4375 L 15.265625 -16.375 C 14.671875 -16.644531 14.007812 -16.890625 13.28125 -17.109375 C 12.550781 -17.328125 11.753906 -17.4375 10.890625 -17.4375 Z M 10.890625 -17.4375 "/></g></g></g><g fill="#231f20" fill-opacity="1"><g transform="translate(911.77784, 671.395293)"><g><path d="M 5.734375 -7.40625 L 0.734375 -14.484375 L 3.4375 -14.484375 L 7.15625 -9.03125 L 10.859375 -14.484375 L 13.546875 -14.484375 L 8.546875 -7.40625 L 13.8125 0 L 11.109375 0 L 7.15625 -5.78125 L 3.15625 0 L 0.484375 0 Z M 5.734375 -7.40625 "/></g></g></g></svg>