<svg xmlns="http://www.w3.org/2000/svg" xmlns:xlink="http://www.w3.org/1999/xlink" width="794" zoomAndPan="magnify" viewBox="0 0 1440 809.999993" height="1123" preserveAspectRatio="xMidYMid meet" version="1.0"><defs><g/><clipPath id="cfa32643e3"><path d="M 627 358 L 639 358 L 639 369.652344 L 627 369.652344 Z M 627 358 " clip-rule="nonzero"/></clipPath><clipPath id="c0b412193b"><path d="M 638.699219 363.777344 C 638.699219 366.765625 636.289062 369.214844 633.261719 369.214844 C 630.238281 369.214844 627.828125 366.765625 627.828125 363.777344 C 627.828125 360.792969 630.277344 358.34375 633.261719 358.34375 C 636.25 358.34375 638.699219 360.753906 638.699219 363.777344 " clip-rule="nonzero"/></clipPath><clipPath id="65d177f45d"><path d="M 487 358 L 499 358 L 499 369.652344 L 487 369.652344 Z M 487 358 " clip-rule="nonzero"/></clipPath><clipPath id="d6105e7ae2"><path d="M 498.136719 363.777344 C 498.136719 366.765625 495.6875 369.214844 492.699219 369.214844 C 489.714844 369.214844 487.304688 366.765625 487.304688 363.777344 C 487.304688 360.792969 489.753906 358.34375 492.738281 358.34375 C 495.726562 358.34375 498.175781 360.753906 498.175781 363.777344 " clip-rule="nonzero"/></clipPath><clipPath id="b4d7ec3dcd"><path d="M 487 76 L 499 76 L 499 88 L 487 88 Z M 487 76 " clip-rule="nonzero"/></clipPath><clipPath id="fbb0cd0024"><path d="M 498.136719 81.847656 C 498.136719 84.832031 495.6875 87.285156 492.699219 87.285156 C 489.714844 87.285156 487.304688 84.832031 487.304688 81.847656 C 487.304688 78.863281 489.753906 76.414062 492.738281 76.414062 C 495.726562 76.414062 498.175781 78.824219 498.175781 81.847656 " clip-rule="nonzero"/></clipPath><clipPath id="3e45ff08c8"><path d="M 937 76 L 949 76 L 949 88 L 937 88 Z M 937 76 " clip-rule="nonzero"/></clipPath><clipPath id="e6b8db3105"><path d="M 948.839844 81.847656 C 948.839844 84.832031 946.429688 87.285156 943.40625 87.285156 C 940.382812 87.285156 937.96875 84.832031 937.96875 81.847656 C 937.96875 78.863281 940.417969 76.414062 943.40625 76.414062 C 946.390625 76.414062 948.839844 78.824219 948.839844 81.847656 " clip-rule="nonzero"/></clipPath><clipPath id="cc07b630f9"><path d="M 487 527 L 499 527 L 499 539 L 487 539 Z M 487 527 " clip-rule="nonzero"/></clipPath><clipPath id="bc103c9593"><path d="M 498.136719 532.9375 C 498.136719 535.921875 495.6875 538.371094 492.699219 538.371094 C 489.714844 538.371094 487.304688 535.921875 487.304688 532.9375 C 487.304688 529.949219 489.753906 527.5 492.738281 527.5 C 495.726562 527.5 498.175781 529.910156 498.175781 532.9375 " clip-rule="nonzero"/></clipPath><clipPath id="0aca601d98"><path d="M 712.210938 527 L 723.925781 527 L 723.925781 539 L 712.210938 539 Z M 712.210938 527 " clip-rule="nonzero"/></clipPath><clipPath id="96fc533e3d"><path d="M 723.296875 532.9375 C 723.296875 535.921875 720.886719 538.371094 717.863281 538.371094 C 714.835938 538.371094 712.425781 535.921875 712.425781 532.9375 C 712.425781 529.949219 714.875 527.5 717.863281 527.5 C 720.847656 527.5 723.296875 529.910156 723.296875 532.9375 " clip-rule="nonzero"/></clipPath><clipPath id="eabd6aa16b"><path d="M 937 527 L 949 527 L 949 539 L 937 539 Z M 937 527 " clip-rule="nonzero"/></clipPath><clipPath id="00e761eea9"><path d="M 948.839844 532.9375 C 948.839844 535.921875 946.429688 538.371094 943.40625 538.371094 C 940.382812 538.371094 937.96875 535.921875 937.96875 532.9375 C 937.96875 529.949219 940.382812 527.5 943.40625 527.5 C 946.429688 527.5 948.839844 529.910156 948.839844 532.9375 " clip-rule="nonzero"/></clipPath><clipPath id="e00f0a858c"><path d="M 491.359375 80.890625 L 944.363281 80.890625 L 944.363281 82.804688 L 491.359375 82.804688 Z M 942.449219 82.804688 L 944.363281 82.804688 L 944.363281 531.980469 L 942.449219 531.980469 Z M 491.359375 82.804688 L 493.273438 82.804688 L 493.273438 531.980469 L 491.359375 531.980469 Z M 491.359375 531.980469 L 944.363281 531.980469 L 944.363281 533.894531 L 491.359375 533.894531 Z M 491.359375 531.980469 " clip-rule="nonzero"/></clipPath><clipPath id="ff54b74d8e"><path d="M 492.316406 362.820312 L 633.261719 362.820312 L 633.261719 364.734375 L 492.316406 364.734375 Z M 492.316406 362.820312 " clip-rule="nonzero"/></clipPath><clipPath id="6f85f36d98"><path d="M 491 81 L 719 81 L 719 533.652344 L 491 533.652344 Z M 491 81 " clip-rule="nonzero"/></clipPath><clipPath id="6f4f6d950d"><path d="M 493.160156 81.425781 L 718.703125 532.515625 L 716.980469 533.355469 L 491.476562 82.269531 Z M 493.160156 81.425781 " clip-rule="nonzero"/></clipPath><clipPath id="30775acd61"><path d="M 492.738281 325.5 L 530.980469 325.5 L 530.980469 327.414062 L 492.738281 327.414062 Z M 529.066406 327.414062 L 530.980469 327.414062 L 530.980469 363.738281 L 529.066406 363.738281 Z M 529.066406 327.414062 " clip-rule="nonzero"/></clipPath></defs><g clip-path="url(#cfa32643e3)"><g clip-path="url(#c0b412193b)"><path fill="#231f20" d="M 468.164062 57.273438 L 967.972656 57.273438 L 967.972656 557.082031 L 468.164062 557.082031 Z M 468.164062 57.273438 " fill-opacity="1" fill-rule="nonzero"/></g></g><g clip-path="url(#65d177f45d)"><g clip-path="url(#d6105e7ae2)"><path fill="#231f20" d="M 468.164062 57.273438 L 967.972656 57.273438 L 967.972656 557.082031 L 468.164062 557.082031 Z M 468.164062 57.273438 " fill-opacity="1" fill-rule="nonzero"/></g></g><g clip-path="url(#b4d7ec3dcd)"><g clip-path="url(#fbb0cd0024)"><path fill="#231f20" d="M 468.164062 57.273438 L 967.972656 57.273438 L 967.972656 557.082031 L 468.164062 557.082031 Z M 468.164062 57.273438 " fill-opacity="1" fill-rule="nonzero"/></g></g><g clip-path="url(#3e45ff08c8)"><g clip-path="url(#e6b8db3105)"><path fill="#231f20" d="M 468.164062 57.273438 L 967.972656 57.273438 L 967.972656 557.082031 L 468.164062 557.082031 Z M 468.164062 57.273438 " fill-opacity="1" fill-rule="nonzero"/></g></g><g clip-path="url(#cc07b630f9)"><g clip-path="url(#bc103c9593)"><path fill="#231f20" d="M 468.164062 57.273438 L 967.972656 57.273438 L 967.972656 557.082031 L 468.164062 557.082031 Z M 468.164062 57.273438 " fill-opacity="1" fill-rule="nonzero"/></g></g><g clip-path="url(#0aca601d98)"><g clip-path="url(#96fc533e3d)"><path fill="#231f20" d="M 468.164062 57.273438 L 967.972656 57.273438 L 967.972656 557.082031 L 468.164062 557.082031 Z M 468.164062 57.273438 " fill-opacity="1" fill-rule="nonzero"/></g></g><g clip-path="url(#eabd6aa16b)"><g clip-path="url(#00e761eea9)"><path fill="#231f20" d="M 468.164062 57.273438 L 967.972656 57.273438 L 967.972656 557.082031 L 468.164062 557.082031 Z M 468.164062 57.273438 " fill-opacity="1" fill-rule="nonzero"/></g></g><g clip-path="url(#e00f0a858c)"><path fill="#231f20" d="M 468.164062 57.273438 L 967.972656 57.273438 L 967.972656 557.082031 L 468.164062 557.082031 Z M 468.164062 57.273438 " fill-opacity="1" fill-rule="nonzero"/></g><g clip-path="url(#ff54b74d8e)"><path fill="#231f20" d="M 468.164062 57.273438 L 967.972656 57.273438 L 967.972656 557.082031 L 468.164062 557.082031 Z M 468.164062 57.273438 " fill-opacity="1" fill-rule="nonzero"/></g><g clip-path="url(#6f85f36d98)"><g clip-path="url(#6f4f6d950d)"><path fill="#231f20" d="M 468.164062 57.273438 L 967.972656 57.273438 L 967.972656 557.082031 L 468.164062 557.082031 Z M 468.164062 57.273438 " fill-opacity="1" fill-rule="nonzero"/></g></g><g clip-path="url(#30775acd61)"><path fill="#231f20" d="M 468.164062 57.273438 L 967.972656 57.273438 L 967.972656 557.082031 L 468.164062 557.082031 Z M 468.164062 57.273438 " fill-opacity="1" fill-rule="nonzero"/></g><g fill="#231f20" fill-opacity="1"><g transform="translate(450.624512, 379.093)"><g><path d="M 17.125 -15.875 L 27.53125 -15.875 L 27.53125 -1.140625 C 25.90625 -0.609375 24.265625 -0.21875 22.609375 0.03125 C 20.953125 0.289062 19.070312 0.421875 16.96875 0.421875 C 13.851562 0.421875 11.226562 -0.203125 9.09375 -1.453125 C 6.957031 -2.703125 5.332031 -4.484375 4.21875 -6.796875 C 3.113281 -9.109375 2.5625 -11.851562 2.5625 -15.03125 C 2.5625 -18.144531 3.171875 -20.859375 4.390625 -23.171875 C 5.617188 -25.484375 7.394531 -27.273438 9.71875 -28.546875 C 12.050781 -29.828125 14.859375 -30.46875 18.140625 -30.46875 C 19.828125 -30.46875 21.421875 -30.3125 22.921875 -30 C 24.421875 -29.695312 25.816406 -29.265625 27.109375 -28.703125 L 25.671875 -25.421875 C 24.609375 -25.867188 23.410156 -26.269531 22.078125 -26.625 C 20.742188 -26.976562 19.363281 -27.15625 17.9375 -27.15625 C 14.34375 -27.15625 11.539062 -26.066406 9.53125 -23.890625 C 7.53125 -21.710938 6.53125 -18.757812 6.53125 -15.03125 C 6.53125 -12.644531 6.914062 -10.53125 7.6875 -8.6875 C 8.457031 -6.851562 9.671875 -5.421875 11.328125 -4.390625 C 12.984375 -3.367188 15.15625 -2.859375 17.84375 -2.859375 C 19.164062 -2.859375 20.289062 -2.925781 21.21875 -3.0625 C 22.144531 -3.207031 22.984375 -3.378906 23.734375 -3.578125 L 23.734375 -12.5 L 17.125 -12.5 Z M 17.125 -15.875 "/></g></g></g><g fill="#231f20" fill-opacity="1"><g transform="translate(450.624512, 549.838455)"><g><path d="M 28.15625 -15.328125 C 28.15625 -10.242188 26.773438 -6.414062 24.015625 -3.84375 C 21.253906 -1.28125 17.398438 0 12.453125 0 L 4.078125 0 L 4.078125 -30.0625 L 13.34375 -30.0625 C 16.34375 -30.0625 18.957031 -29.5 21.1875 -28.375 C 23.425781 -27.25 25.144531 -25.59375 26.34375 -23.40625 C 27.550781 -21.21875 28.15625 -18.523438 28.15625 -15.328125 Z M 24.15625 -15.203125 C 24.15625 -19.210938 23.164062 -22.148438 21.1875 -24.015625 C 19.21875 -25.878906 16.421875 -26.8125 12.796875 -26.8125 L 7.875 -26.8125 L 7.875 -3.234375 L 11.953125 -3.234375 C 20.085938 -3.234375 24.15625 -7.222656 24.15625 -15.203125 Z M 24.15625 -15.203125 "/></g></g></g><g fill="#231f20" fill-opacity="1"><g transform="translate(454.457263, 98.739266)"><g><path d="M 22.9375 0 L 19.328125 -9.296875 L 7.40625 -9.296875 L 3.828125 0 L 0 0 L 11.75 -30.1875 L 15.15625 -30.1875 L 26.859375 0 Z M 18.1875 -12.671875 L 14.8125 -21.765625 C 14.726562 -21.984375 14.585938 -22.382812 14.390625 -22.96875 C 14.191406 -23.5625 14 -24.175781 13.8125 -24.8125 C 13.632812 -25.445312 13.492188 -25.929688 13.390625 -26.265625 C 13.160156 -25.398438 12.925781 -24.550781 12.6875 -23.71875 C 12.445312 -22.894531 12.242188 -22.242188 12.078125 -21.765625 L 8.671875 -12.671875 Z M 18.1875 -12.671875 "/></g></g></g><g fill="#231f20" fill-opacity="1"><g transform="translate(648.40315, 379.093)"><g><path d="M 7.875 0 L 4.078125 0 L 4.078125 -30.0625 L 20.875 -30.0625 L 20.875 -26.734375 L 7.875 -26.734375 L 7.875 -16.078125 L 20.078125 -16.078125 L 20.078125 -12.75 L 7.875 -12.75 Z M 7.875 0 "/></g></g></g><g fill="#231f20" fill-opacity="1"><g transform="translate(704.995867, 573.756422)"><g><path d="M 20.875 0 L 4.078125 0 L 4.078125 -30.0625 L 20.875 -30.0625 L 20.875 -26.734375 L 7.875 -26.734375 L 7.875 -17.34375 L 20.125 -17.34375 L 20.125 -14.0625 L 7.875 -14.0625 L 7.875 -3.328125 L 20.875 -3.328125 Z M 20.875 0 "/></g></g></g><g fill="#231f20" fill-opacity="1"><g transform="translate(956.378502, 98.739266)"><g><path d="M 4.078125 -30.0625 L 12.671875 -30.0625 C 16.398438 -30.0625 19.234375 -29.5 21.171875 -28.375 C 23.109375 -27.25 24.078125 -25.328125 24.078125 -22.609375 C 24.078125 -20.835938 23.582031 -19.367188 22.59375 -18.203125 C 21.613281 -17.035156 20.203125 -16.285156 18.359375 -15.953125 L 18.359375 -15.75 C 19.617188 -15.519531 20.757812 -15.140625 21.78125 -14.609375 C 22.800781 -14.078125 23.609375 -13.316406 24.203125 -12.328125 C 24.796875 -11.347656 25.09375 -10.085938 25.09375 -8.546875 C 25.09375 -5.828125 24.15625 -3.722656 22.28125 -2.234375 C 20.414062 -0.742188 17.875 0 14.65625 0 L 4.078125 0 Z M 7.875 -17.265625 L 13.421875 -17.265625 C 15.984375 -17.265625 17.742188 -17.675781 18.703125 -18.5 C 19.671875 -19.320312 20.15625 -20.550781 20.15625 -22.1875 C 20.15625 -23.84375 19.570312 -25.023438 18.40625 -25.734375 C 17.25 -26.453125 15.394531 -26.8125 12.84375 -26.8125 L 7.875 -26.8125 Z M 7.875 -14.09375 L 7.875 -3.203125 L 13.9375 -3.203125 C 16.601562 -3.203125 18.453125 -3.71875 19.484375 -4.75 C 20.523438 -5.789062 21.046875 -7.15625 21.046875 -8.84375 C 21.046875 -10.414062 20.503906 -11.679688 19.421875 -12.640625 C 18.347656 -13.609375 16.421875 -14.09375 13.640625 -14.09375 Z M 7.875 -14.09375 "/></g></g></g><g fill="#231f20" fill-opacity="1"><g transform="translate(956.378502, 549.838455)"><g><path d="M 16.96875 -27.15625 C 13.738281 -27.15625 11.195312 -26.070312 9.34375 -23.90625 C 7.488281 -21.75 6.5625 -18.789062 6.5625 -15.03125 C 6.5625 -11.289062 7.425781 -8.332031 9.15625 -6.15625 C 10.882812 -3.988281 13.472656 -2.90625 16.921875 -2.90625 C 18.210938 -2.90625 19.445312 -3.015625 20.625 -3.234375 C 21.800781 -3.460938 22.96875 -3.742188 24.125 -4.078125 L 24.125 -0.796875 C 23 -0.378906 21.835938 -0.0703125 20.640625 0.125 C 19.453125 0.320312 18.03125 0.421875 16.375 0.421875 C 13.3125 0.421875 10.753906 -0.207031 8.703125 -1.46875 C 6.660156 -2.738281 5.125 -4.535156 4.09375 -6.859375 C 3.070312 -9.191406 2.5625 -11.925781 2.5625 -15.0625 C 2.5625 -18.09375 3.113281 -20.765625 4.21875 -23.078125 C 5.332031 -25.398438 6.96875 -27.210938 9.125 -28.515625 C 11.289062 -29.816406 13.914062 -30.46875 17 -30.46875 C 20.175781 -30.46875 22.941406 -29.878906 25.296875 -28.703125 L 23.78125 -25.515625 C 22.851562 -25.929688 21.820312 -26.304688 20.6875 -26.640625 C 19.550781 -26.984375 18.3125 -27.15625 16.96875 -27.15625 Z M 16.96875 -27.15625 "/></g></g></g></svg>