<svg xmlns="http://www.w3.org/2000/svg" xmlns:xlink="http://www.w3.org/1999/xlink" width="794" zoomAndPan="magnify" viewBox="0 0 1440 809.999993" height="1123" preserveAspectRatio="xMidYMid meet" version="1.0"><defs><g/><clipPath id="5ad3be97e6"><path d="M 507.027344 251.066406 L 941.671875 251.066406 L 941.671875 252.53125 L 507.027344 252.53125 Z M 507.027344 329.796875 L 941.671875 329.796875 L 941.671875 331.261719 L 507.027344 331.261719 Z M 507.027344 408.523438 L 941.671875 408.523438 L 941.671875 409.988281 L 507.027344 409.988281 Z M 507.027344 487.25 L 941.671875 487.25 L 941.671875 488.714844 L 507.027344 488.714844 Z M 507.027344 487.25 " clip-rule="nonzero"/></clipPath><clipPath id="4d17944a43"><path d="M 507.027344 290.433594 L 941.671875 290.433594 L 941.671875 291.894531 L 507.027344 291.894531 Z M 507.027344 369.160156 L 941.671875 369.160156 L 941.671875 370.625 L 507.027344 370.625 Z M 507.027344 447.886719 L 941.671875 447.886719 L 941.671875 449.351562 L 507.027344 449.351562 Z M 507.027344 447.886719 " clip-rule="nonzero"/></clipPath><clipPath id="e898992c45"><path d="M 506.539062 223.59375 L 507.515625 223.59375 L 507.515625 527.960938 L 506.539062 527.960938 Z M 506.539062 223.59375 " clip-rule="nonzero"/></clipPath><clipPath id="178a06dd39"><path d="M 504 214.480469 L 509.984375 214.480469 L 509.984375 226 L 504 226 Z M 504 214.480469 " clip-rule="nonzero"/></clipPath><clipPath id="d9b30bd4bd"><path d="M 509.742188 225.527344 L 506.910156 214.945312 L 504.078125 225.527344 Z M 509.742188 225.527344 " clip-rule="nonzero"/></clipPath><clipPath id="579b410f88"><path d="M 905.101562 527.261719 L 906.078125 527.261719 L 906.078125 535.460938 L 905.101562 535.460938 Z M 542.859375 527.261719 L 543.835938 527.261719 L 543.835938 535.460938 L 542.859375 535.460938 Z M 615.257812 527.261719 L 616.234375 527.261719 L 616.234375 535.460938 L 615.257812 535.460938 Z M 687.660156 527.261719 L 688.636719 527.261719 L 688.636719 535.460938 L 687.660156 535.460938 Z M 760.0625 527.261719 L 761.039062 527.261719 L 761.039062 535.460938 L 760.0625 535.460938 Z M 832.464844 527.261719 L 833.441406 527.261719 L 833.441406 535.460938 L 832.464844 535.460938 Z M 832.464844 527.261719 " clip-rule="nonzero"/></clipPath><clipPath id="630caec1e7"><path d="M 506.753906 527.085938 L 941.671875 527.085938 L 941.671875 528.058594 L 506.753906 528.058594 Z M 506.753906 527.085938 " clip-rule="nonzero"/></clipPath><clipPath id="68346de6b2"><path d="M 538 251.671875 L 911 251.671875 L 911 527.960938 L 538 527.960938 Z M 538 251.671875 " clip-rule="nonzero"/></clipPath><clipPath id="fc96426ec9"><path d="M 827.445312 251.789062 L 837.363281 251.789062 L 837.363281 527.574219 L 827.445312 527.574219 Z M 900.609375 369.882812 L 910.546875 369.882812 L 910.546875 527.574219 L 900.609375 527.574219 Z M 755.179688 409.363281 L 765.101562 409.363281 L 765.101562 527.574219 L 755.179688 527.574219 Z M 682.9375 291.15625 L 692.855469 291.15625 L 692.855469 527.574219 L 682.957031 527.574219 Z M 610.789062 369.570312 L 620.726562 369.570312 L 620.726562 527.261719 L 610.789062 527.261719 Z M 538.269531 487.953125 L 548.207031 487.953125 L 548.207031 527.574219 L 538.269531 527.574219 Z M 538.269531 487.953125 " clip-rule="nonzero"/></clipPath><clipPath id="26a8f96838"><path d="M 498.554688 527.085938 L 506.753906 527.085938 L 506.753906 528.058594 L 498.554688 528.058594 Z M 498.554688 527.085938 " clip-rule="nonzero"/></clipPath><clipPath id="39bef4c606"><path d="M 498.496094 487.464844 L 506.695312 487.464844 L 506.695312 488.441406 L 498.496094 488.441406 Z M 498.496094 487.464844 " clip-rule="nonzero"/></clipPath><clipPath id="282690d211"><path d="M 498.496094 448.082031 L 506.695312 448.082031 L 506.695312 449.058594 L 498.496094 449.058594 Z M 498.496094 448.082031 " clip-rule="nonzero"/></clipPath><clipPath id="61454900cc"><path d="M 498.496094 408.71875 L 506.695312 408.71875 L 506.695312 409.695312 L 498.496094 409.695312 Z M 498.496094 408.71875 " clip-rule="nonzero"/></clipPath><clipPath id="b058823c7e"><path d="M 498.496094 369.394531 L 506.695312 369.394531 L 506.695312 370.371094 L 498.496094 370.371094 Z M 498.496094 369.394531 " clip-rule="nonzero"/></clipPath><clipPath id="27b12cf6eb"><path d="M 498.496094 329.953125 L 506.695312 329.953125 L 506.695312 330.929688 L 498.496094 330.929688 Z M 498.496094 329.953125 " clip-rule="nonzero"/></clipPath><clipPath id="ca6ac40a4c"><path d="M 498.496094 290.648438 L 506.695312 290.648438 L 506.695312 291.621094 L 498.496094 291.621094 Z M 498.496094 290.648438 " clip-rule="nonzero"/></clipPath><clipPath id="ca9d1401a8"><path d="M 498.496094 251.300781 L 506.695312 251.300781 L 506.695312 252.277344 L 498.496094 252.277344 Z M 498.496094 251.300781 " clip-rule="nonzero"/></clipPath></defs><g clip-path="url(#5ad3be97e6)"><path fill="#bcbec0" d="M 488.734375 205.183594 L 950.980469 205.183594 L 950.980469 545.226562 L 488.734375 545.226562 Z M 488.734375 205.183594 " fill-opacity="1" fill-rule="nonzero"/></g><g clip-path="url(#4d17944a43)"><path fill="#bcbec0" d="M 488.734375 205.183594 L 950.980469 205.183594 L 950.980469 545.226562 L 488.734375 545.226562 Z M 488.734375 205.183594 " fill-opacity="1" fill-rule="nonzero"/></g><g clip-path="url(#e898992c45)"><path fill="#231f20" d="M 488.734375 205.183594 L 950.980469 205.183594 L 950.980469 545.226562 L 488.734375 545.226562 Z M 488.734375 205.183594 " fill-opacity="1" fill-rule="nonzero"/></g><g clip-path="url(#178a06dd39)"><g clip-path="url(#d9b30bd4bd)"><path fill="#231f20" d="M 488.734375 205.183594 L 950.980469 205.183594 L 950.980469 545.226562 L 488.734375 545.226562 Z M 488.734375 205.183594 " fill-opacity="1" fill-rule="nonzero"/></g></g><g clip-path="url(#579b410f88)"><path fill="#231f20" d="M 488.734375 205.183594 L 950.980469 205.183594 L 950.980469 545.226562 L 488.734375 545.226562 Z M 488.734375 205.183594 " fill-opacity="1" fill-rule="nonzero"/></g><g clip-path="url(#630caec1e7)"><path fill="#231f20" d="M 488.734375 205.183594 L 950.980469 205.183594 L 950.980469 545.226562 L 488.734375 545.226562 Z M 488.734375 205.183594 " fill-opacity="1" fill-rule="nonzero"/></g><g clip-path="url(#68346de6b2)"><g clip-path="url(#fc96426ec9)"><path fill="#231f20" d="M 488.734375 205.183594 L 950.980469 205.183594 L 950.980469 545.226562 L 488.734375 545.226562 Z M 488.734375 205.183594 " fill-opacity="1" fill-rule="nonzero"/></g></g><g clip-path="url(#26a8f96838)"><path fill="#231f20" d="M 488.734375 205.183594 L 950.980469 205.183594 L 950.980469 545.226562 L 488.734375 545.226562 Z M 488.734375 205.183594 " fill-opacity="1" fill-rule="nonzero"/></g><g clip-path="url(#39bef4c606)"><path fill="#231f20" d="M 488.734375 205.183594 L 950.980469 205.183594 L 950.980469 545.226562 L 488.734375 545.226562 Z M 488.734375 205.183594 " fill-opacity="1" fill-rule="nonzero"/></g><g clip-path="url(#282690d211)"><path fill="#231f20" d="M 488.734375 205.183594 L 950.980469 205.183594 L 950.980469 545.226562 L 488.734375 545.226562 Z M 488.734375 205.183594 " fill-opacity="1" fill-rule="nonzero"/></g><g clip-path="url(#61454900cc)"><path fill="#231f20" d="M 488.734375 205.183594 L 950.980469 205.183594 L 950.980469 545.226562 L 488.734375 545.226562 Z M 488.734375 205.183594 " fill-opacity="1" fill-rule="nonzero"/></g><g clip-path="url(#b058823c7e)"><path fill="#231f20" d="M 488.734375 205.183594 L 950.980469 205.183594 L 950.980469 545.226562 L 488.734375 545.226562 Z M 488.734375 205.183594 " fill-opacity="1" fill-rule="nonzero"/></g><g clip-path="url(#27b12cf6eb)"><path fill="#231f20" d="M 488.734375 205.183594 L 950.980469 205.183594 L 950.980469 545.226562 L 488.734375 545.226562 Z M 488.734375 205.183594 " fill-opacity="1" fill-rule="nonzero"/></g><g clip-path="url(#ca6ac40a4c)"><path fill="#231f20" d="M 488.734375 205.183594 L 950.980469 205.183594 L 950.980469 545.226562 L 488.734375 545.226562 Z M 488.734375 205.183594 " fill-opacity="1" fill-rule="nonzero"/></g><g clip-path="url(#ca9d1401a8)"><path fill="#231f20" d="M 488.734375 205.183594 L 950.980469 205.183594 L 950.980469 545.226562 L 488.734375 545.226562 Z M 488.734375 205.183594 " fill-opacity="1" fill-rule="nonzero"/></g><g fill="#231f20" fill-opacity="1"><g transform="translate(473.73642, 176.524479)"><g/></g></g><g fill="#231f20" fill-opacity="1"><g transform="translate(478.573333, 176.524479)"><g><path d="M 5.1875 0 L 5.1875 -9.859375 C 5.1875 -10.410156 5.144531 -10.875 5.0625 -11.25 C 4.976562 -11.632812 4.8125 -11.921875 4.5625 -12.109375 C 4.394531 -12.242188 4.179688 -12.34375 3.921875 -12.40625 C 3.671875 -12.476562 3.398438 -12.515625 3.109375 -12.515625 C 2.921875 -12.515625 2.660156 -12.503906 2.328125 -12.484375 C 2.003906 -12.460938 1.671875 -12.4375 1.328125 -12.40625 C 0.992188 -12.382812 0.710938 -12.363281 0.484375 -12.34375 L 0.484375 -14.8125 C 1.054688 -14.875 1.582031 -14.914062 2.0625 -14.9375 C 2.550781 -14.96875 2.984375 -14.984375 3.359375 -14.984375 C 4.015625 -14.984375 4.582031 -14.941406 5.0625 -14.859375 C 5.550781 -14.785156 5.972656 -14.671875 6.328125 -14.515625 C 6.640625 -14.378906 6.90625 -14.207031 7.125 -14 C 7.351562 -13.800781 7.550781 -13.546875 7.71875 -13.234375 C 7.96875 -12.804688 8.113281 -12.304688 8.15625 -11.734375 C 8.207031 -11.171875 8.234375 -10.546875 8.234375 -9.859375 L 8.234375 0 Z M 5.1875 0 "/></g></g></g><g fill="#231f20" fill-opacity="1"><g transform="translate(488.609664, 176.524479)"><g><path d="M 5.234375 0.234375 C 4.921875 0.234375 4.566406 0.21875 4.171875 0.1875 C 3.773438 0.164062 3.398438 0.132812 3.046875 0.09375 C 2.703125 0.0507812 2.445312 0.015625 2.28125 -0.015625 L 1.875 -0.09375 L 1.875 -2.65625 C 2.625 -2.519531 3.285156 -2.414062 3.859375 -2.34375 C 4.429688 -2.28125 5.003906 -2.25 5.578125 -2.25 C 5.773438 -2.25 5.972656 -2.335938 6.171875 -2.515625 C 6.378906 -2.703125 6.550781 -2.957031 6.6875 -3.28125 C 6.78125 -3.445312 6.851562 -3.628906 6.90625 -3.828125 C 6.957031 -4.023438 7 -4.234375 7.03125 -4.453125 C 7.09375 -4.828125 7.140625 -5.257812 7.171875 -5.75 C 7.210938 -6.25 7.234375 -6.753906 7.234375 -7.265625 C 7.234375 -7.910156 7.21875 -8.476562 7.1875 -8.96875 C 7.15625 -9.46875 7.101562 -9.898438 7.03125 -10.265625 C 7 -10.535156 6.953125 -10.769531 6.890625 -10.96875 C 6.835938 -11.164062 6.773438 -11.34375 6.703125 -11.5 C 6.523438 -11.90625 6.320312 -12.175781 6.09375 -12.3125 C 5.875 -12.445312 5.640625 -12.515625 5.390625 -12.515625 C 5.109375 -12.515625 4.863281 -12.445312 4.65625 -12.3125 C 4.445312 -12.1875 4.273438 -12.007812 4.140625 -11.78125 C 3.984375 -11.519531 3.875 -11.226562 3.8125 -10.90625 C 3.75 -10.59375 3.71875 -10.257812 3.71875 -9.90625 C 3.71875 -9.644531 3.742188 -9.359375 3.796875 -9.046875 C 3.847656 -8.734375 3.925781 -8.488281 4.03125 -8.3125 C 4.125 -8.113281 4.28125 -7.914062 4.5 -7.71875 C 4.71875 -7.53125 5 -7.410156 5.34375 -7.359375 L 5.78125 -7.28125 L 5.203125 -4.875 L 4.59375 -4.953125 C 4.25 -4.972656 3.878906 -5.050781 3.484375 -5.1875 C 3.085938 -5.332031 2.757812 -5.488281 2.5 -5.65625 C 2.332031 -5.75 2.160156 -5.867188 1.984375 -6.015625 C 1.816406 -6.171875 1.664062 -6.332031 1.53125 -6.5 C 1.289062 -6.8125 1.078125 -7.25 0.890625 -7.8125 C 0.710938 -8.375 0.625 -9.035156 0.625 -9.796875 C 0.625 -10.597656 0.75 -11.332031 1 -12 C 1.25 -12.675781 1.617188 -13.25 2.109375 -13.71875 C 2.566406 -14.144531 3.070312 -14.460938 3.625 -14.671875 C 4.1875 -14.878906 4.757812 -14.984375 5.34375 -14.984375 C 5.925781 -14.984375 6.441406 -14.894531 6.890625 -14.71875 C 7.347656 -14.539062 7.722656 -14.335938 8.015625 -14.109375 C 8.304688 -13.878906 8.597656 -13.566406 8.890625 -13.171875 C 9.191406 -12.785156 9.441406 -12.335938 9.640625 -11.828125 C 9.835938 -11.316406 10 -10.675781 10.125 -9.90625 C 10.257812 -9.144531 10.328125 -8.300781 10.328125 -7.375 C 10.328125 -6.476562 10.265625 -5.65625 10.140625 -4.90625 C 10.023438 -4.164062 9.859375 -3.519531 9.640625 -2.96875 C 9.441406 -2.457031 9.195312 -2.007812 8.90625 -1.625 C 8.625 -1.238281 8.332031 -0.921875 8.03125 -0.671875 C 7.757812 -0.453125 7.398438 -0.242188 6.953125 -0.046875 C 6.515625 0.140625 5.941406 0.234375 5.234375 0.234375 Z M 5.234375 0.234375 "/></g></g></g><g fill="#231f20" fill-opacity="1"><g transform="translate(500.407756, 176.524479)"><g><path d="M 5.828125 0.234375 C 5.148438 0.234375 4.546875 0.101562 4.015625 -0.15625 C 3.429688 -0.394531 2.941406 -0.753906 2.546875 -1.234375 C 2.148438 -1.710938 1.820312 -2.285156 1.5625 -2.953125 C 1.3125 -3.585938 1.128906 -4.296875 1.015625 -5.078125 C 0.898438 -5.867188 0.84375 -6.703125 0.84375 -7.578125 C 0.84375 -8.285156 0.914062 -8.941406 1.0625 -9.546875 C 1.21875 -10.148438 1.425781 -10.679688 1.6875 -11.140625 C 1.945312 -11.609375 2.21875 -11.976562 2.5 -12.25 L 2.5 -12.34375 L 1 -12.234375 L 1 -14.671875 C 1.4375 -14.742188 1.890625 -14.800781 2.359375 -14.84375 C 2.828125 -14.882812 3.363281 -14.914062 3.96875 -14.9375 C 4.570312 -14.96875 5.296875 -14.984375 6.140625 -14.984375 C 6.585938 -14.984375 7.003906 -14.90625 7.390625 -14.75 C 7.785156 -14.59375 8.140625 -14.378906 8.453125 -14.109375 C 8.734375 -13.867188 9.007812 -13.554688 9.28125 -13.171875 C 9.5625 -12.785156 9.804688 -12.332031 10.015625 -11.8125 C 10.234375 -11.269531 10.40625 -10.625 10.53125 -9.875 C 10.65625 -9.132812 10.71875 -8.300781 10.71875 -7.375 C 10.71875 -6.59375 10.664062 -5.851562 10.5625 -5.15625 C 10.457031 -4.457031 10.304688 -3.816406 10.109375 -3.234375 C 9.898438 -2.648438 9.640625 -2.125 9.328125 -1.65625 C 9.015625 -1.195312 8.648438 -0.820312 8.234375 -0.53125 C 7.566406 -0.0195312 6.765625 0.234375 5.828125 0.234375 Z M 5.75 -2.25 C 6.039062 -2.25 6.289062 -2.328125 6.5 -2.484375 C 6.71875 -2.640625 6.910156 -2.898438 7.078125 -3.265625 C 7.210938 -3.566406 7.316406 -3.925781 7.390625 -4.34375 C 7.460938 -4.769531 7.515625 -5.234375 7.546875 -5.734375 C 7.585938 -6.234375 7.609375 -6.757812 7.609375 -7.3125 C 7.609375 -8.269531 7.5625 -9.101562 7.46875 -9.8125 C 7.382812 -10.53125 7.253906 -11.085938 7.078125 -11.484375 C 6.921875 -11.816406 6.738281 -12.070312 6.53125 -12.25 C 6.332031 -12.425781 6.132812 -12.515625 5.9375 -12.515625 C 5.75 -12.503906 5.582031 -12.492188 5.4375 -12.484375 C 5.300781 -12.472656 5.148438 -12.445312 4.984375 -12.40625 C 4.585938 -11.84375 4.316406 -11.171875 4.171875 -10.390625 C 4.035156 -9.617188 3.96875 -8.6875 3.96875 -7.59375 C 3.96875 -6.488281 4.007812 -5.578125 4.09375 -4.859375 C 4.1875 -4.148438 4.3125 -3.617188 4.46875 -3.265625 C 4.613281 -2.910156 4.785156 -2.648438 4.984375 -2.484375 C 5.191406 -2.328125 5.445312 -2.25 5.75 -2.25 Z M 5.75 -2.25 "/></g></g></g><g fill="#231f20" fill-opacity="1"><g transform="translate(512.732089, 176.524479)"><g><path d="M 0.484375 0 L 1.296875 -9.578125 C 1.316406 -9.703125 1.328125 -9.859375 1.328125 -10.046875 C 1.335938 -10.234375 1.34375 -10.421875 1.34375 -10.609375 C 1.34375 -10.984375 1.320312 -11.351562 1.28125 -11.71875 C 1.238281 -12.082031 1.175781 -12.4375 1.09375 -12.78125 C 1.082031 -12.851562 1.0625 -12.925781 1.03125 -13 C 1.007812 -13.082031 0.988281 -13.160156 0.96875 -13.234375 C 0.945312 -13.316406 0.925781 -13.390625 0.90625 -13.453125 C 0.84375 -13.679688 0.773438 -13.898438 0.703125 -14.109375 C 0.640625 -14.328125 0.570312 -14.546875 0.5 -14.765625 L 3.40625 -14.765625 C 3.539062 -14.398438 3.65625 -14.050781 3.75 -13.71875 C 3.851562 -13.394531 3.9375 -13.0625 4 -12.71875 L 4.15625 -12.71875 C 4.238281 -12.945312 4.382812 -13.203125 4.59375 -13.484375 C 4.800781 -13.773438 5.015625 -14.015625 5.234375 -14.203125 C 5.484375 -14.398438 5.820312 -14.578125 6.25 -14.734375 C 6.675781 -14.898438 7.148438 -14.984375 7.671875 -14.984375 C 8.203125 -14.984375 8.65625 -14.894531 9.03125 -14.71875 C 9.40625 -14.539062 9.707031 -14.316406 9.9375 -14.046875 C 10.195312 -13.773438 10.410156 -13.429688 10.578125 -13.015625 C 10.753906 -12.609375 10.882812 -12.171875 10.96875 -11.703125 C 11.050781 -11.253906 11.113281 -10.75 11.15625 -10.1875 C 11.207031 -9.625 11.234375 -9.082031 11.234375 -8.5625 L 11.234375 0 L 5.4375 0 L 5.4375 -2.453125 L 8.1875 -2.453125 L 8.1875 -8.546875 C 8.1875 -9.203125 8.15625 -9.742188 8.09375 -10.171875 C 8.03125 -10.597656 7.945312 -10.96875 7.84375 -11.28125 C 7.757812 -11.550781 7.648438 -11.765625 7.515625 -11.921875 C 7.390625 -12.085938 7.253906 -12.210938 7.109375 -12.296875 C 6.960938 -12.378906 6.804688 -12.421875 6.640625 -12.421875 C 6.304688 -12.421875 6.015625 -12.34375 5.765625 -12.1875 C 5.515625 -12.03125 5.300781 -11.828125 5.125 -11.578125 C 4.957031 -11.335938 4.8125 -11.085938 4.6875 -10.828125 C 4.570312 -10.578125 4.472656 -10.316406 4.390625 -10.046875 L 3.53125 0 Z M 0.484375 0 "/></g></g></g><g fill="#231f20" fill-opacity="1"><g transform="translate(460.309375, 199.955414)"><g><path d="M 1.296875 0 L 1.296875 -14.671875 C 1.398438 -14.691406 1.5625 -14.71875 1.78125 -14.75 C 2 -14.78125 2.253906 -14.804688 2.546875 -14.828125 C 3.023438 -14.878906 3.53125 -14.914062 4.0625 -14.9375 C 4.601562 -14.96875 5.109375 -14.984375 5.578125 -14.984375 C 6.335938 -14.984375 6.957031 -14.945312 7.4375 -14.875 C 7.925781 -14.8125 8.34375 -14.707031 8.6875 -14.5625 C 9.164062 -14.351562 9.554688 -14.054688 9.859375 -13.671875 C 10.171875 -13.296875 10.382812 -12.851562 10.5 -12.34375 C 10.5625 -12.03125 10.613281 -11.671875 10.65625 -11.265625 C 10.695312 -10.867188 10.71875 -10.398438 10.71875 -9.859375 L 10.71875 0 Z M 4.34375 -2.453125 L 7.65625 -2.453125 L 7.65625 -9.859375 C 7.65625 -10.171875 7.640625 -10.476562 7.609375 -10.78125 C 7.578125 -11.09375 7.519531 -11.34375 7.4375 -11.53125 C 7.363281 -11.738281 7.257812 -11.90625 7.125 -12.03125 C 6.988281 -12.15625 6.832031 -12.257812 6.65625 -12.34375 C 6.46875 -12.414062 6.28125 -12.460938 6.09375 -12.484375 C 5.914062 -12.503906 5.71875 -12.515625 5.5 -12.515625 C 5.226562 -12.515625 5.015625 -12.507812 4.859375 -12.5 C 4.710938 -12.488281 4.539062 -12.476562 4.34375 -12.46875 Z M 4.34375 -2.453125 "/></g></g></g><g fill="#231f20" fill-opacity="1"><g transform="translate(472.816749, 199.955414)"><g><path d="M 1.296875 -4.984375 L 1.296875 -14.765625 L 4.328125 -14.765625 L 4.328125 -7.9375 L 2.453125 -4.984375 Z M 1.296875 -4.984375 "/></g></g></g><g fill="#231f20" fill-opacity="1"><g transform="translate(479.077873, 199.955414)"><g><path d="M 4.65625 0 L 4.65625 -9.46875 C 4.65625 -9.851562 4.710938 -10.222656 4.828125 -10.578125 C 4.953125 -10.929688 5.097656 -11.203125 5.265625 -11.390625 C 5.441406 -11.609375 5.617188 -11.789062 5.796875 -11.9375 C 5.972656 -12.082031 6.171875 -12.203125 6.390625 -12.296875 L 0.3125 -12.296875 L 0.3125 -14.765625 L 9.4375 -14.765625 L 9.4375 -12.4375 C 9.226562 -12.363281 9.03125 -12.265625 8.84375 -12.140625 C 8.664062 -12.015625 8.507812 -11.867188 8.375 -11.703125 C 7.9375 -11.140625 7.71875 -10.363281 7.71875 -9.375 L 7.71875 0 Z M 4.65625 0 "/></g></g></g><g fill="#231f20" fill-opacity="1"><g transform="translate(489.365883, 199.955414)"><g><path d="M 1.296875 -4.984375 L 1.296875 -14.765625 L 4.328125 -14.765625 L 4.328125 -7.9375 L 2.453125 -4.984375 Z M 1.296875 -4.984375 "/></g></g></g><g fill="#231f20" fill-opacity="1"><g transform="translate(495.627007, 199.955414)"><g><path d="M 0.484375 0 L 1.296875 -9.578125 C 1.316406 -9.703125 1.328125 -9.859375 1.328125 -10.046875 C 1.335938 -10.234375 1.34375 -10.421875 1.34375 -10.609375 C 1.34375 -10.984375 1.320312 -11.351562 1.28125 -11.71875 C 1.238281 -12.082031 1.175781 -12.4375 1.09375 -12.78125 C 1.082031 -12.851562 1.0625 -12.925781 1.03125 -13 C 1.007812 -13.082031 0.988281 -13.160156 0.96875 -13.234375 C 0.945312 -13.316406 0.925781 -13.390625 0.90625 -13.453125 C 0.84375 -13.679688 0.773438 -13.898438 0.703125 -14.109375 C 0.640625 -14.328125 0.570312 -14.546875 0.5 -14.765625 L 3.40625 -14.765625 C 3.539062 -14.398438 3.65625 -14.050781 3.75 -13.71875 C 3.851562 -13.394531 3.9375 -13.0625 4 -12.71875 L 4.15625 -12.71875 C 4.238281 -12.945312 4.382812 -13.203125 4.59375 -13.484375 C 4.800781 -13.773438 5.015625 -14.015625 5.234375 -14.203125 C 5.484375 -14.398438 5.820312 -14.578125 6.25 -14.734375 C 6.675781 -14.898438 7.148438 -14.984375 7.671875 -14.984375 C 8.203125 -14.984375 8.65625 -14.894531 9.03125 -14.71875 C 9.40625 -14.539062 9.707031 -14.316406 9.9375 -14.046875 C 10.195312 -13.773438 10.410156 -13.429688 10.578125 -13.015625 C 10.753906 -12.609375 10.882812 -12.171875 10.96875 -11.703125 C 11.050781 -11.253906 11.113281 -10.75 11.15625 -10.1875 C 11.207031 -9.625 11.234375 -9.082031 11.234375 -8.5625 L 11.234375 0 L 5.4375 0 L 5.4375 -2.453125 L 8.1875 -2.453125 L 8.1875 -8.546875 C 8.1875 -9.203125 8.15625 -9.742188 8.09375 -10.171875 C 8.03125 -10.597656 7.945312 -10.96875 7.84375 -11.28125 C 7.757812 -11.550781 7.648438 -11.765625 7.515625 -11.921875 C 7.390625 -12.085938 7.253906 -12.210938 7.109375 -12.296875 C 6.960938 -12.378906 6.804688 -12.421875 6.640625 -12.421875 C 6.304688 -12.421875 6.015625 -12.34375 5.765625 -12.1875 C 5.515625 -12.03125 5.300781 -11.828125 5.125 -11.578125 C 4.957031 -11.335938 4.8125 -11.085938 4.6875 -10.828125 C 4.570312 -10.578125 4.472656 -10.316406 4.390625 -10.046875 L 3.53125 0 Z M 0.484375 0 "/></g></g></g><g fill="#231f20" fill-opacity="1"><g transform="translate(508.637741, 199.955414)"><g><path d="M 2.875 0 L 4.046875 -5.6875 L 5.859375 -12.296875 L 0.484375 -12.296875 L 0.484375 -17.8125 L 3.53125 -17.8125 L 3.53125 -14.765625 L 8.921875 -14.765625 L 8.921875 -12.703125 L 7 -5.671875 L 5.828125 0 Z M 2.875 0 "/></g></g></g><g fill="#231f20" fill-opacity="1"><g transform="translate(518.685511, 199.955414)"><g><path d="M 1.609375 0.234375 C 1.429688 0.234375 1.226562 0.203125 1 0.140625 C 0.769531 0.0859375 0.554688 0.015625 0.359375 -0.078125 L 0.359375 -2.53125 C 0.609375 -2.394531 0.851562 -2.328125 1.09375 -2.328125 C 1.53125 -2.328125 1.800781 -2.488281 1.90625 -2.8125 C 2.019531 -3.144531 2.078125 -3.597656 2.078125 -4.171875 L 2.078125 -12.21875 C 1.898438 -12.207031 1.71875 -12.179688 1.53125 -12.140625 C 1.351562 -12.097656 1.175781 -12.050781 1 -12 L 1 -14.4375 C 1.257812 -14.5 1.640625 -14.570312 2.140625 -14.65625 C 2.648438 -14.738281 3.222656 -14.8125 3.859375 -14.875 C 4.503906 -14.945312 5.164062 -14.984375 5.84375 -14.984375 C 6.40625 -14.984375 6.878906 -14.96875 7.265625 -14.9375 C 7.648438 -14.914062 7.976562 -14.867188 8.25 -14.796875 C 8.519531 -14.734375 8.769531 -14.65625 9 -14.5625 C 9.195312 -14.476562 9.378906 -14.378906 9.546875 -14.265625 C 9.710938 -14.160156 9.859375 -14.046875 9.984375 -13.921875 C 10.453125 -13.492188 10.738281 -12.941406 10.84375 -12.265625 C 10.957031 -11.597656 11.015625 -10.796875 11.015625 -9.859375 L 11.015625 0 L 7.96875 0 L 7.96875 -9.859375 C 7.96875 -10.503906 7.90625 -11.003906 7.78125 -11.359375 C 7.65625 -11.722656 7.4375 -11.984375 7.125 -12.140625 C 6.945312 -12.285156 6.703125 -12.390625 6.390625 -12.453125 C 6.273438 -12.460938 6.113281 -12.472656 5.90625 -12.484375 C 5.695312 -12.503906 5.445312 -12.507812 5.15625 -12.5 L 5.15625 -4.171875 C 5.15625 -3.597656 5.117188 -3.0625 5.046875 -2.5625 C 4.984375 -2.070312 4.878906 -1.644531 4.734375 -1.28125 C 4.523438 -0.695312 4.175781 -0.296875 3.6875 -0.078125 C 3.382812 0.0664062 3.046875 0.15625 2.671875 0.1875 C 2.296875 0.21875 1.941406 0.234375 1.609375 0.234375 Z M 1.609375 0.234375 "/></g></g></g><g fill="#231f20" fill-opacity="1"><g transform="translate(531.501764, 199.955414)"><g><path d="M 7.65625 0 L 7.65625 -9.859375 C 7.65625 -10.484375 7.597656 -10.992188 7.484375 -11.390625 C 7.367188 -11.785156 7.15625 -12.070312 6.84375 -12.25 C 6.6875 -12.351562 6.492188 -12.421875 6.265625 -12.453125 C 6.035156 -12.492188 5.757812 -12.515625 5.4375 -12.515625 C 4.9375 -12.515625 4.382812 -12.476562 3.78125 -12.40625 C 3.175781 -12.34375 2.347656 -12.234375 1.296875 -12.078125 L 1.296875 -14.5 C 1.515625 -14.570312 1.785156 -14.632812 2.109375 -14.6875 C 2.441406 -14.738281 2.820312 -14.789062 3.25 -14.84375 C 3.75 -14.90625 4.191406 -14.941406 4.578125 -14.953125 C 4.960938 -14.972656 5.320312 -14.984375 5.65625 -14.984375 C 6.445312 -14.984375 7.0625 -14.945312 7.5 -14.875 C 7.945312 -14.8125 8.34375 -14.707031 8.6875 -14.5625 C 8.863281 -14.476562 9.023438 -14.394531 9.171875 -14.3125 C 9.316406 -14.238281 9.445312 -14.148438 9.5625 -14.046875 C 10.082031 -13.617188 10.40625 -13.066406 10.53125 -12.390625 C 10.65625 -11.722656 10.71875 -10.878906 10.71875 -9.859375 L 10.71875 0 Z M 1.296875 0 L 1.296875 -9.4375 L 4.34375 -9.4375 L 4.34375 0 Z M 1.296875 0 "/></g></g></g><g fill="#231f20" fill-opacity="1"><g transform="translate(951.163662, 537.662011)"><g><path d="M 1.078125 5.625 L 1.078125 -9.4375 C 1.078125 -10.125 1.050781 -10.789062 1 -11.4375 C 0.945312 -12.082031 0.878906 -12.648438 0.796875 -13.140625 C 0.722656 -13.628906 0.648438 -13.976562 0.578125 -14.1875 C 0.554688 -14.289062 0.53125 -14.382812 0.5 -14.46875 C 0.46875 -14.5625 0.4375 -14.660156 0.40625 -14.765625 L 3.453125 -14.765625 C 3.515625 -14.578125 3.570312 -14.375 3.625 -14.15625 C 3.675781 -13.9375 3.71875 -13.710938 3.75 -13.484375 C 3.832031 -13.054688 3.898438 -12.613281 3.953125 -12.15625 C 4.015625 -11.695312 4.054688 -11.238281 4.078125 -10.78125 C 4.109375 -10.320312 4.125 -9.875 4.125 -9.4375 L 4.125 5.625 Z M 1.078125 5.625 "/></g></g></g><g fill="#231f20" fill-opacity="1"><g transform="translate(957.207427, 537.662011)"><g><path d="M 1.296875 0 L 1.296875 -14.765625 L 4.34375 -14.765625 L 4.34375 0 Z M 1.296875 0 "/></g></g></g><g fill="#231f20" fill-opacity="1"><g transform="translate(963.468552, 537.662011)"><g><path d="M 1.296875 -4.984375 L 1.296875 -14.765625 L 4.328125 -14.765625 L 4.328125 -7.9375 L 2.453125 -4.984375 Z M 1.296875 -4.984375 "/></g></g></g><g fill="#231f20" fill-opacity="1"><g transform="translate(969.729678, 537.662011)"><g><path d="M 0.78125 0 L 0.78125 -2.453125 L 4.734375 -2.453125 L 6.71875 -2.3125 L 4.8125 -5.25 L 0.65625 -14.765625 L 3.828125 -14.765625 L 6.40625 -8.703125 L 6.53125 -8.359375 C 6.84375 -8.734375 7.085938 -9.144531 7.265625 -9.59375 C 7.453125 -10.050781 7.582031 -10.695312 7.65625 -11.53125 L 7.9375 -14.75 L 10.984375 -14.75 L 10.84375 -13.28125 C 10.8125 -12.695312 10.773438 -12.207031 10.734375 -11.8125 C 10.703125 -11.425781 10.65625 -11.070312 10.59375 -10.75 C 10.539062 -10.425781 10.46875 -10.078125 10.375 -9.703125 C 10.28125 -9.347656 10.148438 -8.972656 9.984375 -8.578125 C 9.828125 -8.179688 9.582031 -7.742188 9.25 -7.265625 C 9.082031 -6.984375 8.890625 -6.703125 8.671875 -6.421875 C 8.460938 -6.148438 8.203125 -5.890625 7.890625 -5.640625 L 10.296875 -1.8125 L 10.296875 0 Z M 0.78125 0 "/></g></g></g><g fill="#231f20" fill-opacity="1"><g transform="translate(481.805862, 266.039004)"><g><path d="M 2.015625 0 L 6.640625 -13.8125 L 0.6875 -13.8125 L 0.6875 -15.328125 L 8.328125 -15.328125 L 8.328125 -14.09375 L 3.75 0 Z M 2.015625 0 "/></g></g></g><g fill="#231f20" fill-opacity="1"><g transform="translate(481.805862, 305.726502)"><g><path d="M 0.953125 -6.515625 C 0.953125 -7.679688 1.015625 -8.738281 1.140625 -9.6875 C 1.265625 -10.632812 1.445312 -11.472656 1.6875 -12.203125 C 1.9375 -12.929688 2.253906 -13.539062 2.640625 -14.03125 C 3.035156 -14.53125 3.5 -14.90625 4.03125 -15.15625 C 4.570312 -15.40625 5.1875 -15.53125 5.875 -15.53125 C 6.175781 -15.53125 6.460938 -15.507812 6.734375 -15.46875 C 7.003906 -15.4375 7.25 -15.382812 7.46875 -15.3125 L 7.46875 -13.828125 C 7.238281 -13.898438 6.992188 -13.957031 6.734375 -14 C 6.484375 -14.039062 6.21875 -14.0625 5.9375 -14.0625 C 5.238281 -14.0625 4.640625 -13.828125 4.140625 -13.359375 C 3.648438 -12.898438 3.269531 -12.210938 3 -11.296875 C 2.738281 -10.390625 2.585938 -9.253906 2.546875 -7.890625 L 2.625 -7.890625 C 2.769531 -8.242188 2.957031 -8.550781 3.1875 -8.8125 C 3.425781 -9.082031 3.703125 -9.289062 4.015625 -9.4375 C 4.335938 -9.59375 4.691406 -9.671875 5.078125 -9.671875 C 5.796875 -9.671875 6.382812 -9.453125 6.84375 -9.015625 C 7.3125 -8.585938 7.660156 -8.007812 7.890625 -7.28125 C 8.117188 -6.5625 8.234375 -5.742188 8.234375 -4.828125 C 8.234375 -3.867188 8.101562 -3.003906 7.84375 -2.234375 C 7.582031 -1.472656 7.1875 -0.875 6.65625 -0.4375 C 6.132812 0 5.484375 0.21875 4.703125 0.21875 C 4.097656 0.21875 3.5625 0.0703125 3.09375 -0.21875 C 2.625 -0.507812 2.226562 -0.941406 1.90625 -1.515625 C 1.59375 -2.085938 1.351562 -2.789062 1.1875 -3.625 C 1.03125 -4.46875 0.953125 -5.429688 0.953125 -6.515625 Z M 4.6875 -1.265625 C 5.289062 -1.265625 5.757812 -1.554688 6.09375 -2.140625 C 6.425781 -2.734375 6.59375 -3.617188 6.59375 -4.796875 C 6.59375 -5.898438 6.4375 -6.738281 6.125 -7.3125 C 5.8125 -7.894531 5.335938 -8.1875 4.703125 -8.1875 C 4.253906 -8.1875 3.875 -8.054688 3.5625 -7.796875 C 3.257812 -7.546875 3.03125 -7.210938 2.875 -6.796875 C 2.726562 -6.378906 2.65625 -5.925781 2.65625 -5.4375 C 2.65625 -5 2.6875 -4.535156 2.75 -4.046875 C 2.820312 -3.566406 2.9375 -3.113281 3.09375 -2.6875 C 3.25 -2.269531 3.457031 -1.925781 3.71875 -1.65625 C 3.976562 -1.394531 4.300781 -1.265625 4.6875 -1.265625 Z M 4.6875 -1.265625 "/></g></g></g><g fill="#231f20" fill-opacity="1"><g transform="translate(481.805862, 345.414001)"><g><path d="M 4.46875 -9.390625 C 5.25 -9.390625 5.914062 -9.203125 6.46875 -8.828125 C 7.019531 -8.453125 7.441406 -7.925781 7.734375 -7.25 C 8.023438 -6.582031 8.171875 -5.804688 8.171875 -4.921875 C 8.171875 -3.898438 8.003906 -3.003906 7.671875 -2.234375 C 7.347656 -1.472656 6.863281 -0.875 6.21875 -0.4375 C 5.570312 -0.0078125 4.773438 0.203125 3.828125 0.203125 C 3.242188 0.203125 2.722656 0.148438 2.265625 0.046875 C 1.804688 -0.0546875 1.398438 -0.21875 1.046875 -0.4375 L 1.046875 -2.09375 C 1.441406 -1.832031 1.867188 -1.625 2.328125 -1.46875 C 2.785156 -1.3125 3.242188 -1.234375 3.703125 -1.234375 C 4.335938 -1.234375 4.859375 -1.398438 5.265625 -1.734375 C 5.671875 -2.066406 5.972656 -2.503906 6.171875 -3.046875 C 6.378906 -3.597656 6.484375 -4.203125 6.484375 -4.859375 C 6.484375 -5.878906 6.257812 -6.65625 5.8125 -7.1875 C 5.375 -7.71875 4.738281 -7.984375 3.90625 -7.984375 C 3.5625 -7.984375 3.21875 -7.945312 2.875 -7.875 C 2.53125 -7.8125 2.1875 -7.726562 1.84375 -7.625 L 1.1875 -8.265625 L 1.640625 -15.328125 L 7.359375 -15.328125 L 7.359375 -13.8125 L 3.03125 -13.8125 L 2.71875 -9.1875 C 3.007812 -9.25 3.300781 -9.296875 3.59375 -9.328125 C 3.894531 -9.367188 4.1875 -9.390625 4.46875 -9.390625 Z M 4.46875 -9.390625 "/></g></g></g><g fill="#231f20" fill-opacity="1"><g transform="translate(481.805862, 385.101499)"><g><path d="M 8.84375 -3.375 L 7.21875 -3.375 L 7.21875 0 L 5.578125 0 L 5.578125 -3.375 L 0.359375 -3.375 L 0.359375 -4.734375 L 5.4375 -15.453125 L 7.21875 -15.453125 L 7.21875 -4.796875 L 8.84375 -4.796875 Z M 5.578125 -4.796875 L 5.578125 -10.96875 C 5.578125 -11.132812 5.578125 -11.316406 5.578125 -11.515625 C 5.585938 -11.722656 5.597656 -11.929688 5.609375 -12.140625 C 5.617188 -12.359375 5.625 -12.5625 5.625 -12.75 C 5.632812 -12.945312 5.644531 -13.117188 5.65625 -13.265625 L 5.578125 -13.265625 C 5.460938 -12.929688 5.335938 -12.609375 5.203125 -12.296875 C 5.078125 -11.984375 4.953125 -11.679688 4.828125 -11.390625 L 1.828125 -4.796875 Z M 5.578125 -4.796875 "/></g></g></g><g fill="#231f20" fill-opacity="1"><g transform="translate(481.805862, 417.573088)"><g><path d="M 7.84375 -11.8125 C 7.84375 -11.195312 7.742188 -10.640625 7.546875 -10.140625 C 7.347656 -9.648438 7.0625 -9.226562 6.6875 -8.875 C 6.3125 -8.519531 5.851562 -8.242188 5.3125 -8.046875 L 5.3125 -7.96875 C 6.207031 -7.769531 6.894531 -7.34375 7.375 -6.6875 C 7.851562 -6.039062 8.09375 -5.203125 8.09375 -4.171875 C 8.09375 -3.304688 7.929688 -2.539062 7.609375 -1.875 C 7.285156 -1.21875 6.8125 -0.707031 6.1875 -0.34375 C 5.570312 0.0195312 4.820312 0.203125 3.9375 0.203125 C 3.320312 0.203125 2.765625 0.15625 2.265625 0.0625 C 1.765625 -0.03125 1.285156 -0.1875 0.828125 -0.40625 L 0.828125 -2.0625 C 1.273438 -1.800781 1.75 -1.597656 2.25 -1.453125 C 2.757812 -1.304688 3.269531 -1.234375 3.78125 -1.234375 C 4.65625 -1.234375 5.300781 -1.515625 5.71875 -2.078125 C 6.144531 -2.640625 6.359375 -3.363281 6.359375 -4.25 C 6.359375 -4.894531 6.238281 -5.4375 6 -5.875 C 5.769531 -6.3125 5.421875 -6.640625 4.953125 -6.859375 C 4.484375 -7.078125 3.898438 -7.1875 3.203125 -7.1875 L 2.421875 -7.1875 L 2.421875 -8.640625 L 3.265625 -8.640625 C 3.867188 -8.640625 4.390625 -8.765625 4.828125 -9.015625 C 5.265625 -9.265625 5.601562 -9.613281 5.84375 -10.0625 C 6.082031 -10.519531 6.203125 -11.046875 6.203125 -11.640625 C 6.203125 -12.421875 6.015625 -13.023438 5.640625 -13.453125 C 5.265625 -13.878906 4.738281 -14.09375 4.0625 -14.09375 C 3.726562 -14.09375 3.421875 -14.050781 3.140625 -13.96875 C 2.859375 -13.882812 2.585938 -13.757812 2.328125 -13.59375 C 2.078125 -13.4375 1.820312 -13.238281 1.5625 -13 L 0.75 -14.15625 C 1.289062 -14.644531 1.835938 -15 2.390625 -15.21875 C 2.953125 -15.4375 3.582031 -15.546875 4.28125 -15.546875 C 5.382812 -15.546875 6.253906 -15.210938 6.890625 -14.546875 C 7.523438 -13.878906 7.84375 -12.96875 7.84375 -11.8125 Z M 7.84375 -11.8125 "/></g></g></g><g fill="#231f20" fill-opacity="1"><g transform="translate(481.805862, 457.260586)"><g><path d="M 8.109375 0 L 0.734375 0 L 0.734375 -1.21875 L 3.765625 -5.6875 C 4.359375 -6.5625 4.828125 -7.316406 5.171875 -7.953125 C 5.515625 -8.585938 5.757812 -9.191406 5.90625 -9.765625 C 6.0625 -10.335938 6.140625 -10.957031 6.140625 -11.625 C 6.140625 -12.375 5.957031 -12.960938 5.59375 -13.390625 C 5.238281 -13.828125 4.726562 -14.046875 4.0625 -14.046875 C 3.613281 -14.046875 3.203125 -13.960938 2.828125 -13.796875 C 2.460938 -13.640625 2.085938 -13.378906 1.703125 -13.015625 L 0.859375 -14.15625 C 1.210938 -14.488281 1.554688 -14.753906 1.890625 -14.953125 C 2.234375 -15.160156 2.59375 -15.3125 2.96875 -15.40625 C 3.34375 -15.5 3.75 -15.546875 4.1875 -15.546875 C 4.945312 -15.546875 5.597656 -15.382812 6.140625 -15.0625 C 6.679688 -14.738281 7.09375 -14.285156 7.375 -13.703125 C 7.664062 -13.128906 7.8125 -12.457031 7.8125 -11.6875 C 7.8125 -10.875 7.71875 -10.125 7.53125 -9.4375 C 7.34375 -8.75 7.054688 -8.066406 6.671875 -7.390625 C 6.285156 -6.722656 5.804688 -5.988281 5.234375 -5.1875 L 2.6875 -1.578125 L 2.6875 -1.5 L 8.109375 -1.5 Z M 8.109375 0 "/></g></g></g><g fill="#231f20" fill-opacity="1"><g transform="translate(481.805862, 498.391266)"><g><path d="M 6.1875 0 L 4.53125 0 L 4.53125 -10.53125 C 4.53125 -10.832031 4.53125 -11.140625 4.53125 -11.453125 C 4.539062 -11.765625 4.550781 -12.082031 4.5625 -12.40625 C 4.582031 -12.726562 4.597656 -13.046875 4.609375 -13.359375 C 4.515625 -13.234375 4.390625 -13.082031 4.234375 -12.90625 C 4.085938 -12.738281 3.898438 -12.546875 3.671875 -12.328125 L 2.3125 -11 L 1.359375 -12.03125 L 4.765625 -15.328125 L 6.1875 -15.328125 Z M 6.1875 0 "/></g></g></g><g fill="#231f20" fill-opacity="1"><g transform="translate(481.805862, 537.357173)"><g><path d="M 8.21875 -7.65625 C 8.21875 -6.425781 8.148438 -5.328125 8.015625 -4.359375 C 7.878906 -3.390625 7.660156 -2.566406 7.359375 -1.890625 C 7.066406 -1.210938 6.6875 -0.691406 6.21875 -0.328125 C 5.757812 0.0234375 5.207031 0.203125 4.5625 0.203125 C 3.78125 0.203125 3.117188 -0.0351562 2.578125 -0.515625 C 2.035156 -0.992188 1.617188 -1.804688 1.328125 -2.953125 C 1.035156 -4.097656 0.890625 -5.664062 0.890625 -7.65625 C 0.890625 -9.40625 1.023438 -10.863281 1.296875 -12.03125 C 1.566406 -13.195312 1.972656 -14.070312 2.515625 -14.65625 C 3.054688 -15.25 3.738281 -15.546875 4.5625 -15.546875 C 5.394531 -15.546875 6.082031 -15.25 6.625 -14.65625 C 7.164062 -14.070312 7.566406 -13.191406 7.828125 -12.015625 C 8.085938 -10.847656 8.21875 -9.394531 8.21875 -7.65625 Z M 2.578125 -7.65625 C 2.578125 -6.257812 2.644531 -5.085938 2.78125 -4.140625 C 2.914062 -3.203125 3.128906 -2.492188 3.421875 -2.015625 C 3.710938 -1.546875 4.09375 -1.3125 4.5625 -1.3125 C 5.03125 -1.3125 5.410156 -1.550781 5.703125 -2.03125 C 5.992188 -2.507812 6.207031 -3.21875 6.34375 -4.15625 C 6.476562 -5.101562 6.546875 -6.269531 6.546875 -7.65625 C 6.546875 -9.050781 6.472656 -10.21875 6.328125 -11.15625 C 6.191406 -12.101562 5.976562 -12.816406 5.6875 -13.296875 C 5.40625 -13.785156 5.03125 -14.03125 4.5625 -14.03125 C 4.09375 -14.03125 3.710938 -13.789062 3.421875 -13.3125 C 3.128906 -12.832031 2.914062 -12.125 2.78125 -11.1875 C 2.644531 -10.25 2.578125 -9.070312 2.578125 -7.65625 Z M 2.578125 -7.65625 "/></g></g></g><g fill="#231f20" fill-opacity="1"><g transform="translate(532.945419, 562.562157)"><g><path d="M 4.46875 -9.390625 C 5.25 -9.390625 5.914062 -9.203125 6.46875 -8.828125 C 7.019531 -8.453125 7.441406 -7.925781 7.734375 -7.25 C 8.023438 -6.582031 8.171875 -5.804688 8.171875 -4.921875 C 8.171875 -3.898438 8.003906 -3.003906 7.671875 -2.234375 C 7.347656 -1.472656 6.863281 -0.875 6.21875 -0.4375 C 5.570312 -0.0078125 4.773438 0.203125 3.828125 0.203125 C 3.242188 0.203125 2.722656 0.148438 2.265625 0.046875 C 1.804688 -0.0546875 1.398438 -0.21875 1.046875 -0.4375 L 1.046875 -2.09375 C 1.441406 -1.832031 1.867188 -1.625 2.328125 -1.46875 C 2.785156 -1.3125 3.242188 -1.234375 3.703125 -1.234375 C 4.335938 -1.234375 4.859375 -1.398438 5.265625 -1.734375 C 5.671875 -2.066406 5.972656 -2.503906 6.171875 -3.046875 C 6.378906 -3.597656 6.484375 -4.203125 6.484375 -4.859375 C 6.484375 -5.878906 6.257812 -6.65625 5.8125 -7.1875 C 5.375 -7.71875 4.738281 -7.984375 3.90625 -7.984375 C 3.5625 -7.984375 3.21875 -7.945312 2.875 -7.875 C 2.53125 -7.8125 2.1875 -7.726562 1.84375 -7.625 L 1.1875 -8.265625 L 1.640625 -15.328125 L 7.359375 -15.328125 L 7.359375 -13.8125 L 3.03125 -13.8125 L 2.71875 -9.1875 C 3.007812 -9.25 3.300781 -9.296875 3.59375 -9.328125 C 3.894531 -9.367188 4.1875 -9.390625 4.46875 -9.390625 Z M 4.46875 -9.390625 "/></g></g></g><g fill="#231f20" fill-opacity="1"><g transform="translate(542.075323, 562.562157)"><g><path d="M 8.21875 -7.65625 C 8.21875 -6.425781 8.148438 -5.328125 8.015625 -4.359375 C 7.878906 -3.390625 7.660156 -2.566406 7.359375 -1.890625 C 7.066406 -1.210938 6.6875 -0.691406 6.21875 -0.328125 C 5.757812 0.0234375 5.207031 0.203125 4.5625 0.203125 C 3.78125 0.203125 3.117188 -0.0351562 2.578125 -0.515625 C 2.035156 -0.992188 1.617188 -1.804688 1.328125 -2.953125 C 1.035156 -4.097656 0.890625 -5.664062 0.890625 -7.65625 C 0.890625 -9.40625 1.023438 -10.863281 1.296875 -12.03125 C 1.566406 -13.195312 1.972656 -14.070312 2.515625 -14.65625 C 3.054688 -15.25 3.738281 -15.546875 4.5625 -15.546875 C 5.394531 -15.546875 6.082031 -15.25 6.625 -14.65625 C 7.164062 -14.070312 7.566406 -13.191406 7.828125 -12.015625 C 8.085938 -10.847656 8.21875 -9.394531 8.21875 -7.65625 Z M 2.578125 -7.65625 C 2.578125 -6.257812 2.644531 -5.085938 2.78125 -4.140625 C 2.914062 -3.203125 3.128906 -2.492188 3.421875 -2.015625 C 3.710938 -1.546875 4.09375 -1.3125 4.5625 -1.3125 C 5.03125 -1.3125 5.410156 -1.550781 5.703125 -2.03125 C 5.992188 -2.507812 6.207031 -3.21875 6.34375 -4.15625 C 6.476562 -5.101562 6.546875 -6.269531 6.546875 -7.65625 C 6.546875 -9.050781 6.472656 -10.21875 6.328125 -11.15625 C 6.191406 -12.101562 5.976562 -12.816406 5.6875 -13.296875 C 5.40625 -13.785156 5.03125 -14.03125 4.5625 -14.03125 C 4.09375 -14.03125 3.710938 -13.789062 3.421875 -13.3125 C 3.128906 -12.832031 2.914062 -12.125 2.78125 -11.1875 C 2.644531 -10.25 2.578125 -9.070312 2.578125 -7.65625 Z M 2.578125 -7.65625 "/></g></g></g><g fill="#231f20" fill-opacity="1"><g transform="translate(605.908032, 562.562157)"><g><path d="M 0.953125 -6.515625 C 0.953125 -7.679688 1.015625 -8.738281 1.140625 -9.6875 C 1.265625 -10.632812 1.445312 -11.472656 1.6875 -12.203125 C 1.9375 -12.929688 2.253906 -13.539062 2.640625 -14.03125 C 3.035156 -14.53125 3.5 -14.90625 4.03125 -15.15625 C 4.570312 -15.40625 5.1875 -15.53125 5.875 -15.53125 C 6.175781 -15.53125 6.460938 -15.507812 6.734375 -15.46875 C 7.003906 -15.4375 7.25 -15.382812 7.46875 -15.3125 L 7.46875 -13.828125 C 7.238281 -13.898438 6.992188 -13.957031 6.734375 -14 C 6.484375 -14.039062 6.21875 -14.0625 5.9375 -14.0625 C 5.238281 -14.0625 4.640625 -13.828125 4.140625 -13.359375 C 3.648438 -12.898438 3.269531 -12.210938 3 -11.296875 C 2.738281 -10.390625 2.585938 -9.253906 2.546875 -7.890625 L 2.625 -7.890625 C 2.769531 -8.242188 2.957031 -8.550781 3.1875 -8.8125 C 3.425781 -9.082031 3.703125 -9.289062 4.015625 -9.4375 C 4.335938 -9.59375 4.691406 -9.671875 5.078125 -9.671875 C 5.796875 -9.671875 6.382812 -9.453125 6.84375 -9.015625 C 7.3125 -8.585938 7.660156 -8.007812 7.890625 -7.28125 C 8.117188 -6.5625 8.234375 -5.742188 8.234375 -4.828125 C 8.234375 -3.867188 8.101562 -3.003906 7.84375 -2.234375 C 7.582031 -1.472656 7.1875 -0.875 6.65625 -0.4375 C 6.132812 0 5.484375 0.21875 4.703125 0.21875 C 4.097656 0.21875 3.5625 0.0703125 3.09375 -0.21875 C 2.625 -0.507812 2.226562 -0.941406 1.90625 -1.515625 C 1.59375 -2.085938 1.351562 -2.789062 1.1875 -3.625 C 1.03125 -4.46875 0.953125 -5.429688 0.953125 -6.515625 Z M 4.6875 -1.265625 C 5.289062 -1.265625 5.757812 -1.554688 6.09375 -2.140625 C 6.425781 -2.734375 6.59375 -3.617188 6.59375 -4.796875 C 6.59375 -5.898438 6.4375 -6.738281 6.125 -7.3125 C 5.8125 -7.894531 5.335938 -8.1875 4.703125 -8.1875 C 4.253906 -8.1875 3.875 -8.054688 3.5625 -7.796875 C 3.257812 -7.546875 3.03125 -7.210938 2.875 -6.796875 C 2.726562 -6.378906 2.65625 -5.925781 2.65625 -5.4375 C 2.65625 -5 2.6875 -4.535156 2.75 -4.046875 C 2.820312 -3.566406 2.9375 -3.113281 3.09375 -2.6875 C 3.25 -2.269531 3.457031 -1.925781 3.71875 -1.65625 C 3.976562 -1.394531 4.300781 -1.265625 4.6875 -1.265625 Z M 4.6875 -1.265625 "/></g></g></g><g fill="#231f20" fill-opacity="1"><g transform="translate(615.037936, 562.562157)"><g><path d="M 8.21875 -7.65625 C 8.21875 -6.425781 8.148438 -5.328125 8.015625 -4.359375 C 7.878906 -3.390625 7.660156 -2.566406 7.359375 -1.890625 C 7.066406 -1.210938 6.6875 -0.691406 6.21875 -0.328125 C 5.757812 0.0234375 5.207031 0.203125 4.5625 0.203125 C 3.78125 0.203125 3.117188 -0.0351562 2.578125 -0.515625 C 2.035156 -0.992188 1.617188 -1.804688 1.328125 -2.953125 C 1.035156 -4.097656 0.890625 -5.664062 0.890625 -7.65625 C 0.890625 -9.40625 1.023438 -10.863281 1.296875 -12.03125 C 1.566406 -13.195312 1.972656 -14.070312 2.515625 -14.65625 C 3.054688 -15.25 3.738281 -15.546875 4.5625 -15.546875 C 5.394531 -15.546875 6.082031 -15.25 6.625 -14.65625 C 7.164062 -14.070312 7.566406 -13.191406 7.828125 -12.015625 C 8.085938 -10.847656 8.21875 -9.394531 8.21875 -7.65625 Z M 2.578125 -7.65625 C 2.578125 -6.257812 2.644531 -5.085938 2.78125 -4.140625 C 2.914062 -3.203125 3.128906 -2.492188 3.421875 -2.015625 C 3.710938 -1.546875 4.09375 -1.3125 4.5625 -1.3125 C 5.03125 -1.3125 5.410156 -1.550781 5.703125 -2.03125 C 5.992188 -2.507812 6.207031 -3.21875 6.34375 -4.15625 C 6.476562 -5.101562 6.546875 -6.269531 6.546875 -7.65625 C 6.546875 -9.050781 6.472656 -10.21875 6.328125 -11.15625 C 6.191406 -12.101562 5.976562 -12.816406 5.6875 -13.296875 C 5.40625 -13.785156 5.03125 -14.03125 4.5625 -14.03125 C 4.09375 -14.03125 3.710938 -13.789062 3.421875 -13.3125 C 3.128906 -12.832031 2.914062 -12.125 2.78125 -11.1875 C 2.644531 -10.25 2.578125 -9.070312 2.578125 -7.65625 Z M 2.578125 -7.65625 "/></g></g></g><g fill="#231f20" fill-opacity="1"><g transform="translate(677.17346, 562.562157)"><g><path d="M 2.015625 0 L 6.640625 -13.8125 L 0.6875 -13.8125 L 0.6875 -15.328125 L 8.328125 -15.328125 L 8.328125 -14.09375 L 3.75 0 Z M 2.015625 0 "/></g></g></g><g fill="#231f20" fill-opacity="1"><g transform="translate(686.303364, 562.562157)"><g><path d="M 8.21875 -7.65625 C 8.21875 -6.425781 8.148438 -5.328125 8.015625 -4.359375 C 7.878906 -3.390625 7.660156 -2.566406 7.359375 -1.890625 C 7.066406 -1.210938 6.6875 -0.691406 6.21875 -0.328125 C 5.757812 0.0234375 5.207031 0.203125 4.5625 0.203125 C 3.78125 0.203125 3.117188 -0.0351562 2.578125 -0.515625 C 2.035156 -0.992188 1.617188 -1.804688 1.328125 -2.953125 C 1.035156 -4.097656 0.890625 -5.664062 0.890625 -7.65625 C 0.890625 -9.40625 1.023438 -10.863281 1.296875 -12.03125 C 1.566406 -13.195312 1.972656 -14.070312 2.515625 -14.65625 C 3.054688 -15.25 3.738281 -15.546875 4.5625 -15.546875 C 5.394531 -15.546875 6.082031 -15.25 6.625 -14.65625 C 7.164062 -14.070312 7.566406 -13.191406 7.828125 -12.015625 C 8.085938 -10.847656 8.21875 -9.394531 8.21875 -7.65625 Z M 2.578125 -7.65625 C 2.578125 -6.257812 2.644531 -5.085938 2.78125 -4.140625 C 2.914062 -3.203125 3.128906 -2.492188 3.421875 -2.015625 C 3.710938 -1.546875 4.09375 -1.3125 4.5625 -1.3125 C 5.03125 -1.3125 5.410156 -1.550781 5.703125 -2.03125 C 5.992188 -2.507812 6.207031 -3.21875 6.34375 -4.15625 C 6.476562 -5.101562 6.546875 -6.269531 6.546875 -7.65625 C 6.546875 -9.050781 6.472656 -10.21875 6.328125 -11.15625 C 6.191406 -12.101562 5.976562 -12.816406 5.6875 -13.296875 C 5.40625 -13.785156 5.03125 -14.03125 4.5625 -14.03125 C 4.09375 -14.03125 3.710938 -13.789062 3.421875 -13.3125 C 3.128906 -12.832031 2.914062 -12.125 2.78125 -11.1875 C 2.644531 -10.25 2.578125 -9.070312 2.578125 -7.65625 Z M 2.578125 -7.65625 "/></g></g></g><g fill="#231f20" fill-opacity="1"><g transform="translate(749.425745, 562.562157)"><g><path d="M 4.59375 -15.546875 C 5.320312 -15.546875 5.941406 -15.398438 6.453125 -15.109375 C 6.972656 -14.816406 7.367188 -14.40625 7.640625 -13.875 C 7.921875 -13.34375 8.0625 -12.710938 8.0625 -11.984375 C 8.0625 -11.410156 7.972656 -10.882812 7.796875 -10.40625 C 7.617188 -9.925781 7.347656 -9.488281 6.984375 -9.09375 C 6.628906 -8.695312 6.1875 -8.335938 5.65625 -8.015625 C 6.195312 -7.648438 6.671875 -7.269531 7.078125 -6.875 C 7.492188 -6.476562 7.816406 -6.035156 8.046875 -5.546875 C 8.285156 -5.054688 8.40625 -4.5 8.40625 -3.875 C 8.40625 -3.0625 8.25 -2.347656 7.9375 -1.734375 C 7.632812 -1.128906 7.203125 -0.65625 6.640625 -0.3125 C 6.078125 0.03125 5.414062 0.203125 4.65625 0.203125 C 3.832031 0.203125 3.125 0.0390625 2.53125 -0.28125 C 1.945312 -0.613281 1.5 -1.078125 1.1875 -1.671875 C 0.882812 -2.265625 0.734375 -2.960938 0.734375 -3.765625 C 0.734375 -4.378906 0.828125 -4.9375 1.015625 -5.4375 C 1.203125 -5.945312 1.484375 -6.410156 1.859375 -6.828125 C 2.242188 -7.253906 2.722656 -7.648438 3.296875 -8.015625 C 2.804688 -8.378906 2.394531 -8.765625 2.0625 -9.171875 C 1.738281 -9.585938 1.492188 -10.023438 1.328125 -10.484375 C 1.171875 -10.953125 1.09375 -11.441406 1.09375 -11.953125 C 1.09375 -12.679688 1.234375 -13.3125 1.515625 -13.84375 C 1.804688 -14.382812 2.210938 -14.800781 2.734375 -15.09375 C 3.265625 -15.394531 3.882812 -15.546875 4.59375 -15.546875 Z M 2.375 -3.75 C 2.375 -3 2.5625 -2.382812 2.9375 -1.90625 C 3.320312 -1.425781 3.867188 -1.1875 4.578125 -1.1875 C 5.296875 -1.1875 5.835938 -1.4375 6.203125 -1.9375 C 6.578125 -2.4375 6.765625 -3.078125 6.765625 -3.859375 C 6.765625 -4.234375 6.695312 -4.597656 6.5625 -4.953125 C 6.425781 -5.304688 6.21875 -5.648438 5.9375 -5.984375 C 5.65625 -6.316406 5.285156 -6.640625 4.828125 -6.953125 L 4.40625 -7.25 C 3.925781 -6.925781 3.535156 -6.59375 3.234375 -6.25 C 2.929688 -5.914062 2.710938 -5.546875 2.578125 -5.140625 C 2.441406 -4.734375 2.375 -4.269531 2.375 -3.75 Z M 4.5625 -14.140625 C 3.988281 -14.140625 3.535156 -13.9375 3.203125 -13.53125 C 2.867188 -13.125 2.703125 -12.566406 2.703125 -11.859375 C 2.703125 -11.421875 2.769531 -11.023438 2.90625 -10.671875 C 3.050781 -10.316406 3.257812 -9.988281 3.53125 -9.6875 C 3.800781 -9.394531 4.140625 -9.109375 4.546875 -8.828125 C 4.984375 -9.109375 5.335938 -9.398438 5.609375 -9.703125 C 5.890625 -10.003906 6.097656 -10.332031 6.234375 -10.6875 C 6.367188 -11.039062 6.4375 -11.429688 6.4375 -11.859375 C 6.4375 -12.566406 6.269531 -13.125 5.9375 -13.53125 C 5.613281 -13.9375 5.15625 -14.140625 4.5625 -14.140625 Z M 4.5625 -14.140625 "/></g></g></g><g fill="#231f20" fill-opacity="1"><g transform="translate(758.555648, 562.562157)"><g><path d="M 8.21875 -7.65625 C 8.21875 -6.425781 8.148438 -5.328125 8.015625 -4.359375 C 7.878906 -3.390625 7.660156 -2.566406 7.359375 -1.890625 C 7.066406 -1.210938 6.6875 -0.691406 6.21875 -0.328125 C 5.757812 0.0234375 5.207031 0.203125 4.5625 0.203125 C 3.78125 0.203125 3.117188 -0.0351562 2.578125 -0.515625 C 2.035156 -0.992188 1.617188 -1.804688 1.328125 -2.953125 C 1.035156 -4.097656 0.890625 -5.664062 0.890625 -7.65625 C 0.890625 -9.40625 1.023438 -10.863281 1.296875 -12.03125 C 1.566406 -13.195312 1.972656 -14.070312 2.515625 -14.65625 C 3.054688 -15.25 3.738281 -15.546875 4.5625 -15.546875 C 5.394531 -15.546875 6.082031 -15.25 6.625 -14.65625 C 7.164062 -14.070312 7.566406 -13.191406 7.828125 -12.015625 C 8.085938 -10.847656 8.21875 -9.394531 8.21875 -7.65625 Z M 2.578125 -7.65625 C 2.578125 -6.257812 2.644531 -5.085938 2.78125 -4.140625 C 2.914062 -3.203125 3.128906 -2.492188 3.421875 -2.015625 C 3.710938 -1.546875 4.09375 -1.3125 4.5625 -1.3125 C 5.03125 -1.3125 5.410156 -1.550781 5.703125 -2.03125 C 5.992188 -2.507812 6.207031 -3.21875 6.34375 -4.15625 C 6.476562 -5.101562 6.546875 -6.269531 6.546875 -7.65625 C 6.546875 -9.050781 6.472656 -10.21875 6.328125 -11.15625 C 6.191406 -12.101562 5.976562 -12.816406 5.6875 -13.296875 C 5.40625 -13.785156 5.03125 -14.03125 4.5625 -14.03125 C 4.09375 -14.03125 3.710938 -13.789062 3.421875 -13.3125 C 3.128906 -12.832031 2.914062 -12.125 2.78125 -11.1875 C 2.644531 -10.25 2.578125 -9.070312 2.578125 -7.65625 Z M 2.578125 -7.65625 "/></g></g></g><g fill="#231f20" fill-opacity="1"><g transform="translate(821.679637, 562.562157)"><g><path d="M 8.078125 -8.921875 C 8.078125 -7.742188 8.015625 -6.675781 7.890625 -5.71875 C 7.765625 -4.757812 7.570312 -3.910156 7.3125 -3.171875 C 7.050781 -2.429688 6.722656 -1.8125 6.328125 -1.3125 C 5.941406 -0.8125 5.476562 -0.429688 4.9375 -0.171875 C 4.40625 0.078125 3.800781 0.203125 3.125 0.203125 C 2.863281 0.203125 2.570312 0.179688 2.25 0.140625 C 1.9375 0.0976562 1.679688 0.046875 1.484375 -0.015625 L 1.484375 -1.515625 C 1.703125 -1.429688 1.941406 -1.367188 2.203125 -1.328125 C 2.472656 -1.285156 2.769531 -1.265625 3.09375 -1.265625 C 3.894531 -1.265625 4.535156 -1.546875 5.015625 -2.109375 C 5.503906 -2.679688 5.863281 -3.4375 6.09375 -4.375 C 6.332031 -5.3125 6.460938 -6.328125 6.484375 -7.421875 L 6.421875 -7.421875 C 6.273438 -7.078125 6.082031 -6.769531 5.84375 -6.5 C 5.613281 -6.238281 5.34375 -6.03125 5.03125 -5.875 C 4.71875 -5.726562 4.363281 -5.65625 3.96875 -5.65625 C 3.25 -5.65625 2.65625 -5.867188 2.1875 -6.296875 C 1.71875 -6.722656 1.367188 -7.300781 1.140625 -8.03125 C 0.921875 -8.757812 0.8125 -9.578125 0.8125 -10.484375 C 0.8125 -11.441406 0.941406 -12.300781 1.203125 -13.0625 C 1.472656 -13.832031 1.875 -14.4375 2.40625 -14.875 C 2.9375 -15.320312 3.613281 -15.546875 4.4375 -15.546875 C 5.03125 -15.546875 5.550781 -15.398438 6 -15.109375 C 6.457031 -14.816406 6.835938 -14.390625 7.140625 -13.828125 C 7.453125 -13.265625 7.6875 -12.570312 7.84375 -11.75 C 8 -10.9375 8.078125 -9.992188 8.078125 -8.921875 Z M 4.421875 -14.046875 C 3.773438 -14.046875 3.285156 -13.753906 2.953125 -13.171875 C 2.628906 -12.585938 2.46875 -11.707031 2.46875 -10.53125 C 2.46875 -9.425781 2.625 -8.582031 2.9375 -8 C 3.257812 -7.414062 3.738281 -7.125 4.375 -7.125 C 4.832031 -7.125 5.210938 -7.257812 5.515625 -7.53125 C 5.816406 -7.8125 6.039062 -8.171875 6.1875 -8.609375 C 6.332031 -9.054688 6.40625 -9.53125 6.40625 -10.03125 C 6.40625 -10.40625 6.375 -10.816406 6.3125 -11.265625 C 6.257812 -11.722656 6.160156 -12.164062 6.015625 -12.59375 C 5.878906 -13.019531 5.679688 -13.367188 5.421875 -13.640625 C 5.171875 -13.910156 4.835938 -14.046875 4.421875 -14.046875 Z M 4.421875 -14.046875 "/></g></g></g><g fill="#231f20" fill-opacity="1"><g transform="translate(830.809541, 562.562157)"><g><path d="M 8.21875 -7.65625 C 8.21875 -6.425781 8.148438 -5.328125 8.015625 -4.359375 C 7.878906 -3.390625 7.660156 -2.566406 7.359375 -1.890625 C 7.066406 -1.210938 6.6875 -0.691406 6.21875 -0.328125 C 5.757812 0.0234375 5.207031 0.203125 4.5625 0.203125 C 3.78125 0.203125 3.117188 -0.0351562 2.578125 -0.515625 C 2.035156 -0.992188 1.617188 -1.804688 1.328125 -2.953125 C 1.035156 -4.097656 0.890625 -5.664062 0.890625 -7.65625 C 0.890625 -9.40625 1.023438 -10.863281 1.296875 -12.03125 C 1.566406 -13.195312 1.972656 -14.070312 2.515625 -14.65625 C 3.054688 -15.25 3.738281 -15.546875 4.5625 -15.546875 C 5.394531 -15.546875 6.082031 -15.25 6.625 -14.65625 C 7.164062 -14.070312 7.566406 -13.191406 7.828125 -12.015625 C 8.085938 -10.847656 8.21875 -9.394531 8.21875 -7.65625 Z M 2.578125 -7.65625 C 2.578125 -6.257812 2.644531 -5.085938 2.78125 -4.140625 C 2.914062 -3.203125 3.128906 -2.492188 3.421875 -2.015625 C 3.710938 -1.546875 4.09375 -1.3125 4.5625 -1.3125 C 5.03125 -1.3125 5.410156 -1.550781 5.703125 -2.03125 C 5.992188 -2.507812 6.207031 -3.21875 6.34375 -4.15625 C 6.476562 -5.101562 6.546875 -6.269531 6.546875 -7.65625 C 6.546875 -9.050781 6.472656 -10.21875 6.328125 -11.15625 C 6.191406 -12.101562 5.976562 -12.816406 5.6875 -13.296875 C 5.40625 -13.785156 5.03125 -14.03125 4.5625 -14.03125 C 4.09375 -14.03125 3.710938 -13.789062 3.421875 -13.3125 C 3.128906 -12.832031 2.914062 -12.125 2.78125 -11.1875 C 2.644531 -10.25 2.578125 -9.070312 2.578125 -7.65625 Z M 2.578125 -7.65625 "/></g></g></g><g fill="#231f20" fill-opacity="1"><g transform="translate(888.907474, 562.562157)"><g><path d="M 6.1875 0 L 4.53125 0 L 4.53125 -10.53125 C 4.53125 -10.832031 4.53125 -11.140625 4.53125 -11.453125 C 4.539062 -11.765625 4.550781 -12.082031 4.5625 -12.40625 C 4.582031 -12.726562 4.597656 -13.046875 4.609375 -13.359375 C 4.515625 -13.234375 4.390625 -13.082031 4.234375 -12.90625 C 4.085938 -12.738281 3.898438 -12.546875 3.671875 -12.328125 L 2.3125 -11 L 1.359375 -12.03125 L 4.765625 -15.328125 L 6.1875 -15.328125 Z M 6.1875 0 "/></g></g></g><g fill="#231f20" fill-opacity="1"><g transform="translate(898.037377, 562.562157)"><g><path d="M 8.21875 -7.65625 C 8.21875 -6.425781 8.148438 -5.328125 8.015625 -4.359375 C 7.878906 -3.390625 7.660156 -2.566406 7.359375 -1.890625 C 7.066406 -1.210938 6.6875 -0.691406 6.21875 -0.328125 C 5.757812 0.0234375 5.207031 0.203125 4.5625 0.203125 C 3.78125 0.203125 3.117188 -0.0351562 2.578125 -0.515625 C 2.035156 -0.992188 1.617188 -1.804688 1.328125 -2.953125 C 1.035156 -4.097656 0.890625 -5.664062 0.890625 -7.65625 C 0.890625 -9.40625 1.023438 -10.863281 1.296875 -12.03125 C 1.566406 -13.195312 1.972656 -14.070312 2.515625 -14.65625 C 3.054688 -15.25 3.738281 -15.546875 4.5625 -15.546875 C 5.394531 -15.546875 6.082031 -15.25 6.625 -14.65625 C 7.164062 -14.070312 7.566406 -13.191406 7.828125 -12.015625 C 8.085938 -10.847656 8.21875 -9.394531 8.21875 -7.65625 Z M 2.578125 -7.65625 C 2.578125 -6.257812 2.644531 -5.085938 2.78125 -4.140625 C 2.914062 -3.203125 3.128906 -2.492188 3.421875 -2.015625 C 3.710938 -1.546875 4.09375 -1.3125 4.5625 -1.3125 C 5.03125 -1.3125 5.410156 -1.550781 5.703125 -2.03125 C 5.992188 -2.507812 6.207031 -3.21875 6.34375 -4.15625 C 6.476562 -5.101562 6.546875 -6.269531 6.546875 -7.65625 C 6.546875 -9.050781 6.472656 -10.21875 6.328125 -11.15625 C 6.191406 -12.101562 5.976562 -12.816406 5.6875 -13.296875 C 5.40625 -13.785156 5.03125 -14.03125 4.5625 -14.03125 C 4.09375 -14.03125 3.710938 -13.789062 3.421875 -13.3125 C 3.128906 -12.832031 2.914062 -12.125 2.78125 -11.1875 C 2.644531 -10.25 2.578125 -9.070312 2.578125 -7.65625 Z M 2.578125 -7.65625 "/></g></g></g><g fill="#231f20" fill-opacity="1"><g transform="translate(907.167281, 562.562157)"><g><path d="M 8.21875 -7.65625 C 8.21875 -6.425781 8.148438 -5.328125 8.015625 -4.359375 C 7.878906 -3.390625 7.660156 -2.566406 7.359375 -1.890625 C 7.066406 -1.210938 6.6875 -0.691406 6.21875 -0.328125 C 5.757812 0.0234375 5.207031 0.203125 4.5625 0.203125 C 3.78125 0.203125 3.117188 -0.0351562 2.578125 -0.515625 C 2.035156 -0.992188 1.617188 -1.804688 1.328125 -2.953125 C 1.035156 -4.097656 0.890625 -5.664062 0.890625 -7.65625 C 0.890625 -9.40625 1.023438 -10.863281 1.296875 -12.03125 C 1.566406 -13.195312 1.972656 -14.070312 2.515625 -14.65625 C 3.054688 -15.25 3.738281 -15.546875 4.5625 -15.546875 C 5.394531 -15.546875 6.082031 -15.25 6.625 -14.65625 C 7.164062 -14.070312 7.566406 -13.191406 7.828125 -12.015625 C 8.085938 -10.847656 8.21875 -9.394531 8.21875 -7.65625 Z M 2.578125 -7.65625 C 2.578125 -6.257812 2.644531 -5.085938 2.78125 -4.140625 C 2.914062 -3.203125 3.128906 -2.492188 3.421875 -2.015625 C 3.710938 -1.546875 4.09375 -1.3125 4.5625 -1.3125 C 5.03125 -1.3125 5.410156 -1.550781 5.703125 -2.03125 C 5.992188 -2.507812 6.207031 -3.21875 6.34375 -4.15625 C 6.476562 -5.101562 6.546875 -6.269531 6.546875 -7.65625 C 6.546875 -9.050781 6.472656 -10.21875 6.328125 -11.15625 C 6.191406 -12.101562 5.976562 -12.816406 5.6875 -13.296875 C 5.40625 -13.785156 5.03125 -14.03125 4.5625 -14.03125 C 4.09375 -14.03125 3.710938 -13.789062 3.421875 -13.3125 C 3.128906 -12.832031 2.914062 -12.125 2.78125 -11.1875 C 2.644531 -10.25 2.578125 -9.070312 2.578125 -7.65625 Z M 2.578125 -7.65625 "/></g></g></g></svg>