<svg xmlns="http://www.w3.org/2000/svg" xmlns:xlink="http://www.w3.org/1999/xlink" width="794" zoomAndPan="magnify" viewBox="0 0 1440 809.999993" height="1123" preserveAspectRatio="xMidYMid meet" version="1.0"><defs><g/><clipPath id="e7f61aff38"><path d="M 498.359375 199 L 820 199 L 820 576 L 498.359375 576 Z M 498.359375 199 " clip-rule="nonzero"/></clipPath><clipPath id="d5031a4530"><path d="M 719.683594 355.125 L 818.9375 549.960938 L 819.359375 550.808594 L 818.511719 551.234375 C 710.425781 606.316406 578.195312 563.347656 523.113281 455.261719 L 523.960938 454.835938 L 523.113281 455.261719 C 479.097656 368.816406 494.914062 268.871094 563.539062 200.25 L 564.230469 199.554688 L 564.925781 200.25 L 719.53125 354.890625 L 719.648438 355.007812 L 719.722656 355.160156 M 717.988281 356.050781 L 718.835938 355.625 L 718.140625 356.320312 L 563.539062 201.636719 L 564.230469 200.941406 L 564.925781 201.636719 C 496.882812 269.644531 481.179688 368.703125 524.847656 454.375 C 579.429688 561.496094 710.503906 604.082031 817.625 549.5 L 818.050781 550.347656 L 817.199219 550.769531 L 717.988281 356.011719 Z M 717.988281 356.050781 " clip-rule="nonzero"/></clipPath><clipPath id="826f8df54a"><path d="M 717.46875 199 L 938.609375 199 L 938.609375 552 L 717.46875 552 Z M 717.46875 199 " clip-rule="nonzero"/></clipPath><clipPath id="f205190507"><path d="M 718.140625 354.890625 L 872.746094 200.285156 L 873.441406 199.59375 L 874.136719 200.285156 C 959.886719 286.039062 959.886719 425.097656 874.136719 510.886719 L 873.441406 510.191406 L 874.136719 510.886719 C 856.96875 528.050781 840.152344 540.277344 818.550781 551.273438 L 817.703125 551.695312 L 817.277344 550.847656 L 717.988281 356.011719 L 717.679688 355.394531 L 718.179688 354.890625 M 719.53125 356.242188 L 718.835938 355.546875 L 719.683594 355.125 L 818.9375 549.960938 L 818.085938 550.386719 L 817.664062 549.535156 C 839.109375 538.621094 855.773438 526.507812 872.746094 509.496094 C 957.765625 424.480469 957.765625 286.65625 872.746094 201.636719 L 873.441406 200.941406 L 874.136719 201.636719 Z M 719.53125 356.242188 " clip-rule="nonzero"/></clipPath><clipPath id="9a8cb6202e"><path d="M 562 135.789062 L 875 135.789062 L 875 357 L 562 357 Z M 562 135.789062 " clip-rule="nonzero"/></clipPath><clipPath id="4a2d94ceb8"><path d="M 718.140625 356.242188 L 563.539062 201.636719 L 562.84375 200.941406 L 563.539062 200.25 C 649.289062 114.5 788.347656 114.5 874.136719 200.25 L 874.832031 200.941406 L 718.835938 356.9375 L 718.140625 356.242188 M 719.492188 354.890625 L 718.796875 355.585938 L 718.105469 354.890625 L 872.707031 200.285156 L 873.402344 200.980469 L 872.707031 201.675781 C 787.691406 116.660156 649.867188 116.660156 564.847656 201.675781 L 564.15625 200.980469 L 564.847656 200.285156 L 719.53125 354.890625 Z M 719.492188 354.890625 " clip-rule="nonzero"/></clipPath></defs><g clip-path="url(#e7f61aff38)"><g clip-path="url(#d5031a4530)"><path fill="#231f20" d="M 459.8125 95.210938 L 979.183594 95.210938 L 979.183594 624.726562 L 459.8125 624.726562 Z M 459.8125 95.210938 " fill-opacity="1" fill-rule="nonzero"/></g></g><g clip-path="url(#826f8df54a)"><g clip-path="url(#f205190507)"><path fill="#231f20" d="M 459.8125 95.210938 L 979.183594 95.210938 L 979.183594 624.726562 L 459.8125 624.726562 Z M 459.8125 95.210938 " fill-opacity="1" fill-rule="nonzero"/></g></g><g clip-path="url(#9a8cb6202e)"><g clip-path="url(#4a2d94ceb8)"><path fill="#231f20" d="M 459.8125 95.210938 L 979.183594 95.210938 L 979.183594 624.726562 L 459.8125 624.726562 Z M 459.8125 95.210938 " fill-opacity="1" fill-rule="nonzero"/></g></g><g fill="#231f20" fill-opacity="1"><g transform="translate(555.076972, 413.662117)"><g><path d="M 6.75 -33.03125 L 6.078125 -21.109375 L 3.453125 -21.109375 L 2.734375 -33.03125 Z M 6.75 -33.03125 "/></g></g></g><g fill="#231f20" fill-opacity="1"><g transform="translate(566.14238, 413.662117)"><g><path d="M 2.078125 0 L 2.078125 -2.890625 L 11.796875 -2.890625 L 11.796875 -20.8125 C 11.796875 -22.664062 11.5625 -24.035156 11.09375 -24.921875 C 10.625 -25.816406 9.816406 -26.351562 8.671875 -26.53125 C 8.421875 -26.570312 8.144531 -26.601562 7.84375 -26.625 C 7.550781 -26.65625 7.253906 -26.671875 6.953125 -26.671875 C 6.066406 -26.671875 5.296875 -26.648438 4.640625 -26.609375 C 3.984375 -26.566406 3.125 -26.488281 2.0625 -26.375 L 2.0625 -29.328125 C 2.875 -29.421875 3.65625 -29.488281 4.40625 -29.53125 C 5.15625 -29.582031 5.894531 -29.609375 6.625 -29.609375 C 7.632812 -29.609375 8.476562 -29.566406 9.15625 -29.484375 C 9.832031 -29.410156 10.425781 -29.289062 10.9375 -29.125 C 11.644531 -28.90625 12.265625 -28.59375 12.796875 -28.1875 C 13.335938 -27.789062 13.78125 -27.3125 14.125 -26.75 C 14.382812 -26.363281 14.59375 -25.859375 14.75 -25.234375 C 14.914062 -24.609375 15.035156 -23.914062 15.109375 -23.15625 C 15.191406 -22.394531 15.234375 -21.609375 15.234375 -20.796875 L 15.234375 -2.890625 L 17.53125 -2.890625 L 17.53125 0 Z M 2.078125 0 "/></g></g></g><g fill="#231f20" fill-opacity="1"><g transform="translate(586.064541, 413.662117)"><g/></g></g><g fill="#231f20" fill-opacity="1"><g transform="translate(596.316574, 413.662117)"><g><path d="M 8.15625 0 L 8.15625 -20.203125 C 8.15625 -21.054688 8.265625 -21.851562 8.484375 -22.59375 C 8.703125 -23.332031 8.96875 -23.914062 9.28125 -24.34375 C 9.644531 -24.851562 9.972656 -25.242188 10.265625 -25.515625 C 10.566406 -25.796875 10.921875 -26.046875 11.328125 -26.265625 L 0.453125 -26.265625 L 0.453125 -29.15625 L 15.953125 -29.15625 L 15.953125 -26.53125 C 15.148438 -26.238281 14.484375 -25.894531 13.953125 -25.5 C 13.421875 -25.101562 13.007812 -24.703125 12.71875 -24.296875 C 11.96875 -23.242188 11.59375 -21.863281 11.59375 -20.15625 L 11.59375 0 Z M 8.15625 0 "/></g></g></g><g fill="#231f20" fill-opacity="1"><g transform="translate(614.544204, 413.662117)"><g><path d="M 1.21875 0 L 3.140625 -21.453125 C 3.148438 -21.640625 3.160156 -21.863281 3.171875 -22.125 C 3.191406 -22.394531 3.203125 -22.644531 3.203125 -22.875 C 3.203125 -23.382812 3.15625 -23.925781 3.0625 -24.5 C 2.976562 -25.070312 2.851562 -25.648438 2.6875 -26.234375 C 2.65625 -26.390625 2.613281 -26.546875 2.5625 -26.703125 C 2.507812 -26.859375 2.457031 -27.007812 2.40625 -27.15625 C 2.351562 -27.3125 2.304688 -27.460938 2.265625 -27.609375 C 2.171875 -27.867188 2.082031 -28.125 2 -28.375 C 1.914062 -28.632812 1.828125 -28.894531 1.734375 -29.15625 L 5.15625 -29.15625 C 5.375 -28.644531 5.578125 -28.078125 5.765625 -27.453125 C 5.960938 -26.835938 6.101562 -26.273438 6.1875 -25.765625 L 6.390625 -25.765625 C 6.609375 -26.234375 6.890625 -26.691406 7.234375 -27.140625 C 7.578125 -27.585938 7.945312 -27.960938 8.34375 -28.265625 C 8.757812 -28.617188 9.320312 -28.929688 10.03125 -29.203125 C 10.738281 -29.472656 11.53125 -29.609375 12.40625 -29.609375 C 13.320312 -29.609375 14.113281 -29.441406 14.78125 -29.109375 C 15.445312 -28.785156 15.988281 -28.363281 16.40625 -27.84375 C 16.6875 -27.5 16.9375 -27.066406 17.15625 -26.546875 C 17.375 -26.035156 17.546875 -25.488281 17.671875 -24.90625 C 17.847656 -24.132812 17.984375 -23.238281 18.078125 -22.21875 C 18.171875 -21.207031 18.21875 -20.113281 18.21875 -18.9375 L 18.21875 0 L 9.625 0 L 9.625 -2.890625 L 14.78125 -2.890625 L 14.78125 -18.9375 C 14.78125 -20.59375 14.726562 -21.804688 14.625 -22.578125 C 14.519531 -23.347656 14.398438 -23.960938 14.265625 -24.421875 C 14.066406 -25.078125 13.8125 -25.554688 13.5 -25.859375 C 13.195312 -26.171875 12.894531 -26.375 12.59375 -26.46875 C 12.300781 -26.570312 12.054688 -26.625 11.859375 -26.625 C 11.003906 -26.625 10.285156 -26.460938 9.703125 -26.140625 C 9.117188 -25.816406 8.632812 -25.394531 8.25 -24.875 C 7.84375 -24.363281 7.507812 -23.851562 7.25 -23.34375 C 7 -22.84375 6.789062 -22.316406 6.625 -21.765625 L 4.65625 0 Z M 1.21875 0 "/></g></g></g><g fill="#231f20" fill-opacity="1"><g transform="translate(637.290584, 413.662117)"><g><path d="M 1.46875 1.203125 L 1.46875 -1.734375 L 5.28125 -2.421875 C 5.613281 -2.484375 5.945312 -2.539062 6.28125 -2.59375 C 6.613281 -2.65625 6.953125 -2.707031 7.296875 -2.75 L 1.53125 -29.15625 L 4.96875 -29.15625 L 7.8125 -15.984375 L 10.09375 -4.0625 C 11.21875 -4.769531 12.066406 -5.734375 12.640625 -6.953125 C 13.222656 -8.179688 13.648438 -9.570312 13.921875 -11.125 C 14.191406 -12.675781 14.414062 -14.285156 14.59375 -15.953125 L 15.84375 -29.15625 L 19.28125 -29.15625 L 18.03125 -16.265625 C 17.832031 -14.304688 17.613281 -12.515625 17.375 -10.890625 C 17.132812 -9.273438 16.742188 -7.820312 16.203125 -6.53125 C 15.671875 -5.25 14.863281 -4.117188 13.78125 -3.140625 C 13.070312 -2.296875 12.207031 -1.601562 11.1875 -1.0625 C 10.164062 -0.53125 8.929688 -0.128906 7.484375 0.140625 C 6.484375 0.304688 5.484375 0.476562 4.484375 0.65625 C 3.484375 0.832031 2.476562 1.015625 1.46875 1.203125 Z M 1.46875 1.203125 "/></g></g></g><g fill="#231f20" fill-opacity="1"><g transform="translate(659.020246, 413.662117)"><g><path d="M 3.03125 0 L 3.03125 -29.15625 L 6.484375 -29.15625 L 6.484375 0 Z M 3.03125 0 "/></g></g></g><g fill="#231f20" fill-opacity="1"><g transform="translate(670.198617, 413.662117)"><g><path d="M 1.21875 0 L 3.140625 -21.453125 C 3.148438 -21.640625 3.160156 -21.863281 3.171875 -22.125 C 3.191406 -22.394531 3.203125 -22.644531 3.203125 -22.875 C 3.203125 -23.382812 3.15625 -23.925781 3.0625 -24.5 C 2.976562 -25.070312 2.851562 -25.648438 2.6875 -26.234375 C 2.65625 -26.390625 2.613281 -26.546875 2.5625 -26.703125 C 2.507812 -26.859375 2.457031 -27.007812 2.40625 -27.15625 C 2.351562 -27.3125 2.304688 -27.460938 2.265625 -27.609375 C 2.171875 -27.867188 2.082031 -28.125 2 -28.375 C 1.914062 -28.632812 1.828125 -28.894531 1.734375 -29.15625 L 5.15625 -29.15625 C 5.375 -28.644531 5.578125 -28.078125 5.765625 -27.453125 C 5.960938 -26.835938 6.101562 -26.273438 6.1875 -25.765625 L 6.390625 -25.765625 C 6.609375 -26.234375 6.890625 -26.691406 7.234375 -27.140625 C 7.578125 -27.585938 7.945312 -27.960938 8.34375 -28.265625 C 8.757812 -28.617188 9.320312 -28.929688 10.03125 -29.203125 C 10.738281 -29.472656 11.53125 -29.609375 12.40625 -29.609375 C 13.320312 -29.609375 14.113281 -29.441406 14.78125 -29.109375 C 15.445312 -28.785156 15.988281 -28.363281 16.40625 -27.84375 C 16.6875 -27.5 16.9375 -27.066406 17.15625 -26.546875 C 17.375 -26.035156 17.546875 -25.488281 17.671875 -24.90625 C 17.847656 -24.132812 17.984375 -23.238281 18.078125 -22.21875 C 18.171875 -21.207031 18.21875 -20.113281 18.21875 -18.9375 L 18.21875 0 L 9.625 0 L 9.625 -2.890625 L 14.78125 -2.890625 L 14.78125 -18.9375 C 14.78125 -20.59375 14.726562 -21.804688 14.625 -22.578125 C 14.519531 -23.347656 14.398438 -23.960938 14.265625 -24.421875 C 14.066406 -25.078125 13.8125 -25.554688 13.5 -25.859375 C 13.195312 -26.171875 12.894531 -26.375 12.59375 -26.46875 C 12.300781 -26.570312 12.054688 -26.625 11.859375 -26.625 C 11.003906 -26.625 10.285156 -26.460938 9.703125 -26.140625 C 9.117188 -25.816406 8.632812 -25.394531 8.25 -24.875 C 7.84375 -24.363281 7.507812 -23.851562 7.25 -23.34375 C 7 -22.84375 6.789062 -22.316406 6.625 -21.765625 L 4.65625 0 Z M 1.21875 0 "/></g></g></g><g fill="#231f20" fill-opacity="1"><g transform="translate(592.092329, 473.55416)"><g><path d="M 17.46875 -6.671875 L 14.25 -6.671875 L 14.25 0 L 11.015625 0 L 11.015625 -6.671875 L 0.703125 -6.671875 L 0.703125 -9.359375 L 10.75 -30.53125 L 14.25 -30.53125 L 14.25 -9.46875 L 17.46875 -9.46875 Z M 11.015625 -9.46875 L 11.015625 -21.6875 C 11.015625 -22 11.019531 -22.351562 11.03125 -22.75 C 11.050781 -23.15625 11.066406 -23.566406 11.078125 -23.984375 C 11.097656 -24.410156 11.113281 -24.816406 11.125 -25.203125 C 11.132812 -25.585938 11.148438 -25.925781 11.171875 -26.21875 L 11.015625 -26.21875 C 10.796875 -25.5625 10.554688 -24.921875 10.296875 -24.296875 C 10.046875 -23.671875 9.796875 -23.070312 9.546875 -22.5 L 3.625 -9.46875 Z M 11.015625 -9.46875 "/></g></g></g><g fill="#231f20" fill-opacity="1"><g transform="translate(610.136362, 473.55416)"><g><path d="M 8.828125 -18.5625 C 10.367188 -18.5625 11.6875 -18.1875 12.78125 -17.4375 C 13.875 -16.695312 14.707031 -15.660156 15.28125 -14.328125 C 15.863281 -13.003906 16.15625 -11.46875 16.15625 -9.71875 C 16.15625 -7.71875 15.828125 -5.957031 15.171875 -4.4375 C 14.515625 -2.914062 13.550781 -1.722656 12.28125 -0.859375 C 11.007812 -0.00390625 9.4375 0.421875 7.5625 0.421875 C 6.414062 0.421875 5.382812 0.3125 4.46875 0.09375 C 3.5625 -0.125 2.765625 -0.4375 2.078125 -0.84375 L 2.078125 -4.125 C 2.847656 -3.613281 3.679688 -3.203125 4.578125 -2.890625 C 5.484375 -2.585938 6.394531 -2.4375 7.3125 -2.4375 C 8.570312 -2.4375 9.601562 -2.765625 10.40625 -3.421875 C 11.21875 -4.078125 11.820312 -4.945312 12.21875 -6.03125 C 12.625 -7.125 12.828125 -8.316406 12.828125 -9.609375 C 12.828125 -11.609375 12.382812 -13.132812 11.5 -14.1875 C 10.625 -15.238281 9.363281 -15.765625 7.71875 -15.765625 C 7.03125 -15.765625 6.347656 -15.695312 5.671875 -15.5625 C 4.992188 -15.4375 4.316406 -15.269531 3.640625 -15.0625 L 2.34375 -16.328125 L 3.25 -30.28125 L 14.546875 -30.28125 L 14.546875 -27.296875 L 5.984375 -27.296875 L 5.359375 -18.140625 C 5.941406 -18.285156 6.523438 -18.390625 7.109375 -18.453125 C 7.703125 -18.523438 8.273438 -18.5625 8.828125 -18.5625 Z M 8.828125 -18.5625 "/></g></g></g><g fill="#231f20" fill-opacity="1"><g transform="translate(628.180395, 473.55416)"><g><path d="M 6.546875 -30.71875 C 8.085938 -30.71875 9.28125 -29.898438 10.125 -28.265625 C 10.976562 -26.640625 11.40625 -24.300781 11.40625 -21.25 C 11.40625 -18.21875 10.984375 -15.867188 10.140625 -14.203125 C 9.304688 -12.535156 8.109375 -11.703125 6.546875 -11.703125 C 4.984375 -11.703125 3.785156 -12.535156 2.953125 -14.203125 C 2.128906 -15.878906 1.71875 -18.226562 1.71875 -21.25 C 1.71875 -24.300781 2.125 -26.640625 2.9375 -28.265625 C 3.75 -29.898438 4.953125 -30.71875 6.546875 -30.71875 Z M 6.5 -28.359375 C 5.738281 -28.359375 5.191406 -27.765625 4.859375 -26.578125 C 4.535156 -25.398438 4.375 -23.625 4.375 -21.25 C 4.375 -18.875 4.539062 -17.09375 4.875 -15.90625 C 5.21875 -14.71875 5.773438 -14.125 6.546875 -14.125 C 7.304688 -14.125 7.859375 -14.707031 8.203125 -15.875 C 8.554688 -17.050781 8.734375 -18.84375 8.734375 -21.25 C 8.734375 -23.632812 8.546875 -25.414062 8.171875 -26.59375 C 7.796875 -27.769531 7.238281 -28.359375 6.5 -28.359375 Z M 20.375 -30.28125 L 9.859375 0 L 7.265625 0 L 17.796875 -30.28125 Z M 21.1875 -18.625 C 22.738281 -18.625 23.9375 -17.804688 24.78125 -16.171875 C 25.632812 -14.546875 26.0625 -12.207031 26.0625 -9.15625 C 26.0625 -6.050781 25.628906 -3.6875 24.765625 -2.0625 C 23.910156 -0.4375 22.71875 0.375 21.1875 0.375 C 19.644531 0.375 18.453125 -0.453125 17.609375 -2.109375 C 16.773438 -3.765625 16.359375 -6.113281 16.359375 -9.15625 C 16.359375 -12.289062 16.769531 -14.648438 17.59375 -16.234375 C 18.425781 -17.828125 19.625 -18.625 21.1875 -18.625 Z M 21.15625 -16.265625 C 20.394531 -16.265625 19.84375 -15.675781 19.5 -14.5 C 19.164062 -13.320312 19 -11.539062 19 -9.15625 C 19 -6.78125 19.164062 -5 19.5 -3.8125 C 19.84375 -2.625 20.40625 -2.03125 21.1875 -2.03125 C 21.957031 -2.03125 22.507812 -2.632812 22.84375 -3.84375 C 23.175781 -5.050781 23.34375 -6.820312 23.34375 -9.15625 C 23.34375 -11.457031 23.160156 -13.21875 22.796875 -14.4375 C 22.429688 -15.65625 21.882812 -16.265625 21.15625 -16.265625 Z M 21.15625 -16.265625 "/></g></g></g><g fill="#231f20" fill-opacity="1"><g transform="translate(651.613913, 215.319704)"><g><path d="M 6.75 -33.03125 L 6.078125 -21.109375 L 3.453125 -21.109375 L 2.734375 -33.03125 Z M 6.75 -33.03125 "/></g></g></g><g fill="#231f20" fill-opacity="1"><g transform="translate(662.679321, 215.319704)"><g><path d="M 1.734375 0 L 1.734375 -10.3125 C 1.734375 -10.90625 1.753906 -11.476562 1.796875 -12.03125 C 1.847656 -12.582031 1.921875 -13.109375 2.015625 -13.609375 C 2.117188 -14.117188 2.253906 -14.613281 2.421875 -15.09375 C 2.722656 -16.03125 3.175781 -16.820312 3.78125 -17.46875 C 4.394531 -18.113281 5.128906 -18.640625 5.984375 -19.046875 L 1.53125 -29.15625 L 5.375 -29.15625 L 12.1875 -12.953125 C 12.59375 -13.222656 12.9375 -13.535156 13.21875 -13.890625 C 13.507812 -14.253906 13.734375 -14.691406 13.890625 -15.203125 C 14.054688 -15.660156 14.171875 -16.171875 14.234375 -16.734375 C 14.304688 -17.296875 14.34375 -17.925781 14.34375 -18.625 L 14.34375 -29.15625 L 17.71875 -29.15625 L 17.71875 -18.625 C 17.71875 -17.957031 17.660156 -17.15625 17.546875 -16.21875 C 17.429688 -15.289062 17.207031 -14.410156 16.875 -13.578125 C 16.601562 -12.890625 16.191406 -12.242188 15.640625 -11.640625 C 15.097656 -11.035156 14.367188 -10.519531 13.453125 -10.09375 L 17.8125 0 L 13.9375 0 L 7.25 -16.21875 C 6.863281 -15.945312 6.535156 -15.632812 6.265625 -15.28125 C 6.003906 -14.925781 5.785156 -14.507812 5.609375 -14.03125 C 5.253906 -13.070312 5.078125 -11.832031 5.078125 -10.3125 L 5.078125 0 Z M 1.734375 0 "/></g></g></g><g fill="#231f20" fill-opacity="1"><g transform="translate(683.753763, 215.319704)"><g/></g></g><g fill="#231f20" fill-opacity="1"><g transform="translate(694.005796, 215.319704)"><g><path d="M 8.15625 0 L 8.15625 -20.203125 C 8.15625 -21.054688 8.265625 -21.851562 8.484375 -22.59375 C 8.703125 -23.332031 8.96875 -23.914062 9.28125 -24.34375 C 9.644531 -24.851562 9.972656 -25.242188 10.265625 -25.515625 C 10.566406 -25.796875 10.921875 -26.046875 11.328125 -26.265625 L 0.453125 -26.265625 L 0.453125 -29.15625 L 15.953125 -29.15625 L 15.953125 -26.53125 C 15.148438 -26.238281 14.484375 -25.894531 13.953125 -25.5 C 13.421875 -25.101562 13.007812 -24.703125 12.71875 -24.296875 C 11.96875 -23.242188 11.59375 -21.863281 11.59375 -20.15625 L 11.59375 0 Z M 8.15625 0 "/></g></g></g><g fill="#231f20" fill-opacity="1"><g transform="translate(712.233426, 215.319704)"><g><path d="M 1.21875 0 L 3.140625 -21.453125 C 3.148438 -21.640625 3.160156 -21.863281 3.171875 -22.125 C 3.191406 -22.394531 3.203125 -22.644531 3.203125 -22.875 C 3.203125 -23.382812 3.15625 -23.925781 3.0625 -24.5 C 2.976562 -25.070312 2.851562 -25.648438 2.6875 -26.234375 C 2.65625 -26.390625 2.613281 -26.546875 2.5625 -26.703125 C 2.507812 -26.859375 2.457031 -27.007812 2.40625 -27.15625 C 2.351562 -27.3125 2.304688 -27.460938 2.265625 -27.609375 C 2.171875 -27.867188 2.082031 -28.125 2 -28.375 C 1.914062 -28.632812 1.828125 -28.894531 1.734375 -29.15625 L 5.15625 -29.15625 C 5.375 -28.644531 5.578125 -28.078125 5.765625 -27.453125 C 5.960938 -26.835938 6.101562 -26.273438 6.1875 -25.765625 L 6.390625 -25.765625 C 6.609375 -26.234375 6.890625 -26.691406 7.234375 -27.140625 C 7.578125 -27.585938 7.945312 -27.960938 8.34375 -28.265625 C 8.757812 -28.617188 9.320312 -28.929688 10.03125 -29.203125 C 10.738281 -29.472656 11.53125 -29.609375 12.40625 -29.609375 C 13.320312 -29.609375 14.113281 -29.441406 14.78125 -29.109375 C 15.445312 -28.785156 15.988281 -28.363281 16.40625 -27.84375 C 16.6875 -27.5 16.9375 -27.066406 17.15625 -26.546875 C 17.375 -26.035156 17.546875 -25.488281 17.671875 -24.90625 C 17.847656 -24.132812 17.984375 -23.238281 18.078125 -22.21875 C 18.171875 -21.207031 18.21875 -20.113281 18.21875 -18.9375 L 18.21875 0 L 9.625 0 L 9.625 -2.890625 L 14.78125 -2.890625 L 14.78125 -18.9375 C 14.78125 -20.59375 14.726562 -21.804688 14.625 -22.578125 C 14.519531 -23.347656 14.398438 -23.960938 14.265625 -24.421875 C 14.066406 -25.078125 13.8125 -25.554688 13.5 -25.859375 C 13.195312 -26.171875 12.894531 -26.375 12.59375 -26.46875 C 12.300781 -26.570312 12.054688 -26.625 11.859375 -26.625 C 11.003906 -26.625 10.285156 -26.460938 9.703125 -26.140625 C 9.117188 -25.816406 8.632812 -25.394531 8.25 -24.875 C 7.84375 -24.363281 7.507812 -23.851562 7.25 -23.34375 C 7 -22.84375 6.789062 -22.316406 6.625 -21.765625 L 4.65625 0 Z M 1.21875 0 "/></g></g></g><g fill="#231f20" fill-opacity="1"><g transform="translate(734.979807, 215.319704)"><g><path d="M 1.46875 1.203125 L 1.46875 -1.734375 L 5.28125 -2.421875 C 5.613281 -2.484375 5.945312 -2.539062 6.28125 -2.59375 C 6.613281 -2.65625 6.953125 -2.707031 7.296875 -2.75 L 1.53125 -29.15625 L 4.96875 -29.15625 L 7.8125 -15.984375 L 10.09375 -4.0625 C 11.21875 -4.769531 12.066406 -5.734375 12.640625 -6.953125 C 13.222656 -8.179688 13.648438 -9.570312 13.921875 -11.125 C 14.191406 -12.675781 14.414062 -14.285156 14.59375 -15.953125 L 15.84375 -29.15625 L 19.28125 -29.15625 L 18.03125 -16.265625 C 17.832031 -14.304688 17.613281 -12.515625 17.375 -10.890625 C 17.132812 -9.273438 16.742188 -7.820312 16.203125 -6.53125 C 15.671875 -5.25 14.863281 -4.117188 13.78125 -3.140625 C 13.070312 -2.296875 12.207031 -1.601562 11.1875 -1.0625 C 10.164062 -0.53125 8.929688 -0.128906 7.484375 0.140625 C 6.484375 0.304688 5.484375 0.476562 4.484375 0.65625 C 3.484375 0.832031 2.476562 1.015625 1.46875 1.203125 Z M 1.46875 1.203125 "/></g></g></g><g fill="#231f20" fill-opacity="1"><g transform="translate(756.709468, 215.319704)"><g><path d="M 3.03125 0 L 3.03125 -29.15625 L 6.484375 -29.15625 L 6.484375 0 Z M 3.03125 0 "/></g></g></g><g fill="#231f20" fill-opacity="1"><g transform="translate(767.88784, 215.319704)"><g><path d="M 1.21875 0 L 3.140625 -21.453125 C 3.148438 -21.640625 3.160156 -21.863281 3.171875 -22.125 C 3.191406 -22.394531 3.203125 -22.644531 3.203125 -22.875 C 3.203125 -23.382812 3.15625 -23.925781 3.0625 -24.5 C 2.976562 -25.070312 2.851562 -25.648438 2.6875 -26.234375 C 2.65625 -26.390625 2.613281 -26.546875 2.5625 -26.703125 C 2.507812 -26.859375 2.457031 -27.007812 2.40625 -27.15625 C 2.351562 -27.3125 2.304688 -27.460938 2.265625 -27.609375 C 2.171875 -27.867188 2.082031 -28.125 2 -28.375 C 1.914062 -28.632812 1.828125 -28.894531 1.734375 -29.15625 L 5.15625 -29.15625 C 5.375 -28.644531 5.578125 -28.078125 5.765625 -27.453125 C 5.960938 -26.835938 6.101562 -26.273438 6.1875 -25.765625 L 6.390625 -25.765625 C 6.609375 -26.234375 6.890625 -26.691406 7.234375 -27.140625 C 7.578125 -27.585938 7.945312 -27.960938 8.34375 -28.265625 C 8.757812 -28.617188 9.320312 -28.929688 10.03125 -29.203125 C 10.738281 -29.472656 11.53125 -29.609375 12.40625 -29.609375 C 13.320312 -29.609375 14.113281 -29.441406 14.78125 -29.109375 C 15.445312 -28.785156 15.988281 -28.363281 16.40625 -27.84375 C 16.6875 -27.5 16.9375 -27.066406 17.15625 -26.546875 C 17.375 -26.035156 17.546875 -25.488281 17.671875 -24.90625 C 17.847656 -24.132812 17.984375 -23.238281 18.078125 -22.21875 C 18.171875 -21.207031 18.21875 -20.113281 18.21875 -18.9375 L 18.21875 0 L 9.625 0 L 9.625 -2.890625 L 14.78125 -2.890625 L 14.78125 -18.9375 C 14.78125 -20.59375 14.726562 -21.804688 14.625 -22.578125 C 14.519531 -23.347656 14.398438 -23.960938 14.265625 -24.421875 C 14.066406 -25.078125 13.8125 -25.554688 13.5 -25.859375 C 13.195312 -26.171875 12.894531 -26.375 12.59375 -26.46875 C 12.300781 -26.570312 12.054688 -26.625 11.859375 -26.625 C 11.003906 -26.625 10.285156 -26.460938 9.703125 -26.140625 C 9.117188 -25.816406 8.632812 -25.394531 8.25 -24.875 C 7.84375 -24.363281 7.507812 -23.851562 7.25 -23.34375 C 7 -22.84375 6.789062 -22.316406 6.625 -21.765625 L 4.65625 0 Z M 1.21875 0 "/></g></g></g><g fill="#231f20" fill-opacity="1"><g transform="translate(689.215562, 275.211747)"><g><path d="M 16.03125 0 L 1.453125 0 L 1.453125 -2.421875 L 7.4375 -11.25 C 8.613281 -12.976562 9.539062 -14.46875 10.21875 -15.71875 C 10.90625 -16.976562 11.394531 -18.171875 11.6875 -19.296875 C 11.988281 -20.421875 12.140625 -21.644531 12.140625 -22.96875 C 12.140625 -24.445312 11.78125 -25.613281 11.0625 -26.46875 C 10.351562 -27.320312 9.335938 -27.75 8.015625 -27.75 C 7.128906 -27.75 6.320312 -27.585938 5.59375 -27.265625 C 4.875 -26.953125 4.132812 -26.429688 3.375 -25.703125 L 1.703125 -27.984375 C 2.390625 -28.628906 3.070312 -29.148438 3.75 -29.546875 C 4.425781 -29.953125 5.132812 -30.25 5.875 -30.4375 C 6.613281 -30.625 7.414062 -30.71875 8.28125 -30.71875 C 9.769531 -30.71875 11.050781 -30.398438 12.125 -29.765625 C 13.195312 -29.128906 14.015625 -28.238281 14.578125 -27.09375 C 15.148438 -25.945312 15.4375 -24.613281 15.4375 -23.09375 C 15.4375 -21.476562 15.25 -19.992188 14.875 -18.640625 C 14.5 -17.285156 13.9375 -15.941406 13.1875 -14.609375 C 12.4375 -13.273438 11.488281 -11.820312 10.34375 -10.25 L 5.296875 -3.109375 L 5.296875 -2.96875 L 16.03125 -2.96875 Z M 16.03125 0 "/></g></g></g><g fill="#231f20" fill-opacity="1"><g transform="translate(707.259595, 275.211747)"><g><path d="M 8.828125 -18.5625 C 10.367188 -18.5625 11.6875 -18.1875 12.78125 -17.4375 C 13.875 -16.695312 14.707031 -15.660156 15.28125 -14.328125 C 15.863281 -13.003906 16.15625 -11.46875 16.15625 -9.71875 C 16.15625 -7.71875 15.828125 -5.957031 15.171875 -4.4375 C 14.515625 -2.914062 13.550781 -1.722656 12.28125 -0.859375 C 11.007812 -0.00390625 9.4375 0.421875 7.5625 0.421875 C 6.414062 0.421875 5.382812 0.3125 4.46875 0.09375 C 3.5625 -0.125 2.765625 -0.4375 2.078125 -0.84375 L 2.078125 -4.125 C 2.847656 -3.613281 3.679688 -3.203125 4.578125 -2.890625 C 5.484375 -2.585938 6.394531 -2.4375 7.3125 -2.4375 C 8.570312 -2.4375 9.601562 -2.765625 10.40625 -3.421875 C 11.21875 -4.078125 11.820312 -4.945312 12.21875 -6.03125 C 12.625 -7.125 12.828125 -8.316406 12.828125 -9.609375 C 12.828125 -11.609375 12.382812 -13.132812 11.5 -14.1875 C 10.625 -15.238281 9.363281 -15.765625 7.71875 -15.765625 C 7.03125 -15.765625 6.347656 -15.695312 5.671875 -15.5625 C 4.992188 -15.4375 4.316406 -15.269531 3.640625 -15.0625 L 2.34375 -16.328125 L 3.25 -30.28125 L 14.546875 -30.28125 L 14.546875 -27.296875 L 5.984375 -27.296875 L 5.359375 -18.140625 C 5.941406 -18.285156 6.523438 -18.390625 7.109375 -18.453125 C 7.703125 -18.523438 8.273438 -18.5625 8.828125 -18.5625 Z M 8.828125 -18.5625 "/></g></g></g><g fill="#231f20" fill-opacity="1"><g transform="translate(725.303628, 275.211747)"><g><path d="M 6.546875 -30.71875 C 8.085938 -30.71875 9.28125 -29.898438 10.125 -28.265625 C 10.976562 -26.640625 11.40625 -24.300781 11.40625 -21.25 C 11.40625 -18.21875 10.984375 -15.867188 10.140625 -14.203125 C 9.304688 -12.535156 8.109375 -11.703125 6.546875 -11.703125 C 4.984375 -11.703125 3.785156 -12.535156 2.953125 -14.203125 C 2.128906 -15.878906 1.71875 -18.226562 1.71875 -21.25 C 1.71875 -24.300781 2.125 -26.640625 2.9375 -28.265625 C 3.75 -29.898438 4.953125 -30.71875 6.546875 -30.71875 Z M 6.5 -28.359375 C 5.738281 -28.359375 5.191406 -27.765625 4.859375 -26.578125 C 4.535156 -25.398438 4.375 -23.625 4.375 -21.25 C 4.375 -18.875 4.539062 -17.09375 4.875 -15.90625 C 5.21875 -14.71875 5.773438 -14.125 6.546875 -14.125 C 7.304688 -14.125 7.859375 -14.707031 8.203125 -15.875 C 8.554688 -17.050781 8.734375 -18.84375 8.734375 -21.25 C 8.734375 -23.632812 8.546875 -25.414062 8.171875 -26.59375 C 7.796875 -27.769531 7.238281 -28.359375 6.5 -28.359375 Z M 20.375 -30.28125 L 9.859375 0 L 7.265625 0 L 17.796875 -30.28125 Z M 21.1875 -18.625 C 22.738281 -18.625 23.9375 -17.804688 24.78125 -16.171875 C 25.632812 -14.546875 26.0625 -12.207031 26.0625 -9.15625 C 26.0625 -6.050781 25.628906 -3.6875 24.765625 -2.0625 C 23.910156 -0.4375 22.71875 0.375 21.1875 0.375 C 19.644531 0.375 18.453125 -0.453125 17.609375 -2.109375 C 16.773438 -3.765625 16.359375 -6.113281 16.359375 -9.15625 C 16.359375 -12.289062 16.769531 -14.648438 17.59375 -16.234375 C 18.425781 -17.828125 19.625 -18.625 21.1875 -18.625 Z M 21.15625 -16.265625 C 20.394531 -16.265625 19.84375 -15.675781 19.5 -14.5 C 19.164062 -13.320312 19 -11.539062 19 -9.15625 C 19 -6.78125 19.164062 -5 19.5 -3.8125 C 19.84375 -2.625 20.40625 -2.03125 21.1875 -2.03125 C 21.957031 -2.03125 22.507812 -2.632812 22.84375 -3.84375 C 23.175781 -5.050781 23.34375 -6.820312 23.34375 -9.15625 C 23.34375 -11.457031 23.160156 -13.21875 22.796875 -14.4375 C 22.429688 -15.65625 21.882812 -16.265625 21.15625 -16.265625 Z M 21.15625 -16.265625 "/></g></g></g><g fill="#231f20" fill-opacity="1"><g transform="translate(773.546871, 383.571648)"><g><path d="M 6.75 -33.03125 L 6.078125 -21.109375 L 3.453125 -21.109375 L 2.734375 -33.03125 Z M 6.75 -33.03125 "/></g></g></g><g fill="#231f20" fill-opacity="1"><g transform="translate(784.61228, 383.571648)"><g><path d="M 3.84375 0.21875 C 3.539062 0.21875 3.238281 0.195312 2.9375 0.15625 C 2.632812 0.113281 2.328125 0.0546875 2.015625 -0.015625 L 2.4375 -3.296875 C 2.59375 -3.222656 2.800781 -3.160156 3.0625 -3.109375 C 3.320312 -3.066406 3.582031 -3.046875 3.84375 -3.046875 C 5.289062 -3.046875 6.445312 -3.429688 7.3125 -4.203125 C 8.1875 -4.972656 8.773438 -6.066406 9.078125 -7.484375 C 9.210938 -8.054688 9.3125 -8.6875 9.375 -9.375 C 9.4375 -10.070312 9.46875 -10.832031 9.46875 -11.65625 L 9.46875 -22.328125 C 9.46875 -23.640625 9.253906 -24.6875 8.828125 -25.46875 C 8.398438 -26.25 7.566406 -26.640625 6.328125 -26.640625 C 5.992188 -26.640625 5.617188 -26.601562 5.203125 -26.53125 C 4.796875 -26.457031 4.34375 -26.34375 3.84375 -26.1875 L 3.84375 -29.203125 C 4.757812 -29.472656 5.703125 -29.609375 6.671875 -29.609375 C 7.679688 -29.609375 8.578125 -29.484375 9.359375 -29.234375 C 10.140625 -28.984375 10.785156 -28.585938 11.296875 -28.046875 C 11.972656 -27.335938 12.410156 -26.5 12.609375 -25.53125 C 12.804688 -24.570312 12.90625 -23.503906 12.90625 -22.328125 L 12.90625 0 L 10.265625 0 L 9.765625 -4.625 L 9.5625 -4.625 C 9.375 -4.082031 9.148438 -3.53125 8.890625 -2.96875 C 8.628906 -2.414062 8.300781 -1.914062 7.90625 -1.46875 C 7.5 -0.96875 6.945312 -0.5625 6.25 -0.25 C 5.5625 0.0625 4.757812 0.21875 3.84375 0.21875 Z M 3.84375 0.21875 "/></g></g></g><g fill="#231f20" fill-opacity="1"><g transform="translate(802.071721, 383.571648)"><g/></g></g><g fill="#231f20" fill-opacity="1"><g transform="translate(812.323754, 383.571648)"><g><path d="M 8.15625 0 L 8.15625 -20.203125 C 8.15625 -21.054688 8.265625 -21.851562 8.484375 -22.59375 C 8.703125 -23.332031 8.96875 -23.914062 9.28125 -24.34375 C 9.644531 -24.851562 9.972656 -25.242188 10.265625 -25.515625 C 10.566406 -25.796875 10.921875 -26.046875 11.328125 -26.265625 L 0.453125 -26.265625 L 0.453125 -29.15625 L 15.953125 -29.15625 L 15.953125 -26.53125 C 15.148438 -26.238281 14.484375 -25.894531 13.953125 -25.5 C 13.421875 -25.101562 13.007812 -24.703125 12.71875 -24.296875 C 11.96875 -23.242188 11.59375 -21.863281 11.59375 -20.15625 L 11.59375 0 Z M 8.15625 0 "/></g></g></g><g fill="#231f20" fill-opacity="1"><g transform="translate(830.551384, 383.571648)"><g><path d="M 1.21875 0 L 3.140625 -21.453125 C 3.148438 -21.640625 3.160156 -21.863281 3.171875 -22.125 C 3.191406 -22.394531 3.203125 -22.644531 3.203125 -22.875 C 3.203125 -23.382812 3.15625 -23.925781 3.0625 -24.5 C 2.976562 -25.070312 2.851562 -25.648438 2.6875 -26.234375 C 2.65625 -26.390625 2.613281 -26.546875 2.5625 -26.703125 C 2.507812 -26.859375 2.457031 -27.007812 2.40625 -27.15625 C 2.351562 -27.3125 2.304688 -27.460938 2.265625 -27.609375 C 2.171875 -27.867188 2.082031 -28.125 2 -28.375 C 1.914062 -28.632812 1.828125 -28.894531 1.734375 -29.15625 L 5.15625 -29.15625 C 5.375 -28.644531 5.578125 -28.078125 5.765625 -27.453125 C 5.960938 -26.835938 6.101562 -26.273438 6.1875 -25.765625 L 6.390625 -25.765625 C 6.609375 -26.234375 6.890625 -26.691406 7.234375 -27.140625 C 7.578125 -27.585938 7.945312 -27.960938 8.34375 -28.265625 C 8.757812 -28.617188 9.320312 -28.929688 10.03125 -29.203125 C 10.738281 -29.472656 11.53125 -29.609375 12.40625 -29.609375 C 13.320312 -29.609375 14.113281 -29.441406 14.78125 -29.109375 C 15.445312 -28.785156 15.988281 -28.363281 16.40625 -27.84375 C 16.6875 -27.5 16.9375 -27.066406 17.15625 -26.546875 C 17.375 -26.035156 17.546875 -25.488281 17.671875 -24.90625 C 17.847656 -24.132812 17.984375 -23.238281 18.078125 -22.21875 C 18.171875 -21.207031 18.21875 -20.113281 18.21875 -18.9375 L 18.21875 0 L 9.625 0 L 9.625 -2.890625 L 14.78125 -2.890625 L 14.78125 -18.9375 C 14.78125 -20.59375 14.726562 -21.804688 14.625 -22.578125 C 14.519531 -23.347656 14.398438 -23.960938 14.265625 -24.421875 C 14.066406 -25.078125 13.8125 -25.554688 13.5 -25.859375 C 13.195312 -26.171875 12.894531 -26.375 12.59375 -26.46875 C 12.300781 -26.570312 12.054688 -26.625 11.859375 -26.625 C 11.003906 -26.625 10.285156 -26.460938 9.703125 -26.140625 C 9.117188 -25.816406 8.632812 -25.394531 8.25 -24.875 C 7.84375 -24.363281 7.507812 -23.851562 7.25 -23.34375 C 7 -22.84375 6.789062 -22.316406 6.625 -21.765625 L 4.65625 0 Z M 1.21875 0 "/></g></g></g><g fill="#231f20" fill-opacity="1"><g transform="translate(853.297765, 383.571648)"><g><path d="M 1.46875 1.203125 L 1.46875 -1.734375 L 5.28125 -2.421875 C 5.613281 -2.484375 5.945312 -2.539062 6.28125 -2.59375 C 6.613281 -2.65625 6.953125 -2.707031 7.296875 -2.75 L 1.53125 -29.15625 L 4.96875 -29.15625 L 7.8125 -15.984375 L 10.09375 -4.0625 C 11.21875 -4.769531 12.066406 -5.734375 12.640625 -6.953125 C 13.222656 -8.179688 13.648438 -9.570312 13.921875 -11.125 C 14.191406 -12.675781 14.414062 -14.285156 14.59375 -15.953125 L 15.84375 -29.15625 L 19.28125 -29.15625 L 18.03125 -16.265625 C 17.832031 -14.304688 17.613281 -12.515625 17.375 -10.890625 C 17.132812 -9.273438 16.742188 -7.820312 16.203125 -6.53125 C 15.671875 -5.25 14.863281 -4.117188 13.78125 -3.140625 C 13.070312 -2.296875 12.207031 -1.601562 11.1875 -1.0625 C 10.164062 -0.53125 8.929688 -0.128906 7.484375 0.140625 C 6.484375 0.304688 5.484375 0.476562 4.484375 0.65625 C 3.484375 0.832031 2.476562 1.015625 1.46875 1.203125 Z M 1.46875 1.203125 "/></g></g></g><g fill="#231f20" fill-opacity="1"><g transform="translate(875.027426, 383.571648)"><g><path d="M 3.03125 0 L 3.03125 -29.15625 L 6.484375 -29.15625 L 6.484375 0 Z M 3.03125 0 "/></g></g></g><g fill="#231f20" fill-opacity="1"><g transform="translate(886.205798, 383.571648)"><g><path d="M 1.21875 0 L 3.140625 -21.453125 C 3.148438 -21.640625 3.160156 -21.863281 3.171875 -22.125 C 3.191406 -22.394531 3.203125 -22.644531 3.203125 -22.875 C 3.203125 -23.382812 3.15625 -23.925781 3.0625 -24.5 C 2.976562 -25.070312 2.851562 -25.648438 2.6875 -26.234375 C 2.65625 -26.390625 2.613281 -26.546875 2.5625 -26.703125 C 2.507812 -26.859375 2.457031 -27.007812 2.40625 -27.15625 C 2.351562 -27.3125 2.304688 -27.460938 2.265625 -27.609375 C 2.171875 -27.867188 2.082031 -28.125 2 -28.375 C 1.914062 -28.632812 1.828125 -28.894531 1.734375 -29.15625 L 5.15625 -29.15625 C 5.375 -28.644531 5.578125 -28.078125 5.765625 -27.453125 C 5.960938 -26.835938 6.101562 -26.273438 6.1875 -25.765625 L 6.390625 -25.765625 C 6.609375 -26.234375 6.890625 -26.691406 7.234375 -27.140625 C 7.578125 -27.585938 7.945312 -27.960938 8.34375 -28.265625 C 8.757812 -28.617188 9.320312 -28.929688 10.03125 -29.203125 C 10.738281 -29.472656 11.53125 -29.609375 12.40625 -29.609375 C 13.320312 -29.609375 14.113281 -29.441406 14.78125 -29.109375 C 15.445312 -28.785156 15.988281 -28.363281 16.40625 -27.84375 C 16.6875 -27.5 16.9375 -27.066406 17.15625 -26.546875 C 17.375 -26.035156 17.546875 -25.488281 17.671875 -24.90625 C 17.847656 -24.132812 17.984375 -23.238281 18.078125 -22.21875 C 18.171875 -21.207031 18.21875 -20.113281 18.21875 -18.9375 L 18.21875 0 L 9.625 0 L 9.625 -2.890625 L 14.78125 -2.890625 L 14.78125 -18.9375 C 14.78125 -20.59375 14.726562 -21.804688 14.625 -22.578125 C 14.519531 -23.347656 14.398438 -23.960938 14.265625 -24.421875 C 14.066406 -25.078125 13.8125 -25.554688 13.5 -25.859375 C 13.195312 -26.171875 12.894531 -26.375 12.59375 -26.46875 C 12.300781 -26.570312 12.054688 -26.625 11.859375 -26.625 C 11.003906 -26.625 10.285156 -26.460938 9.703125 -26.140625 C 9.117188 -25.816406 8.632812 -25.394531 8.25 -24.875 C 7.84375 -24.363281 7.507812 -23.851562 7.25 -23.34375 C 7 -22.84375 6.789062 -22.316406 6.625 -21.765625 L 4.65625 0 Z M 1.21875 0 "/></g></g></g></svg>