<svg xmlns="http://www.w3.org/2000/svg" xmlns:xlink="http://www.w3.org/1999/xlink" width="794" zoomAndPan="magnify" viewBox="0 0 1440 809.999993" height="1123" preserveAspectRatio="xMidYMid meet" version="1.0"><defs><g/><clipPath id="329c379eeb"><path d="M 700.761719 450 L 750 450 L 750 528 L 700.761719 528 Z M 700.761719 450 " clip-rule="nonzero"/></clipPath><clipPath id="80e1a49aaf"><path d="M 701.558594 450.40625 C 730.582031 467.519531 749.585938 495.597656 749.585938 527.390625 L 748.0625 527.390625 C 748.0625 496.238281 729.457031 468.617188 700.800781 451.714844 Z M 701.558594 450.40625 " clip-rule="nonzero"/></clipPath><clipPath id="f3be703b71"><path d="M 493.195312 297.933594 L 553 297.933594 L 553 320.996094 L 493.195312 320.996094 Z M 493.195312 297.933594 " clip-rule="nonzero"/></clipPath><clipPath id="53d50df22d"><path d="M 552.828125 299.054688 C 536.140625 316.015625 514.335938 324.085938 493.839844 318.269531 L 494.265625 316.808594 C 514.0625 322.441406 535.316406 314.675781 551.730469 297.988281 Z M 552.828125 299.054688 " clip-rule="nonzero"/></clipPath><clipPath id="c3850c976e"><path d="M 494 303 L 555.796875 303 L 555.796875 327 L 494 327 Z M 494 303 " clip-rule="nonzero"/></clipPath><clipPath id="fadb5f1e08"><path d="M 555.539062 304.960938 C 538.273438 322.535156 515.707031 330.878906 494.511719 324.847656 L 494.9375 323.386719 C 515.460938 329.203125 537.449219 321.164062 554.441406 303.898438 Z M 555.539062 304.960938 " clip-rule="nonzero"/></clipPath><clipPath id="88e1de104a"><path d="M 493.597656 136.894531 L 965.101562 136.894531 L 965.101562 138.414062 L 493.597656 138.414062 Z M 963.578125 138.414062 L 965.101562 138.414062 L 965.101562 526.628906 L 963.578125 526.628906 Z M 493.597656 138.414062 L 495.121094 138.414062 L 495.121094 526.628906 L 493.597656 526.628906 Z M 493.597656 526.628906 L 965.101562 526.628906 L 965.101562 528.152344 L 493.597656 528.152344 Z M 493.597656 526.628906 " clip-rule="nonzero"/></clipPath><clipPath id="3c3bf9a470"><path d="M 635 137 L 964 137 L 964 528 L 635 528 Z M 635 137 " clip-rule="nonzero"/></clipPath><clipPath id="bda87cd640"><path d="M 635.570312 526.902344 L 962.601562 137.167969 L 963.761719 138.140625 L 636.757812 527.878906 Z M 635.570312 526.902344 " clip-rule="nonzero"/></clipPath><clipPath id="4fb43675cd"><path d="M 493.195312 137 L 637 137 L 637 528 L 493.195312 528 Z M 493.195312 137 " clip-rule="nonzero"/></clipPath><clipPath id="10b4bcd4e5"><path d="M 635.445312 527.664062 L 493.628906 137.929688 L 495.058594 137.410156 L 636.878906 527.148438 Z M 635.445312 527.664062 " clip-rule="nonzero"/></clipPath></defs><g clip-path="url(#329c379eeb)"><g clip-path="url(#80e1a49aaf)"><path fill="#231f20" d="M 478.371094 121.667969 L 980.8125 121.667969 L 980.8125 543.386719 L 478.371094 543.386719 Z M 478.371094 121.667969 " fill-opacity="1" fill-rule="nonzero"/></g></g><g clip-path="url(#f3be703b71)"><g clip-path="url(#53d50df22d)"><path fill="#231f20" d="M 478.371094 121.667969 L 980.8125 121.667969 L 980.8125 543.386719 L 478.371094 543.386719 Z M 478.371094 121.667969 " fill-opacity="1" fill-rule="nonzero"/></g></g><g clip-path="url(#c3850c976e)"><g clip-path="url(#fadb5f1e08)"><path fill="#231f20" d="M 478.371094 121.667969 L 980.8125 121.667969 L 980.8125 543.386719 L 478.371094 543.386719 Z M 478.371094 121.667969 " fill-opacity="1" fill-rule="nonzero"/></g></g><g clip-path="url(#88e1de104a)"><path fill="#231f20" d="M 478.371094 121.667969 L 980.8125 121.667969 L 980.8125 543.386719 L 478.371094 543.386719 Z M 478.371094 121.667969 " fill-opacity="1" fill-rule="nonzero"/></g><g clip-path="url(#3c3bf9a470)"><g clip-path="url(#bda87cd640)"><path fill="#231f20" d="M 478.371094 121.667969 L 980.8125 121.667969 L 980.8125 543.386719 L 478.371094 543.386719 Z M 478.371094 121.667969 " fill-opacity="1" fill-rule="nonzero"/></g></g><g clip-path="url(#4fb43675cd)"><g clip-path="url(#10b4bcd4e5)"><path fill="#231f20" d="M 478.371094 121.667969 L 980.8125 121.667969 L 980.8125 543.386719 L 478.371094 543.386719 Z M 478.371094 121.667969 " fill-opacity="1" fill-rule="nonzero"/></g></g><g fill="#231f20" fill-opacity="1"><g transform="translate(482.198622, 568.763281)"><g><path d="M 15.453125 -12.25 C 15.453125 -9.5625 15.140625 -7.304688 14.515625 -5.484375 C 13.898438 -3.671875 12.976562 -2.300781 11.75 -1.375 C 10.519531 -0.457031 8.992188 0 7.171875 0 L 2.46875 0 L 2.46875 -23.921875 L 7.359375 -23.921875 C 9.140625 -23.921875 10.628906 -23.476562 11.828125 -22.59375 C 13.023438 -21.707031 13.925781 -20.394531 14.53125 -18.65625 C 15.144531 -16.925781 15.453125 -14.789062 15.453125 -12.25 Z M 12.75 -12.125 C 12.75 -14.207031 12.546875 -15.953125 12.140625 -17.359375 C 11.734375 -18.765625 11.125 -19.820312 10.3125 -20.53125 C 9.507812 -21.238281 8.492188 -21.59375 7.265625 -21.59375 L 5.078125 -21.59375 L 5.078125 -2.34375 L 7.0625 -2.34375 C 9.039062 -2.34375 10.484375 -3.160156 11.390625 -4.796875 C 12.296875 -6.441406 12.75 -8.882812 12.75 -12.125 Z M 12.75 -12.125 "/></g></g></g><g fill="#231f20" fill-opacity="1"><g transform="translate(482.29911, 140.219286)"><g><path d="M 12.0625 0 L 10.25 -7.6875 L 4.578125 -7.6875 L 2.78125 0 L 0 0 L 5.78125 -23.921875 L 8.9375 -23.921875 L 14.8125 0 Z M 9.765625 -10.09375 L 7.9375 -18.203125 C 7.851562 -18.609375 7.773438 -19.003906 7.703125 -19.390625 C 7.640625 -19.773438 7.578125 -20.148438 7.515625 -20.515625 C 7.453125 -20.878906 7.394531 -21.238281 7.34375 -21.59375 C 7.3125 -21.238281 7.265625 -20.875 7.203125 -20.5 C 7.148438 -20.132812 7.085938 -19.765625 7.015625 -19.390625 C 6.941406 -19.015625 6.859375 -18.628906 6.765625 -18.234375 L 4.984375 -10.09375 Z M 9.765625 -10.09375 "/></g></g></g><g fill="#231f20" fill-opacity="1"><g transform="translate(626.609615, 568.763281)"><g><path d="M 11.875 0 L 2.46875 0 L 2.46875 -23.921875 L 11.875 -23.921875 L 11.875 -21.59375 L 5.078125 -21.59375 L 5.078125 -13.65625 L 11.46875 -13.65625 L 11.46875 -11.3125 L 5.078125 -11.3125 L 5.078125 -2.375 L 11.875 -2.375 Z M 11.875 0 "/></g></g></g><g fill="#231f20" fill-opacity="1"><g transform="translate(676.914044, 517.378444)"><g><path d="M 6.96875 -14.65625 C 8.1875 -14.65625 9.226562 -14.359375 10.09375 -13.765625 C 10.957031 -13.179688 11.617188 -12.363281 12.078125 -11.3125 C 12.535156 -10.269531 12.765625 -9.054688 12.765625 -7.671875 C 12.765625 -6.085938 12.503906 -4.695312 11.984375 -3.5 C 11.460938 -2.300781 10.695312 -1.363281 9.6875 -0.6875 C 8.6875 -0.0078125 7.445312 0.328125 5.96875 0.328125 C 5.0625 0.328125 4.25 0.238281 3.53125 0.0625 C 2.8125 -0.101562 2.179688 -0.347656 1.640625 -0.671875 L 1.640625 -3.25 C 2.242188 -2.851562 2.898438 -2.535156 3.609375 -2.296875 C 4.328125 -2.054688 5.050781 -1.9375 5.78125 -1.9375 C 6.769531 -1.9375 7.582031 -2.191406 8.21875 -2.703125 C 8.851562 -3.222656 9.328125 -3.910156 9.640625 -4.765625 C 9.960938 -5.617188 10.125 -6.5625 10.125 -7.59375 C 10.125 -9.175781 9.773438 -10.378906 9.078125 -11.203125 C 8.390625 -12.035156 7.394531 -12.453125 6.09375 -12.453125 C 5.550781 -12.453125 5.015625 -12.398438 4.484375 -12.296875 C 3.953125 -12.191406 3.414062 -12.054688 2.875 -11.890625 L 1.84375 -12.890625 L 2.5625 -23.921875 L 11.484375 -23.921875 L 11.484375 -21.5625 L 4.734375 -21.5625 L 4.234375 -14.328125 C 4.691406 -14.441406 5.148438 -14.523438 5.609375 -14.578125 C 6.078125 -14.628906 6.53125 -14.65625 6.96875 -14.65625 Z M 6.96875 -14.65625 "/></g></g></g><g fill="#231f20" fill-opacity="1"><g transform="translate(691.691516, 517.378444)"><g><path d="M 12.828125 -11.953125 C 12.828125 -10.035156 12.71875 -8.316406 12.5 -6.796875 C 12.289062 -5.285156 11.957031 -4 11.5 -2.9375 C 11.039062 -1.882812 10.445312 -1.078125 9.71875 -0.515625 C 9 0.0351562 8.128906 0.3125 7.109375 0.3125 C 5.898438 0.3125 4.867188 -0.0625 4.015625 -0.8125 C 3.171875 -1.5625 2.519531 -2.828125 2.0625 -4.609375 C 1.613281 -6.390625 1.390625 -8.835938 1.390625 -11.953125 C 1.390625 -14.679688 1.597656 -16.957031 2.015625 -18.78125 C 2.441406 -20.601562 3.078125 -21.972656 3.921875 -22.890625 C 4.765625 -23.804688 5.828125 -24.265625 7.109375 -24.265625 C 8.421875 -24.265625 9.492188 -23.800781 10.328125 -22.875 C 11.171875 -21.957031 11.796875 -20.585938 12.203125 -18.765625 C 12.617188 -16.941406 12.828125 -14.671875 12.828125 -11.953125 Z M 4.03125 -11.953125 C 4.03125 -9.765625 4.128906 -7.9375 4.328125 -6.46875 C 4.535156 -5 4.867188 -3.894531 5.328125 -3.15625 C 5.785156 -2.414062 6.378906 -2.046875 7.109375 -2.046875 C 7.847656 -2.046875 8.441406 -2.414062 8.890625 -3.15625 C 9.347656 -3.90625 9.679688 -5.015625 9.890625 -6.484375 C 10.109375 -7.960938 10.21875 -9.785156 10.21875 -11.953125 C 10.21875 -14.128906 10.109375 -15.953125 9.890625 -17.421875 C 9.671875 -18.890625 9.335938 -20 8.890625 -20.75 C 8.441406 -21.507812 7.847656 -21.890625 7.109375 -21.890625 C 6.378906 -21.890625 5.785156 -21.515625 5.328125 -20.765625 C 4.867188 -20.023438 4.535156 -18.921875 4.328125 -17.453125 C 4.128906 -15.992188 4.03125 -14.160156 4.03125 -11.953125 Z M 4.03125 -11.953125 "/></g></g></g><g fill="#231f20" fill-opacity="1"><g transform="translate(706.468988, 517.378444)"><g><path d="M 13.328125 -9 C 13.328125 -7.582031 13.207031 -6.300781 12.96875 -5.15625 C 12.726562 -4.007812 12.363281 -3.023438 11.875 -2.203125 C 11.382812 -1.390625 10.757812 -0.765625 10 -0.328125 C 9.25 0.109375 8.363281 0.328125 7.34375 0.328125 C 6.363281 0.328125 5.5 0.109375 4.75 -0.328125 C 4.007812 -0.765625 3.394531 -1.390625 2.90625 -2.203125 C 2.414062 -3.015625 2.046875 -3.992188 1.796875 -5.140625 C 1.546875 -6.296875 1.421875 -7.582031 1.421875 -9 C 1.421875 -10.976562 1.632812 -12.65625 2.0625 -14.03125 C 2.488281 -15.414062 3.140625 -16.46875 4.015625 -17.1875 C 4.898438 -17.914062 6.023438 -18.28125 7.390625 -18.28125 C 8.671875 -18.28125 9.75 -17.925781 10.625 -17.21875 C 11.507812 -16.519531 12.179688 -15.484375 12.640625 -14.109375 C 13.097656 -12.734375 13.328125 -11.03125 13.328125 -9 Z M 3.984375 -9 C 3.984375 -7.4375 4.101562 -6.125 4.34375 -5.0625 C 4.59375 -4.007812 4.96875 -3.210938 5.46875 -2.671875 C 5.976562 -2.140625 6.625 -1.875 7.40625 -1.875 C 8.1875 -1.875 8.820312 -2.132812 9.3125 -2.65625 C 9.8125 -3.1875 10.179688 -3.976562 10.421875 -5.03125 C 10.660156 -6.082031 10.78125 -7.40625 10.78125 -9 C 10.78125 -10.550781 10.660156 -11.851562 10.421875 -12.90625 C 10.179688 -13.96875 9.8125 -14.757812 9.3125 -15.28125 C 8.820312 -15.8125 8.179688 -16.078125 7.390625 -16.078125 C 6.191406 -16.078125 5.320312 -15.484375 4.78125 -14.296875 C 4.25 -13.117188 3.984375 -11.351562 3.984375 -9 Z M 3.984375 -9 "/></g></g></g><g fill="#231f20" fill-opacity="1"><g transform="translate(952.683054, 140.219286)"><g><path d="M 2.46875 -23.921875 L 7.6875 -23.921875 C 9.769531 -23.921875 11.34375 -23.441406 12.40625 -22.484375 C 13.476562 -21.535156 14.015625 -20.101562 14.015625 -18.1875 C 14.015625 -17.164062 13.882812 -16.269531 13.625 -15.5 C 13.363281 -14.726562 12.976562 -14.101562 12.46875 -13.625 C 11.96875 -13.144531 11.335938 -12.820312 10.578125 -12.65625 L 10.578125 -12.53125 C 11.472656 -12.320312 12.207031 -11.972656 12.78125 -11.484375 C 13.363281 -10.992188 13.796875 -10.363281 14.078125 -9.59375 C 14.367188 -8.820312 14.515625 -7.90625 14.515625 -6.84375 C 14.515625 -5.46875 14.28125 -4.265625 13.8125 -3.234375 C 13.34375 -2.210938 12.65625 -1.414062 11.75 -0.84375 C 10.851562 -0.28125 9.753906 0 8.453125 0 L 2.46875 0 Z M 5.078125 -13.609375 L 7.65625 -13.609375 C 8.957031 -13.609375 9.898438 -13.96875 10.484375 -14.6875 C 11.078125 -15.414062 11.375 -16.503906 11.375 -17.953125 C 11.375 -19.171875 11.0625 -20.097656 10.4375 -20.734375 C 9.8125 -21.367188 8.867188 -21.6875 7.609375 -21.6875 L 5.078125 -21.6875 Z M 5.078125 -11.390625 L 5.078125 -2.28125 L 8.15625 -2.28125 C 9.363281 -2.28125 10.273438 -2.664062 10.890625 -3.4375 C 11.503906 -4.21875 11.8125 -5.394531 11.8125 -6.96875 C 11.8125 -7.945312 11.648438 -8.765625 11.328125 -9.421875 C 11.015625 -10.078125 10.5625 -10.566406 9.96875 -10.890625 C 9.382812 -11.222656 8.679688 -11.390625 7.859375 -11.390625 Z M 5.078125 -11.390625 "/></g></g></g><g fill="#231f20" fill-opacity="1"><g transform="translate(952.683054, 568.763281)"><g><path d="M 9.75 -21.921875 C 8.800781 -21.921875 7.984375 -21.648438 7.296875 -21.109375 C 6.617188 -20.578125 6.0625 -19.84375 5.625 -18.90625 C 5.195312 -17.976562 4.882812 -16.914062 4.6875 -15.71875 C 4.488281 -14.53125 4.390625 -13.273438 4.390625 -11.953125 C 4.390625 -9.898438 4.613281 -8.132812 5.0625 -6.65625 C 5.507812 -5.175781 6.148438 -4.035156 6.984375 -3.234375 C 7.816406 -2.429688 8.789062 -2.03125 9.90625 -2.03125 C 10.582031 -2.03125 11.21875 -2.113281 11.8125 -2.28125 C 12.414062 -2.457031 12.972656 -2.671875 13.484375 -2.921875 L 13.484375 -0.578125 C 12.953125 -0.265625 12.363281 -0.0351562 11.71875 0.109375 C 11.082031 0.253906 10.382812 0.328125 9.625 0.328125 C 8 0.328125 6.585938 -0.160156 5.390625 -1.140625 C 4.203125 -2.128906 3.285156 -3.539062 2.640625 -5.375 C 2.003906 -7.207031 1.6875 -9.410156 1.6875 -11.984375 C 1.6875 -13.679688 1.847656 -15.269531 2.171875 -16.75 C 2.492188 -18.226562 2.984375 -19.535156 3.640625 -20.671875 C 4.296875 -21.804688 5.125 -22.691406 6.125 -23.328125 C 7.132812 -23.972656 8.316406 -24.296875 9.671875 -24.296875 C 10.453125 -24.296875 11.203125 -24.191406 11.921875 -23.984375 C 12.648438 -23.785156 13.347656 -23.492188 14.015625 -23.109375 L 13.09375 -20.90625 C 12.582031 -21.21875 12.050781 -21.460938 11.5 -21.640625 C 10.945312 -21.828125 10.363281 -21.921875 9.75 -21.921875 Z M 9.75 -21.921875 "/></g></g></g></svg>