<svg xmlns="http://www.w3.org/2000/svg" xmlns:xlink="http://www.w3.org/1999/xlink" width="794" zoomAndPan="magnify" viewBox="0 0 1440 809.999993" height="1123" preserveAspectRatio="xMidYMid meet" version="1.0"><defs><g/><clipPath id="937320a300"><path d="M 597 231 L 608 231 L 608 242.941406 L 597 242.941406 Z M 597 231 " clip-rule="nonzero"/></clipPath><clipPath id="63f950d976"><path d="M 607.871094 237.214844 C 607.871094 240.136719 605.472656 242.535156 602.550781 242.535156 C 599.628906 242.535156 597.230469 240.171875 597.230469 237.214844 C 597.230469 234.253906 599.59375 231.894531 602.550781 231.894531 C 605.511719 231.894531 607.871094 234.292969 607.871094 237.214844 " clip-rule="nonzero"/></clipPath><clipPath id="6e794cac4b"><path d="M 646 617.375 L 657.972656 617.375 L 657.972656 628.207031 L 646 628.207031 Z M 646 617.375 " clip-rule="nonzero"/></clipPath><clipPath id="b5cdd52475"><path d="M 657.101562 622.796875 C 657.101562 625.71875 654.703125 628.117188 651.78125 628.117188 C 648.859375 628.117188 646.460938 625.753906 646.460938 622.796875 C 646.460938 619.835938 648.820312 617.476562 651.78125 617.476562 C 654.738281 617.476562 657.101562 619.875 657.101562 622.796875 " clip-rule="nonzero"/></clipPath><clipPath id="b7469df221"><path d="M 685.824219 714.851562 L 696.65625 714.851562 L 696.65625 725.683594 L 685.824219 725.683594 Z M 685.824219 714.851562 " clip-rule="nonzero"/></clipPath><clipPath id="3d8f48098f"><path d="M 696.550781 720.242188 C 696.550781 723.164062 694.152344 725.558594 691.230469 725.558594 C 688.308594 725.558594 685.910156 723.199219 685.910156 720.242188 C 685.910156 717.28125 688.269531 714.921875 691.230469 714.921875 C 694.1875 714.921875 696.550781 717.316406 696.550781 720.242188 " clip-rule="nonzero"/></clipPath><clipPath id="412dfa4187"><path d="M 773 231 L 784 231 L 784 242.941406 L 773 242.941406 Z M 773 231 " clip-rule="nonzero"/></clipPath><clipPath id="de6a1d1470"><path d="M 783.652344 237.214844 C 783.652344 240.136719 781.257812 242.535156 778.335938 242.535156 C 775.410156 242.535156 773.015625 240.171875 773.015625 237.214844 C 773.015625 234.253906 775.375 231.894531 778.335938 231.894531 C 781.292969 231.894531 783.652344 234.292969 783.652344 237.214844 " clip-rule="nonzero"/></clipPath><clipPath id="84ab3a17c6"><path d="M 540.546875 237.8125 L 882.597656 237.8125 L 882.597656 239.6875 L 540.546875 239.6875 Z M 540.546875 237.8125 " clip-rule="nonzero"/></clipPath><clipPath id="e115f5c568"><path d="M 878 233 L 899.34375 233 L 899.34375 244 L 878 244 Z M 878 233 " clip-rule="nonzero"/></clipPath><clipPath id="83e61eb69b"><path d="M 878.886719 243.957031 L 899.195312 238.523438 L 878.886719 233.09375 Z M 878.886719 243.957031 " clip-rule="nonzero"/></clipPath><clipPath id="b19977f1b2"><path d="M 649.867188 92.601562 L 651.742188 92.601562 L 651.742188 768.042969 L 649.867188 768.042969 Z M 649.867188 92.601562 " clip-rule="nonzero"/></clipPath><clipPath id="1aa0154adf"><path d="M 645.597656 76 L 657 76 L 657 97 L 645.597656 97 Z M 645.597656 76 " clip-rule="nonzero"/></clipPath><clipPath id="34c5f807b4"><path d="M 645.597656 96.308594 L 651.03125 76.003906 L 656.460938 96.308594 Z M 645.597656 96.308594 " clip-rule="nonzero"/></clipPath><clipPath id="06575c026a"><path d="M 591 115 L 790 115 L 790 722 L 591 722 Z M 591 115 " clip-rule="nonzero"/></clipPath><clipPath id="fbdf4ac65d"><path d="M 593.1875 116.089844 C 593.261719 117.140625 635.820312 719.453125 690.628906 719.453125 C 691.042969 719.453125 691.417969 719.417969 691.828125 719.339844 L 692.015625 719.304688 L 692.203125 719.339844 C 692.128906 719.339844 692.128906 719.339844 692.203125 719.339844 C 693.664062 719.339844 723.972656 715.03125 755.742188 447.613281 L 756.679688 447.726562 L 755.742188 447.648438 L 787.8125 115.34375 L 789.6875 115.53125 L 757.617188 447.835938 C 725.996094 714.097656 695.800781 721.214844 692.242188 721.214844 C 692.054688 721.214844 691.941406 721.214844 691.902344 721.175781 L 692.089844 720.242188 L 692.242188 721.175781 C 691.714844 721.25 691.230469 721.328125 690.707031 721.328125 C 633.570312 721.328125 591.351562 115.191406 591.386719 116.242188 Z M 593.1875 116.089844 " clip-rule="nonzero"/></clipPath><clipPath id="7c1a0bdae2"><path d="M 602.273438 237 L 777 237 L 777 623 L 602.273438 623 Z M 602.273438 237 " clip-rule="nonzero"/></clipPath><clipPath id="9a5456d81c"><path d="M 606.410156 251.9375 L 607.347656 259.355469 L 605.472656 259.578125 L 604.539062 252.160156 Z M 608.285156 266.808594 L 609.21875 274.226562 L 607.347656 274.453125 L 606.410156 267.035156 Z M 610.15625 281.683594 L 611.09375 289.101562 L 609.21875 289.328125 L 608.285156 281.910156 Z M 612.03125 296.558594 L 612.964844 303.976562 L 611.09375 304.199219 L 610.15625 296.78125 Z M 613.902344 311.429688 L 614.839844 318.847656 L 612.964844 319.074219 L 612.03125 311.65625 Z M 615.777344 326.304688 L 616.714844 333.722656 L 614.839844 333.945312 L 613.902344 326.527344 Z M 617.648438 341.175781 L 618.585938 348.59375 L 616.714844 348.820312 L 615.777344 341.402344 Z M 619.523438 356.050781 L 620.460938 363.46875 L 618.585938 363.691406 L 617.648438 356.273438 Z M 621.394531 370.921875 L 622.332031 378.339844 L 620.460938 378.566406 L 619.523438 371.148438 Z M 623.269531 385.796875 L 624.207031 393.214844 L 622.332031 393.441406 L 621.394531 386.023438 Z M 625.144531 400.671875 L 626.078125 408.089844 L 624.207031 408.3125 L 623.269531 400.894531 Z M 627.015625 415.542969 L 627.953125 422.960938 L 626.078125 423.1875 L 625.144531 415.769531 Z M 628.890625 430.417969 L 629.824219 437.835938 L 627.953125 438.058594 L 627.015625 430.640625 Z M 630.761719 445.289062 L 631.699219 452.707031 L 629.824219 452.933594 L 628.890625 445.515625 Z M 632.636719 460.164062 L 633.570312 467.582031 L 631.699219 467.804688 L 630.761719 460.386719 Z M 634.507812 475.035156 L 635.445312 482.453125 L 633.570312 482.679688 L 632.636719 475.261719 Z M 636.382812 489.910156 L 637.320312 497.328125 L 635.445312 497.554688 L 634.507812 490.136719 Z M 638.253906 504.785156 L 639.191406 512.203125 L 637.320312 512.425781 L 636.382812 505.007812 Z M 640.128906 519.65625 L 641.066406 527.074219 L 639.191406 527.300781 L 638.253906 519.882812 Z M 642 534.53125 L 642.9375 541.949219 L 641.066406 542.171875 L 640.128906 534.753906 Z M 643.875 549.402344 L 644.8125 556.820312 L 642.9375 557.046875 L 642 549.628906 Z M 645.746094 564.277344 L 646.683594 571.695312 L 644.8125 571.917969 L 643.875 564.5 Z M 647.621094 579.148438 L 648.558594 586.566406 L 646.683594 586.792969 L 645.746094 579.375 Z M 649.496094 594.023438 L 650.429688 601.441406 L 648.558594 601.664062 L 647.621094 594.25 Z M 651.367188 608.898438 L 652.304688 616.316406 L 650.429688 616.539062 L 649.496094 609.121094 Z M 651.59375 621.558594 L 653.914062 614.441406 L 655.714844 615.003906 L 653.390625 622.121094 Z M 656.238281 607.324219 L 658.5625 600.203125 L 660.359375 600.765625 L 658.035156 607.886719 Z M 660.882812 593.085938 L 663.207031 585.96875 L 665.003906 586.53125 L 662.683594 593.648438 Z M 665.527344 578.851562 L 667.851562 571.730469 L 669.648438 572.292969 L 667.328125 579.414062 Z M 670.175781 564.613281 L 672.496094 557.496094 L 674.296875 558.058594 L 671.972656 565.175781 Z M 674.820312 550.378906 L 677.144531 543.257812 L 678.941406 543.820312 L 676.617188 550.9375 Z M 679.464844 536.140625 L 681.789062 529.023438 L 683.585938 529.585938 L 681.265625 536.703125 Z M 684.113281 521.90625 L 686.433594 514.785156 L 688.234375 515.347656 L 685.910156 522.464844 Z M 688.757812 507.667969 L 691.078125 500.550781 L 692.878906 501.113281 L 690.554688 508.230469 Z M 693.402344 493.433594 L 695.726562 486.3125 L 697.523438 486.875 L 695.199219 493.992188 Z M 698.046875 479.195312 L 700.371094 472.078125 L 702.167969 472.640625 L 699.847656 479.757812 Z M 702.695312 464.957031 L 705.015625 457.839844 L 706.816406 458.402344 L 704.492188 465.519531 Z M 707.339844 450.722656 L 709.660156 443.605469 L 711.460938 444.167969 L 709.136719 451.285156 Z M 711.984375 436.484375 L 714.308594 429.367188 L 716.105469 429.929688 L 713.78125 437.046875 Z M 716.628906 422.25 L 718.953125 415.132812 L 720.75 415.691406 L 718.429688 422.8125 Z M 721.277344 408.011719 L 723.597656 400.894531 L 725.398438 401.457031 L 723.074219 408.574219 Z M 725.921875 393.777344 L 728.246094 386.660156 L 730.042969 387.21875 L 727.71875 394.339844 Z M 730.566406 379.539062 L 732.890625 372.421875 L 734.6875 372.984375 L 732.367188 380.101562 Z M 735.210938 365.304688 L 737.535156 358.1875 L 739.332031 358.746094 L 737.011719 365.867188 Z M 739.859375 351.066406 L 742.179688 343.949219 L 743.980469 344.511719 L 741.65625 351.628906 Z M 744.503906 336.832031 L 746.828125 329.710938 L 748.625 330.273438 L 746.300781 337.394531 Z M 749.148438 322.59375 L 751.472656 315.476562 L 753.269531 316.039062 L 750.949219 323.15625 Z M 753.796875 308.359375 L 756.117188 301.238281 L 757.917969 301.800781 L 755.59375 308.921875 Z M 758.441406 294.121094 L 760.761719 287.003906 L 762.5625 287.566406 L 760.238281 294.683594 Z M 763.085938 279.886719 L 765.410156 272.765625 L 767.207031 273.328125 L 764.882812 280.449219 Z M 767.730469 265.648438 L 770.054688 258.53125 L 771.851562 259.09375 L 769.53125 266.210938 Z M 772.378906 251.414062 L 774.699219 244.292969 L 776.5 244.855469 L 774.175781 251.972656 Z M 604.574219 237.0625 L 605.511719 244.480469 L 603.636719 244.707031 L 602.703125 237.289062 Z M 604.574219 237.0625 " clip-rule="nonzero"/></clipPath></defs><g clip-path="url(#937320a300)"><g clip-path="url(#63f950d976)"><path fill="#231f20" d="M 521.816406 57.273438 L 917.910156 57.273438 L 917.910156 786.023438 L 521.816406 786.023438 Z M 521.816406 57.273438 " fill-opacity="1" fill-rule="nonzero"/></g></g><g clip-path="url(#6e794cac4b)"><g clip-path="url(#b5cdd52475)"><path fill="#231f20" d="M 521.816406 57.273438 L 917.910156 57.273438 L 917.910156 786.023438 L 521.816406 786.023438 Z M 521.816406 57.273438 " fill-opacity="1" fill-rule="nonzero"/></g></g><g clip-path="url(#b7469df221)"><g clip-path="url(#3d8f48098f)"><path fill="#231f20" d="M 521.816406 57.273438 L 917.910156 57.273438 L 917.910156 786.023438 L 521.816406 786.023438 Z M 521.816406 57.273438 " fill-opacity="1" fill-rule="nonzero"/></g></g><g clip-path="url(#412dfa4187)"><g clip-path="url(#de6a1d1470)"><path fill="#231f20" d="M 521.816406 57.273438 L 917.910156 57.273438 L 917.910156 786.023438 L 521.816406 786.023438 Z M 521.816406 57.273438 " fill-opacity="1" fill-rule="nonzero"/></g></g><g clip-path="url(#84ab3a17c6)"><path fill="#231f20" d="M 521.816406 57.273438 L 917.910156 57.273438 L 917.910156 786.023438 L 521.816406 786.023438 Z M 521.816406 57.273438 " fill-opacity="1" fill-rule="nonzero"/></g><g clip-path="url(#e115f5c568)"><g clip-path="url(#83e61eb69b)"><path fill="#231f20" d="M 521.816406 57.273438 L 917.910156 57.273438 L 917.910156 786.023438 L 521.816406 786.023438 Z M 521.816406 57.273438 " fill-opacity="1" fill-rule="nonzero"/></g></g><g clip-path="url(#b19977f1b2)"><path fill="#231f20" d="M 521.816406 57.273438 L 917.910156 57.273438 L 917.910156 786.023438 L 521.816406 786.023438 Z M 521.816406 57.273438 " fill-opacity="1" fill-rule="nonzero"/></g><g clip-path="url(#1aa0154adf)"><g clip-path="url(#34c5f807b4)"><path fill="#231f20" d="M 521.816406 57.273438 L 917.910156 57.273438 L 917.910156 786.023438 L 521.816406 786.023438 Z M 521.816406 57.273438 " fill-opacity="1" fill-rule="nonzero"/></g></g><g clip-path="url(#06575c026a)"><g clip-path="url(#fbdf4ac65d)"><path fill="#231f20" d="M 521.816406 57.273438 L 917.910156 57.273438 L 917.910156 786.023438 L 521.816406 786.023438 Z M 521.816406 57.273438 " fill-opacity="1" fill-rule="nonzero"/></g></g><g clip-path="url(#7c1a0bdae2)"><g clip-path="url(#9a5456d81c)"><path fill="#231f20" d="M 521.816406 57.273438 L 917.910156 57.273438 L 917.910156 786.023438 L 521.816406 786.023438 Z M 521.816406 57.273438 " fill-opacity="1" fill-rule="nonzero"/></g></g><g fill="#231f20" fill-opacity="1"><g transform="translate(570.605906, 270.786162)"><g><path d="M 22.453125 0 L 18.90625 -9.109375 L 7.25 -9.109375 L 3.75 0 L 0 0 L 11.484375 -29.53125 L 14.828125 -29.53125 L 26.28125 0 Z M 17.796875 -12.390625 L 14.5 -21.296875 C 14.414062 -21.515625 14.273438 -21.910156 14.078125 -22.484375 C 13.890625 -23.066406 13.707031 -23.664062 13.53125 -24.28125 C 13.351562 -24.894531 13.207031 -25.367188 13.09375 -25.703125 C 12.875 -24.847656 12.644531 -24.015625 12.40625 -23.203125 C 12.175781 -22.398438 11.984375 -21.765625 11.828125 -21.296875 L 8.484375 -12.390625 Z M 17.796875 -12.390625 "/></g></g></g><g fill="#231f20" fill-opacity="1"><g transform="translate(609.67368, 634.801466)"><g><path d="M 16.59375 -26.5625 C 13.4375 -26.5625 10.953125 -25.503906 9.140625 -23.390625 C 7.328125 -21.273438 6.421875 -18.378906 6.421875 -14.703125 C 6.421875 -11.046875 7.265625 -8.15625 8.953125 -6.03125 C 10.640625 -3.90625 13.175781 -2.84375 16.5625 -2.84375 C 17.820312 -2.84375 19.023438 -2.953125 20.171875 -3.171875 C 21.328125 -3.390625 22.46875 -3.664062 23.59375 -4 L 23.59375 -0.78125 C 22.5 -0.375 21.367188 -0.078125 20.203125 0.109375 C 19.035156 0.304688 17.640625 0.40625 16.015625 0.40625 C 13.023438 0.40625 10.523438 -0.207031 8.515625 -1.4375 C 6.515625 -2.675781 5.015625 -4.429688 4.015625 -6.703125 C 3.015625 -8.984375 2.515625 -11.664062 2.515625 -14.75 C 2.515625 -17.707031 3.054688 -20.316406 4.140625 -22.578125 C 5.222656 -24.847656 6.820312 -26.617188 8.9375 -27.890625 C 11.050781 -29.171875 13.617188 -29.8125 16.640625 -29.8125 C 19.742188 -29.8125 22.445312 -29.238281 24.75 -28.09375 L 23.265625 -24.953125 C 22.359375 -25.367188 21.347656 -25.738281 20.234375 -26.0625 C 19.128906 -26.394531 17.914062 -26.5625 16.59375 -26.5625 Z M 16.59375 -26.5625 "/></g></g></g><g fill="#231f20" fill-opacity="1"><g transform="translate(622.834895, 95.740155)"><g><path d="M 0.046875 -22.078125 L 3.90625 -22.078125 L 8.6875 -9.515625 C 9.101562 -8.390625 9.472656 -7.332031 9.796875 -6.34375 C 10.128906 -5.351562 10.378906 -4.40625 10.546875 -3.5 L 10.703125 -3.5 C 10.867188 -4.1875 11.128906 -5.082031 11.484375 -6.1875 C 11.847656 -7.300781 12.222656 -8.425781 12.609375 -9.5625 L 17.09375 -22.078125 L 21 -22.078125 L 11.484375 3.046875 C 10.691406 5.128906 9.691406 6.789062 8.484375 8.03125 C 7.273438 9.269531 5.597656 9.890625 3.453125 9.890625 C 2.796875 9.890625 2.21875 9.851562 1.71875 9.78125 C 1.226562 9.707031 0.804688 9.632812 0.453125 9.5625 L 0.453125 6.671875 C 0.753906 6.722656 1.117188 6.773438 1.546875 6.828125 C 1.972656 6.890625 2.421875 6.921875 2.890625 6.921875 C 4.148438 6.921875 5.160156 6.5625 5.921875 5.84375 C 6.691406 5.132812 7.3125 4.1875 7.78125 3 L 8.9375 0.078125 Z M 0.046875 -22.078125 "/></g></g></g><g fill="#231f20" fill-opacity="1"><g transform="translate(681.627572, 763.83122)"><g><path d="M 27.546875 -15 C 27.546875 -10.019531 26.191406 -6.273438 23.484375 -3.765625 C 20.785156 -1.253906 17.019531 0 12.1875 0 L 4 0 L 4 -29.40625 L 13.0625 -29.40625 C 16 -29.40625 18.554688 -28.851562 20.734375 -27.75 C 22.921875 -26.65625 24.601562 -25.035156 25.78125 -22.890625 C 26.957031 -20.753906 27.546875 -18.125 27.546875 -15 Z M 23.640625 -14.875 C 23.640625 -18.800781 22.671875 -21.675781 20.734375 -23.5 C 18.796875 -25.320312 16.054688 -26.234375 12.515625 -26.234375 L 7.703125 -26.234375 L 7.703125 -3.171875 L 11.703125 -3.171875 C 19.660156 -3.171875 23.640625 -7.070312 23.640625 -14.875 Z M 23.640625 -14.875 "/></g></g></g><g fill="#231f20" fill-opacity="1"><g transform="translate(785.520663, 274.537568)"><g><path d="M 4 -29.40625 L 12.390625 -29.40625 C 16.046875 -29.40625 18.820312 -28.851562 20.71875 -27.75 C 22.613281 -26.65625 23.5625 -24.78125 23.5625 -22.125 C 23.5625 -20.382812 23.078125 -18.945312 22.109375 -17.8125 C 21.148438 -16.675781 19.765625 -15.941406 17.953125 -15.609375 L 17.953125 -15.40625 C 19.191406 -15.1875 20.3125 -14.816406 21.3125 -14.296875 C 22.3125 -13.773438 23.097656 -13.03125 23.671875 -12.0625 C 24.253906 -11.101562 24.546875 -9.867188 24.546875 -8.359375 C 24.546875 -5.691406 23.628906 -3.628906 21.796875 -2.171875 C 19.972656 -0.722656 17.484375 0 14.328125 0 L 4 0 Z M 7.703125 -16.890625 L 13.140625 -16.890625 C 15.640625 -16.890625 17.363281 -17.289062 18.3125 -18.09375 C 19.257812 -18.90625 19.734375 -20.109375 19.734375 -21.703125 C 19.734375 -23.328125 19.160156 -24.488281 18.015625 -25.1875 C 16.878906 -25.882812 15.0625 -26.234375 12.5625 -26.234375 L 7.703125 -26.234375 Z M 7.703125 -13.796875 L 7.703125 -3.125 L 13.640625 -3.125 C 16.242188 -3.125 18.050781 -3.628906 19.0625 -4.640625 C 20.082031 -5.660156 20.59375 -7 20.59375 -8.65625 C 20.59375 -10.1875 20.0625 -11.425781 19 -12.375 C 17.945312 -13.320312 16.0625 -13.796875 13.34375 -13.796875 Z M 7.703125 -13.796875 "/></g></g></g><g fill="#231f20" fill-opacity="1"><g transform="translate(881.102362, 270.761085)"><g><path d="M 8.734375 -11.28125 L 1.109375 -22.078125 L 5.234375 -22.078125 L 10.921875 -13.75 L 16.5625 -22.078125 L 20.640625 -22.078125 L 13.015625 -11.28125 L 21.046875 0 L 16.921875 0 L 10.921875 -8.8125 L 4.8125 0 L 0.734375 0 Z M 8.734375 -11.28125 "/></g></g></g></svg>