<svg xmlns="http://www.w3.org/2000/svg" xmlns:xlink="http://www.w3.org/1999/xlink" width="794" zoomAndPan="magnify" viewBox="0 0 1440 809.999993" height="1123" preserveAspectRatio="xMidYMid meet" version="1.0"><defs><g/><clipPath id="4ebef8b0a2"><path d="M 471.964844 334.414062 L 946.964844 334.414062 L 946.964844 335.464844 L 471.964844 335.464844 Z M 471.964844 334.414062 " clip-rule="nonzero"/></clipPath><clipPath id="d4e70983a4"><path d="M 528.832031 122.199219 L 643.339844 122.199219 L 643.339844 123.246094 L 528.832031 123.246094 Z M 528.832031 122.199219 " clip-rule="nonzero"/></clipPath><clipPath id="cc9c50ae3d"><path d="M 471 121.542969 L 529.558594 121.542969 L 529.558594 335.894531 L 471 335.894531 Z M 471 121.542969 " clip-rule="nonzero"/></clipPath><clipPath id="2f89408939"><path d="M 471.355469 334.855469 L 528.410156 121.96875 L 529.417969 122.238281 L 472.367188 335.128906 Z M 471.355469 334.855469 " clip-rule="nonzero"/></clipPath><clipPath id="868f8f4761"><path d="M 643 122 L 947.269531 122 L 947.269531 335.894531 L 643 335.894531 Z M 643 122 " clip-rule="nonzero"/></clipPath><clipPath id="17252d2663"><path d="M 643.632812 122.15625 L 947.050781 334.519531 L 946.441406 335.378906 L 643.023438 123.015625 Z M 643.632812 122.15625 " clip-rule="nonzero"/></clipPath><clipPath id="ccc5ce5fce"><path d="M 528.390625 122.09375 L 529.441406 122.09375 L 529.441406 124.191406 L 528.390625 124.191406 Z M 528.390625 122.09375 " clip-rule="nonzero"/></clipPath><clipPath id="3a177ae840"><path d="M 528 128 L 529.558594 128 L 529.558594 329.480469 L 528 329.480469 Z M 528 128 " clip-rule="nonzero"/></clipPath><clipPath id="ea00459baf"><path d="M 529.441406 137.003906 L 529.441406 141.285156 L 528.390625 141.285156 L 528.390625 137.003906 Z M 529.441406 145.550781 L 529.441406 149.8125 L 528.390625 149.8125 L 528.390625 145.550781 Z M 529.441406 154.09375 L 529.441406 158.359375 L 528.390625 158.359375 L 528.390625 154.09375 Z M 529.441406 162.640625 L 529.441406 166.90625 L 528.390625 166.90625 L 528.390625 162.621094 Z M 529.441406 171.1875 L 529.441406 175.453125 L 528.390625 175.453125 L 528.390625 171.167969 Z M 529.441406 179.734375 L 529.441406 184 L 528.390625 184 L 528.390625 179.691406 Z M 529.441406 188.28125 L 529.441406 192.542969 L 528.390625 192.542969 L 528.390625 188.238281 Z M 529.441406 196.828125 L 529.441406 201.089844 L 528.390625 201.089844 L 528.390625 196.785156 Z M 529.441406 205.375 L 529.441406 209.636719 L 528.390625 209.636719 L 528.390625 205.3125 Z M 529.441406 213.921875 L 529.441406 218.183594 L 528.390625 218.183594 L 528.390625 213.859375 Z M 529.441406 222.46875 L 529.441406 226.730469 L 528.390625 226.730469 L 528.390625 222.382812 Z M 529.441406 231.015625 L 529.441406 235.277344 L 528.390625 235.277344 L 528.390625 230.929688 Z M 529.441406 239.5625 L 529.441406 243.824219 L 528.390625 243.824219 L 528.390625 239.476562 Z M 529.441406 248.109375 L 529.441406 252.371094 L 528.390625 252.371094 L 528.390625 248.003906 Z M 529.441406 256.65625 L 529.441406 260.917969 L 528.390625 260.917969 L 528.390625 256.550781 Z M 529.441406 265.203125 L 529.441406 269.464844 L 528.390625 269.464844 L 528.390625 265.074219 Z M 529.441406 273.75 L 529.441406 278.011719 L 528.390625 278.011719 L 528.390625 273.621094 Z M 529.441406 282.292969 L 529.441406 286.558594 L 528.390625 286.558594 L 528.390625 282.167969 Z M 529.441406 290.839844 L 529.441406 295.105469 L 528.390625 295.105469 L 528.390625 290.695312 Z M 529.441406 299.386719 L 529.441406 303.652344 L 528.390625 303.652344 L 528.390625 299.242188 Z M 529.441406 307.933594 L 529.441406 312.199219 L 528.390625 312.199219 L 528.390625 307.765625 Z M 529.441406 316.480469 L 529.441406 320.742188 L 528.390625 320.742188 L 528.390625 316.3125 Z M 529.441406 325.027344 L 529.441406 329.289062 L 528.390625 329.289062 L 528.390625 325.027344 Z M 529.441406 128.644531 L 529.441406 132.90625 L 528.390625 132.90625 L 528.390625 128.476562 Z M 529.441406 128.644531 " clip-rule="nonzero"/></clipPath><clipPath id="800214fcd5"><path d="M 528.390625 333.34375 L 529.441406 333.34375 L 529.441406 335.441406 L 528.390625 335.441406 Z M 528.390625 333.34375 " clip-rule="nonzero"/></clipPath><clipPath id="1ed47210a7"><path d="M 483 292 L 518.566406 292 L 518.566406 334.976562 L 483 334.976562 Z M 483 292 " clip-rule="nonzero"/></clipPath><clipPath id="503f4cd492"><path d="M 483.558594 292.269531 C 503.359375 296.320312 518.25 313.835938 518.25 334.835938 L 517.199219 334.835938 C 517.199219 314.359375 502.667969 297.246094 483.347656 293.296875 Z M 483.558594 292.269531 " clip-rule="nonzero"/></clipPath><clipPath id="96b0b51e9f"><path d="M 528.621094 309.53125 L 551.550781 309.53125 L 551.550781 310.582031 L 528.621094 310.582031 Z M 550.503906 310.582031 L 551.550781 310.582031 L 551.550781 334.457031 L 550.503906 334.457031 Z M 550.503906 310.582031 " clip-rule="nonzero"/></clipPath><clipPath id="133c733e6a"><path d="M 643.066406 122.09375 L 644.117188 122.09375 L 644.117188 124.191406 L 643.066406 124.191406 Z M 643.066406 122.09375 " clip-rule="nonzero"/></clipPath><clipPath id="c21afc5851"><path d="M 643 128 L 644.980469 128 L 644.980469 329.480469 L 643 329.480469 Z M 643 128 " clip-rule="nonzero"/></clipPath><clipPath id="f29f444131"><path d="M 644.117188 137.003906 L 644.117188 141.285156 L 643.066406 141.285156 L 643.066406 137.003906 Z M 644.117188 145.550781 L 644.117188 149.8125 L 643.066406 149.8125 L 643.066406 145.550781 Z M 644.117188 154.09375 L 644.117188 158.359375 L 643.066406 158.359375 L 643.066406 154.09375 Z M 644.117188 162.640625 L 644.117188 166.90625 L 643.066406 166.90625 L 643.066406 162.621094 Z M 644.117188 171.1875 L 644.117188 175.453125 L 643.066406 175.453125 L 643.066406 171.167969 Z M 644.117188 179.734375 L 644.117188 184 L 643.066406 184 L 643.066406 179.691406 Z M 644.117188 188.28125 L 644.117188 192.542969 L 643.066406 192.542969 L 643.066406 188.238281 Z M 644.117188 196.828125 L 644.117188 201.089844 L 643.066406 201.089844 L 643.066406 196.785156 Z M 644.117188 205.375 L 644.117188 209.636719 L 643.066406 209.636719 L 643.066406 205.3125 Z M 644.117188 213.921875 L 644.117188 218.183594 L 643.066406 218.183594 L 643.066406 213.859375 Z M 644.117188 222.46875 L 644.117188 226.730469 L 643.066406 226.730469 L 643.066406 222.382812 Z M 644.117188 231.015625 L 644.117188 235.277344 L 643.066406 235.277344 L 643.066406 230.929688 Z M 644.117188 239.5625 L 644.117188 243.824219 L 643.066406 243.824219 L 643.066406 239.476562 Z M 644.117188 248.109375 L 644.117188 252.371094 L 643.066406 252.371094 L 643.066406 248.003906 Z M 644.117188 256.65625 L 644.117188 260.917969 L 643.066406 260.917969 L 643.066406 256.550781 Z M 644.117188 265.203125 L 644.117188 269.464844 L 643.066406 269.464844 L 643.066406 265.074219 Z M 644.117188 273.75 L 644.117188 278.011719 L 643.066406 278.011719 L 643.066406 273.621094 Z M 644.117188 282.292969 L 644.117188 286.558594 L 643.066406 286.558594 L 643.066406 282.167969 Z M 644.117188 290.839844 L 644.117188 295.105469 L 643.066406 295.105469 L 643.066406 290.695312 Z M 644.117188 299.386719 L 644.117188 303.652344 L 643.066406 303.652344 L 643.066406 299.242188 Z M 644.117188 307.933594 L 644.117188 312.199219 L 643.066406 312.199219 L 643.066406 307.765625 Z M 644.117188 316.480469 L 644.117188 320.742188 L 643.066406 320.742188 L 643.066406 316.3125 Z M 644.117188 325.027344 L 644.117188 329.289062 L 643.066406 329.289062 L 643.066406 325.027344 Z M 644.117188 128.644531 L 644.117188 132.90625 L 643.066406 132.90625 L 643.066406 128.476562 Z M 644.117188 128.644531 " clip-rule="nonzero"/></clipPath><clipPath id="444314b841"><path d="M 643.066406 333.34375 L 644.117188 333.34375 L 644.117188 335.441406 L 643.066406 335.441406 Z M 643.066406 333.34375 " clip-rule="nonzero"/></clipPath><clipPath id="79ea92288d"><path d="M 643.320312 309.53125 L 666.25 309.53125 L 666.25 310.582031 L 643.320312 310.582031 Z M 665.199219 310.582031 L 666.25 310.582031 L 666.25 334.457031 L 665.199219 334.457031 Z M 665.199219 310.582031 " clip-rule="nonzero"/></clipPath></defs><g clip-path="url(#4ebef8b0a2)"><path fill="#231f20" d="M 460.859375 111.46875 L 957.34375 111.46875 L 957.34375 345.96875 L 460.859375 345.96875 Z M 460.859375 111.46875 " fill-opacity="1" fill-rule="nonzero"/></g><g clip-path="url(#d4e70983a4)"><path fill="#231f20" d="M 460.859375 111.46875 L 957.34375 111.46875 L 957.34375 345.96875 L 460.859375 345.96875 Z M 460.859375 111.46875 " fill-opacity="1" fill-rule="nonzero"/></g><g clip-path="url(#cc9c50ae3d)"><g clip-path="url(#2f89408939)"><path fill="#231f20" d="M 460.859375 111.46875 L 957.34375 111.46875 L 957.34375 345.96875 L 460.859375 345.96875 Z M 460.859375 111.46875 " fill-opacity="1" fill-rule="nonzero"/></g></g><g clip-path="url(#868f8f4761)"><g clip-path="url(#17252d2663)"><path fill="#231f20" d="M 460.859375 111.46875 L 957.34375 111.46875 L 957.34375 345.96875 L 460.859375 345.96875 Z M 460.859375 111.46875 " fill-opacity="1" fill-rule="nonzero"/></g></g><g clip-path="url(#ccc5ce5fce)"><path fill="#231f20" d="M 460.859375 111.46875 L 957.34375 111.46875 L 957.34375 345.96875 L 460.859375 345.96875 Z M 460.859375 111.46875 " fill-opacity="1" fill-rule="nonzero"/></g><g clip-path="url(#3a177ae840)"><g clip-path="url(#ea00459baf)"><path fill="#231f20" d="M 460.859375 111.46875 L 957.34375 111.46875 L 957.34375 345.96875 L 460.859375 345.96875 Z M 460.859375 111.46875 " fill-opacity="1" fill-rule="nonzero"/></g></g><g clip-path="url(#800214fcd5)"><path fill="#231f20" d="M 460.859375 111.46875 L 957.34375 111.46875 L 957.34375 345.96875 L 460.859375 345.96875 Z M 460.859375 111.46875 " fill-opacity="1" fill-rule="nonzero"/></g><g clip-path="url(#1ed47210a7)"><g clip-path="url(#503f4cd492)"><path fill="#231f20" d="M 460.859375 111.46875 L 957.34375 111.46875 L 957.34375 345.96875 L 460.859375 345.96875 Z M 460.859375 111.46875 " fill-opacity="1" fill-rule="nonzero"/></g></g><g clip-path="url(#96b0b51e9f)"><path fill="#231f20" d="M 460.859375 111.46875 L 957.34375 111.46875 L 957.34375 345.96875 L 460.859375 345.96875 Z M 460.859375 111.46875 " fill-opacity="1" fill-rule="nonzero"/></g><g clip-path="url(#133c733e6a)"><path fill="#231f20" d="M 460.859375 111.46875 L 957.34375 111.46875 L 957.34375 345.96875 L 460.859375 345.96875 Z M 460.859375 111.46875 " fill-opacity="1" fill-rule="nonzero"/></g><g clip-path="url(#c21afc5851)"><g clip-path="url(#f29f444131)"><path fill="#231f20" d="M 460.859375 111.46875 L 957.34375 111.46875 L 957.34375 345.96875 L 460.859375 345.96875 Z M 460.859375 111.46875 " fill-opacity="1" fill-rule="nonzero"/></g></g><g clip-path="url(#444314b841)"><path fill="#231f20" d="M 460.859375 111.46875 L 957.34375 111.46875 L 957.34375 345.96875 L 460.859375 345.96875 Z M 460.859375 111.46875 " fill-opacity="1" fill-rule="nonzero"/></g><g clip-path="url(#79ea92288d)"><path fill="#231f20" d="M 460.859375 111.46875 L 957.34375 111.46875 L 957.34375 345.96875 L 460.859375 345.96875 Z M 460.859375 111.46875 " fill-opacity="1" fill-rule="nonzero"/></g><g fill="#231f20" fill-opacity="1"><g transform="translate(977.726957, 102.095395)"><g/></g></g><g fill="#231f20" fill-opacity="1"><g transform="translate(983.307675, 102.095395)"><g><path d="M 1.5 -1.3125 C 1.5 -1.8125 1.609375 -2.191406 1.828125 -2.453125 C 2.046875 -2.722656 2.363281 -2.859375 2.78125 -2.859375 C 3.1875 -2.859375 3.503906 -2.734375 3.734375 -2.484375 C 3.960938 -2.242188 4.078125 -1.851562 4.078125 -1.3125 C 4.078125 -0.789062 3.957031 -0.40625 3.71875 -0.15625 C 3.476562 0.0820312 3.164062 0.203125 2.78125 0.203125 C 2.375 0.203125 2.054688 0.078125 1.828125 -0.171875 C 1.609375 -0.429688 1.5 -0.8125 1.5 -1.3125 Z M 1.5 -1.3125 "/></g></g></g><g fill="#231f20" fill-opacity="1"><g transform="translate(977.726957, 136.731757)"><g/></g></g><g fill="#231f20" fill-opacity="1"><g transform="translate(459.405655, 364.889095)"><g><path d="M 8.3125 0 L 7.0625 -5.296875 L 3.15625 -5.296875 L 1.921875 0 L 0 0 L 3.984375 -16.484375 L 6.15625 -16.484375 L 10.21875 0 Z M 6.734375 -6.953125 L 5.46875 -12.546875 C 5.414062 -12.828125 5.363281 -13.097656 5.3125 -13.359375 C 5.269531 -13.628906 5.226562 -13.890625 5.1875 -14.140625 C 5.144531 -14.398438 5.101562 -14.648438 5.0625 -14.890625 C 5.039062 -14.648438 5.007812 -14.398438 4.96875 -14.140625 C 4.9375 -13.878906 4.894531 -13.617188 4.84375 -13.359375 C 4.789062 -13.109375 4.734375 -12.847656 4.671875 -12.578125 L 3.4375 -6.953125 Z M 6.734375 -6.953125 "/></g></g></g><g fill="#231f20" fill-opacity="1"><g transform="translate(520.479772, 112.276099)"><g><path d="M 10.65625 -8.453125 C 10.65625 -6.585938 10.441406 -5.03125 10.015625 -3.78125 C 9.585938 -2.53125 8.945312 -1.585938 8.09375 -0.953125 C 7.25 -0.316406 6.195312 0 4.9375 0 L 1.703125 0 L 1.703125 -16.484375 L 5.078125 -16.484375 C 6.296875 -16.484375 7.316406 -16.175781 8.140625 -15.5625 C 8.972656 -14.957031 9.597656 -14.054688 10.015625 -12.859375 C 10.441406 -11.671875 10.65625 -10.203125 10.65625 -8.453125 Z M 8.78125 -8.359375 C 8.78125 -9.796875 8.640625 -11 8.359375 -11.96875 C 8.085938 -12.9375 7.671875 -13.664062 7.109375 -14.15625 C 6.554688 -14.644531 5.851562 -14.890625 5 -14.890625 L 3.5 -14.890625 L 3.5 -1.609375 L 4.875 -1.609375 C 6.226562 -1.609375 7.21875 -2.171875 7.84375 -3.296875 C 8.46875 -4.429688 8.78125 -6.117188 8.78125 -8.359375 Z M 8.78125 -8.359375 "/></g></g></g><g fill="#231f20" fill-opacity="1"><g transform="translate(521.78698, 364.889095)"><g><path d="M 8.1875 0 L 1.703125 0 L 1.703125 -16.484375 L 8.1875 -16.484375 L 8.1875 -14.890625 L 3.5 -14.890625 L 3.5 -9.421875 L 7.90625 -9.421875 L 7.90625 -7.796875 L 3.5 -7.796875 L 3.5 -1.640625 L 8.1875 -1.640625 Z M 8.1875 0 "/></g></g></g><g fill="#231f20" fill-opacity="1"><g transform="translate(633.328102, 364.884376)"><g><path d="M 7.375 0 L 3.375 -14 L 3.28125 -14 C 3.3125 -13.5 3.335938 -13.046875 3.359375 -12.640625 C 3.378906 -12.242188 3.390625 -11.894531 3.390625 -11.59375 C 3.398438 -11.300781 3.40625 -11.0625 3.40625 -10.875 L 3.40625 0 L 1.703125 0 L 1.703125 -16.484375 L 4.234375 -16.484375 L 8.171875 -2.78125 L 8.25 -2.78125 L 12.1875 -16.484375 L 14.765625 -16.484375 L 14.765625 0 L 13 0 L 13 -10.84375 C 13 -11.039062 13.003906 -11.289062 13.015625 -11.59375 C 13.023438 -11.894531 13.035156 -12.242188 13.046875 -12.640625 C 13.066406 -13.046875 13.085938 -13.5 13.109375 -14 L 13.03125 -14 L 9.015625 0 Z M 7.375 0 "/></g></g></g><g fill="#231f20" fill-opacity="1"><g transform="translate(643.80055, 112.276099)"><g><path d="M 6.71875 -15.109375 C 6.0625 -15.109375 5.5 -14.921875 5.03125 -14.546875 C 4.5625 -14.179688 4.175781 -13.675781 3.875 -13.03125 C 3.582031 -12.394531 3.363281 -11.664062 3.21875 -10.84375 C 3.082031 -10.019531 3.015625 -9.15625 3.015625 -8.25 C 3.015625 -6.832031 3.171875 -5.613281 3.484375 -4.59375 C 3.796875 -3.570312 4.238281 -2.78125 4.8125 -2.21875 C 5.382812 -1.664062 6.054688 -1.390625 6.828125 -1.390625 C 7.296875 -1.390625 7.734375 -1.453125 8.140625 -1.578125 C 8.554688 -1.703125 8.941406 -1.847656 9.296875 -2.015625 L 9.296875 -0.390625 C 8.929688 -0.179688 8.523438 -0.03125 8.078125 0.0625 C 7.640625 0.164062 7.15625 0.21875 6.625 0.21875 C 5.507812 0.21875 4.539062 -0.113281 3.71875 -0.78125 C 2.894531 -1.457031 2.257812 -2.429688 1.8125 -3.703125 C 1.375 -4.972656 1.15625 -6.492188 1.15625 -8.265625 C 1.15625 -9.429688 1.265625 -10.523438 1.484375 -11.546875 C 1.710938 -12.566406 2.050781 -13.46875 2.5 -14.25 C 2.957031 -15.03125 3.53125 -15.640625 4.21875 -16.078125 C 4.914062 -16.523438 5.734375 -16.75 6.671875 -16.75 C 7.203125 -16.75 7.71875 -16.675781 8.21875 -16.53125 C 8.71875 -16.394531 9.195312 -16.195312 9.65625 -15.9375 L 9.015625 -14.40625 C 8.671875 -14.625 8.304688 -14.796875 7.921875 -14.921875 C 7.546875 -15.046875 7.144531 -15.109375 6.71875 -15.109375 Z M 6.71875 -15.109375 "/></g></g></g><g fill="#231f20" fill-opacity="1"><g transform="translate(944.158951, 364.889095)"><g><path d="M 1.703125 -16.484375 L 5.296875 -16.484375 C 6.734375 -16.484375 7.816406 -16.15625 8.546875 -15.5 C 9.285156 -14.851562 9.65625 -13.867188 9.65625 -12.546875 C 9.65625 -11.835938 9.566406 -11.21875 9.390625 -10.6875 C 9.210938 -10.15625 8.945312 -9.722656 8.59375 -9.390625 C 8.25 -9.054688 7.816406 -8.835938 7.296875 -8.734375 L 7.296875 -8.640625 C 7.910156 -8.492188 8.414062 -8.25 8.8125 -7.90625 C 9.21875 -7.570312 9.515625 -7.140625 9.703125 -6.609375 C 9.898438 -6.078125 10 -5.445312 10 -4.71875 C 10 -3.769531 9.835938 -2.941406 9.515625 -2.234375 C 9.191406 -1.523438 8.71875 -0.972656 8.09375 -0.578125 C 7.476562 -0.191406 6.722656 0 5.828125 0 L 1.703125 0 Z M 3.5 -9.375 L 5.28125 -9.375 C 6.175781 -9.375 6.828125 -9.625 7.234375 -10.125 C 7.640625 -10.625 7.84375 -11.375 7.84375 -12.375 C 7.84375 -13.21875 7.625 -13.859375 7.1875 -14.296875 C 6.757812 -14.734375 6.113281 -14.953125 5.25 -14.953125 L 3.5 -14.953125 Z M 3.5 -7.84375 L 3.5 -1.5625 L 5.625 -1.5625 C 6.457031 -1.5625 7.082031 -1.832031 7.5 -2.375 C 7.925781 -2.914062 8.140625 -3.722656 8.140625 -4.796875 C 8.140625 -5.472656 8.03125 -6.035156 7.8125 -6.484375 C 7.59375 -6.941406 7.28125 -7.28125 6.875 -7.5 C 6.46875 -7.726562 5.976562 -7.84375 5.40625 -7.84375 Z M 3.5 -7.84375 "/></g></g></g><g fill="#231f20" fill-opacity="1"><g transform="translate(479.232462, 331.335249)"><g><path d="M 1.96875 0 L 6.5 -13.5 L 0.671875 -13.5 L 0.671875 -14.984375 L 8.140625 -14.984375 L 8.140625 -13.78125 L 3.671875 0 Z M 1.96875 0 "/></g></g></g><g fill="#231f20" fill-opacity="1"><g transform="translate(488.160971, 331.335249)"><g><path d="M 4.375 -9.1875 C 5.132812 -9.1875 5.785156 -9 6.328125 -8.625 C 6.867188 -8.257812 7.28125 -7.75 7.5625 -7.09375 C 7.851562 -6.4375 8 -5.675781 8 -4.8125 C 8 -3.820312 7.835938 -2.945312 7.515625 -2.1875 C 7.191406 -1.4375 6.710938 -0.847656 6.078125 -0.421875 C 5.453125 -0.00390625 4.675781 0.203125 3.75 0.203125 C 3.175781 0.203125 2.660156 0.148438 2.203125 0.046875 C 1.753906 -0.0546875 1.363281 -0.210938 1.03125 -0.421875 L 1.03125 -2.046875 C 1.40625 -1.785156 1.816406 -1.578125 2.265625 -1.421875 C 2.710938 -1.273438 3.164062 -1.203125 3.625 -1.203125 C 4.238281 -1.203125 4.742188 -1.363281 5.140625 -1.6875 C 5.546875 -2.019531 5.847656 -2.453125 6.046875 -2.984375 C 6.242188 -3.523438 6.34375 -4.117188 6.34375 -4.765625 C 6.34375 -5.753906 6.125 -6.503906 5.6875 -7.015625 C 5.257812 -7.535156 4.640625 -7.796875 3.828125 -7.796875 C 3.484375 -7.796875 3.144531 -7.765625 2.8125 -7.703125 C 2.476562 -7.640625 2.144531 -7.554688 1.8125 -7.453125 L 1.15625 -8.078125 L 1.609375 -14.984375 L 7.203125 -14.984375 L 7.203125 -13.515625 L 2.96875 -13.515625 L 2.65625 -8.984375 C 2.945312 -9.046875 3.234375 -9.09375 3.515625 -9.125 C 3.804688 -9.164062 4.09375 -9.1875 4.375 -9.1875 Z M 4.375 -9.1875 "/></g></g></g><g fill="#231f20" fill-opacity="1"><g transform="translate(497.08948, 331.335249)"><g><path d="M 8.359375 -5.640625 C 8.359375 -4.753906 8.28125 -3.953125 8.125 -3.234375 C 7.976562 -2.515625 7.75 -1.894531 7.4375 -1.375 C 7.132812 -0.863281 6.742188 -0.472656 6.265625 -0.203125 C 5.796875 0.0664062 5.242188 0.203125 4.609375 0.203125 C 3.992188 0.203125 3.453125 0.0664062 2.984375 -0.203125 C 2.515625 -0.472656 2.125 -0.863281 1.8125 -1.375 C 1.507812 -1.882812 1.28125 -2.5 1.125 -3.21875 C 0.96875 -3.945312 0.890625 -4.753906 0.890625 -5.640625 C 0.890625 -6.878906 1.019531 -7.929688 1.28125 -8.796875 C 1.550781 -9.660156 1.960938 -10.320312 2.515625 -10.78125 C 3.078125 -11.238281 3.785156 -11.46875 4.640625 -11.46875 C 5.429688 -11.46875 6.101562 -11.242188 6.65625 -10.796875 C 7.21875 -10.359375 7.640625 -9.707031 7.921875 -8.84375 C 8.210938 -7.976562 8.359375 -6.910156 8.359375 -5.640625 Z M 2.5 -5.640625 C 2.5 -4.660156 2.570312 -3.835938 2.71875 -3.171875 C 2.875 -2.515625 3.109375 -2.015625 3.421875 -1.671875 C 3.742188 -1.335938 4.148438 -1.171875 4.640625 -1.171875 C 5.128906 -1.171875 5.53125 -1.332031 5.84375 -1.65625 C 6.15625 -1.988281 6.382812 -2.484375 6.53125 -3.140625 C 6.675781 -3.804688 6.75 -4.640625 6.75 -5.640625 C 6.75 -6.617188 6.675781 -7.4375 6.53125 -8.09375 C 6.382812 -8.75 6.15625 -9.242188 5.84375 -9.578125 C 5.53125 -9.910156 5.128906 -10.078125 4.640625 -10.078125 C 3.878906 -10.078125 3.332031 -9.707031 3 -8.96875 C 2.664062 -8.226562 2.5 -7.117188 2.5 -5.640625 Z M 2.5 -5.640625 "/></g></g></g></svg>