<svg xmlns="http://www.w3.org/2000/svg" xmlns:xlink="http://www.w3.org/1999/xlink" width="794" zoomAndPan="magnify" viewBox="0 0 1440 809.999993" height="1123" preserveAspectRatio="xMidYMid meet" version="1.0"><defs><g/><clipPath id="8738d496f6"><path d="M 700.738281 450 L 750 450 L 750 528 L 700.738281 528 Z M 700.738281 450 " clip-rule="nonzero"/></clipPath><clipPath id="104023f931"><path d="M 701.535156 450.367188 C 730.554688 467.480469 749.554688 495.554688 749.554688 527.34375 L 748.03125 527.34375 C 748.03125 496.195312 729.425781 468.578125 700.773438 451.675781 Z M 701.535156 450.367188 " clip-rule="nonzero"/></clipPath><clipPath id="6d9ae3248a"><path d="M 493.195312 297.910156 L 553 297.910156 L 553 320.972656 L 493.195312 320.972656 Z M 493.195312 297.910156 " clip-rule="nonzero"/></clipPath><clipPath id="c1448272c3"><path d="M 552.820312 299.035156 C 536.132812 315.992188 514.332031 324.0625 493.839844 318.246094 L 494.265625 316.785156 C 514.058594 322.417969 535.3125 314.652344 551.722656 297.96875 Z M 552.820312 299.035156 " clip-rule="nonzero"/></clipPath><clipPath id="00c3395fff"><path d="M 494 303 L 555.789062 303 L 555.789062 327 L 494 327 Z M 494 303 " clip-rule="nonzero"/></clipPath><clipPath id="e8660dffe7"><path d="M 555.53125 304.941406 C 538.265625 322.511719 515.703125 330.851562 494.507812 324.824219 L 494.933594 323.363281 C 515.457031 329.179688 537.441406 321.140625 554.433594 303.875 Z M 555.53125 304.941406 " clip-rule="nonzero"/></clipPath><clipPath id="fad936ee1e"><path d="M 493.59375 136.890625 L 965.046875 136.890625 L 965.046875 138.410156 L 493.59375 138.410156 Z M 963.523438 138.410156 L 965.046875 138.410156 L 965.046875 526.582031 L 963.523438 526.582031 Z M 493.59375 138.410156 L 495.117188 138.410156 L 495.117188 526.582031 L 493.59375 526.582031 Z M 493.59375 526.582031 L 965.046875 526.582031 L 965.046875 528.105469 L 493.59375 528.105469 Z M 493.59375 526.582031 " clip-rule="nonzero"/></clipPath><clipPath id="60bc44e5c9"><path d="M 635 137 L 964 137 L 964 528 L 635 528 Z M 635 137 " clip-rule="nonzero"/></clipPath><clipPath id="597b82b7ef"><path d="M 635.550781 526.855469 L 962.550781 137.164062 L 963.707031 138.136719 L 636.738281 527.832031 Z M 635.550781 526.855469 " clip-rule="nonzero"/></clipPath><clipPath id="578a629abd"><path d="M 493.195312 137 L 637 137 L 637 528 L 493.195312 528 Z M 493.195312 137 " clip-rule="nonzero"/></clipPath><clipPath id="248ac8e935"><path d="M 635.429688 527.617188 L 493.625 137.925781 L 495.058594 137.40625 L 636.859375 527.101562 Z M 635.429688 527.617188 " clip-rule="nonzero"/></clipPath></defs><g clip-path="url(#8738d496f6)"><g clip-path="url(#104023f931)"><path fill="#231f20" d="M 478.371094 121.664062 L 980.757812 121.664062 L 980.757812 543.339844 L 478.371094 543.339844 Z M 478.371094 121.664062 " fill-opacity="1" fill-rule="nonzero"/></g></g><g clip-path="url(#6d9ae3248a)"><g clip-path="url(#c1448272c3)"><path fill="#231f20" d="M 478.371094 121.664062 L 980.757812 121.664062 L 980.757812 543.339844 L 478.371094 543.339844 Z M 478.371094 121.664062 " fill-opacity="1" fill-rule="nonzero"/></g></g><g clip-path="url(#00c3395fff)"><g clip-path="url(#e8660dffe7)"><path fill="#231f20" d="M 478.371094 121.664062 L 980.757812 121.664062 L 980.757812 543.339844 L 478.371094 543.339844 Z M 478.371094 121.664062 " fill-opacity="1" fill-rule="nonzero"/></g></g><g clip-path="url(#fad936ee1e)"><path fill="#231f20" d="M 478.371094 121.664062 L 980.757812 121.664062 L 980.757812 543.339844 L 478.371094 543.339844 Z M 478.371094 121.664062 " fill-opacity="1" fill-rule="nonzero"/></g><g clip-path="url(#60bc44e5c9)"><g clip-path="url(#597b82b7ef)"><path fill="#231f20" d="M 478.371094 121.664062 L 980.757812 121.664062 L 980.757812 543.339844 L 478.371094 543.339844 Z M 478.371094 121.664062 " fill-opacity="1" fill-rule="nonzero"/></g></g><g clip-path="url(#578a629abd)"><g clip-path="url(#248ac8e935)"><path fill="#231f20" d="M 478.371094 121.664062 L 980.757812 121.664062 L 980.757812 543.339844 L 478.371094 543.339844 Z M 478.371094 121.664062 " fill-opacity="1" fill-rule="nonzero"/></g></g><g fill="#231f20" fill-opacity="1"><g transform="translate(479.863662, 766.949379)"><g><path d="M 4.078125 -8.265625 L 1.046875 0.03125 L 0.21875 0.03125 L 3.265625 -8.265625 Z M 4.078125 -8.265625 "/></g></g></g><g fill="#231f20" fill-opacity="1"><g transform="translate(484.508903, 766.949379)"><g><path d="M 2.40625 -5.046875 C 2.820312 -5.046875 3.175781 -4.941406 3.46875 -4.734375 C 3.769531 -4.535156 4 -4.253906 4.15625 -3.890625 C 4.3125 -3.535156 4.390625 -3.117188 4.390625 -2.640625 C 4.390625 -2.097656 4.300781 -1.617188 4.125 -1.203125 C 3.945312 -0.796875 3.6875 -0.472656 3.34375 -0.234375 C 3 -0.00390625 2.570312 0.109375 2.0625 0.109375 C 1.75 0.109375 1.46875 0.078125 1.21875 0.015625 C 0.96875 -0.0351562 0.75 -0.117188 0.5625 -0.234375 L 0.5625 -1.125 C 0.769531 -0.976562 1 -0.863281 1.25 -0.78125 C 1.5 -0.707031 1.742188 -0.671875 1.984375 -0.671875 C 2.328125 -0.671875 2.609375 -0.757812 2.828125 -0.9375 C 3.046875 -1.113281 3.207031 -1.347656 3.3125 -1.640625 C 3.425781 -1.941406 3.484375 -2.265625 3.484375 -2.609375 C 3.484375 -3.160156 3.363281 -3.578125 3.125 -3.859375 C 2.894531 -4.148438 2.554688 -4.296875 2.109375 -4.296875 C 1.921875 -4.296875 1.734375 -4.273438 1.546875 -4.234375 C 1.359375 -4.203125 1.175781 -4.15625 1 -4.09375 L 0.640625 -4.4375 L 0.890625 -8.25 L 3.953125 -8.25 L 3.953125 -7.4375 L 1.625 -7.4375 L 1.453125 -4.9375 C 1.617188 -4.976562 1.78125 -5.003906 1.9375 -5.015625 C 2.09375 -5.035156 2.25 -5.046875 2.40625 -5.046875 Z M 2.40625 -5.046875 "/></g></g></g><g fill="#231f20" fill-opacity="1"><g transform="translate(489.841911, 766.949379)"><g/></g></g><g fill="#231f20" fill-opacity="1"><g transform="translate(492.39977, 766.949379)"><g><path d="M 2.03125 0 L 2.03125 -5.046875 C 2.03125 -5.253906 2.054688 -5.453125 2.109375 -5.640625 C 2.171875 -5.828125 2.238281 -5.972656 2.3125 -6.078125 C 2.40625 -6.203125 2.488281 -6.296875 2.5625 -6.359375 C 2.632812 -6.429688 2.722656 -6.492188 2.828125 -6.546875 L 0.109375 -6.546875 L 0.109375 -7.265625 L 3.984375 -7.265625 L 3.984375 -6.625 C 3.785156 -6.550781 3.617188 -6.460938 3.484375 -6.359375 C 3.347656 -6.265625 3.242188 -6.164062 3.171875 -6.0625 C 2.984375 -5.800781 2.890625 -5.457031 2.890625 -5.03125 L 2.890625 0 Z M 2.03125 0 "/></g></g></g><g fill="#231f20" fill-opacity="1"><g transform="translate(496.947642, 766.949379)"><g><path d="M 0.75 0 L 0.75 -7.265625 L 1.625 -7.265625 L 1.625 0 Z M 0.75 0 "/></g></g></g><g fill="#231f20" fill-opacity="1"><g transform="translate(499.736636, 766.949379)"><g><path d="M 0.296875 0 L 0.78125 -5.34375 C 0.789062 -5.394531 0.796875 -5.453125 0.796875 -5.515625 C 0.796875 -5.585938 0.796875 -5.648438 0.796875 -5.703125 C 0.796875 -5.828125 0.785156 -5.960938 0.765625 -6.109375 C 0.742188 -6.253906 0.710938 -6.398438 0.671875 -6.546875 C 0.660156 -6.585938 0.648438 -6.625 0.640625 -6.65625 C 0.628906 -6.695312 0.613281 -6.734375 0.59375 -6.765625 C 0.582031 -6.804688 0.570312 -6.847656 0.5625 -6.890625 C 0.539062 -6.953125 0.519531 -7.015625 0.5 -7.078125 C 0.476562 -7.140625 0.457031 -7.203125 0.4375 -7.265625 L 1.28125 -7.265625 C 1.34375 -7.140625 1.394531 -7 1.4375 -6.84375 C 1.488281 -6.695312 1.523438 -6.554688 1.546875 -6.421875 L 1.59375 -6.421875 C 1.644531 -6.546875 1.710938 -6.660156 1.796875 -6.765625 C 1.890625 -6.878906 1.984375 -6.972656 2.078125 -7.046875 C 2.179688 -7.140625 2.320312 -7.21875 2.5 -7.28125 C 2.675781 -7.351562 2.875 -7.390625 3.09375 -7.390625 C 3.320312 -7.390625 3.519531 -7.347656 3.6875 -7.265625 C 3.851562 -7.179688 3.988281 -7.078125 4.09375 -6.953125 C 4.164062 -6.859375 4.226562 -6.75 4.28125 -6.625 C 4.332031 -6.5 4.375 -6.363281 4.40625 -6.21875 C 4.457031 -6.019531 4.492188 -5.796875 4.515625 -5.546875 C 4.535156 -5.296875 4.546875 -5.019531 4.546875 -4.71875 L 4.546875 0 L 2.40625 0 L 2.40625 -0.71875 L 3.6875 -0.71875 L 3.6875 -4.71875 C 3.6875 -5.132812 3.671875 -5.4375 3.640625 -5.625 C 3.617188 -5.820312 3.59375 -5.976562 3.5625 -6.09375 C 3.507812 -6.257812 3.441406 -6.378906 3.359375 -6.453125 C 3.285156 -6.523438 3.210938 -6.570312 3.140625 -6.59375 C 3.066406 -6.625 3.003906 -6.640625 2.953125 -6.640625 C 2.742188 -6.640625 2.566406 -6.597656 2.421875 -6.515625 C 2.273438 -6.441406 2.15625 -6.335938 2.0625 -6.203125 C 1.957031 -6.078125 1.875 -5.953125 1.8125 -5.828125 C 1.75 -5.703125 1.695312 -5.566406 1.65625 -5.421875 L 1.15625 0 Z M 0.296875 0 "/></g></g></g><g fill="#231f20" fill-opacity="1"><g transform="translate(505.411993, 766.949379)"><g><path d="M 0.359375 0.296875 L 0.359375 -0.4375 L 1.3125 -0.609375 C 1.394531 -0.617188 1.476562 -0.628906 1.5625 -0.640625 C 1.644531 -0.660156 1.734375 -0.675781 1.828125 -0.6875 L 0.390625 -7.265625 L 1.234375 -7.265625 L 1.953125 -3.984375 L 2.515625 -1.015625 C 2.796875 -1.191406 3.007812 -1.429688 3.15625 -1.734375 C 3.300781 -2.035156 3.40625 -2.378906 3.46875 -2.765625 C 3.539062 -3.160156 3.597656 -3.566406 3.640625 -3.984375 L 3.953125 -7.265625 L 4.8125 -7.265625 L 4.5 -4.0625 C 4.445312 -3.570312 4.390625 -3.125 4.328125 -2.71875 C 4.273438 -2.3125 4.179688 -1.945312 4.046875 -1.625 C 3.910156 -1.3125 3.707031 -1.03125 3.4375 -0.78125 C 3.257812 -0.570312 3.039062 -0.398438 2.78125 -0.265625 C 2.53125 -0.128906 2.222656 -0.03125 1.859375 0.03125 C 1.617188 0.0703125 1.375 0.113281 1.125 0.15625 C 0.875 0.207031 0.617188 0.253906 0.359375 0.296875 Z M 0.359375 0.296875 "/></g></g></g><g fill="#231f20" fill-opacity="1"><g transform="translate(510.833667, 766.949379)"><g><path d="M 0.515625 0 L 0.515625 -0.71875 L 2.9375 -0.71875 L 2.9375 -5.1875 C 2.9375 -5.65625 2.878906 -6 2.765625 -6.21875 C 2.648438 -6.4375 2.453125 -6.570312 2.171875 -6.625 C 2.097656 -6.632812 2.023438 -6.640625 1.953125 -6.640625 C 1.878906 -6.648438 1.804688 -6.65625 1.734375 -6.65625 C 1.515625 -6.65625 1.320312 -6.648438 1.15625 -6.640625 C 0.988281 -6.628906 0.773438 -6.609375 0.515625 -6.578125 L 0.515625 -7.3125 C 0.710938 -7.34375 0.90625 -7.363281 1.09375 -7.375 C 1.28125 -7.382812 1.46875 -7.390625 1.65625 -7.390625 C 1.90625 -7.390625 2.113281 -7.378906 2.28125 -7.359375 C 2.445312 -7.335938 2.597656 -7.304688 2.734375 -7.265625 C 2.910156 -7.210938 3.0625 -7.132812 3.1875 -7.03125 C 3.320312 -6.9375 3.4375 -6.816406 3.53125 -6.671875 C 3.59375 -6.578125 3.644531 -6.453125 3.6875 -6.296875 C 3.726562 -6.140625 3.753906 -5.960938 3.765625 -5.765625 C 3.785156 -5.578125 3.796875 -5.382812 3.796875 -5.1875 L 3.796875 -0.71875 L 4.375 -0.71875 L 4.375 0 Z M 0.515625 0 "/></g></g></g><g fill="#231f20" fill-opacity="1"><g transform="translate(515.804345, 766.949379)"><g/></g></g><g fill="#231f20" fill-opacity="1"><g transform="translate(518.362205, 766.949379)"><g><path d="M 2.515625 2.78125 L 2.515625 -4.09375 C 2.515625 -4.5 2.488281 -4.851562 2.4375 -5.15625 C 2.394531 -5.457031 2.328125 -5.71875 2.234375 -5.9375 C 2.191406 -6.03125 2.144531 -6.113281 2.09375 -6.1875 C 2.050781 -6.257812 2 -6.316406 1.9375 -6.359375 C 1.75 -6.535156 1.519531 -6.625 1.25 -6.625 C 1.15625 -6.625 1.070312 -6.613281 1 -6.59375 C 0.925781 -6.582031 0.835938 -6.566406 0.734375 -6.546875 C 0.648438 -6.535156 0.566406 -6.515625 0.484375 -6.484375 C 0.410156 -6.453125 0.335938 -6.421875 0.265625 -6.390625 L 0.265625 -7.1875 C 0.335938 -7.226562 0.414062 -7.257812 0.5 -7.28125 C 0.582031 -7.300781 0.671875 -7.320312 0.765625 -7.34375 C 0.847656 -7.351562 0.929688 -7.363281 1.015625 -7.375 C 1.109375 -7.382812 1.203125 -7.390625 1.296875 -7.390625 C 1.515625 -7.390625 1.710938 -7.363281 1.890625 -7.3125 C 2.078125 -7.257812 2.242188 -7.179688 2.390625 -7.078125 C 2.609375 -6.929688 2.785156 -6.726562 2.921875 -6.46875 C 3.066406 -6.21875 3.171875 -5.925781 3.234375 -5.59375 C 3.285156 -5.375 3.320312 -5.144531 3.34375 -4.90625 C 3.363281 -4.664062 3.375 -4.394531 3.375 -4.09375 L 3.375 2.78125 Z M 2.515625 2.78125 "/></g></g></g><g fill="#231f20" fill-opacity="1"><g transform="translate(522.876252, 766.949379)"><g><path d="M 0.96875 0 L 0.359375 -7.265625 L 1.1875 -7.265625 L 1.515625 -3.265625 C 1.703125 -3.335938 1.859375 -3.425781 1.984375 -3.53125 C 2.117188 -3.644531 2.234375 -3.78125 2.328125 -3.9375 C 2.441406 -4.125 2.53125 -4.351562 2.59375 -4.625 C 2.65625 -4.894531 2.703125 -5.210938 2.734375 -5.578125 L 2.890625 -7.265625 L 3.703125 -7.265625 L 3.53125 -5.40625 C 3.5 -5 3.445312 -4.65625 3.375 -4.375 C 3.300781 -4.09375 3.203125 -3.832031 3.078125 -3.59375 C 2.921875 -3.332031 2.726562 -3.117188 2.5 -2.953125 C 2.269531 -2.785156 1.984375 -2.65625 1.640625 -2.5625 C 1.628906 -2.5625 1.617188 -2.5625 1.609375 -2.5625 C 1.597656 -2.5625 1.585938 -2.5625 1.578125 -2.5625 L 1.734375 -0.734375 L 2.046875 -0.734375 C 2.453125 -0.734375 2.828125 -0.816406 3.171875 -0.984375 C 3.515625 -1.160156 3.804688 -1.398438 4.046875 -1.703125 C 4.523438 -2.316406 4.8125 -3.113281 4.90625 -4.09375 L 5.203125 -7.265625 L 6.015625 -7.265625 L 5.71875 -4.09375 C 5.675781 -3.625 5.597656 -3.179688 5.484375 -2.765625 C 5.367188 -2.359375 5.207031 -1.992188 5 -1.671875 C 4.84375 -1.378906 4.644531 -1.113281 4.40625 -0.875 C 4.164062 -0.632812 3.875 -0.441406 3.53125 -0.296875 C 3.3125 -0.191406 3.078125 -0.113281 2.828125 -0.0625 C 2.578125 -0.0195312 2.316406 0 2.046875 0 Z M 0.96875 0 "/></g></g></g><g fill="#231f20" fill-opacity="1"><g transform="translate(529.656546, 766.949379)"><g><path d="M 0.296875 0 L 0.78125 -5.34375 C 0.789062 -5.394531 0.796875 -5.453125 0.796875 -5.515625 C 0.796875 -5.585938 0.796875 -5.648438 0.796875 -5.703125 C 0.796875 -5.828125 0.785156 -5.960938 0.765625 -6.109375 C 0.742188 -6.253906 0.710938 -6.398438 0.671875 -6.546875 C 0.660156 -6.585938 0.648438 -6.625 0.640625 -6.65625 C 0.628906 -6.695312 0.613281 -6.734375 0.59375 -6.765625 C 0.582031 -6.804688 0.570312 -6.847656 0.5625 -6.890625 C 0.539062 -6.953125 0.519531 -7.015625 0.5 -7.078125 C 0.476562 -7.140625 0.457031 -7.203125 0.4375 -7.265625 L 1.28125 -7.265625 C 1.34375 -7.140625 1.394531 -7 1.4375 -6.84375 C 1.488281 -6.695312 1.523438 -6.554688 1.546875 -6.421875 L 1.59375 -6.421875 C 1.644531 -6.546875 1.710938 -6.660156 1.796875 -6.765625 C 1.890625 -6.878906 1.984375 -6.972656 2.078125 -7.046875 C 2.179688 -7.140625 2.320312 -7.21875 2.5 -7.28125 C 2.675781 -7.351562 2.875 -7.390625 3.09375 -7.390625 C 3.320312 -7.390625 3.519531 -7.347656 3.6875 -7.265625 C 3.851562 -7.179688 3.988281 -7.078125 4.09375 -6.953125 C 4.164062 -6.859375 4.226562 -6.75 4.28125 -6.625 C 4.332031 -6.5 4.375 -6.363281 4.40625 -6.21875 C 4.457031 -6.019531 4.492188 -5.796875 4.515625 -5.546875 C 4.535156 -5.296875 4.546875 -5.019531 4.546875 -4.71875 L 4.546875 0 L 2.40625 0 L 2.40625 -0.71875 L 3.6875 -0.71875 L 3.6875 -4.71875 C 3.6875 -5.132812 3.671875 -5.4375 3.640625 -5.625 C 3.617188 -5.820312 3.59375 -5.976562 3.5625 -6.09375 C 3.507812 -6.257812 3.441406 -6.378906 3.359375 -6.453125 C 3.285156 -6.523438 3.210938 -6.570312 3.140625 -6.59375 C 3.066406 -6.625 3.003906 -6.640625 2.953125 -6.640625 C 2.742188 -6.640625 2.566406 -6.597656 2.421875 -6.515625 C 2.273438 -6.441406 2.15625 -6.335938 2.0625 -6.203125 C 1.957031 -6.078125 1.875 -5.953125 1.8125 -5.828125 C 1.75 -5.703125 1.695312 -5.566406 1.65625 -5.421875 L 1.15625 0 Z M 0.296875 0 "/></g></g></g><g fill="#231f20" fill-opacity="1"><g transform="translate(535.331903, 766.949379)"><g><path d="M 3.8125 0 L 3.8125 -5.1875 C 3.8125 -5.519531 3.78125 -5.785156 3.71875 -5.984375 C 3.664062 -6.179688 3.570312 -6.332031 3.4375 -6.4375 C 3.320312 -6.519531 3.1875 -6.578125 3.03125 -6.609375 C 2.875 -6.640625 2.703125 -6.65625 2.515625 -6.65625 C 2.367188 -6.65625 2.160156 -6.640625 1.890625 -6.609375 C 1.628906 -6.585938 1.25 -6.550781 0.75 -6.5 L 0.75 -7.234375 C 0.863281 -7.242188 0.976562 -7.253906 1.09375 -7.265625 C 1.21875 -7.285156 1.347656 -7.304688 1.484375 -7.328125 C 1.710938 -7.347656 1.910156 -7.363281 2.078125 -7.375 C 2.253906 -7.382812 2.40625 -7.390625 2.53125 -7.390625 C 2.78125 -7.390625 2.992188 -7.375 3.171875 -7.34375 C 3.359375 -7.320312 3.53125 -7.28125 3.6875 -7.21875 C 3.769531 -7.1875 3.847656 -7.148438 3.921875 -7.109375 C 3.992188 -7.078125 4.0625 -7.035156 4.125 -6.984375 C 4.332031 -6.816406 4.472656 -6.585938 4.546875 -6.296875 C 4.628906 -6.003906 4.671875 -5.632812 4.671875 -5.1875 L 4.671875 0 Z M 0.75 0 L 0.75 -4.609375 L 1.625 -4.609375 L 1.625 0 Z M 0.75 0 "/></g></g></g><g fill="#231f20" fill-opacity="1"><g transform="translate(541.153787, 766.949379)"><g><path d="M 4.078125 -8.265625 L 1.046875 0.03125 L 0.21875 0.03125 L 3.265625 -8.265625 Z M 4.078125 -8.265625 "/></g></g></g><g fill="#231f20" fill-opacity="1"><g transform="translate(482.198166, 557.757303)"><g><path d="M 22.40625 -12.1875 C 22.40625 -8.144531 21.300781 -5.101562 19.09375 -3.0625 C 16.894531 -1.019531 13.832031 0 9.90625 0 L 3.25 0 L 3.25 -23.90625 L 10.609375 -23.90625 C 13.003906 -23.90625 15.085938 -23.457031 16.859375 -22.5625 C 18.628906 -21.675781 19.992188 -20.359375 20.953125 -18.609375 C 21.921875 -16.867188 22.40625 -14.726562 22.40625 -12.1875 Z M 19.21875 -12.09375 C 19.21875 -15.28125 18.429688 -17.613281 16.859375 -19.09375 C 15.285156 -20.582031 13.054688 -21.328125 10.171875 -21.328125 L 6.265625 -21.328125 L 6.265625 -2.578125 L 9.515625 -2.578125 C 15.984375 -2.578125 19.21875 -5.75 19.21875 -12.09375 Z M 19.21875 -12.09375 "/></g></g></g><g fill="#231f20" fill-opacity="1"><g transform="translate(482.298654, 129.261046)"><g><path d="M 18.25 0 L 15.375 -7.40625 L 5.890625 -7.40625 L 3.046875 0 L 0 0 L 9.34375 -24.015625 L 12.046875 -24.015625 L 21.359375 0 Z M 14.46875 -10.078125 L 11.78125 -17.3125 C 11.71875 -17.488281 11.609375 -17.8125 11.453125 -18.28125 C 11.296875 -18.75 11.144531 -19.234375 11 -19.734375 C 10.851562 -20.242188 10.734375 -20.628906 10.640625 -20.890625 C 10.460938 -20.203125 10.28125 -19.523438 10.09375 -18.859375 C 9.90625 -18.203125 9.742188 -17.6875 9.609375 -17.3125 L 6.890625 -10.078125 Z M 14.46875 -10.078125 "/></g></g></g><g fill="#231f20" fill-opacity="1"><g transform="translate(626.593031, 557.757303)"><g><path d="M 16.609375 0 L 3.25 0 L 3.25 -23.90625 L 16.609375 -23.90625 L 16.609375 -21.265625 L 6.265625 -21.265625 L 6.265625 -13.796875 L 16 -13.796875 L 16 -11.1875 L 6.265625 -11.1875 L 6.265625 -2.640625 L 16.609375 -2.640625 Z M 16.609375 0 "/></g></g></g><g fill="#231f20" fill-opacity="1"><g transform="translate(676.891916, 506.378201)"><g><path d="M 12.113281 -7.601562 C 12.113281 -5.714844 11.8125 -4.417969 11.214844 -3.710938 C 9.882812 -2.152344 8.554688 -1.375 7.226562 -1.375 C 4.839844 -1.375 3.644531 -2.5 3.644531 -4.757812 C 3.644531 -6.425781 4.019531 -8.304688 4.773438 -10.398438 C 5.710938 -13.023438 6.867188 -14.335938 8.238281 -14.335938 C 9.273438 -14.335938 10.210938 -13.453125 11.050781 -11.6875 C 11.757812 -10.183594 12.113281 -8.820312 12.113281 -7.601562 Z M 11.050781 -6.898438 C 11.050781 -7.34375 10.714844 -8.144531 10.039062 -9.300781 C 9.273438 -10.640625 8.558594 -11.3125 7.894531 -11.3125 C 7.230469 -11.3125 6.515625 -10.722656 5.753906 -9.546875 C 5.046875 -8.433594 4.691406 -7.519531 4.691406 -6.800781 C 4.691406 -6.101562 4.921875 -5.527344 5.386719 -5.066406 C 5.851562 -4.609375 6.429688 -4.382812 7.128906 -4.382812 C 7.8125 -4.382812 8.609375 -4.632812 9.515625 -5.132812 C 10.539062 -5.6875 11.050781 -6.277344 11.050781 -6.898438 Z M 11.050781 -6.898438 "/></g></g></g><g fill="#231f20" fill-opacity="1"><g transform="translate(692.34911, 506.378201)"><g><path d="M 10.316406 -9.234375 L 9.007812 -4.511719 L 5.425781 -7.128906 L 6.734375 -11.851562 Z M 10.316406 -9.234375 "/></g></g></g><g fill="#231f20" fill-opacity="1"><g transform="translate(707.806305, 506.378201)"><g><path d="M 18.453125 -9 C 18.453125 -6.03125 17.695312 -3.734375 16.1875 -2.109375 C 14.675781 -0.484375 12.640625 0.328125 10.078125 0.328125 C 8.492188 0.328125 7.082031 -0.03125 5.84375 -0.75 C 4.601562 -1.476562 3.625 -2.539062 2.90625 -3.9375 C 2.195312 -5.332031 1.84375 -7.019531 1.84375 -9 C 1.84375 -11.96875 2.582031 -14.253906 4.0625 -15.859375 C 5.550781 -17.472656 7.585938 -18.28125 10.171875 -18.28125 C 11.785156 -18.28125 13.21875 -17.914062 14.46875 -17.1875 C 15.71875 -16.46875 16.691406 -15.421875 17.390625 -14.046875 C 18.097656 -12.671875 18.453125 -10.988281 18.453125 -9 Z M 4.890625 -9 C 4.890625 -6.882812 5.304688 -5.207031 6.140625 -3.96875 C 6.984375 -2.726562 8.316406 -2.109375 10.140625 -2.109375 C 11.953125 -2.109375 13.28125 -2.726562 14.125 -3.96875 C 14.976562 -5.207031 15.40625 -6.882812 15.40625 -9 C 15.40625 -11.125 14.976562 -12.785156 14.125 -13.984375 C 13.28125 -15.191406 11.941406 -15.796875 10.109375 -15.796875 C 8.273438 -15.796875 6.945312 -15.191406 6.125 -13.984375 C 5.300781 -12.785156 4.890625 -11.125 4.890625 -9 Z M 4.890625 -9 "/></g></g></g><g fill="#231f20" fill-opacity="1"><g transform="translate(952.630206, 129.261046)"><g><path d="M 3.25 -23.90625 L 10.078125 -23.90625 C 13.046875 -23.90625 15.300781 -23.457031 16.84375 -22.5625 C 18.382812 -21.675781 19.15625 -20.148438 19.15625 -17.984375 C 19.15625 -16.578125 18.765625 -15.410156 17.984375 -14.484375 C 17.203125 -13.554688 16.070312 -12.957031 14.59375 -12.6875 L 14.59375 -12.515625 C 15.601562 -12.335938 16.515625 -12.035156 17.328125 -11.609375 C 18.140625 -11.191406 18.78125 -10.59375 19.25 -9.8125 C 19.71875 -9.03125 19.953125 -8.023438 19.953125 -6.796875 C 19.953125 -4.628906 19.207031 -2.953125 17.71875 -1.765625 C 16.238281 -0.585938 14.21875 0 11.65625 0 L 3.25 0 Z M 6.265625 -13.734375 L 10.6875 -13.734375 C 12.71875 -13.734375 14.113281 -14.0625 14.875 -14.71875 C 15.644531 -15.375 16.03125 -16.347656 16.03125 -17.640625 C 16.03125 -18.960938 15.566406 -19.90625 14.640625 -20.46875 C 13.722656 -21.039062 12.25 -21.328125 10.21875 -21.328125 L 6.265625 -21.328125 Z M 6.265625 -11.21875 L 6.265625 -2.546875 L 11.078125 -2.546875 C 13.203125 -2.546875 14.675781 -2.957031 15.5 -3.78125 C 16.332031 -4.601562 16.75 -5.6875 16.75 -7.03125 C 16.75 -8.28125 16.316406 -9.289062 15.453125 -10.0625 C 14.585938 -10.832031 13.050781 -11.21875 10.84375 -11.21875 Z M 6.265625 -11.21875 "/></g></g></g><g fill="#231f20" fill-opacity="1"><g transform="translate(952.630206, 557.757303)"><g><path d="M 13.5 -21.59375 C 10.925781 -21.59375 8.898438 -20.734375 7.421875 -19.015625 C 5.953125 -17.296875 5.21875 -14.941406 5.21875 -11.953125 C 5.21875 -8.984375 5.90625 -6.632812 7.28125 -4.90625 C 8.65625 -3.175781 10.710938 -2.3125 13.453125 -2.3125 C 14.484375 -2.3125 15.46875 -2.398438 16.40625 -2.578125 C 17.34375 -2.753906 18.269531 -2.976562 19.1875 -3.25 L 19.1875 -0.640625 C 18.289062 -0.304688 17.367188 -0.0625 16.421875 0.09375 C 15.472656 0.25 14.34375 0.328125 13.03125 0.328125 C 10.59375 0.328125 8.554688 -0.171875 6.921875 -1.171875 C 5.296875 -2.171875 4.078125 -3.597656 3.265625 -5.453125 C 2.453125 -7.304688 2.046875 -9.484375 2.046875 -11.984375 C 2.046875 -14.398438 2.484375 -16.523438 3.359375 -18.359375 C 4.242188 -20.203125 5.546875 -21.644531 7.265625 -22.6875 C 8.984375 -23.726562 11.070312 -24.25 13.53125 -24.25 C 16.050781 -24.25 18.25 -23.78125 20.125 -22.84375 L 18.921875 -20.296875 C 18.179688 -20.628906 17.359375 -20.925781 16.453125 -21.1875 C 15.546875 -21.457031 14.5625 -21.59375 13.5 -21.59375 Z M 13.5 -21.59375 "/></g></g></g><g fill="#231f20" fill-opacity="1"><g transform="translate(954.375318, 768.263657)"><g><path d="M 5.15625 -4.8125 C 5.15625 -4.039062 5.113281 -3.347656 5.03125 -2.734375 C 4.945312 -2.128906 4.8125 -1.613281 4.625 -1.1875 C 4.4375 -0.757812 4.195312 -0.429688 3.90625 -0.203125 C 3.613281 0.015625 3.265625 0.125 2.859375 0.125 C 2.367188 0.125 1.953125 -0.0234375 1.609375 -0.328125 C 1.273438 -0.628906 1.015625 -1.132812 0.828125 -1.84375 C 0.648438 -2.5625 0.5625 -3.550781 0.5625 -4.8125 C 0.5625 -5.90625 0.644531 -6.816406 0.8125 -7.546875 C 0.976562 -8.273438 1.226562 -8.820312 1.5625 -9.1875 C 1.90625 -9.5625 2.335938 -9.75 2.859375 -9.75 C 3.390625 -9.75 3.820312 -9.5625 4.15625 -9.1875 C 4.488281 -8.820312 4.738281 -8.269531 4.90625 -7.53125 C 5.070312 -6.800781 5.15625 -5.894531 5.15625 -4.8125 Z M 1.625 -4.8125 C 1.625 -3.925781 1.664062 -3.1875 1.75 -2.59375 C 1.832031 -2.007812 1.960938 -1.566406 2.140625 -1.265625 C 2.328125 -0.972656 2.566406 -0.828125 2.859375 -0.828125 C 3.148438 -0.828125 3.390625 -0.972656 3.578125 -1.265625 C 3.765625 -1.566406 3.898438 -2.015625 3.984375 -2.609375 C 4.066406 -3.203125 4.109375 -3.9375 4.109375 -4.8125 C 4.109375 -5.675781 4.0625 -6.40625 3.96875 -7 C 3.882812 -7.59375 3.75 -8.039062 3.5625 -8.34375 C 3.382812 -8.644531 3.148438 -8.796875 2.859375 -8.796875 C 2.566406 -8.796875 2.328125 -8.644531 2.140625 -8.34375 C 1.960938 -8.050781 1.832031 -7.609375 1.75 -7.015625 C 1.664062 -6.429688 1.625 -5.695312 1.625 -4.8125 Z M 1.625 -4.8125 "/></g></g></g><g fill="#231f20" fill-opacity="1"><g transform="translate(960.585598, 768.263657)"><g><path d="M 0.59375 -4.09375 C 0.59375 -4.820312 0.628906 -5.484375 0.703125 -6.078125 C 0.785156 -6.671875 0.90625 -7.195312 1.0625 -7.65625 C 1.21875 -8.113281 1.414062 -8.492188 1.65625 -8.796875 C 1.90625 -9.109375 2.195312 -9.34375 2.53125 -9.5 C 2.863281 -9.664062 3.25 -9.75 3.6875 -9.75 C 3.875 -9.75 4.050781 -9.734375 4.21875 -9.703125 C 4.394531 -9.679688 4.550781 -9.648438 4.6875 -9.609375 L 4.6875 -8.671875 C 4.539062 -8.722656 4.382812 -8.757812 4.21875 -8.78125 C 4.0625 -8.800781 3.894531 -8.8125 3.71875 -8.8125 C 3.28125 -8.8125 2.90625 -8.664062 2.59375 -8.375 C 2.289062 -8.09375 2.054688 -7.664062 1.890625 -7.09375 C 1.722656 -6.519531 1.625 -5.804688 1.59375 -4.953125 L 1.65625 -4.953125 C 1.738281 -5.171875 1.851562 -5.363281 2 -5.53125 C 2.144531 -5.695312 2.316406 -5.828125 2.515625 -5.921875 C 2.722656 -6.015625 2.945312 -6.0625 3.1875 -6.0625 C 3.632812 -6.0625 4.003906 -5.925781 4.296875 -5.65625 C 4.585938 -5.382812 4.804688 -5.019531 4.953125 -4.5625 C 5.097656 -4.113281 5.171875 -3.601562 5.171875 -3.03125 C 5.171875 -2.425781 5.085938 -1.882812 4.921875 -1.40625 C 4.753906 -0.925781 4.503906 -0.546875 4.171875 -0.265625 C 3.847656 0.00390625 3.441406 0.140625 2.953125 0.140625 C 2.566406 0.140625 2.226562 0.046875 1.9375 -0.140625 C 1.644531 -0.328125 1.398438 -0.597656 1.203125 -0.953125 C 1.003906 -1.304688 0.851562 -1.742188 0.75 -2.265625 C 0.644531 -2.796875 0.59375 -3.40625 0.59375 -4.09375 Z M 2.9375 -0.796875 C 3.3125 -0.796875 3.601562 -0.976562 3.8125 -1.34375 C 4.03125 -1.71875 4.140625 -2.273438 4.140625 -3.015625 C 4.140625 -3.703125 4.039062 -4.226562 3.84375 -4.59375 C 3.644531 -4.957031 3.347656 -5.140625 2.953125 -5.140625 C 2.671875 -5.140625 2.429688 -5.054688 2.234375 -4.890625 C 2.046875 -4.734375 1.898438 -4.523438 1.796875 -4.265625 C 1.703125 -4.003906 1.65625 -3.71875 1.65625 -3.40625 C 1.65625 -3.132812 1.675781 -2.847656 1.71875 -2.546875 C 1.769531 -2.242188 1.84375 -1.957031 1.9375 -1.6875 C 2.03125 -1.425781 2.160156 -1.210938 2.328125 -1.046875 C 2.492188 -0.878906 2.695312 -0.796875 2.9375 -0.796875 Z M 2.9375 -0.796875 "/></g></g></g></svg>