<svg xmlns="http://www.w3.org/2000/svg" xmlns:xlink="http://www.w3.org/1999/xlink" width="794" zoomAndPan="magnify" viewBox="0 0 1440 809.999993" height="1123" preserveAspectRatio="xMidYMid meet" version="1.0"><defs><g/><clipPath id="7150dc30d5"><path d="M 518.304688 51.160156 L 520.109375 51.160156 L 520.109375 707.105469 L 518.304688 707.105469 Z M 518.304688 51.160156 " clip-rule="nonzero"/></clipPath><clipPath id="c4644cbe83"><path d="M 513 35 L 524.441406 35 L 524.441406 55 L 513 55 Z M 513 35 " clip-rule="nonzero"/></clipPath><clipPath id="1109d8d8dc"><path d="M 524.261719 54.730469 L 518.992188 35.171875 L 513.757812 54.730469 Z M 524.261719 54.730469 " clip-rule="nonzero"/></clipPath><clipPath id="6f0521cd4e"><path d="M 482.214844 669.390625 L 927.859375 669.390625 L 927.859375 671.195312 L 482.214844 671.195312 Z M 482.214844 669.390625 " clip-rule="nonzero"/></clipPath><clipPath id="d8ed947e01"><path d="M 924 665 L 944 665 L 944 676 L 924 676 Z M 924 665 " clip-rule="nonzero"/></clipPath><clipPath id="ba198b584a"><path d="M 924.289062 665.277344 L 943.847656 670.507812 L 924.289062 675.742188 Z M 924.289062 665.277344 " clip-rule="nonzero"/></clipPath><clipPath id="7d1e2feb0b"><path d="M 610 119 L 888 119 L 888 671 L 610 671 Z M 610 119 " clip-rule="nonzero"/></clipPath><clipPath id="bd7b3c51b1"><path d="M 887.4375 120.273438 L 611.78125 670.691406 L 610.15625 669.894531 L 885.816406 119.441406 Z M 887.4375 120.273438 " clip-rule="nonzero"/></clipPath><clipPath id="640566d800"><path d="M 747 395 L 842 395 L 842 671 L 747 671 Z M 747 395 " clip-rule="nonzero"/></clipPath><clipPath id="29cfdef321"><path d="M 749.464844 395.210938 L 841.566406 670.003906 L 839.871094 670.582031 L 747.769531 395.789062 Z M 749.464844 395.210938 " clip-rule="nonzero"/></clipPath><clipPath id="e64e2e9008"><path d="M 839.410156 119 L 888 119 L 888 670.394531 L 839.410156 670.394531 Z M 839.410156 119 " clip-rule="nonzero"/></clipPath><clipPath id="573fb93f94"><path d="M 839.800781 670.222656 L 885.742188 119.765625 L 887.546875 119.910156 L 841.605469 670.363281 Z M 839.800781 670.222656 " clip-rule="nonzero"/></clipPath></defs><g clip-path="url(#7150dc30d5)"><path fill="#231f20" d="M 464.167969 17.125 L 961.898438 17.125 L 961.898438 724.832031 L 464.167969 724.832031 Z M 464.167969 17.125 " fill-opacity="1" fill-rule="nonzero"/></g><g clip-path="url(#c4644cbe83)"><g clip-path="url(#1109d8d8dc)"><path fill="#231f20" d="M 464.167969 17.125 L 961.898438 17.125 L 961.898438 724.832031 L 464.167969 724.832031 Z M 464.167969 17.125 " fill-opacity="1" fill-rule="nonzero"/></g></g><g clip-path="url(#6f0521cd4e)"><path fill="#231f20" d="M 464.167969 17.125 L 961.898438 17.125 L 961.898438 724.832031 L 464.167969 724.832031 Z M 464.167969 17.125 " fill-opacity="1" fill-rule="nonzero"/></g><g clip-path="url(#d8ed947e01)"><g clip-path="url(#ba198b584a)"><path fill="#231f20" d="M 464.167969 17.125 L 961.898438 17.125 L 961.898438 724.832031 L 464.167969 724.832031 Z M 464.167969 17.125 " fill-opacity="1" fill-rule="nonzero"/></g></g><g clip-path="url(#7d1e2feb0b)"><g clip-path="url(#bd7b3c51b1)"><path fill="#231f20" d="M 464.167969 17.125 L 961.898438 17.125 L 961.898438 724.832031 L 464.167969 724.832031 Z M 464.167969 17.125 " fill-opacity="1" fill-rule="nonzero"/></g></g><g clip-path="url(#640566d800)"><g clip-path="url(#29cfdef321)"><path fill="#231f20" d="M 464.167969 17.125 L 961.898438 17.125 L 961.898438 724.832031 L 464.167969 724.832031 Z M 464.167969 17.125 " fill-opacity="1" fill-rule="nonzero"/></g></g><g clip-path="url(#e64e2e9008)"><g clip-path="url(#573fb93f94)"><path fill="#231f20" d="M 464.167969 17.125 L 961.898438 17.125 L 961.898438 724.832031 L 464.167969 724.832031 Z M 464.167969 17.125 " fill-opacity="1" fill-rule="nonzero"/></g></g><g fill="#231f20" fill-opacity="1"><g transform="translate(480.57411, 329.212228)"><g><path d="M 0.015625 -12.515625 L 2.21875 -12.515625 L 4.921875 -5.390625 C 5.160156 -4.753906 5.375 -4.15625 5.5625 -3.59375 C 5.75 -3.03125 5.882812 -2.492188 5.96875 -1.984375 L 6.0625 -1.984375 C 6.15625 -2.367188 6.300781 -2.875 6.5 -3.5 C 6.707031 -4.132812 6.921875 -4.773438 7.140625 -5.421875 L 9.6875 -12.515625 L 11.90625 -12.515625 L 6.515625 1.734375 C 6.066406 2.910156 5.5 3.847656 4.8125 4.546875 C 4.125 5.253906 3.171875 5.609375 1.953125 5.609375 C 1.585938 5.609375 1.265625 5.585938 0.984375 5.546875 C 0.703125 5.503906 0.457031 5.460938 0.25 5.421875 L 0.25 3.78125 C 0.425781 3.8125 0.632812 3.84375 0.875 3.875 C 1.113281 3.90625 1.367188 3.921875 1.640625 3.921875 C 2.347656 3.921875 2.921875 3.71875 3.359375 3.3125 C 3.796875 2.90625 4.144531 2.367188 4.40625 1.703125 L 5.0625 0.046875 Z M 0.015625 -12.515625 "/></g></g></g><g fill="#231f20" fill-opacity="1"><g transform="translate(597.413712, 701.174743)"><g><path d="M 2.265625 -16.671875 L 7.03125 -16.671875 C 9.09375 -16.671875 10.660156 -16.359375 11.734375 -15.734375 C 12.816406 -15.109375 13.359375 -14.039062 13.359375 -12.53125 C 13.359375 -11.550781 13.082031 -10.738281 12.53125 -10.09375 C 11.988281 -9.445312 11.203125 -9.03125 10.171875 -8.84375 L 10.171875 -8.734375 C 10.878906 -8.609375 11.515625 -8.394531 12.078125 -8.09375 C 12.648438 -7.800781 13.097656 -7.378906 13.421875 -6.828125 C 13.742188 -6.285156 13.90625 -5.585938 13.90625 -4.734375 C 13.90625 -3.222656 13.390625 -2.054688 12.359375 -1.234375 C 11.328125 -0.410156 9.914062 0 8.125 0 L 2.265625 0 Z M 4.359375 -9.578125 L 7.453125 -9.578125 C 8.867188 -9.578125 9.84375 -9.804688 10.375 -10.265625 C 10.914062 -10.722656 11.1875 -11.398438 11.1875 -12.296875 C 11.1875 -13.210938 10.863281 -13.867188 10.21875 -14.265625 C 9.570312 -14.671875 8.539062 -14.875 7.125 -14.875 L 4.359375 -14.875 Z M 4.359375 -7.8125 L 4.359375 -1.78125 L 7.734375 -1.78125 C 9.203125 -1.78125 10.222656 -2.066406 10.796875 -2.640625 C 11.378906 -3.210938 11.671875 -3.96875 11.671875 -4.90625 C 11.671875 -5.769531 11.367188 -6.46875 10.765625 -7 C 10.171875 -7.539062 9.101562 -7.8125 7.5625 -7.8125 Z M 4.359375 -7.8125 "/></g></g></g><g fill="#231f20" fill-opacity="1"><g transform="translate(730.931969, 386.327595)"><g><path d="M 11.578125 0 L 2.265625 0 L 2.265625 -16.671875 L 11.578125 -16.671875 L 11.578125 -14.828125 L 4.359375 -14.828125 L 4.359375 -9.625 L 11.15625 -9.625 L 11.15625 -7.796875 L 4.359375 -7.796875 L 4.359375 -1.84375 L 11.578125 -1.84375 Z M 11.578125 0 "/></g></g></g><g fill="#231f20" fill-opacity="1"><g transform="translate(832.136148, 701.174743)"><g><path d="M 9.40625 -15.0625 C 7.613281 -15.0625 6.203125 -14.460938 5.171875 -13.265625 C 4.148438 -12.066406 3.640625 -10.421875 3.640625 -8.328125 C 3.640625 -6.265625 4.117188 -4.628906 5.078125 -3.421875 C 6.035156 -2.210938 7.472656 -1.609375 9.390625 -1.609375 C 10.097656 -1.609375 10.78125 -1.671875 11.4375 -1.796875 C 12.09375 -1.921875 12.738281 -2.078125 13.375 -2.265625 L 13.375 -0.4375 C 12.75 -0.207031 12.101562 -0.0390625 11.4375 0.0625 C 10.78125 0.175781 9.992188 0.234375 9.078125 0.234375 C 7.378906 0.234375 5.960938 -0.113281 4.828125 -0.8125 C 3.691406 -1.519531 2.835938 -2.519531 2.265625 -3.8125 C 1.703125 -5.101562 1.421875 -6.617188 1.421875 -8.359375 C 1.421875 -10.035156 1.726562 -11.515625 2.34375 -12.796875 C 2.957031 -14.085938 3.863281 -15.09375 5.0625 -15.8125 C 6.257812 -16.539062 7.71875 -16.90625 9.4375 -16.90625 C 11.1875 -16.90625 12.71875 -16.578125 14.03125 -15.921875 L 13.1875 -14.140625 C 12.675781 -14.378906 12.101562 -14.59375 11.46875 -14.78125 C 10.84375 -14.96875 10.15625 -15.0625 9.40625 -15.0625 Z M 9.40625 -15.0625 "/></g></g></g><g fill="#231f20" fill-opacity="1"><g transform="translate(880.43797, 104.732053)"><g><path d="M 12.71875 0 L 10.71875 -5.15625 L 4.109375 -5.15625 L 2.125 0 L 0 0 L 6.515625 -16.734375 L 8.40625 -16.734375 L 14.890625 0 Z M 10.078125 -7.03125 L 8.21875 -12.0625 C 8.164062 -12.1875 8.082031 -12.410156 7.96875 -12.734375 C 7.863281 -13.066406 7.757812 -13.40625 7.65625 -13.75 C 7.5625 -14.101562 7.484375 -14.375 7.421875 -14.5625 C 7.296875 -14.082031 7.164062 -13.613281 7.03125 -13.15625 C 6.90625 -12.695312 6.796875 -12.332031 6.703125 -12.0625 L 4.8125 -7.03125 Z M 10.078125 -7.03125 "/></g></g></g><g fill="#231f20" fill-opacity="1"><g transform="translate(948.95451, 674.310152)"><g><path d="M 4.953125 -6.390625 L 0.625 -12.515625 L 2.96875 -12.515625 L 6.1875 -7.796875 L 9.390625 -12.515625 L 11.6875 -12.515625 L 7.375 -6.390625 L 11.921875 0 L 9.59375 0 L 6.1875 -5 L 2.734375 0 L 0.421875 0 Z M 4.953125 -6.390625 "/></g></g></g></svg>