<svg xmlns="http://www.w3.org/2000/svg" xmlns:xlink="http://www.w3.org/1999/xlink" width="794" zoomAndPan="magnify" viewBox="0 0 1440 809.999993" height="1123" preserveAspectRatio="xMidYMid meet" version="1.0"><defs><g/><clipPath id="d880a74c0f"><path d="M 469.128906 359.578125 L 741.542969 359.578125 L 741.542969 360.515625 L 469.128906 360.515625 Z M 469.128906 359.578125 " clip-rule="nonzero"/></clipPath><clipPath id="8144db1f1e"><path d="M 681.339844 188.148438 L 953.734375 188.148438 L 953.734375 189.082031 L 681.339844 189.082031 Z M 681.339844 188.148438 " clip-rule="nonzero"/></clipPath><clipPath id="f8a25cce82"><path d="M 468.421875 188 L 681.167969 188 L 681.167969 360.921875 L 468.421875 360.921875 Z M 468.421875 188 " clip-rule="nonzero"/></clipPath><clipPath id="f80c1ea4f8"><path d="M 468.832031 359.691406 L 680.535156 188.261719 L 681.113281 188.992188 L 469.410156 360.402344 Z M 468.832031 359.691406 " clip-rule="nonzero"/></clipPath><clipPath id="d4c43ec4b6"><path d="M 741 188 L 953.636719 188 L 953.636719 360.921875 L 741 360.921875 Z M 741 188 " clip-rule="nonzero"/></clipPath><clipPath id="4e3d11c426"><path d="M 741.242188 359.691406 L 952.949219 188.261719 L 953.527344 188.992188 L 741.824219 360.402344 Z M 741.242188 359.691406 " clip-rule="nonzero"/></clipPath><clipPath id="0e801180f3"><path d="M 680.871094 188.617188 L 681.808594 188.617188 L 681.808594 360.046875 L 680.871094 360.046875 Z M 680.871094 188.617188 " clip-rule="nonzero"/></clipPath><clipPath id="d07eef0878"><path d="M 654.777344 333.390625 L 681.433594 333.390625 L 681.433594 334.328125 L 654.777344 334.328125 Z M 654.777344 334.328125 L 655.714844 334.328125 L 655.714844 360.046875 L 654.777344 360.046875 Z M 654.777344 334.328125 " clip-rule="nonzero"/></clipPath><clipPath id="dc3fc60640"><path d="M 536 305 L 557 305 L 557 360.175781 L 536 360.175781 Z M 536 305 " clip-rule="nonzero"/></clipPath><clipPath id="42d4401247"><path d="M 537.011719 305.070312 C 549.375 320 556.8125 339.160156 556.8125 360.066406 L 555.875 360.066406 C 555.875 339.386719 548.53125 320.429688 536.300781 305.667969 Z M 537.011719 305.070312 " clip-rule="nonzero"/></clipPath><clipPath id="4af2c3345e"><path d="M 680.421875 188 L 683 188 L 683 191.472656 L 680.421875 191.472656 Z M 680.421875 188 " clip-rule="nonzero"/></clipPath><clipPath id="5ddaee392c"><path d="M 681.769531 188.464844 L 682.707031 191.105469 L 681.828125 191.425781 L 680.890625 188.785156 Z M 681.769531 188.464844 " clip-rule="nonzero"/></clipPath><clipPath id="12390be573"><path d="M 683 194.457031 L 740 194.457031 L 740 354 L 683 354 Z M 683 194.457031 " clip-rule="nonzero"/></clipPath><clipPath id="dc291793ea"><path d="M 687.148438 203.75 L 689.058594 209.164062 L 688.175781 209.484375 L 686.265625 204.070312 Z M 690.3125 212.78125 L 692.222656 218.191406 L 691.34375 218.511719 L 689.433594 213.097656 Z M 693.476562 221.808594 L 695.386719 227.222656 L 694.507812 227.539062 L 692.597656 222.125 Z M 696.644531 230.835938 L 698.554688 236.25 L 697.675781 236.570312 L 695.761719 231.15625 Z M 699.808594 239.867188 L 701.71875 245.277344 L 700.839844 245.597656 L 698.929688 240.183594 Z M 702.976562 248.894531 L 704.886719 254.308594 L 704.003906 254.625 L 702.09375 249.210938 Z M 706.140625 257.921875 L 708.050781 263.335938 L 707.171875 263.65625 L 705.261719 258.242188 Z M 709.304688 266.949219 L 711.214844 272.363281 L 710.335938 272.683594 L 708.425781 267.269531 Z M 712.472656 275.980469 L 714.382812 281.394531 L 713.503906 281.710938 L 711.589844 276.296875 Z M 715.636719 285.007812 L 717.546875 290.421875 L 716.667969 290.742188 L 714.757812 285.328125 Z M 718.804688 294.035156 L 720.714844 299.449219 L 719.832031 299.769531 L 717.921875 294.355469 Z M 721.96875 303.066406 L 723.878906 308.480469 L 723 308.796875 L 721.089844 303.382812 Z M 725.132812 312.09375 L 727.046875 317.507812 L 726.164062 317.824219 L 724.253906 312.414062 Z M 728.375 321.140625 L 730.285156 326.554688 L 729.40625 326.875 L 727.496094 321.460938 Z M 731.539062 330.171875 L 733.449219 335.582031 L 732.570312 335.902344 L 730.660156 330.488281 Z M 734.707031 339.199219 L 736.617188 344.613281 L 735.738281 344.929688 L 733.824219 339.515625 Z M 737.871094 348.226562 L 739.78125 353.640625 L 738.902344 353.960938 L 736.992188 348.546875 Z M 683.980469 194.722656 L 685.890625 200.136719 L 685.011719 200.453125 L 683.101562 195.039062 Z M 683.980469 194.722656 " clip-rule="nonzero"/></clipPath><clipPath id="4dfc915a65"><path d="M 740.140625 357.191406 L 742 357.191406 L 742 360.921875 L 740.140625 360.921875 Z M 740.140625 357.191406 " clip-rule="nonzero"/></clipPath><clipPath id="dc68c9b5bb"><path d="M 741.054688 357.238281 L 741.992188 359.878906 L 741.113281 360.195312 L 740.175781 357.554688 Z M 741.054688 357.238281 " clip-rule="nonzero"/></clipPath></defs><g clip-path="url(#d880a74c0f)"><path fill="#231f20" d="M 459.464844 178.78125 L 963.339844 178.78125 L 963.339844 369.882812 L 459.464844 369.882812 Z M 459.464844 178.78125 " fill-opacity="1" fill-rule="nonzero"/><path fill="#231f20" d="M 459.464844 178.78125 L 963.339844 178.78125 L 963.339844 369.882812 L 459.464844 369.882812 Z M 459.464844 178.78125 " fill-opacity="1" fill-rule="nonzero"/></g><g clip-path="url(#8144db1f1e)"><path fill="#231f20" d="M 459.464844 178.78125 L 963.339844 178.78125 L 963.339844 369.882812 L 459.464844 369.882812 Z M 459.464844 178.78125 " fill-opacity="1" fill-rule="nonzero"/></g><g clip-path="url(#f8a25cce82)"><g clip-path="url(#f80c1ea4f8)"><path fill="#231f20" d="M 459.464844 178.78125 L 963.339844 178.78125 L 963.339844 369.882812 L 459.464844 369.882812 Z M 459.464844 178.78125 " fill-opacity="1" fill-rule="nonzero"/></g></g><g clip-path="url(#d4c43ec4b6)"><g clip-path="url(#4e3d11c426)"><path fill="#231f20" d="M 459.464844 178.78125 L 963.339844 178.78125 L 963.339844 369.882812 L 459.464844 369.882812 Z M 459.464844 178.78125 " fill-opacity="1" fill-rule="nonzero"/></g></g><g clip-path="url(#0e801180f3)"><path fill="#231f20" d="M 459.464844 178.78125 L 963.339844 178.78125 L 963.339844 369.882812 L 459.464844 369.882812 Z M 459.464844 178.78125 " fill-opacity="1" fill-rule="nonzero"/></g><g clip-path="url(#d07eef0878)"><path fill="#231f20" d="M 459.464844 178.78125 L 963.339844 178.78125 L 963.339844 369.882812 L 459.464844 369.882812 Z M 459.464844 178.78125 " fill-opacity="1" fill-rule="nonzero"/></g><g clip-path="url(#dc3fc60640)"><g clip-path="url(#42d4401247)"><path fill="#231f20" d="M 459.464844 178.78125 L 963.339844 178.78125 L 963.339844 369.882812 L 459.464844 369.882812 Z M 459.464844 178.78125 " fill-opacity="1" fill-rule="nonzero"/></g></g><g clip-path="url(#4af2c3345e)"><g clip-path="url(#5ddaee392c)"><path fill="#231f20" d="M 459.464844 178.78125 L 963.339844 178.78125 L 963.339844 369.882812 L 459.464844 369.882812 Z M 459.464844 178.78125 " fill-opacity="1" fill-rule="nonzero"/></g></g><g clip-path="url(#12390be573)"><g clip-path="url(#dc291793ea)"><path fill="#231f20" d="M 459.464844 178.78125 L 963.339844 178.78125 L 963.339844 369.882812 L 459.464844 369.882812 Z M 459.464844 178.78125 " fill-opacity="1" fill-rule="nonzero"/></g></g><g clip-path="url(#4dfc915a65)"><g clip-path="url(#dc68c9b5bb)"><path fill="#231f20" d="M 459.464844 178.78125 L 963.339844 178.78125 L 963.339844 369.882812 L 459.464844 369.882812 Z M 459.464844 178.78125 " fill-opacity="1" fill-rule="nonzero"/></g></g><g fill="#231f20" fill-opacity="1"><g transform="translate(454.243807, 377.812768)"><g><path d="M 9.5 -7.53125 C 9.5 -5.875 9.304688 -4.488281 8.921875 -3.375 C 8.546875 -2.257812 7.976562 -1.414062 7.21875 -0.84375 C 6.46875 -0.28125 5.53125 0 4.40625 0 L 1.515625 0 L 1.515625 -14.703125 L 4.53125 -14.703125 C 5.613281 -14.703125 6.523438 -14.429688 7.265625 -13.890625 C 8.003906 -13.347656 8.5625 -12.539062 8.9375 -11.46875 C 9.3125 -10.40625 9.5 -9.09375 9.5 -7.53125 Z M 7.828125 -7.453125 C 7.828125 -8.734375 7.703125 -9.804688 7.453125 -10.671875 C 7.210938 -11.535156 6.84375 -12.179688 6.34375 -12.609375 C 5.84375 -13.046875 5.21875 -13.265625 4.46875 -13.265625 L 3.125 -13.265625 L 3.125 -1.4375 L 4.34375 -1.4375 C 5.550781 -1.4375 6.429688 -1.941406 6.984375 -2.953125 C 7.546875 -3.960938 7.828125 -5.460938 7.828125 -7.453125 Z M 7.828125 -7.453125 "/></g></g></g><g fill="#231f20" fill-opacity="1"><g transform="translate(513.145756, 347.859644)"><g><path d="M 7.515625 -11.328125 C 7.515625 -10.742188 7.421875 -10.210938 7.234375 -9.734375 C 7.046875 -9.253906 6.769531 -8.84375 6.40625 -8.5 C 6.050781 -8.164062 5.613281 -7.90625 5.09375 -7.71875 L 5.09375 -7.640625 C 5.957031 -7.453125 6.617188 -7.046875 7.078125 -6.421875 C 7.535156 -5.796875 7.765625 -4.988281 7.765625 -4 C 7.765625 -3.164062 7.609375 -2.429688 7.296875 -1.796875 C 6.984375 -1.171875 6.53125 -0.679688 5.9375 -0.328125 C 5.34375 0.0234375 4.617188 0.203125 3.765625 0.203125 C 3.179688 0.203125 2.648438 0.15625 2.171875 0.0625 C 1.691406 -0.03125 1.234375 -0.179688 0.796875 -0.390625 L 0.796875 -1.984375 C 1.222656 -1.722656 1.675781 -1.523438 2.15625 -1.390625 C 2.644531 -1.253906 3.132812 -1.1875 3.625 -1.1875 C 4.46875 -1.1875 5.09375 -1.453125 5.5 -1.984375 C 5.90625 -2.523438 6.109375 -3.222656 6.109375 -4.078125 C 6.109375 -4.691406 5.992188 -5.207031 5.765625 -5.625 C 5.535156 -6.050781 5.195312 -6.367188 4.75 -6.578125 C 4.300781 -6.785156 3.742188 -6.890625 3.078125 -6.890625 L 2.328125 -6.890625 L 2.328125 -8.28125 L 3.140625 -8.28125 C 3.710938 -8.28125 4.207031 -8.398438 4.625 -8.640625 C 5.050781 -8.890625 5.375 -9.226562 5.59375 -9.65625 C 5.820312 -10.09375 5.9375 -10.597656 5.9375 -11.171875 C 5.9375 -11.910156 5.757812 -12.484375 5.40625 -12.890625 C 5.050781 -13.304688 4.550781 -13.515625 3.90625 -13.515625 C 3.582031 -13.515625 3.285156 -13.472656 3.015625 -13.390625 C 2.742188 -13.304688 2.484375 -13.1875 2.234375 -13.03125 C 1.992188 -12.882812 1.75 -12.695312 1.5 -12.46875 L 0.71875 -13.578125 C 1.238281 -14.046875 1.765625 -14.382812 2.296875 -14.59375 C 2.835938 -14.800781 3.441406 -14.90625 4.109375 -14.90625 C 5.160156 -14.90625 5.988281 -14.582031 6.59375 -13.9375 C 7.207031 -13.300781 7.515625 -12.429688 7.515625 -11.328125 Z M 7.515625 -11.328125 "/></g></g></g><g fill="#231f20" fill-opacity="1"><g transform="translate(521.906442, 347.859644)"><g><path d="M 1.9375 0 L 6.375 -13.25 L 0.65625 -13.25 L 0.65625 -14.703125 L 7.984375 -14.703125 L 7.984375 -13.515625 L 3.59375 0 Z M 1.9375 0 "/></g></g></g><g fill="#231f20" fill-opacity="1"><g transform="translate(530.667127, 347.859644)"><g><path d="M 8.1875 -5.53125 C 8.1875 -4.65625 8.113281 -3.863281 7.96875 -3.15625 C 7.820312 -2.457031 7.597656 -1.859375 7.296875 -1.359375 C 6.992188 -0.859375 6.609375 -0.472656 6.140625 -0.203125 C 5.679688 0.0664062 5.140625 0.203125 4.515625 0.203125 C 3.910156 0.203125 3.378906 0.0664062 2.921875 -0.203125 C 2.472656 -0.472656 2.097656 -0.859375 1.796875 -1.359375 C 1.492188 -1.859375 1.265625 -2.457031 1.109375 -3.15625 C 0.953125 -3.863281 0.875 -4.65625 0.875 -5.53125 C 0.875 -6.75 1.003906 -7.78125 1.265625 -8.625 C 1.523438 -9.476562 1.925781 -10.125 2.46875 -10.5625 C 3.007812 -11.007812 3.703125 -11.234375 4.546875 -11.234375 C 5.328125 -11.234375 5.988281 -11.015625 6.53125 -10.578125 C 7.070312 -10.148438 7.484375 -9.515625 7.765625 -8.671875 C 8.046875 -7.828125 8.1875 -6.78125 8.1875 -5.53125 Z M 2.453125 -5.53125 C 2.453125 -4.570312 2.523438 -3.765625 2.671875 -3.109375 C 2.816406 -2.460938 3.046875 -1.972656 3.359375 -1.640625 C 3.671875 -1.316406 4.070312 -1.15625 4.5625 -1.15625 C 5.03125 -1.15625 5.414062 -1.316406 5.71875 -1.640625 C 6.03125 -1.960938 6.257812 -2.445312 6.40625 -3.09375 C 6.550781 -3.738281 6.625 -4.550781 6.625 -5.53125 C 6.625 -6.488281 6.550781 -7.289062 6.40625 -7.9375 C 6.257812 -8.582031 6.03125 -9.066406 5.71875 -9.390625 C 5.414062 -9.722656 5.023438 -9.890625 4.546875 -9.890625 C 3.804688 -9.890625 3.269531 -9.523438 2.9375 -8.796875 C 2.613281 -8.066406 2.453125 -6.976562 2.453125 -5.53125 Z M 2.453125 -5.53125 "/></g></g></g><g fill="#231f20" fill-opacity="1"><g transform="translate(680.47334, 177.347738)"><g><path d="M 7.40625 0 L 6.3125 -4.71875 L 2.8125 -4.71875 L 1.703125 0 L 0 0 L 3.546875 -14.703125 L 5.484375 -14.703125 L 9.109375 0 Z M 6 -6.203125 L 4.875 -11.1875 C 4.832031 -11.4375 4.785156 -11.679688 4.734375 -11.921875 C 4.691406 -12.160156 4.648438 -12.390625 4.609375 -12.609375 C 4.578125 -12.835938 4.546875 -13.054688 4.515625 -13.265625 C 4.492188 -13.054688 4.46875 -12.835938 4.4375 -12.609375 C 4.40625 -12.378906 4.363281 -12.148438 4.3125 -11.921875 C 4.269531 -11.691406 4.21875 -11.457031 4.15625 -11.21875 L 3.0625 -6.203125 Z M 6 -6.203125 "/></g></g></g><g fill="#231f20" fill-opacity="1"><g transform="translate(672.886316, 389.671204)"><g><path d="M 9.375 0 L 7.765625 0 L 7.765625 -6.953125 L 3.125 -6.953125 L 3.125 0 L 1.515625 0 L 1.515625 -14.703125 L 3.125 -14.703125 L 3.125 -8.421875 L 7.765625 -8.421875 L 7.765625 -14.703125 L 9.375 -14.703125 Z M 9.375 0 "/></g></g></g><g fill="#231f20" fill-opacity="1"><g transform="translate(740.211761, 385.93011)"><g><path d="M 6 -13.46875 C 5.414062 -13.46875 4.910156 -13.300781 4.484375 -12.96875 C 4.066406 -12.644531 3.722656 -12.195312 3.453125 -11.625 C 3.191406 -11.050781 3 -10.394531 2.875 -9.65625 C 2.75 -8.925781 2.6875 -8.15625 2.6875 -7.34375 C 2.6875 -6.082031 2.828125 -4.992188 3.109375 -4.078125 C 3.390625 -3.171875 3.785156 -2.472656 4.296875 -1.984375 C 4.804688 -1.492188 5.40625 -1.25 6.09375 -1.25 C 6.507812 -1.25 6.898438 -1.300781 7.265625 -1.40625 C 7.640625 -1.507812 7.976562 -1.640625 8.28125 -1.796875 L 8.28125 -0.359375 C 7.957031 -0.171875 7.597656 -0.03125 7.203125 0.0625 C 6.804688 0.15625 6.375 0.203125 5.90625 0.203125 C 4.914062 0.203125 4.050781 -0.0976562 3.3125 -0.703125 C 2.582031 -1.304688 2.019531 -2.171875 1.625 -3.296875 C 1.226562 -4.429688 1.03125 -5.789062 1.03125 -7.375 C 1.03125 -8.40625 1.128906 -9.378906 1.328125 -10.296875 C 1.523438 -11.210938 1.828125 -12.015625 2.234375 -12.703125 C 2.640625 -13.398438 3.148438 -13.945312 3.765625 -14.34375 C 4.390625 -14.738281 5.113281 -14.9375 5.9375 -14.9375 C 6.425781 -14.9375 6.890625 -14.875 7.328125 -14.75 C 7.773438 -14.625 8.207031 -14.441406 8.625 -14.203125 L 8.046875 -12.84375 C 7.734375 -13.039062 7.40625 -13.191406 7.0625 -13.296875 C 6.726562 -13.410156 6.375 -13.46875 6 -13.46875 Z M 6 -13.46875 "/></g></g></g><g fill="#231f20" fill-opacity="1"><g transform="translate(948.95451, 177.450746)"><g><path d="M 1.515625 -14.703125 L 4.71875 -14.703125 C 6 -14.703125 6.96875 -14.410156 7.625 -13.828125 C 8.289062 -13.242188 8.625 -12.363281 8.625 -11.1875 C 8.625 -10.550781 8.539062 -9.992188 8.375 -9.515625 C 8.21875 -9.046875 7.984375 -8.664062 7.671875 -8.375 C 7.359375 -8.082031 6.96875 -7.882812 6.5 -7.78125 L 6.5 -7.703125 C 7.050781 -7.578125 7.503906 -7.363281 7.859375 -7.0625 C 8.210938 -6.757812 8.476562 -6.367188 8.65625 -5.890625 C 8.832031 -5.421875 8.921875 -4.859375 8.921875 -4.203125 C 8.921875 -3.359375 8.773438 -2.617188 8.484375 -1.984375 C 8.191406 -1.359375 7.769531 -0.867188 7.21875 -0.515625 C 6.664062 -0.171875 5.992188 0 5.203125 0 L 1.515625 0 Z M 3.125 -8.359375 L 4.703125 -8.359375 C 5.503906 -8.359375 6.082031 -8.582031 6.4375 -9.03125 C 6.800781 -9.476562 6.984375 -10.148438 6.984375 -11.046875 C 6.984375 -11.785156 6.789062 -12.347656 6.40625 -12.734375 C 6.03125 -13.128906 5.453125 -13.328125 4.671875 -13.328125 L 3.125 -13.328125 Z M 3.125 -7 L 3.125 -1.390625 L 5.015625 -1.390625 C 5.753906 -1.390625 6.3125 -1.628906 6.6875 -2.109375 C 7.070312 -2.585938 7.265625 -3.3125 7.265625 -4.28125 C 7.265625 -4.882812 7.164062 -5.382812 6.96875 -5.78125 C 6.769531 -6.1875 6.488281 -6.488281 6.125 -6.6875 C 5.769531 -6.894531 5.335938 -7 4.828125 -7 Z M 3.125 -7 "/></g></g></g><g fill="#231f20" fill-opacity="1"><g transform="translate(676.044564, 292.390553)"><g><path d="M 0 -5.9375 L 0 -4.34375 L -10.09375 -4.34375 C -10.382812 -4.34375 -10.679688 -4.34375 -10.984375 -4.34375 C -11.285156 -4.351562 -11.585938 -4.363281 -11.890625 -4.375 C -12.203125 -4.394531 -12.515625 -4.410156 -12.828125 -4.421875 C -12.691406 -4.335938 -12.539062 -4.21875 -12.375 -4.0625 C -12.21875 -3.914062 -12.035156 -3.734375 -11.828125 -3.515625 L -10.5625 -2.21875 L -11.546875 -1.3125 L -14.703125 -4.5625 L -14.703125 -5.9375 Z M 0 -5.9375 "/></g></g></g><g fill="#231f20" fill-opacity="1"><g transform="translate(676.044564, 283.629868)"><g><path d="M 0 -7.78125 L 0 -0.703125 L -1.171875 -0.703125 L -5.453125 -3.609375 C -6.296875 -4.179688 -7.019531 -4.628906 -7.625 -4.953125 C -8.238281 -5.285156 -8.816406 -5.523438 -9.359375 -5.671875 C -9.910156 -5.816406 -10.507812 -5.890625 -11.15625 -5.890625 C -11.875 -5.890625 -12.4375 -5.71875 -12.84375 -5.375 C -13.257812 -5.03125 -13.46875 -4.535156 -13.46875 -3.890625 C -13.46875 -3.460938 -13.390625 -3.070312 -13.234375 -2.71875 C -13.085938 -2.363281 -12.835938 -2.003906 -12.484375 -1.640625 L -13.578125 -0.828125 C -13.898438 -1.160156 -14.15625 -1.488281 -14.34375 -1.8125 C -14.539062 -2.144531 -14.679688 -2.488281 -14.765625 -2.84375 C -14.859375 -3.207031 -14.90625 -3.597656 -14.90625 -4.015625 C -14.90625 -4.742188 -14.75 -5.367188 -14.4375 -5.890625 C -14.132812 -6.410156 -13.703125 -6.804688 -13.140625 -7.078125 C -12.585938 -7.347656 -11.945312 -7.484375 -11.21875 -7.484375 C -10.425781 -7.484375 -9.703125 -7.394531 -9.046875 -7.21875 C -8.390625 -7.039062 -7.738281 -6.769531 -7.09375 -6.40625 C -6.445312 -6.039062 -5.742188 -5.578125 -4.984375 -5.015625 L -1.515625 -2.578125 L -1.4375 -2.578125 L -1.4375 -7.78125 Z M 0 -7.78125 "/></g></g></g></svg>