<svg xmlns="http://www.w3.org/2000/svg" xmlns:xlink="http://www.w3.org/1999/xlink" width="794" zoomAndPan="magnify" viewBox="0 0 1440 809.999993" height="1123" preserveAspectRatio="xMidYMid meet" version="1.0"><defs><g/><clipPath id="d1fb65fc44"><path d="M 471.058594 331.402344 L 580.730469 331.402344 L 580.730469 441 L 471.058594 441 Z M 471.058594 331.402344 " clip-rule="nonzero"/></clipPath><clipPath id="9152e39ca6"><path d="M 580.578125 431.726562 L 480.3125 440.902344 L 471.175781 340.636719 L 571.441406 331.5 Z M 580.578125 431.726562 " clip-rule="nonzero"/></clipPath><clipPath id="0288079b32"><path d="M 470.3125 330 L 580.730469 330 L 580.730469 441.824219 L 470.3125 441.824219 Z M 470.3125 330 " clip-rule="nonzero"/></clipPath><clipPath id="33fee94bac"><path d="M 580.464844 431.652344 C 578.613281 415.003906 576.953125 398.355469 575.292969 381.671875 C 573.628906 364.984375 571.933594 348.300781 570.421875 331.578125 L 571.480469 332.445312 C 538.070312 335.578125 504.621094 338.371094 471.175781 341.128906 L 471.628906 340.5625 C 473.101562 357.285156 474.347656 374.007812 476.046875 390.695312 L 481.027344 440.828125 L 480.273438 440.183594 C 488.617188 439.390625 496.960938 438.484375 505.339844 437.804688 L 530.40625 435.691406 C 547.09375 434.257812 563.777344 432.824219 580.5 431.652344 M 580.613281 431.839844 C 563.929688 433.730469 547.242188 435.351562 530.558594 436.976562 L 505.492188 439.429688 C 497.148438 440.261719 488.769531 440.863281 480.425781 441.617188 C 480.046875 441.65625 479.671875 441.355469 479.632812 440.976562 L 475.402344 390.808594 C 474.046875 374.082031 472.234375 357.398438 470.648438 340.710938 C 470.609375 340.410156 470.835938 340.183594 471.101562 340.144531 C 504.472656 336.824219 537.882812 333.5 571.289062 330.519531 C 571.820312 330.480469 572.308594 330.859375 572.347656 331.386719 C 573.894531 348.109375 575.253906 364.835938 576.652344 381.558594 C 578.046875 398.28125 579.445312 415.003906 580.652344 431.726562 C 580.652344 431.765625 580.613281 431.804688 580.578125 431.839844 " clip-rule="nonzero"/></clipPath><clipPath id="1a5f2aba70"><path d="M 470.3125 288.128906 L 633 288.128906 L 633 341.847656 L 470.3125 341.847656 Z M 470.3125 288.128906 " clip-rule="nonzero"/></clipPath><clipPath id="c0a2153a34"><path d="M 571.367188 331.386719 C 581.292969 324.140625 591.296875 316.96875 601.339844 309.871094 L 631.425781 288.503906 L 632.066406 290.238281 C 598.660156 293.449219 565.210938 296.28125 531.765625 298.960938 L 532.03125 298.886719 L 501.601562 319.796875 L 471.476562 341.164062 L 471.0625 340.03125 C 479.40625 339.125 487.75 338.332031 496.089844 337.542969 C 504.433594 336.710938 512.816406 336.105469 521.15625 335.390625 L 546.222656 333.273438 C 554.566406 332.519531 562.949219 332.03125 571.289062 331.386719 M 571.328125 331.578125 C 562.984375 332.484375 554.640625 333.5 546.300781 334.257812 L 521.269531 336.75 C 512.929688 337.542969 504.585938 338.484375 496.203125 339.164062 C 487.863281 339.917969 479.480469 340.597656 471.136719 341.242188 C 470.796875 341.277344 470.496094 341.015625 470.457031 340.675781 C 470.421875 340.449219 470.535156 340.222656 470.722656 340.109375 L 501.1875 319.308594 L 531.351562 298.054688 C 531.425781 298.015625 531.5 297.980469 531.613281 297.980469 C 565.097656 294.542969 598.46875 291.257812 631.917969 288.351562 C 632.445312 288.316406 632.898438 288.691406 632.972656 289.183594 C 633.011719 289.523438 632.824219 289.863281 632.558594 290.050781 L 602.058594 310.851562 C 591.902344 317.796875 581.710938 324.707031 571.480469 331.5 C 571.480469 331.5 571.441406 331.5 571.441406 331.5 " clip-rule="nonzero"/></clipPath><clipPath id="a98a8c6ab5"><path d="M 571.03125 289 L 641.164062 289 L 641.164062 432 L 571.03125 432 Z M 571.03125 289 " clip-rule="nonzero"/></clipPath><clipPath id="82b7291fa8"><path d="M 580.539062 431.578125 L 641.054688 388.542969 L 631.992188 289.332031 L 571.480469 332.371094 Z M 580.539062 431.578125 " clip-rule="nonzero"/></clipPath><clipPath id="ac9df340b0"><path d="M 570.285156 288.128906 L 642 288.128906 L 642 432 L 570.285156 432 Z M 570.285156 288.128906 " clip-rule="nonzero"/></clipPath><clipPath id="d58f0e267d"><path d="M 580.464844 431.578125 C 578.574219 415.082031 576.953125 398.546875 575.292969 382.011719 C 573.554688 365.476562 572.046875 348.941406 570.535156 332.40625 C 570.496094 332.03125 570.6875 331.691406 570.949219 331.5 C 591.148438 317.15625 611.417969 302.960938 631.726562 288.84375 C 631.953125 288.65625 632.292969 288.730469 632.445312 288.957031 C 632.484375 289.03125 632.519531 289.144531 632.558594 289.21875 L 634.671875 314.023438 C 635.316406 322.289062 636.183594 330.558594 637.011719 338.824219 L 641.957031 388.390625 C 641.996094 388.691406 641.84375 388.957031 641.617188 389.144531 C 636.597656 392.769531 631.503906 396.28125 626.445312 399.828125 L 611.230469 410.476562 C 601.113281 417.609375 590.957031 424.667969 580.691406 431.578125 C 580.652344 431.613281 580.578125 431.613281 580.539062 431.539062 C 580.5 431.464844 580.539062 431.5 580.539062 431.5 M 580.726562 431.3125 C 590.582031 423.914062 600.546875 416.664062 610.550781 409.492188 L 625.613281 398.621094 C 630.632812 394.996094 635.617188 391.335938 640.675781 387.785156 L 640.335938 388.542969 L 636.109375 338.9375 C 635.429688 330.671875 634.75 322.367188 633.917969 314.136719 L 631.503906 289.332031 L 632.332031 289.710938 C 612.324219 304.28125 592.242188 318.777344 572.082031 333.164062 L 572.5 332.257812 C 573.96875 348.789062 575.480469 365.324219 576.800781 381.898438 C 578.121094 398.394531 579.519531 414.890625 580.652344 431.386719 " clip-rule="nonzero"/></clipPath><clipPath id="97c834d852"><path d="M 710.085938 311 L 841 311 L 841 441.355469 L 710.085938 441.355469 Z M 710.085938 311 " clip-rule="nonzero"/></clipPath><clipPath id="8c4dd7911a"><path d="M 804.640625 441.3125 L 710.753906 404.996094 L 747.070312 311.113281 L 840.953125 347.425781 Z M 804.640625 441.3125 " clip-rule="nonzero"/></clipPath><clipPath id="bf757ed8ad"><path d="M 710 310.277344 L 842 310.277344 L 842 442 L 710 442 Z M 710 310.277344 " clip-rule="nonzero"/></clipPath><clipPath id="c793ad3cd5"><path d="M 804.601562 441.199219 C 810.339844 425.457031 816.265625 409.789062 822.191406 394.125 C 828.121094 378.457031 834.007812 362.714844 840.085938 347.085938 L 840.652344 348.332031 C 809.320312 336.328125 778.136719 323.945312 746.917969 311.601562 L 747.597656 311.300781 C 741.519531 326.929688 735.179688 342.480469 729.289062 358.1875 L 711.433594 405.261719 L 711.019531 404.355469 C 718.871094 407.375 726.722656 410.242188 734.535156 413.339844 L 757.941406 422.589844 C 773.53125 428.703125 789.125 434.855469 804.601562 441.238281 M 804.640625 441.464844 C 788.859375 435.726562 773.191406 429.796875 757.488281 423.832031 L 733.933594 414.847656 C 726.082031 411.90625 718.304688 408.734375 710.488281 405.675781 C 710.113281 405.523438 709.921875 405.148438 710.074219 404.769531 L 728.574219 357.960938 C 734.800781 342.367188 740.578125 326.628906 746.578125 310.960938 C 746.691406 310.695312 746.996094 310.546875 747.257812 310.660156 C 778.667969 322.476562 810.039062 334.367188 841.292969 346.558594 C 841.785156 346.746094 842.050781 347.3125 841.859375 347.804688 C 835.820312 363.472656 829.628906 379.0625 823.4375 394.652344 C 817.246094 410.242188 811.09375 425.835938 804.714844 441.386719 C 804.714844 441.425781 804.640625 441.464844 804.601562 441.425781 " clip-rule="nonzero"/></clipPath><clipPath id="a4e6258553"><path d="M 746 299.0625 L 915 299.0625 L 915 348 L 746 348 Z M 746 299.0625 " clip-rule="nonzero"/></clipPath><clipPath id="2036cf050d"><path d="M 840.953125 347.3125 C 853.070312 345.238281 865.226562 343.273438 877.382812 341.351562 L 913.851562 335.574219 L 913.660156 337.386719 C 882.328125 325.417969 851.109375 313.113281 819.925781 300.65625 L 820.191406 300.691406 L 783.648438 305.902344 L 747.183594 311.679688 L 747.335938 310.46875 C 755.1875 313.375 763.039062 316.359375 770.890625 319.378906 C 778.742188 322.363281 786.519531 325.53125 794.332031 328.589844 L 817.738281 337.839844 C 825.550781 340.859375 833.253906 344.144531 841.03125 347.277344 M 840.992188 347.464844 C 833.101562 344.558594 825.210938 341.765625 817.359375 338.78125 L 793.765625 329.910156 C 785.914062 326.929688 778.0625 324.023438 770.25 320.964844 C 762.433594 317.90625 754.621094 314.847656 746.84375 311.714844 C 746.503906 311.601562 746.351562 311.226562 746.464844 310.921875 C 746.542969 310.695312 746.769531 310.546875 746.957031 310.507812 L 783.535156 305.375 L 820.003906 299.710938 C 820.078125 299.710938 820.191406 299.710938 820.265625 299.75 C 851.675781 311.527344 883.046875 323.417969 914.304688 335.648438 C 914.792969 335.839844 915.019531 336.367188 914.871094 336.859375 C 914.757812 337.199219 914.453125 337.421875 914.113281 337.460938 L 877.570312 342.558594 C 865.378906 344.292969 853.183594 345.917969 840.992188 347.464844 C 840.953125 347.464844 840.953125 347.464844 840.953125 347.464844 " clip-rule="nonzero"/></clipPath><clipPath id="94e304c234"><path d="M 804.015625 336.210938 L 914 336.210938 L 914 441.355469 L 804.015625 441.355469 Z M 804.015625 336.210938 " clip-rule="nonzero"/></clipPath><clipPath id="f63064d159"><path d="M 804.714844 441.160156 L 878.0625 429.457031 L 914 336.519531 L 840.652344 348.21875 Z M 804.714844 441.160156 " clip-rule="nonzero"/></clipPath><clipPath id="0f6161a7c4"><path d="M 804.015625 336 L 914.765625 336 L 914.765625 441.355469 L 804.015625 441.355469 Z M 804.015625 336 " clip-rule="nonzero"/></clipPath><clipPath id="de48a50f45"><path d="M 804.601562 441.125 C 810.226562 425.496094 816.113281 409.980469 821.964844 394.425781 C 827.742188 378.875 833.746094 363.359375 839.707031 347.878906 C 839.859375 347.539062 840.160156 347.3125 840.464844 347.238281 C 864.925781 343.351562 889.386719 339.652344 913.886719 336.027344 C 914.152344 335.988281 914.417969 336.179688 914.492188 336.441406 C 914.492188 336.519531 914.492188 336.632812 914.453125 336.707031 L 905.320312 359.886719 C 902.222656 367.585938 899.316406 375.363281 896.371094 383.140625 L 878.816406 429.761719 C 878.703125 430.023438 878.441406 430.214844 878.175781 430.289062 C 872.058594 431.308594 865.945312 432.175781 859.828125 433.121094 L 841.484375 435.914062 C 829.25 437.800781 817.019531 439.613281 804.753906 441.273438 C 804.714844 441.273438 804.640625 441.238281 804.640625 441.199219 C 804.640625 441.199219 804.640625 441.160156 804.640625 441.160156 M 804.867188 441.085938 C 816.984375 438.859375 829.136719 436.746094 841.292969 434.78125 L 859.601562 431.722656 C 865.71875 430.742188 871.796875 429.648438 877.910156 428.703125 L 877.269531 429.230469 L 895.617188 382.914062 C 898.675781 375.210938 901.769531 367.472656 904.675781 359.695312 L 913.511719 336.40625 L 914.078125 337.085938 C 889.691406 341.238281 865.265625 345.3125 840.839844 349.238281 L 841.597656 348.636719 C 835.59375 364.113281 829.589844 379.589844 823.402344 394.992188 C 817.285156 410.355469 811.207031 425.757812 804.867188 441.046875 " clip-rule="nonzero"/></clipPath></defs><g clip-path="url(#d1fb65fc44)"><g clip-path="url(#9152e39ca6)"><path fill="#e6e7e8" d="M 451.660156 269.476562 L 660.5625 269.476562 L 660.5625 460.476562 L 451.660156 460.476562 Z M 451.660156 269.476562 " fill-opacity="1" fill-rule="nonzero"/></g></g><g clip-path="url(#0288079b32)"><g clip-path="url(#33fee94bac)"><path fill="#231f20" d="M 451.660156 269.476562 L 660.5625 269.476562 L 660.5625 460.476562 L 451.660156 460.476562 Z M 451.660156 269.476562 " fill-opacity="1" fill-rule="nonzero"/></g></g><g clip-path="url(#1a5f2aba70)"><g clip-path="url(#c0a2153a34)"><path fill="#231f20" d="M 451.660156 269.476562 L 660.5625 269.476562 L 660.5625 460.476562 L 451.660156 460.476562 Z M 451.660156 269.476562 " fill-opacity="1" fill-rule="nonzero"/></g></g><g clip-path="url(#a98a8c6ab5)"><g clip-path="url(#82b7291fa8)"><path fill="#d1d3d4" d="M 451.660156 269.476562 L 660.5625 269.476562 L 660.5625 460.476562 L 451.660156 460.476562 Z M 451.660156 269.476562 " fill-opacity="1" fill-rule="nonzero"/></g></g><g clip-path="url(#ac9df340b0)"><g clip-path="url(#d58f0e267d)"><path fill="#231f20" d="M 451.660156 269.476562 L 660.5625 269.476562 L 660.5625 460.476562 L 451.660156 460.476562 Z M 451.660156 269.476562 " fill-opacity="1" fill-rule="nonzero"/></g></g><g clip-path="url(#97c834d852)"><g clip-path="url(#8c4dd7911a)"><path fill="#e6e7e8" d="M 691.160156 280.835938 L 933.695312 280.835938 L 933.695312 460.28125 L 691.160156 460.28125 Z M 691.160156 280.835938 " fill-opacity="1" fill-rule="nonzero"/></g></g><g clip-path="url(#bf757ed8ad)"><g clip-path="url(#c793ad3cd5)"><path fill="#231f20" d="M 691.160156 280.835938 L 933.695312 280.835938 L 933.695312 460.28125 L 691.160156 460.28125 Z M 691.160156 280.835938 " fill-opacity="1" fill-rule="nonzero"/></g></g><g clip-path="url(#a4e6258553)"><g clip-path="url(#2036cf050d)"><path fill="#231f20" d="M 691.160156 280.835938 L 933.695312 280.835938 L 933.695312 460.28125 L 691.160156 460.28125 Z M 691.160156 280.835938 " fill-opacity="1" fill-rule="nonzero"/></g></g><g clip-path="url(#94e304c234)"><g clip-path="url(#f63064d159)"><path fill="#d1d3d4" d="M 691.160156 280.835938 L 933.695312 280.835938 L 933.695312 460.28125 L 691.160156 460.28125 Z M 691.160156 280.835938 " fill-opacity="1" fill-rule="nonzero"/></g></g><g clip-path="url(#0f6161a7c4)"><g clip-path="url(#de48a50f45)"><path fill="#231f20" d="M 691.160156 280.835938 L 933.695312 280.835938 L 933.695312 460.28125 L 691.160156 460.28125 Z M 691.160156 280.835938 " fill-opacity="1" fill-rule="nonzero"/></g></g><g fill="#231f20" fill-opacity="1"><g transform="translate(815.573757, 327.265245)"><g><path d="M 13.359375 -8.828125 C 15.234375 -8.097656 16.773438 -7.925781 17.984375 -8.3125 C 19.191406 -8.695312 20.070312 -9.609375 20.625 -11.046875 C 21 -11.992188 20.984375 -12.859375 20.578125 -13.640625 C 20.179688 -14.421875 19.46875 -15.015625 18.4375 -15.421875 C 17.21875 -15.890625 16.046875 -15.984375 14.921875 -15.703125 C 13.804688 -15.421875 12.863281 -14.785156 12.09375 -13.796875 L 9.4375 -15.046875 C 10.757812 -16.722656 12.28125 -17.757812 14 -18.15625 C 15.726562 -18.550781 17.546875 -18.378906 19.453125 -17.640625 C 21.367188 -16.898438 22.691406 -15.847656 23.421875 -14.484375 C 24.160156 -13.117188 24.21875 -11.617188 23.59375 -9.984375 C 22.988281 -8.421875 22 -7.335938 20.625 -6.734375 C 19.257812 -6.128906 17.644531 -6.054688 15.78125 -6.515625 L 15.734375 -6.46875 C 16.960938 -5.6875 17.796875 -4.75 18.234375 -3.65625 C 18.671875 -2.5625 18.644531 -1.382812 18.15625 -0.125 C 17.664062 1.144531 16.921875 2.15625 15.921875 2.90625 C 14.921875 3.664062 13.726562 4.09375 12.34375 4.1875 C 10.957031 4.28125 9.484375 4.023438 7.921875 3.421875 C 6.617188 2.921875 5.554688 2.25 4.734375 1.40625 C 3.910156 0.570312 3.328125 -0.378906 2.984375 -1.453125 C 2.648438 -2.535156 2.566406 -3.679688 2.734375 -4.890625 L 5.53125 -4.65625 C 5.375 -3.351562 5.601562 -2.164062 6.21875 -1.09375 C 6.84375 -0.03125 7.785156 0.742188 9.046875 1.234375 C 10.484375 1.785156 11.753906 1.835938 12.859375 1.390625 C 13.960938 0.953125 14.765625 0.09375 15.265625 -1.1875 C 15.710938 -2.332031 15.671875 -3.367188 15.140625 -4.296875 C 14.617188 -5.222656 13.695312 -5.941406 12.375 -6.453125 L 10.484375 -7.1875 L 11.875 -9.40625 Z M 13.359375 -8.828125 "/></g></g></g><g fill="#231f20" fill-opacity="1"><g transform="translate(760.329287, 383.149149)"><g><path d="M 1.578125 0.609375 L 2.328125 -1.328125 C 3.304688 -2.328125 4.347656 -3.132812 5.453125 -3.75 C 6.554688 -4.375 7.660156 -4.898438 8.765625 -5.328125 C 9.878906 -5.753906 10.960938 -6.125 12.015625 -6.4375 C 13.078125 -6.75 14.054688 -7.09375 14.953125 -7.46875 C 15.859375 -7.851562 16.644531 -8.316406 17.3125 -8.859375 C 17.988281 -9.398438 18.492188 -10.109375 18.828125 -10.984375 C 19.285156 -12.160156 19.296875 -13.207031 18.859375 -14.125 C 18.421875 -15.039062 17.585938 -15.738281 16.359375 -16.21875 C 15.179688 -16.675781 14.082031 -16.734375 13.0625 -16.390625 C 12.050781 -16.046875 11.265625 -15.328125 10.703125 -14.234375 L 7.984375 -15.578125 C 8.859375 -17.222656 10.117188 -18.3125 11.765625 -18.84375 C 13.421875 -19.382812 15.242188 -19.269531 17.234375 -18.5 C 19.398438 -17.664062 20.867188 -16.507812 21.640625 -15.03125 C 22.410156 -13.550781 22.429688 -11.867188 21.703125 -9.984375 C 21.367188 -9.140625 20.851562 -8.375 20.15625 -7.6875 C 19.457031 -7.007812 18.570312 -6.40625 17.5 -5.875 C 16.425781 -5.34375 14.484375 -4.628906 11.671875 -3.734375 C 10.128906 -3.222656 8.863281 -2.710938 7.875 -2.203125 C 6.882812 -1.691406 6.097656 -1.144531 5.515625 -0.5625 L 16.765625 3.796875 L 15.859375 6.140625 Z M 1.578125 0.609375 "/></g></g></g><g fill="#231f20" fill-opacity="1"><g transform="translate(852.115606, 398.197807)"><g><path d="M 8.59375 -1.78125 C 6.539062 -1.28125 4.738281 -1.585938 3.1875 -2.703125 C 1.632812 -3.828125 0.570312 -5.539062 0 -7.84375 C -0.625 -10.394531 -0.800781 -13.03125 -0.53125 -15.75 C -0.269531 -18.476562 0.460938 -20.707031 1.671875 -22.4375 C 2.890625 -24.164062 4.5 -25.273438 6.5 -25.765625 C 8.09375 -26.160156 9.492188 -26.109375 10.703125 -25.609375 C 11.921875 -25.109375 12.894531 -24.175781 13.625 -22.8125 L 11.125 -21.59375 C 10.644531 -22.375 10.046875 -22.925781 9.328125 -23.25 C 8.609375 -23.582031 7.816406 -23.640625 6.953125 -23.421875 C 5.210938 -22.992188 3.921875 -21.851562 3.078125 -20 C 2.242188 -18.144531 1.894531 -15.738281 2.03125 -12.78125 C 2.4375 -13.882812 3.0625 -14.804688 3.90625 -15.546875 C 4.757812 -16.296875 5.785156 -16.820312 6.984375 -17.125 C 8.804688 -17.570312 10.421875 -17.375 11.828125 -16.53125 C 13.234375 -15.695312 14.15625 -14.390625 14.59375 -12.609375 C 14.988281 -10.984375 15 -9.398438 14.625 -7.859375 C 14.257812 -6.328125 13.546875 -5.023438 12.484375 -3.953125 C 11.421875 -2.890625 10.125 -2.164062 8.59375 -1.78125 Z M 2.921875 -7.828125 C 3.265625 -6.441406 3.90625 -5.398438 4.84375 -4.703125 C 5.789062 -4.003906 6.875 -3.800781 8.09375 -4.09375 C 9.5625 -4.457031 10.632812 -5.359375 11.3125 -6.796875 C 12 -8.234375 12.117188 -9.863281 11.671875 -11.6875 C 11.367188 -12.914062 10.8125 -13.8125 10 -14.375 C 9.1875 -14.9375 8.191406 -15.066406 7.015625 -14.765625 C 6.023438 -14.523438 5.164062 -14.078125 4.4375 -13.421875 C 3.707031 -12.773438 3.195312 -11.972656 2.90625 -11.015625 C 2.625 -10.066406 2.628906 -9.003906 2.921875 -7.828125 Z M 2.921875 -7.828125 "/></g></g></g><g fill="#231f20" fill-opacity="1"><g transform="translate(545.574498, 323.706619)"><g><path d="M -0.203125 0.015625 L 0.015625 -2.078125 C 0.515625 -3.148438 1.097656 -4.113281 1.765625 -4.96875 C 2.429688 -5.832031 3.140625 -6.628906 3.890625 -7.359375 C 4.640625 -8.085938 5.40625 -8.753906 6.1875 -9.359375 C 6.96875 -9.960938 7.726562 -10.550781 8.46875 -11.125 C 9.207031 -11.695312 9.894531 -12.257812 10.53125 -12.8125 C 11.164062 -13.363281 11.710938 -13.941406 12.171875 -14.546875 C 12.628906 -15.148438 12.972656 -15.796875 13.203125 -16.484375 C 13.441406 -17.171875 13.519531 -17.921875 13.4375 -18.734375 C 13.34375 -19.804688 12.925781 -20.640625 12.1875 -21.234375 C 11.457031 -21.828125 10.515625 -22.070312 9.359375 -21.96875 C 8.160156 -21.851562 7.148438 -21.429688 6.328125 -20.703125 C 5.503906 -19.984375 4.945312 -18.957031 4.65625 -17.625 L 1.84375 -17.96875 C 2.25 -19.882812 3.082031 -21.390625 4.34375 -22.484375 C 5.613281 -23.585938 7.265625 -24.234375 9.296875 -24.421875 C 11.273438 -24.597656 12.929688 -24.207031 14.265625 -23.25 C 15.609375 -22.300781 16.359375 -20.972656 16.515625 -19.265625 C 16.617188 -18.117188 16.441406 -16.988281 15.984375 -15.875 C 15.535156 -14.769531 14.796875 -13.679688 13.765625 -12.609375 C 12.734375 -11.535156 11.15625 -10.191406 9.03125 -8.578125 C 7.53125 -7.410156 6.320312 -6.367188 5.40625 -5.453125 C 4.5 -4.535156 3.828125 -3.660156 3.390625 -2.828125 L 15.28125 -3.921875 L 15.03125 -1.375 Z M -0.203125 0.015625 "/></g></g></g><g fill="#231f20" fill-opacity="1"><g transform="translate(515.098652, 401.830599)"><g><path d="M 2.546875 -0.234375 L 2.3125 -2.734375 L 8.1875 -3.265625 L 6.578125 -20.984375 L 1.703125 -16.8125 L 1.453125 -19.578125 L 6.5625 -23.828125 L 9.265625 -24.0625 L 11.140625 -3.53125 L 16.734375 -4.046875 L 16.96875 -1.546875 Z M 2.546875 -0.234375 "/></g></g></g><g fill="#231f20" fill-opacity="1"><g transform="translate(606.385709, 377.368953)"><g><path d="M 7.234375 -12.96875 L 9.8125 -8.296875 L 7.5625 -6.390625 L 4.96875 -11.046875 L -3.203125 -4.140625 L -4.359375 -6.171875 L -4.171875 -26.75 L -1.6875 -28.859375 L 6.0625 -15.046875 L 8.40625 -17.03125 L 9.578125 -14.953125 Z M -1.90625 -23.25 L -2.046875 -8.1875 L 3.8125 -13.140625 Z M -1.90625 -23.25 "/></g></g></g></svg>