<svg xmlns="http://www.w3.org/2000/svg" xmlns:xlink="http://www.w3.org/1999/xlink" width="794" zoomAndPan="magnify" viewBox="0 0 1440 809.999993" height="1123" preserveAspectRatio="xMidYMid meet" version="1.0"><defs><g/><clipPath id="28afd37d01"><path d="M 517.46875 102.222656 L 519.628906 102.222656 L 519.628906 369.925781 L 517.46875 369.925781 Z M 517.46875 102.222656 " clip-rule="nonzero"/></clipPath><clipPath id="02cbb5b962"><path d="M 515 92.414062 L 522 92.414062 L 522 105 L 515 105 Z M 515 92.414062 " clip-rule="nonzero"/></clipPath><clipPath id="dde020c622"><path d="M 521.546875 104.359375 L 518.402344 92.648438 L 515.257812 104.359375 Z M 521.546875 104.359375 " clip-rule="nonzero"/></clipPath><clipPath id="ba473884d2"><path d="M 466.226562 316.117188 L 962.441406 316.117188 L 962.441406 318.277344 L 466.226562 318.277344 Z M 466.226562 316.117188 " clip-rule="nonzero"/></clipPath><clipPath id="4ad263dc0f"><path d="M 960 313.667969 L 972 313.667969 L 972 320.730469 L 960 320.730469 Z M 960 313.667969 " clip-rule="nonzero"/></clipPath><clipPath id="61ecebc84c"><path d="M 960.28125 320.199219 L 971.992188 317.054688 L 960.28125 313.910156 Z M 960.28125 320.199219 " clip-rule="nonzero"/></clipPath><clipPath id="f838cce62e"><path d="M 517.777344 229 L 563.675781 229 L 563.675781 317.199219 L 517.777344 317.199219 Z M 517.777344 229 " clip-rule="nonzero"/></clipPath><clipPath id="7d0a332122"><path d="M 519.074219 229.378906 L 563.574219 316.597656 L 562.492188 317.148438 L 517.996094 229.929688 Z M 519.074219 229.378906 " clip-rule="nonzero"/></clipPath><clipPath id="b88a846576"><path d="M 518.234375 143.214844 L 907.191406 143.214844 L 907.191406 144.417969 L 518.234375 144.417969 Z M 518.234375 143.214844 " clip-rule="nonzero"/></clipPath><clipPath id="cf75920f23"><path d="M 562.496094 143.019531 L 908 143.019531 L 908 318 L 562.496094 318 Z M 562.496094 143.019531 " clip-rule="nonzero"/></clipPath><clipPath id="afc3668539"><path d="M 907.453125 144.34375 L 563.308594 317.414062 L 562.78125 316.332031 L 906.925781 143.265625 Z M 907.453125 144.34375 " clip-rule="nonzero"/></clipPath><clipPath id="77b00ac7c2"><path d="M 518 143.019531 L 523 143.019531 L 523 145.375 L 518 145.375 Z M 518 143.019531 " clip-rule="nonzero"/></clipPath><clipPath id="c5534a6174"><path d="M 519.148438 143.214844 L 522.652344 144.082031 L 522.363281 145.257812 L 518.859375 144.390625 Z M 519.148438 143.214844 " clip-rule="nonzero"/></clipPath><clipPath id="5463f19457"><path d="M 529 145.375 L 767 145.375 L 767 206 L 529 206 Z M 529 145.375 " clip-rule="nonzero"/></clipPath><clipPath id="06530814b6"><path d="M 544.15625 149.433594 L 551.332031 151.207031 L 551.042969 152.382812 L 543.867188 150.609375 Z M 558.507812 152.984375 L 565.683594 154.761719 L 565.394531 155.9375 L 558.21875 154.160156 Z M 572.859375 156.535156 L 580.035156 158.3125 L 579.75 159.488281 L 572.574219 157.710938 Z M 587.214844 160.089844 L 594.390625 161.863281 L 594.101562 163.039062 L 586.925781 161.265625 Z M 601.566406 163.640625 L 608.742188 165.417969 L 608.453125 166.59375 L 601.277344 164.816406 Z M 615.917969 167.191406 L 623.09375 168.96875 L 622.804688 170.144531 L 615.628906 168.367188 Z M 630.269531 170.746094 L 637.445312 172.519531 L 637.160156 173.695312 L 629.980469 171.921875 Z M 644.621094 174.296875 L 651.800781 176.074219 L 651.511719 177.25 L 644.335938 175.472656 Z M 658.976562 177.847656 L 666.152344 179.625 L 665.863281 180.800781 L 658.6875 179.023438 Z M 673.328125 181.402344 L 680.503906 183.175781 L 680.214844 184.351562 L 673.039062 182.578125 Z M 687.679688 184.953125 L 694.855469 186.730469 L 694.566406 187.90625 L 687.390625 186.128906 Z M 702.03125 188.503906 L 709.207031 190.28125 L 708.921875 191.457031 L 701.746094 189.679688 Z M 716.386719 192.058594 L 723.5625 193.832031 L 723.273438 195.011719 L 716.097656 193.234375 Z M 730.738281 195.609375 L 737.914062 197.386719 L 737.625 198.5625 L 730.449219 196.785156 Z M 745.089844 199.160156 L 752.265625 200.9375 L 751.976562 202.113281 L 744.800781 200.339844 Z M 759.441406 202.714844 L 766.617188 204.488281 L 766.332031 205.667969 L 759.035156 204.011719 Z M 529.804688 145.878906 L 536.980469 147.65625 L 536.691406 148.832031 L 529.515625 147.054688 Z M 529.804688 145.878906 " clip-rule="nonzero"/></clipPath><clipPath id="df87b03829"><path d="M 773.160156 206 L 777.867188 206 L 777.867188 208.925781 L 773.160156 208.925781 Z M 773.160156 206 " clip-rule="nonzero"/></clipPath><clipPath id="8d99fba976"><path d="M 773.652344 206.410156 L 777.15625 207.273438 L 776.867188 208.449219 L 773.363281 207.585938 Z M 773.652344 206.410156 " clip-rule="nonzero"/></clipPath><clipPath id="4a78f1c8d8"><path d="M 572 288 L 582.503906 288 L 582.503906 307.785156 L 572 307.785156 Z M 572 288 " clip-rule="nonzero"/></clipPath><clipPath id="f42b059c94"><path d="M 581.070312 307.261719 L 572.042969 289.308594 L 573.125 288.78125 L 582.148438 306.734375 Z M 581.070312 307.261719 " clip-rule="nonzero"/></clipPath><clipPath id="f6def34f51"><path d="M 552 288 L 573 288 L 573 299.546875 L 552 299.546875 Z M 552 288 " clip-rule="nonzero"/></clipPath><clipPath id="df067ae548"><path d="M 552.386719 298.429688 L 572.332031 288.46875 L 572.859375 289.546875 L 552.914062 299.507812 Z M 552.386719 298.429688 " clip-rule="nonzero"/></clipPath><clipPath id="5b393f7021"><path d="M 515.421875 140 L 522.484375 140 L 522.484375 147.726562 L 515.421875 147.726562 Z M 515.421875 140 " clip-rule="nonzero"/></clipPath><clipPath id="e3a6eeea85"><path d="M 522.410156 143.816406 C 522.410156 145.6875 520.875 147.222656 519.003906 147.222656 C 517.132812 147.222656 515.59375 145.710938 515.59375 143.816406 C 515.59375 141.921875 517.132812 140.40625 519.003906 140.40625 C 520.875 140.40625 522.410156 141.921875 522.410156 143.816406 " clip-rule="nonzero"/></clipPath><clipPath id="09e7e9ad87"><path d="M 773.160156 204.21875 L 781 204.21875 L 781 211.28125 L 773.160156 211.28125 Z M 773.160156 204.21875 " clip-rule="nonzero"/></clipPath><clipPath id="8f7bee64bc"><path d="M 780.394531 207.851562 C 780.394531 209.722656 778.882812 211.257812 776.988281 211.257812 C 775.089844 211.257812 773.578125 209.746094 773.578125 207.851562 C 773.578125 205.953125 775.089844 204.441406 776.988281 204.441406 C 778.882812 204.441406 780.394531 205.953125 780.394531 207.851562 " clip-rule="nonzero"/></clipPath><clipPath id="c977da7b17"><path d="M 903 140 L 910.855469 140 L 910.855469 147.726562 L 903 147.726562 Z M 903 140 " clip-rule="nonzero"/></clipPath><clipPath id="93e64c5b25"><path d="M 910.597656 143.816406 C 910.597656 145.6875 909.085938 147.222656 907.191406 147.222656 C 905.292969 147.222656 903.78125 145.710938 903.78125 143.816406 C 903.78125 141.921875 905.292969 140.40625 907.191406 140.40625 C 909.085938 140.40625 910.597656 141.921875 910.597656 143.816406 " clip-rule="nonzero"/></clipPath><clipPath id="1376e842cd"><path d="M 559 313 L 567 313 L 567 320.730469 L 559 320.730469 Z M 559 313 " clip-rule="nonzero"/></clipPath><clipPath id="f76d1f57e5"><path d="M 566.453125 316.886719 C 566.453125 318.757812 564.917969 320.292969 563.042969 320.292969 C 561.171875 320.292969 559.636719 318.78125 559.636719 316.886719 C 559.636719 314.988281 561.171875 313.476562 563.042969 313.476562 C 564.917969 313.476562 566.453125 314.988281 566.453125 316.886719 " clip-rule="nonzero"/></clipPath><clipPath id="b051e19c6e"><path d="M 515 226 L 522 226 L 522 233.640625 L 515 233.640625 Z M 515 226 " clip-rule="nonzero"/></clipPath><clipPath id="a42e52c6bf"><path d="M 521.929688 229.667969 C 521.929688 231.539062 520.394531 233.074219 518.523438 233.074219 C 516.652344 233.074219 515.113281 231.5625 515.113281 229.667969 C 515.113281 227.769531 516.652344 226.257812 518.523438 226.257812 C 520.394531 226.257812 521.929688 227.769531 521.929688 229.667969 " clip-rule="nonzero"/></clipPath></defs><g clip-path="url(#28afd37d01)"><path fill="#231f20" d="M 454.226562 80.644531 L 983.820312 80.644531 L 983.820312 381.925781 L 454.226562 381.925781 Z M 454.226562 80.644531 " fill-opacity="1" fill-rule="nonzero"/></g><g clip-path="url(#02cbb5b962)"><g clip-path="url(#dde020c622)"><path fill="#231f20" d="M 454.226562 80.644531 L 983.820312 80.644531 L 983.820312 381.925781 L 454.226562 381.925781 Z M 454.226562 80.644531 " fill-opacity="1" fill-rule="nonzero"/></g></g><g clip-path="url(#ba473884d2)"><path fill="#231f20" d="M 454.226562 80.644531 L 983.820312 80.644531 L 983.820312 381.925781 L 454.226562 381.925781 Z M 454.226562 80.644531 " fill-opacity="1" fill-rule="nonzero"/></g><g clip-path="url(#4ad263dc0f)"><g clip-path="url(#61ecebc84c)"><path fill="#231f20" d="M 454.226562 80.644531 L 983.820312 80.644531 L 983.820312 381.925781 L 454.226562 381.925781 Z M 454.226562 80.644531 " fill-opacity="1" fill-rule="nonzero"/></g></g><g clip-path="url(#f838cce62e)"><g clip-path="url(#7d0a332122)"><path fill="#231f20" d="M 454.226562 80.644531 L 983.820312 80.644531 L 983.820312 381.925781 L 454.226562 381.925781 Z M 454.226562 80.644531 " fill-opacity="1" fill-rule="nonzero"/></g></g><g clip-path="url(#b88a846576)"><path fill="#231f20" d="M 454.226562 80.644531 L 983.820312 80.644531 L 983.820312 381.925781 L 454.226562 381.925781 Z M 454.226562 80.644531 " fill-opacity="1" fill-rule="nonzero"/></g><g clip-path="url(#cf75920f23)"><g clip-path="url(#afc3668539)"><path fill="#231f20" d="M 454.226562 80.644531 L 983.820312 80.644531 L 983.820312 381.925781 L 454.226562 381.925781 Z M 454.226562 80.644531 " fill-opacity="1" fill-rule="nonzero"/></g></g><g clip-path="url(#77b00ac7c2)"><g clip-path="url(#c5534a6174)"><path fill="#231f20" d="M 454.226562 80.644531 L 983.820312 80.644531 L 983.820312 381.925781 L 454.226562 381.925781 Z M 454.226562 80.644531 " fill-opacity="1" fill-rule="nonzero"/></g></g><g clip-path="url(#5463f19457)"><g clip-path="url(#06530814b6)"><path fill="#231f20" d="M 454.226562 80.644531 L 983.820312 80.644531 L 983.820312 381.925781 L 454.226562 381.925781 Z M 454.226562 80.644531 " fill-opacity="1" fill-rule="nonzero"/></g></g><g clip-path="url(#df87b03829)"><g clip-path="url(#8d99fba976)"><path fill="#231f20" d="M 454.226562 80.644531 L 983.820312 80.644531 L 983.820312 381.925781 L 454.226562 381.925781 Z M 454.226562 80.644531 " fill-opacity="1" fill-rule="nonzero"/></g></g><g clip-path="url(#4a78f1c8d8)"><g clip-path="url(#f42b059c94)"><path fill="#231f20" d="M 454.226562 80.644531 L 983.820312 80.644531 L 983.820312 381.925781 L 454.226562 381.925781 Z M 454.226562 80.644531 " fill-opacity="1" fill-rule="nonzero"/></g></g><g clip-path="url(#f6def34f51)"><g clip-path="url(#df067ae548)"><path fill="#231f20" d="M 454.226562 80.644531 L 983.820312 80.644531 L 983.820312 381.925781 L 454.226562 381.925781 Z M 454.226562 80.644531 " fill-opacity="1" fill-rule="nonzero"/></g></g><g clip-path="url(#5b393f7021)"><g clip-path="url(#e3a6eeea85)"><path fill="#231f20" d="M 454.226562 80.644531 L 983.820312 80.644531 L 983.820312 381.925781 L 454.226562 381.925781 Z M 454.226562 80.644531 " fill-opacity="1" fill-rule="nonzero"/></g></g><g clip-path="url(#09e7e9ad87)"><g clip-path="url(#8f7bee64bc)"><path fill="#231f20" d="M 454.226562 80.644531 L 983.820312 80.644531 L 983.820312 381.925781 L 454.226562 381.925781 Z M 454.226562 80.644531 " fill-opacity="1" fill-rule="nonzero"/></g></g><g clip-path="url(#c977da7b17)"><g clip-path="url(#93e64c5b25)"><path fill="#231f20" d="M 454.226562 80.644531 L 983.820312 80.644531 L 983.820312 381.925781 L 454.226562 381.925781 Z M 454.226562 80.644531 " fill-opacity="1" fill-rule="nonzero"/></g></g><g clip-path="url(#1376e842cd)"><g clip-path="url(#f76d1f57e5)"><path fill="#231f20" d="M 454.226562 80.644531 L 983.820312 80.644531 L 983.820312 381.925781 L 454.226562 381.925781 Z M 454.226562 80.644531 " fill-opacity="1" fill-rule="nonzero"/></g></g><g clip-path="url(#b051e19c6e)"><g clip-path="url(#a42e52c6bf)"><path fill="#231f20" d="M 454.226562 80.644531 L 983.820312 80.644531 L 983.820312 381.925781 L 454.226562 381.925781 Z M 454.226562 80.644531 " fill-opacity="1" fill-rule="nonzero"/></g></g><g fill="#231f20" fill-opacity="1"><g transform="translate(494.517461, 236.071098)"><g><path d="M 17.65625 -9.609375 C 17.65625 -6.421875 16.785156 -4.019531 15.046875 -2.40625 C 13.316406 -0.800781 10.90625 0 7.8125 0 L 2.5625 0 L 2.5625 -18.84375 L 8.359375 -18.84375 C 10.242188 -18.84375 11.882812 -18.488281 13.28125 -17.78125 C 14.6875 -17.082031 15.765625 -16.046875 16.515625 -14.671875 C 17.273438 -13.296875 17.65625 -11.609375 17.65625 -9.609375 Z M 15.140625 -9.53125 C 15.140625 -12.039062 14.519531 -13.878906 13.28125 -15.046875 C 12.039062 -16.222656 10.285156 -16.8125 8.015625 -16.8125 L 4.9375 -16.8125 L 4.9375 -2.03125 L 7.5 -2.03125 C 12.59375 -2.03125 15.140625 -4.53125 15.140625 -9.53125 Z M 15.140625 -9.53125 "/></g></g></g><g fill="#231f20" fill-opacity="1"><g transform="translate(501.019896, 102.280828)"><g><path d="M 0.03125 -14.140625 L 2.5 -14.140625 L 5.5625 -6.09375 C 5.832031 -5.375 6.070312 -4.695312 6.28125 -4.0625 C 6.488281 -3.425781 6.644531 -2.820312 6.75 -2.25 L 6.859375 -2.25 C 6.960938 -2.6875 7.128906 -3.257812 7.359375 -3.96875 C 7.585938 -4.6875 7.828125 -5.40625 8.078125 -6.125 L 10.953125 -14.140625 L 13.453125 -14.140625 L 7.359375 1.953125 C 6.847656 3.285156 6.207031 4.347656 5.4375 5.140625 C 4.664062 5.929688 3.59375 6.328125 2.21875 6.328125 C 1.789062 6.328125 1.421875 6.304688 1.109375 6.265625 C 0.796875 6.222656 0.523438 6.175781 0.296875 6.125 L 0.296875 4.28125 C 0.484375 4.3125 0.710938 4.34375 0.984375 4.375 C 1.265625 4.414062 1.550781 4.4375 1.84375 4.4375 C 2.65625 4.4375 3.304688 4.207031 3.796875 3.75 C 4.296875 3.289062 4.691406 2.679688 4.984375 1.921875 L 5.734375 0.046875 Z M 0.03125 -14.140625 "/></g></g></g><g fill="#231f20" fill-opacity="1"><g transform="translate(499.810483, 147.282239)"><g><path d="M 13.09375 0 L 2.5625 0 L 2.5625 -18.84375 L 13.09375 -18.84375 L 13.09375 -16.765625 L 4.9375 -16.765625 L 4.9375 -10.875 L 12.609375 -10.875 L 12.609375 -8.8125 L 4.9375 -8.8125 L 4.9375 -2.078125 L 13.09375 -2.078125 Z M 13.09375 0 "/></g></g></g><g fill="#231f20" fill-opacity="1"><g transform="translate(554.228954, 342.121563)"><g><path d="M 14.390625 0 L 12.109375 -5.828125 L 4.640625 -5.828125 L 2.40625 0 L 0 0 L 7.359375 -18.921875 L 9.5 -18.921875 L 16.84375 0 Z M 11.40625 -7.9375 L 9.296875 -13.640625 C 9.234375 -13.785156 9.140625 -14.039062 9.015625 -14.40625 C 8.898438 -14.78125 8.785156 -15.164062 8.671875 -15.5625 C 8.554688 -15.957031 8.460938 -16.257812 8.390625 -16.46875 C 8.253906 -15.925781 8.109375 -15.394531 7.953125 -14.875 C 7.804688 -14.351562 7.679688 -13.941406 7.578125 -13.640625 L 5.4375 -7.9375 Z M 11.40625 -7.9375 "/></g></g></g><g fill="#231f20" fill-opacity="1"><g transform="translate(912.733544, 150.21579)"><g><path d="M 2.5625 -18.84375 L 7.9375 -18.84375 C 10.28125 -18.84375 12.054688 -18.488281 13.265625 -17.78125 C 14.484375 -17.082031 15.09375 -15.878906 15.09375 -14.171875 C 15.09375 -13.066406 14.785156 -12.144531 14.171875 -11.40625 C 13.554688 -10.675781 12.664062 -10.207031 11.5 -10 L 11.5 -9.875 C 12.289062 -9.726562 13.007812 -9.488281 13.65625 -9.15625 C 14.300781 -8.820312 14.804688 -8.347656 15.171875 -7.734375 C 15.546875 -7.117188 15.734375 -6.328125 15.734375 -5.359375 C 15.734375 -3.648438 15.144531 -2.328125 13.96875 -1.390625 C 12.800781 -0.460938 11.207031 0 9.1875 0 L 2.5625 0 Z M 4.9375 -10.8125 L 8.421875 -10.8125 C 10.015625 -10.8125 11.113281 -11.070312 11.71875 -11.59375 C 12.332031 -12.113281 12.640625 -12.882812 12.640625 -13.90625 C 12.640625 -14.945312 12.273438 -15.691406 11.546875 -16.140625 C 10.816406 -16.585938 9.648438 -16.8125 8.046875 -16.8125 L 4.9375 -16.8125 Z M 4.9375 -8.84375 L 4.9375 -2 L 8.734375 -2 C 10.410156 -2 11.570312 -2.320312 12.21875 -2.96875 C 12.863281 -3.625 13.1875 -4.484375 13.1875 -5.546875 C 13.1875 -6.523438 12.847656 -7.316406 12.171875 -7.921875 C 11.492188 -8.535156 10.285156 -8.84375 8.546875 -8.84375 Z M 4.9375 -8.84375 "/></g></g></g><g fill="#231f20" fill-opacity="1"><g transform="translate(958.795206, 336.364844)"><g><path d="M 5.59375 -7.234375 L 0.71875 -14.140625 L 3.359375 -14.140625 L 7 -8.8125 L 10.609375 -14.140625 L 13.21875 -14.140625 L 8.34375 -7.234375 L 13.484375 0 L 10.84375 0 L 7 -5.640625 L 3.09375 0 L 0.46875 0 Z M 5.59375 -7.234375 "/></g></g></g><g fill="#231f20" fill-opacity="1"><g transform="translate(780.173823, 232.513756)"><g><path d="M 5.390625 0 L 2.796875 0 L 2.796875 -20.5625 L 14.28125 -20.5625 L 14.28125 -18.28125 L 5.390625 -18.28125 L 5.390625 -11 L 13.734375 -11 L 13.734375 -8.71875 L 5.390625 -8.71875 Z M 5.390625 0 "/></g></g></g></svg>